<svg width="945" height="797" viewBox="0 0 945 797" fill="none" xmlns="http://www.w3.org/2000/svg">
<g filter="url(#filter0_n_387_196)">
<rect y="0.00195312" width="945" height="797" fill="#EDE8E8"/>
</g>
<path d="M283.444 597H263.476C262.068 588.552 259.892 585.736 256.564 577.928H224.436C221.108 585.48 219.316 588.936 217.396 597H199.732C202.164 594.568 203.956 591.368 208.692 580.744L241.332 507.784L274.74 581.896C279.732 593.032 280.756 594.952 283.444 597ZM251.444 565.768L240.82 541.192L229.94 565.768H251.444ZM345.643 597H332.459C331.819 595.72 331.691 594.312 331.563 593.032C327.979 597.512 320.939 598.664 315.179 598.664C296.619 598.664 285.611 587.016 285.611 569.096C285.611 552.968 294.443 536.712 315.947 536.712C321.323 536.712 326.059 537.736 330.027 540.552V525.704C330.027 519.304 329.771 505.352 328.235 503.56H345.515C344.107 507.144 343.979 513.032 343.979 525.32V570.248C343.979 588.68 343.979 595.592 345.643 597ZM330.027 581.64V563.976C330.027 553.352 328.363 548.104 317.483 548.104C304.555 548.104 300.331 555.4 300.331 566.92C300.331 580.36 306.091 586.888 316.587 586.888C321.707 586.888 326.315 585.352 330.027 581.64ZM385.14 600.968L360.052 551.944C356.852 545.8 353.908 540.04 350.836 537.992H368.5C368.5 539.144 369.396 541.96 371.316 545.672L386.42 574.984L402.932 543.624C404.212 541.32 404.212 539.144 404.212 537.992H420.34C417.652 539.912 416.244 542.088 414.196 545.928L385.14 600.968ZM443.204 521.864C443.204 526.216 439.364 529.8 434.756 529.8C430.148 529.8 426.308 526.216 426.308 521.864C426.308 517.512 430.148 513.928 434.756 513.928C439.364 513.928 443.204 517.512 443.204 521.864ZM443.588 597H425.924C427.716 595.208 427.716 581.256 427.716 573.832V561.16C427.716 553.736 427.716 539.784 425.924 537.992H443.588C441.796 539.784 441.796 553.736 441.796 561.16V573.832C441.796 581.256 441.796 595.208 443.588 597ZM457.272 595.592V581.896C459.832 587.272 466.616 588.808 471.352 588.808C478.136 588.808 481.336 585.736 481.336 581.64C481.336 570.76 457.656 572.936 457.656 553.736C457.656 543.368 464.568 536.584 476.6 536.584C480.952 536.584 487.352 537.48 491.192 539.144V550.92C487.608 547.592 483.768 546.056 479.416 546.056C473.4 546.056 470.072 549 470.072 552.84C470.072 563.08 494.136 562.568 494.136 581C494.136 590.088 488.248 598.92 474.424 598.92C469.176 598.92 461.496 597.64 457.272 595.592ZM534.703 599.176C515.503 599.176 503.855 583.944 503.855 567.688C503.855 551.944 514.863 536.072 534.447 536.072C551.983 536.072 565.935 548.744 565.935 567.304C565.935 584.84 553.391 599.176 534.703 599.176ZM535.343 588.04C547.759 588.04 551.727 577.16 551.727 567.944C551.727 556.808 545.839 547.336 534.191 547.336C522.287 547.336 517.807 557.064 517.807 566.92C517.807 577.928 523.311 588.04 535.343 588.04ZM595.079 597H577.543C579.463 594.568 579.591 583.688 579.591 578.568L579.463 553.992C579.463 547.976 579.079 539.656 578.055 537.992H591.751C592.519 539.016 593.031 541.064 593.287 542.6C596.231 538.76 599.943 536.2 606.087 536.2C608.391 536.2 610.439 536.584 612.615 537.352L612.487 551.048C610.183 549.384 607.495 548.488 604.935 548.488C601.991 548.488 598.535 549.64 596.487 551.688C594.695 553.608 593.543 556.04 593.543 566.536V577.544C593.543 585.224 593.543 596.232 595.079 597ZM621.522 595.592V581.896C624.082 587.272 630.866 588.808 635.602 588.808C642.386 588.808 645.586 585.736 645.586 581.64C645.586 570.76 621.906 572.936 621.906 553.736C621.906 543.368 628.818 536.584 640.85 536.584C645.202 536.584 651.602 537.48 655.442 539.144V550.92C651.858 547.592 648.018 546.056 643.666 546.056C637.65 546.056 634.322 549 634.322 552.84C634.322 563.08 658.386 562.568 658.386 581C658.386 590.088 652.498 598.92 638.674 598.92C633.426 598.92 625.746 597.64 621.522 595.592ZM787.371 597H762.923C762.923 595.08 759.339 591.368 756.139 588.168C748.075 595.208 742.059 598.92 731.179 598.92C716.843 598.92 701.355 592.392 701.355 574.984C701.355 564.616 706.859 556.168 718.891 548.872C714.155 543.496 710.955 539.016 710.955 531.208C710.955 517 721.323 510.728 733.867 510.728C747.307 510.728 754.219 517.896 754.219 529.16C754.219 539.4 748.587 545.544 738.475 551.56C743.979 557.832 749.995 563.464 755.883 569.224C757.291 566.024 758.059 561.288 758.059 556.552C758.059 554.632 757.931 552.328 757.547 550.408H773.163C771.883 555.016 771.371 558.344 770.731 561.8C769.323 569.352 768.299 571.912 764.587 577.928C771.627 584.712 775.083 590.088 787.371 597ZM731.179 541.832C735.403 539.272 740.267 535.176 740.267 529.288C740.267 524.552 737.195 522.12 732.843 522.12C727.595 522.12 725.419 525.832 725.419 530.056C725.419 534.536 727.851 538.248 731.179 541.832ZM747.947 579.976C740.395 572.68 733.867 566.536 726.827 558.6C720.811 562.44 716.331 567.048 716.331 573.96C716.331 582.024 722.475 587.528 730.923 587.528C737.195 587.528 743.467 584.584 747.947 579.976ZM272.75 725H253.422C255.214 723.208 255.214 709.256 255.214 701.832V663.176C255.214 655.752 255.214 641.8 253.422 640.008H272.75C270.958 641.8 270.958 655.752 270.958 663.176V701.832C270.958 709.256 270.958 723.208 272.75 725ZM345.441 725H328.033C329.441 723.08 329.569 714.76 329.569 705.032V687.112C329.569 679.304 327.009 675.336 318.817 675.336C309.345 675.336 304.609 680.584 304.609 686.216V705.16C304.609 708.232 304.609 723.336 306.273 725H288.609C290.273 723.08 290.529 715.144 290.529 710.92V681.992C290.529 676.616 290.529 671.368 289.249 665.992H302.689C303.457 667.144 303.713 668.424 303.969 669.832C309.345 665.352 314.977 664.328 320.609 664.328C330.209 664.328 342.241 667.272 343.521 679.944C343.777 682.888 343.777 686.088 343.777 689.032V706.056C343.777 713.352 344.161 724.488 345.441 725ZM383.578 728.968L358.49 679.944C355.29 673.8 352.346 668.04 349.273 665.992H366.938C366.938 667.144 367.833 669.96 369.753 673.672L384.858 702.984L401.37 671.624C402.65 669.32 402.65 667.144 402.65 665.992H418.778C416.09 667.912 414.682 670.088 412.634 673.928L383.578 728.968ZM434.382 687.88H465.614C464.334 679.944 458.19 675.976 450.254 675.976C441.422 675.976 435.662 680.84 434.382 687.88ZM474.574 707.848L474.19 722.696C467.79 726.152 461.646 726.92 455.758 726.92C443.342 726.92 432.206 723.592 425.422 713.096C421.966 707.72 419.918 701.064 419.918 694.408C419.918 678.024 432.333 664.328 451.278 664.328C470.478 664.328 480.206 678.28 480.206 693.768C480.206 695.176 480.206 698.504 480.077 699.4H434.253C435.15 709 446.286 715.656 456.27 715.656C462.158 715.656 471.374 713.352 474.574 707.848ZM490.21 723.592V709.896C492.77 715.272 499.554 716.808 504.29 716.808C511.074 716.808 514.274 713.736 514.274 709.64C514.274 698.76 490.594 700.936 490.594 681.736C490.594 671.368 497.506 664.584 509.538 664.584C513.89 664.584 520.29 665.48 524.13 667.144V678.92C520.546 675.592 516.706 674.056 512.354 674.056C506.338 674.056 503.01 677 503.01 680.84C503.01 691.08 527.074 690.568 527.074 709C527.074 718.088 521.186 726.92 507.362 726.92C502.114 726.92 494.434 725.64 490.21 723.592ZM573.529 712.968V724.744C570.201 726.024 566.361 726.92 561.369 726.92C547.929 726.92 543.833 720.264 543.833 707.976C543.833 705.8 543.961 694.408 543.961 691.592V676.872H540.249C538.713 676.872 537.049 677 536.281 677.512V665.352C536.793 665.992 538.329 665.992 543.961 665.992V658.44C543.961 655.88 543.833 653.96 543.833 653.96L559.065 648.712C558.425 649.48 558.041 654.856 558.041 658.824V665.992H563.033C567.257 665.992 570.969 665.864 571.737 665.224V677.512C570.585 676.872 567.001 676.872 563.161 676.872H558.041V706.696C558.041 714.504 558.553 716.68 565.849 716.68C566.361 716.68 572.249 715.912 573.529 712.968ZM612.641 727.176C593.441 727.176 581.793 711.944 581.793 695.688C581.793 679.944 592.801 664.072 612.385 664.072C629.921 664.072 643.873 676.744 643.873 695.304C643.873 712.84 631.329 727.176 612.641 727.176ZM613.281 716.04C625.697 716.04 629.665 705.16 629.665 695.944C629.665 684.808 623.777 675.336 612.129 675.336C600.225 675.336 595.745 685.064 595.745 694.92C595.745 705.928 601.249 716.04 613.281 716.04ZM673.017 725H655.481C657.401 722.568 657.529 711.688 657.529 706.568L657.401 681.992C657.401 675.976 657.017 667.656 655.993 665.992H669.689C670.457 667.016 670.969 669.064 671.225 670.6C674.169 666.76 677.881 664.2 684.025 664.2C686.329 664.2 688.377 664.584 690.553 665.352L690.425 679.048C688.121 677.384 685.433 676.488 682.873 676.488C679.929 676.488 676.473 677.64 674.425 679.688C672.633 681.608 671.481 684.04 671.481 694.536V705.544C671.481 713.224 671.481 724.232 673.017 725ZM699.46 723.592V709.896C702.02 715.272 708.804 716.808 713.54 716.808C720.324 716.808 723.524 713.736 723.524 709.64C723.524 698.76 699.844 700.936 699.844 681.736C699.844 671.368 706.756 664.584 718.788 664.584C723.14 664.584 729.54 665.48 733.38 667.144V678.92C729.796 675.592 725.956 674.056 721.604 674.056C715.588 674.056 712.26 677 712.26 680.84C712.26 691.08 736.324 690.568 736.324 709C736.324 718.088 730.436 726.92 716.612 726.92C711.364 726.92 703.684 725.64 699.46 723.592Z" fill="black"/>
<path d="M424.729 110.648C410.809 113.824 398.794 123.669 393.024 136.69C389.266 145.158 388.261 157.438 390.59 166.277C394.824 182.156 406.151 193.748 422.242 198.617C426.37 199.888 427.799 200.047 434.574 200.047C441.349 200.047 442.778 199.888 446.907 198.617C462.997 193.801 474.324 182.156 478.559 166.277C480.147 160.243 480.2 150.504 478.612 144.259C474.695 128.433 463.421 116.576 447.542 111.495C442.831 109.96 429.811 109.484 424.729 110.648Z" fill="black"/>
<path d="M422.72 205.975C417.427 206.769 408.641 208.886 408.641 209.415C408.641 209.944 433.835 226.882 434.576 226.882C435.317 226.882 460.512 209.944 460.512 209.468C460.512 208.886 451.937 206.821 446.115 205.975C439.552 205.022 429.177 205.022 422.72 205.975Z" fill="black"/>
<path d="M523.974 207.827C519.105 208.674 516.194 210.791 512.753 216.031C511.8 217.46 510.424 219.048 509.683 219.63L508.307 220.636L502.273 218.678C495.657 216.508 489.147 215.661 487.77 216.825C485.812 218.466 487.506 223.23 492.534 230.322L495.022 233.763H527.785H560.496L563.195 229.74C566.318 225.188 568.488 220.795 568.488 219.101C568.488 218.466 568.065 217.566 567.588 217.09C566.212 215.661 560.39 216.296 553.192 218.678C546.046 221.007 545.728 220.954 542.553 216.031C541.388 214.285 539.8 212.167 539.006 211.426C535.883 208.409 529.373 206.874 523.974 207.827Z" fill="black"/>
<path d="M396.839 214.232L394.828 215.29L402.768 230.746C407.161 239.267 410.972 246.201 411.236 246.201C412.03 246.201 427.645 233.075 427.645 232.439C427.645 231.91 400.597 213.491 399.486 213.279C399.115 213.226 397.951 213.649 396.839 214.232Z" fill="black"/>
<path d="M455.383 222.542C447.761 227.676 441.516 232.122 441.516 232.439C441.516 233.075 457.13 246.201 457.924 246.201C458.241 246.201 462.052 239.267 466.393 230.746L474.332 215.29L472.215 214.179C471.05 213.596 469.886 213.12 469.674 213.173C469.463 213.173 463.005 217.407 455.383 222.542Z" fill="black"/>
<path d="M384.136 222.118C365.24 236.462 353.013 258.587 351.161 281.929C350.843 285.951 350.949 286.587 351.902 287.751L352.961 289.074L386.888 289.233L420.763 289.392L421.134 288.069C421.293 287.38 422.775 281.558 424.416 275.207L427.433 263.668H434.578H441.724L444.741 275.207C446.381 281.558 447.863 287.38 448.022 288.069C448.34 289.339 448.446 289.339 454.638 289.339H460.884L462.366 286.534C466.23 279.282 475.069 267.214 481.58 260.122L484.491 256.999L483.009 254.035C480.309 248.742 481.103 243.078 485.073 238.632C486.132 237.468 486.979 236.356 486.979 236.145C486.979 235.933 486.132 234.61 485.126 233.233C484.12 231.857 482.427 228.893 481.368 226.67L479.41 222.595L477.61 225.929C476.604 227.782 472.793 235.192 469.141 242.39C462.366 255.834 461.202 257.475 458.767 256.84C458.132 256.681 454.903 254.299 451.569 251.494C448.287 248.742 445.429 246.466 445.27 246.466C445.058 246.466 443.788 248.265 442.412 250.436L439.871 254.458L434.472 254.299L429.021 254.141L426.797 250.436C425.527 248.371 424.31 246.678 424.045 246.572C423.78 246.466 420.869 248.689 417.588 251.494C414.306 254.299 411.024 256.681 410.389 256.84C409.701 257.052 408.643 256.84 407.954 256.364C407.161 255.887 403.297 248.901 397.474 237.521C392.446 227.57 388.159 219.472 387.947 219.472C387.788 219.472 386.042 220.689 384.136 222.118Z" fill="black"/>
<path d="M493.596 242.073C491.902 242.496 489.679 244.931 489.309 246.783C488.885 249.165 490.314 252.023 492.537 253.029C494.125 253.823 498.095 253.876 528.53 253.77L562.775 253.611L564.31 251.865C566.11 249.853 566.427 246.466 564.998 244.402C563.093 241.702 563.093 241.702 527.63 241.755C509.475 241.808 494.178 241.914 493.596 242.073Z" fill="black"/>
<path d="M486.287 266.579C473.108 281.611 465.221 295.267 461.463 309.505C459.875 315.539 459.77 329.089 461.199 334.329C463.633 342.904 468.45 350.896 475.331 357.618C481.682 363.864 488.352 367.622 497.667 370.215C500.631 371.009 503.913 371.115 527.996 371.115H554.99L559.648 369.633C568.275 366.934 574.945 362.911 580.926 356.771C599.239 338.087 600.192 313.687 583.678 286.163C580.185 280.394 572.774 270.549 568.17 265.626L564.517 261.762L527.625 261.657L490.68 261.551L486.287 266.579ZM537.576 274.042C551.179 277.43 562.4 288.651 566.211 302.571C567.64 307.917 567.534 318.027 565.894 323.214C561.553 337.24 551.285 347.191 537.206 351.055C532.071 352.484 522.862 352.378 517.463 350.843C510.317 348.779 505.342 345.868 499.943 340.416C494.491 334.964 492.321 331.524 489.992 324.961C488.722 321.255 488.352 319.138 488.14 314.692C487.611 302.465 491.263 292.885 499.626 284.522C509.894 274.307 523.656 270.496 537.576 274.042Z" fill="black"/>
<path d="M522.704 284.575C517.993 285.316 511.483 288.704 507.778 292.462C502.273 297.966 499.68 304.318 499.68 312.363C499.68 324.961 506.878 335.176 518.576 339.146C523.604 340.892 531.808 340.892 536.73 339.146C552.98 333.429 560.337 315.486 552.821 299.66C550.016 293.679 542.976 287.698 536.466 285.687C532.337 284.416 526.833 283.993 522.704 284.575ZM530.22 293.15C530.908 293.785 531.438 294.896 531.438 295.638C531.438 296.696 531.914 297.278 533.343 298.072C535.884 299.448 537.26 301.301 537.26 303.365C537.26 306.7 533.237 308.182 530.749 305.853C528.473 303.683 524.557 304.741 525.351 307.335C525.615 308.182 526.145 308.394 527.891 308.394C532.39 308.394 536.572 311.622 537.736 316.121C538.795 320.091 536.519 324.855 532.655 326.866C531.808 327.289 531.438 327.978 531.438 329.036C531.438 331.153 529.744 332.741 527.574 332.741C525.456 332.741 524.186 331.524 523.71 329.089C523.498 327.978 522.863 327.131 521.91 326.654C521.116 326.231 519.793 325.119 519.052 324.22C517.464 322.367 517.517 320.62 519.105 318.821C520.269 317.603 523.075 317.656 524.292 318.979C525.509 320.356 529.056 320.462 529.797 319.138C530.644 317.55 529.532 316.333 527.15 316.333C524.239 316.333 521.963 315.274 519.952 312.998C515.823 308.288 516.67 301.83 521.751 298.602C522.704 298.019 523.445 297.12 523.498 296.59C523.498 295.32 524.927 292.673 525.721 292.356C527.256 291.721 529.056 292.038 530.22 293.15Z" fill="black"/>
<defs>
<filter id="filter0_n_387_196" x="0" y="0.00195312" width="945" height="797" filterUnits="userSpaceOnUse" color-interpolation-filters="sRGB">
<feFlood flood-opacity="0" result="BackgroundImageFix"/>
<feBlend mode="normal" in="SourceGraphic" in2="BackgroundImageFix" result="shape"/>
<feTurbulence type="fractalNoise" baseFrequency="10 10" stitchTiles="stitch" numOctaves="3" result="noise" seed="1710" />
<feColorMatrix in="noise" type="luminanceToAlpha" result="alphaNoise" />
<feComponentTransfer in="alphaNoise" result="coloredNoise1">
<feFuncA type="discrete" tableValues="0 0 0 0 0 0 0 0 0 0 0 0 0 0 0 0 0 1 1 1 1 1 1 1 1 1 1 1 1 1 1 1 1 0 0 0 0 0 0 0 0 0 0 0 0 0 0 0 0 0 0 0 0 0 0 0 0 0 0 0 0 0 0 0 0 0 0 0 0 0 0 0 0 0 0 0 0 0 0 0 0 0 0 0 0 0 0 0 0 0 0 0 0 0 0 0 0 0 0 0 "/>
</feComponentTransfer>
<feComposite operator="in" in2="shape" in="coloredNoise1" result="noise1Clipped" />
<feFlood flood-color="rgba(0, 0, 0, 0.25)" result="color1Flood" />
<feComposite operator="in" in2="noise1Clipped" in="color1Flood" result="color1" />
<feMerge result="effect1_noise_387_196">
<feMergeNode in="shape" />
<feMergeNode in="color1" />
</feMerge>
</filter>
</defs>
</svg>
