<svg width="230" height="230" viewBox="0 0 230 230" fill="none" xmlns="http://www.w3.org/2000/svg">
<path d="M89.8713 4.62238L88.3083 8.9467L84.1402 10.3013C81.8478 11.0307 78.2529 12.4895 76.221 13.5315C74.137 14.6256 72.053 15.4592 71.532 15.4592C71.011 15.4592 69.0833 14.7298 67.3119 13.8962C65.4883 13.0105 63.7169 12.3332 63.3522 12.3332C62.5707 12.3332 57.3086 17.6474 57.3086 18.481C57.3086 18.8458 58.038 20.6693 58.8716 22.597C59.7573 24.4726 60.4346 26.2961 60.4346 26.6608C60.4346 26.9734 59.4968 29.0574 58.3506 31.2456C57.2044 33.4338 55.9019 36.6119 55.4851 38.2271C54.1305 43.2287 54.1305 43.1766 49.702 44.8959L45.586 46.511L45.4297 50.9916L45.2734 55.4722L49.0768 56.879C51.1608 57.7126 53.1406 58.5462 53.5053 58.8067C53.8179 59.0672 54.5994 60.9428 55.2246 63.0268C55.8498 65.1108 57.2565 68.5494 58.4027 70.6855C59.4968 72.8737 60.4346 74.9056 60.4346 75.2703C60.4346 75.635 59.7573 77.4586 58.8716 79.3863C58.038 81.2619 57.3086 83.0854 57.3086 83.398C57.3086 83.7106 58.6632 85.3257 60.3304 86.9929L63.3522 90.0147L67.4682 88.1391L71.5841 86.2635L76.2731 88.608C78.8781 89.9105 82.4209 91.3172 84.1402 91.8382C85.8596 92.3071 87.5268 92.9323 87.8915 93.1928C88.2041 93.4533 89.1419 95.4332 89.9234 97.5693L91.3301 101.425H95.8628H100.448L101.854 97.6214C102.636 95.5895 103.574 93.6096 103.886 93.297C104.199 92.9323 105.866 92.3071 107.585 91.8382C109.305 91.3172 112.847 89.9105 115.452 88.608L120.194 86.2114L124.466 88.1912L128.738 90.1189L131.864 87.045L134.938 83.919L133.062 79.6468L131.135 75.3745L133.531 70.5813C134.834 67.9242 136.293 64.3293 136.709 62.6621C137.126 60.9949 137.699 59.3798 137.96 59.1193C138.22 58.8588 140.148 57.9731 142.284 57.1395L146.14 55.6806L146.296 51.0437L146.452 46.4589L142.909 45.2085C140.982 44.5312 138.95 43.6455 138.481 43.2287C138.012 42.8119 137.126 40.78 136.501 38.7481C135.876 36.664 134.469 33.2775 133.323 31.1935C132.229 29.0574 131.291 27.0776 131.291 26.765C131.291 26.4003 132.125 24.3684 133.114 22.2323L134.886 18.3248L131.916 15.3029C130.301 13.6878 128.738 12.3332 128.425 12.3332C128.165 12.3332 126.394 13.0626 124.622 13.8962C122.799 14.7819 120.871 15.4592 120.298 15.4592C119.725 15.4592 118.058 14.7819 116.547 13.9483C115.088 13.0626 111.805 11.708 109.305 10.8744C106.804 10.0408 104.407 9.0509 103.99 8.7383C103.574 8.3736 102.584 6.34169 101.802 4.20557L100.396 0.350159H95.9149H91.4343L89.8713 4.62238ZM102.896 21.9718C113.004 24.5768 121.392 32.5481 124.57 42.5514C126.185 47.6051 126.081 54.5344 124.31 60.005C119.152 76.0519 102.011 84.7526 86.3284 79.2821C81.8478 77.7191 76.2731 74.0199 73.4597 70.7376C70.8026 67.6637 67.9892 62.2974 66.9472 58.3899C65.9572 54.4823 65.9572 47.8135 66.9472 43.8539C69.6564 33.3296 78.5134 24.5247 88.9856 21.9718C92.9973 21.034 99.1451 21.034 102.896 21.9718Z" fill="#544848"/>
<path d="M89.9742 27.4943C84.3995 28.7968 78.8248 32.8606 75.4904 37.9665C72.7812 42.2387 71.7392 46.5109 71.9997 52.5545C72.156 56.8268 72.4165 57.9209 74.0837 61.4116C81.6903 77.4585 103.885 80.0635 114.826 66.1527C123.996 54.5343 120.713 37.4455 107.845 29.8909C103.312 27.2338 95.4969 26.1918 89.9742 27.4943Z" fill="#544848"/>
<path d="M161.407 69.3308C154.686 71.1543 150.57 76.6769 150.57 83.7626C150.57 86.7844 150.518 86.8886 137.753 108.823C130.72 120.962 124.884 130.913 124.832 130.965C124.78 131.017 123.373 130.392 121.706 129.559C115.715 126.537 108.316 127.839 104.096 132.633C103.159 133.727 102.117 135.029 101.804 135.55C101.335 136.436 100.241 135.811 90.2377 128.777L79.1924 121.014V118.618C79.1403 114.033 75.7017 108.927 71.1169 106.843C69.1371 105.905 67.6262 105.593 64.6043 105.593C60.0195 105.593 57.3624 106.635 54.549 109.448C51.4751 112.522 50.381 115.179 50.3289 119.608L50.2768 123.515L36.3139 136.54C28.603 143.73 22.0384 149.565 21.7258 149.513C21.3611 149.461 19.7981 149.044 18.2351 148.575C9.16965 145.97 0.0521003 152.795 0 162.173C0 171.031 6.04363 177.126 14.7444 177.074C22.6636 177.022 28.2904 171.656 29.0199 163.476C29.2804 160.819 28.9157 159.047 27.4047 155.557C27.1442 154.932 29.9577 152.014 38.3979 144.147C44.6499 138.312 50.5894 132.737 51.6314 131.799L53.507 130.028L56.1641 131.851C62.364 136.019 69.5018 135.446 74.9723 130.392L77.3689 128.1L88.8831 136.28C99.6678 143.834 100.449 144.511 100.762 146.231C101.179 148.888 103.888 152.691 106.597 154.515C117.226 161.548 130.928 153.16 129.469 140.5L129.104 137.426L141.817 115.596C154.373 93.87 154.477 93.7137 155.519 94.6515C156.092 95.2246 157.76 96.1624 159.166 96.7876C164.376 99.1321 171.358 97.9338 175.422 94.0263C177.401 92.0986 175.63 90.9524 190.843 103.769C200.899 112.209 201.941 113.251 201.472 114.189C200.43 116.169 200.742 122.265 202.097 125.286C207.046 136.28 223.198 136.488 228.512 125.599C231.586 119.347 229.762 111.74 224.292 107.572C219.811 104.186 213.507 103.613 208.557 106.218L206.004 107.52L192.979 96.5792L180.006 85.6382L179.694 82.0953C179.277 78.0315 177.714 74.8013 174.953 72.4568C171.254 69.3829 165.783 68.0804 161.407 69.3308Z" fill="#544848"/>
<path d="M152.133 176.449V229.07H165.158H178.183V176.449V123.828H165.158H152.133V176.449Z" fill="#544848"/>
<path d="M202.148 190.777V229.07H215.174H228.199V190.777V152.483H215.174H202.148V190.777Z" fill="#544848"/>
<path d="M51.5781 193.642V229.07H64.6032H77.6283V193.642V158.214H64.6032H51.5781V193.642Z" fill="#544848"/>
<path d="M102.117 204.062V229.07H115.142H128.167V204.062V179.054H115.142H102.117V204.062Z" fill="#544848"/>
<path d="M1.5625 211.617V229.07H14.5876H27.6126V211.617V194.163H14.5876H1.5625V211.617Z" fill="#544848"/>
</svg>
