<svg width="145" height="145" viewBox="0 0 145 145" fill="none" xmlns="http://www.w3.org/2000/svg">
<path d="M21.1484 34.7416C21.1484 33.9074 21.8247 33.2312 22.6589 33.2312H60.4193C64.5904 33.2312 67.9714 36.6124 67.9714 40.7833V94.9082C69.7029 88.855 72.8512 83.3994 77.0339 78.9237V40.7833C77.0339 36.6124 80.4148 33.2312 84.5859 33.2312H122.346C123.181 33.2312 123.857 33.9074 123.857 34.7416V70.8841C127.186 72.6192 130.235 74.8172 132.919 77.3934V34.7416C132.919 28.9023 128.186 24.1687 122.346 24.1687H84.5859C79.8251 24.1687 75.5319 26.1712 72.5026 29.3798C69.4733 26.1712 65.1801 24.1687 60.4193 24.1687H22.6589C16.8196 24.1687 12.0859 28.9023 12.0859 34.7416V110.262C12.0859 116.102 16.8196 120.835 22.6589 120.835H60.4193C63.4099 120.835 66.2156 120.045 68.6396 118.663C67.5297 115.479 66.8186 112.108 66.5649 108.611C65.1952 110.525 62.9525 111.773 60.4193 111.773H22.6589C21.8247 111.773 21.1484 111.097 21.1484 110.262V34.7416Z" fill="#E7E1E1"/>
<path d="M96.7109 102.71C96.9526 94.1643 98.2081 86.5863 100.053 81.0539C101.087 77.9497 102.252 75.6557 103.4 74.1997C104.574 72.7098 105.385 72.502 105.731 72.502C106.077 72.502 106.888 72.7098 108.061 74.1997C109.209 75.6557 110.375 77.9497 111.409 81.0539C113.254 86.5863 114.509 94.1643 114.751 102.71H96.7109Z" fill="#E7E1E1"/>
<path d="M94.3164 79.1431C94.9652 77.197 95.7047 75.3906 96.5385 73.7883C83.5876 77.507 73.878 88.8883 72.6328 102.71H90.6624C90.9046 93.6467 92.2314 85.398 94.3164 79.1431Z" fill="#E7E1E1"/>
<path d="M117.136 79.1431C116.487 77.197 115.748 75.3906 114.914 73.7883C127.865 77.507 137.575 88.8883 138.82 102.71H120.79C120.547 93.6467 119.221 85.398 117.136 79.1431Z" fill="#E7E1E1"/>
<path d="M120.79 108.752H138.82C137.575 122.574 127.865 133.955 114.914 137.674C115.748 136.072 116.487 134.265 117.136 132.319C119.221 126.064 120.547 117.816 120.79 108.752Z" fill="#E7E1E1"/>
<path d="M108.061 137.263C106.888 138.752 106.077 138.96 105.731 138.96C105.385 138.96 104.574 138.752 103.4 137.263C102.252 135.807 101.087 133.513 100.053 130.408C98.2081 124.876 96.9526 117.298 96.7109 108.752H114.751C114.509 117.298 113.254 124.876 111.409 130.408C110.375 133.513 109.209 135.807 108.061 137.263Z" fill="#E7E1E1"/>
<path d="M72.6328 108.752C73.878 122.574 83.5876 133.955 96.5385 137.674C95.7047 136.072 94.9652 134.265 94.3164 132.319C92.2314 126.064 90.9046 117.816 90.6624 108.752H72.6328Z" fill="#E7E1E1"/>
</svg>
