<svg width="145" height="145" viewBox="0 0 145 145" fill="none" xmlns="http://www.w3.org/2000/svg">
<path d="M72.5 29C92.9204 29 104.505 42.9438 106.19 59.7834H106.705C115.702 59.7834 123.532 64.9208 127.577 72.5H118.793C115.766 69.131 111.459 67.0334 106.706 67.0334H106.19C102.466 67.0336 99.3468 64.2113 98.9756 60.5052C97.5103 45.8557 87.7866 36.25 72.5 36.25C57.1739 36.25 47.4953 45.7901 46.0243 60.5047C45.6538 64.211 42.5349 67.0336 38.81 67.0334H38.295C29.2044 67.0334 21.75 74.7033 21.75 84.2667C21.75 93.8302 29.2044 101.5 38.2949 101.5H65.25V108.75H38.2949C25.1533 108.75 14.5 97.7887 14.5 84.2667C14.5 71.1957 24.455 60.517 36.9894 59.8196L38.8103 59.7834C40.5048 42.8331 52.0793 29 72.5 29ZM72.5 87C72.5 82.9958 75.7458 79.75 79.75 79.75H130.5C134.504 79.75 137.75 82.9958 137.75 87V116C137.75 120.004 134.504 123.25 130.5 123.25H116V130.5H119.625C121.627 130.5 123.25 132.123 123.25 134.125C123.25 136.127 121.627 137.75 119.625 137.75H90.625C88.6233 137.75 87 136.127 87 134.125C87 132.123 88.6233 130.5 90.625 130.5H94.25V123.25H79.75C75.7458 123.25 72.5 120.004 72.5 116V87Z" fill="#F2EEEE"/>
</svg>
