<svg width="120" height="120" viewBox="0 0 120 120" fill="none" xmlns="http://www.w3.org/2000/svg">
<path d="M7.68213 1.32003C5.92477 -0.437355 3.07546 -0.437416 1.3181 1.31991C-0.439317 3.07723 -0.439378 5.92649 1.31798 7.68381L3.77255 10.1384C1.43642 12.5654 7.17586e-06 15.8646 7.17586e-06 19.4992V82.512L0.0311469 83.4366C0.506172 90.4614 6.35492 96.0119 13.5002 96.0119L38.9944 96.0107V110.999L28.5003 111.001L27.8897 111.042C25.6932 111.34 24.0003 113.223 24.0003 115.501C24.0003 117.986 26.015 120.001 28.5003 120.001H91.501L92.1118 119.96C94.3079 119.662 96.0011 117.779 96.0011 115.501C96.0011 113.016 93.9863 111.001 91.501 111.001L80.9949 110.999V96.0107L89.6452 96.0113L112.318 118.684C114.075 120.441 116.925 120.441 118.682 118.684C120.439 116.927 120.439 114.077 118.682 112.32L7.68213 1.32003ZM80.6463 87.012H13.5002L12.8895 86.9712C10.693 86.673 9.00011 84.7902 9.00011 82.512V19.4992L9.04121 18.8886C9.16445 17.9802 9.55877 17.1579 10.1401 16.5059L80.6463 87.012ZM106.494 87.012H106.102L113.277 94.1873C117.294 91.8479 119.994 87.4956 119.994 82.512V19.4992L119.963 18.5749C119.488 11.5502 113.639 5.99933 106.494 5.99933H25.0895L34.0894 14.9992H106.494L107.105 15.0403C109.301 15.3383 110.994 17.2211 110.994 19.4992V82.512L110.953 83.1228C110.655 85.3194 108.772 87.012 106.494 87.012ZM71.9888 96.0107L71.9948 111.001H47.9945L47.9885 96.0107H71.9888Z" fill="#403838"/>
</svg>
