<svg width="1343" height="915" viewBox="0 0 1343 915" fill="none" xmlns="http://www.w3.org/2000/svg">
<g filter="url(#filter0_n_379_198)">
<rect x="0.96875" width="1342" height="915" fill="#D0C5C5"/>
</g>
<path d="M1056.59 318.822C1037.11 321.623 1015.88 329.369 1000.89 339.142C977.727 354.217 959.702 374.835 948.269 399.445C939.227 418.811 934.969 438.594 934.969 460.94C934.969 478.28 936.835 490.317 941.969 506.346C957.31 554.016 996.569 590.067 1044.99 600.912C1058.75 604.01 1078.88 604.904 1092.88 603.057C1141.53 596.502 1183.06 565.04 1203.01 519.515C1208.61 506.703 1212.23 493.415 1214.09 479.233C1215.26 469.997 1215.26 451.882 1214.09 442.646C1206.04 380.198 1159.79 330.799 1098.89 319.716C1089.49 317.988 1065.81 317.511 1056.59 318.822ZM1083.72 326.271C1102.21 327.701 1117.73 332.051 1134.12 340.393C1155.88 351.536 1174.89 369.353 1187.73 390.626C1191.11 396.287 1196.89 408.502 1199.22 415.057C1209.72 444.255 1209.6 478.518 1198.81 507.716C1174.78 572.906 1107.34 608.837 1041.66 591.497C1033.03 589.233 1026.73 586.849 1017.8 582.44C1004.39 575.825 992.602 567.423 982.277 556.996C951.652 526.01 937.71 482.272 944.594 439.13C948.969 411.72 962.21 385.442 981.635 365.599C1003.86 342.836 1033.84 328.773 1065.11 326.33C1074.04 325.615 1075.09 325.615 1083.72 326.271Z" fill="black"/>
<path d="M1027.71 382.82L981.92 409.515L981.745 413.806L981.57 418.036H1074.96H1168.35L1168.18 413.806L1168 409.515L1122.21 382.82C1095.44 367.148 1075.84 356.065 1074.96 356.065C1074.09 356.065 1054.49 367.148 1027.71 382.82ZM1079.63 385.621C1082.95 387.349 1086.05 392.235 1086.05 395.87C1086.05 398.968 1083.25 403.616 1080.33 405.344C1074.79 408.681 1068.31 406.655 1065.4 400.637C1064.58 398.968 1063.88 396.704 1063.88 395.751C1063.94 391.579 1068.25 385.74 1071.93 384.905C1072.8 384.727 1073.8 384.488 1074.09 384.369C1075.02 384.131 1078.05 384.786 1079.63 385.621Z" fill="black"/>
<path d="M1071.7 392.056C1068.32 394.976 1070.54 400.756 1074.97 400.756C1075.9 400.756 1077.36 400.1 1078.24 399.326C1081.62 396.406 1079.4 390.626 1074.97 390.626C1074.04 390.626 1072.58 391.281 1071.7 392.056Z" fill="black"/>
<path d="M981.633 430.49C981.633 435.972 981.749 436.509 982.916 437.343C984.083 438.177 993.766 438.296 1074.97 438.296C1156.17 438.296 1165.85 438.177 1167.02 437.343C1168.18 436.509 1168.3 435.972 1168.3 430.49V424.591H1074.97H981.633V430.49Z" fill="black"/>
<path d="M990.969 485.371V526.486H1007.3H1023.64V485.371V444.255H1007.3H990.969V485.371Z" fill="black"/>
<path d="M1030.05 485.371V526.486H1042.3H1054.55V503.783C1054.55 479.114 1054.61 478.578 1057.87 477.088C1059.8 476.194 1090.13 476.194 1092.06 477.088C1095.32 478.578 1095.38 479.114 1095.38 503.783V526.486H1107.63H1119.88V485.371V444.255H1074.96H1030.05V485.371Z" fill="black"/>
<path d="M1126.3 485.371V526.486H1142.63H1158.96V485.371V444.255H1142.63H1126.3V485.371Z" fill="black"/>
<path d="M1060.38 504.439V526.486H1074.97H1089.55V504.439V482.391H1074.97H1060.38V504.439Z" fill="black"/>
<path d="M983.382 533.22C981.982 533.935 981.924 534.293 981.749 539.596C981.632 544.363 981.749 545.376 982.624 545.972C984.082 547.104 1165.85 547.104 1167.31 545.972C1168.18 545.376 1168.3 544.363 1168.18 539.596C1168.01 534.293 1167.95 533.935 1166.55 533.22C1165.38 532.624 1146.37 532.446 1074.97 532.446C1003.57 532.446 984.549 532.624 983.382 533.22Z" fill="black"/>
<path d="M197.311 298H144.703C146.495 296.208 146.495 282.256 146.495 274.832V236.176C146.495 228.752 146.495 214.8 144.703 213.008H193.727V227.216C192.063 225.936 189.375 225.168 175.807 225.168H162.367C162.239 229.008 162.239 233.104 162.239 236.176V247.824H179.391C186.559 247.824 191.679 247.824 192.703 246.8V261.136C191.679 260.112 186.559 260.112 179.391 260.112H162.239V274.832C162.239 277.904 162.239 282 162.367 285.84H179.391C192.959 285.84 195.647 285.072 197.311 283.792V298ZM267.487 298H254.303C253.663 296.72 253.535 295.312 253.407 294.032C249.823 298.512 242.783 299.664 237.023 299.664C218.463 299.664 207.455 288.016 207.455 270.096C207.455 253.968 216.287 237.712 237.791 237.712C243.167 237.712 247.903 238.736 251.871 241.552V226.704C251.871 220.304 251.615 206.352 250.079 204.56H267.359C265.951 208.144 265.823 214.032 265.823 226.32V271.248C265.823 289.68 265.823 296.592 267.487 298ZM251.871 282.64V264.976C251.871 254.352 250.207 249.104 239.327 249.104C226.399 249.104 222.175 256.4 222.175 267.92C222.175 281.36 227.935 287.888 238.431 287.888C243.551 287.888 248.159 286.352 251.871 282.64ZM337.564 298H324.124C323.356 296.848 323.1 295.568 322.844 294.16C317.468 298.64 311.964 299.664 306.46 299.664C297.244 299.664 285.084 296.72 283.804 284.048C283.548 281.104 283.548 277.904 283.548 274.96V257.936C283.548 250.64 283.164 239.504 281.884 238.992H299.292C297.884 240.912 297.756 249.232 297.756 258.96V276.88C297.756 284.56 300.316 288.656 308.38 288.656C317.596 288.656 322.204 283.408 322.204 277.776V258.832C322.204 255.504 322.204 240.784 320.54 238.992H338.204C336.54 240.912 336.284 248.848 336.284 253.072V282C336.284 287.376 336.284 292.624 337.564 298ZM403.84 279.568L403.456 296.208C396.032 299.792 390.656 299.92 384.64 299.92C365.312 299.92 349.952 288.144 349.952 268.304C349.952 250 362.624 237.328 381.696 237.328C394.24 237.328 400.128 240.912 403.2 240.912C403.072 241.808 403.2 255.12 403.2 255.12C396.928 250.256 388.992 248.464 383.744 248.464C371.712 248.464 364.16 254.736 364.16 266.256C364.16 279.568 372.224 288.656 387.072 288.656C389.888 288.656 399.616 288.4 403.84 279.568ZM471.942 287.376V295.824C469.638 297.744 464.39 298.896 460.934 298.896C456.71 298.896 453.254 297.232 451.462 294.288C446.086 299.408 439.046 300.048 434.822 300.048C420.23 300.048 413.19 292.24 413.19 281.872C413.19 258.064 448.774 263.184 449.542 258.576V256.016C449.542 250.64 445.19 248.592 439.814 248.592C433.03 248.592 424.71 251.92 419.206 258.064L418.31 243.6C425.35 238.864 433.542 237.328 440.454 237.328C452.998 237.328 464.134 242.448 464.134 258.576C464.134 262.8 463.366 275.088 463.366 284.048C463.366 287.632 463.494 289.424 465.926 289.424C467.462 289.424 470.022 288.784 471.942 287.376ZM449.414 280.848C449.414 277.008 449.414 272.4 449.542 269.584C445.574 272.784 428.422 269.712 428.422 281.104C428.422 285.84 431.494 288.272 436.23 288.272C441.222 288.272 446.342 285.712 449.414 280.848ZM515.435 285.968V297.744C512.107 299.024 508.267 299.92 503.275 299.92C489.835 299.92 485.739 293.264 485.739 280.976C485.739 278.8 485.867 267.408 485.867 264.592V249.872H482.155C480.619 249.872 478.955 250 478.187 250.512V238.352C478.699 238.992 480.235 238.992 485.867 238.992V231.44C485.867 228.88 485.739 226.96 485.739 226.96L500.971 221.712C500.331 222.48 499.947 227.856 499.947 231.824V238.992H504.939C509.163 238.992 512.875 238.864 513.643 238.224V250.512C512.491 249.872 508.907 249.872 505.067 249.872H499.947V279.696C499.947 287.504 500.459 289.68 507.755 289.68C508.267 289.68 514.155 288.912 515.435 285.968ZM543.923 222.864C543.923 227.216 540.083 230.8 535.475 230.8C530.867 230.8 527.027 227.216 527.027 222.864C527.027 218.512 530.867 214.928 535.475 214.928C540.083 214.928 543.923 218.512 543.923 222.864ZM544.307 298H526.643C528.435 296.208 528.435 282.256 528.435 274.832V262.16C528.435 254.736 528.435 240.784 526.643 238.992H544.307C542.515 240.784 542.515 254.736 542.515 262.16V274.832C542.515 282.256 542.515 296.208 544.307 298ZM587.047 300.176C567.847 300.176 556.199 284.944 556.199 268.688C556.199 252.944 567.207 237.072 586.791 237.072C604.327 237.072 618.279 249.744 618.279 268.304C618.279 285.84 605.735 300.176 587.047 300.176ZM587.687 289.04C600.103 289.04 604.071 278.16 604.071 268.944C604.071 257.808 598.183 248.336 586.535 248.336C574.631 248.336 570.151 258.064 570.151 267.92C570.151 278.928 575.655 289.04 587.687 289.04ZM686.847 298H669.439C670.847 296.08 670.975 287.76 670.975 278.032V260.112C670.975 252.304 668.415 248.336 660.223 248.336C650.751 248.336 646.015 253.584 646.015 259.216V278.16C646.015 281.232 646.015 296.336 647.679 298H630.015C631.679 296.08 631.935 288.144 631.935 283.92V254.992C631.935 249.616 631.935 244.368 630.655 238.992H644.095C644.863 240.144 645.119 241.424 645.375 242.832C650.751 238.352 656.383 237.328 662.015 237.328C671.615 237.328 683.647 240.272 684.927 252.944C685.183 255.888 685.183 259.088 685.183 262.032V279.056C685.183 286.352 685.567 297.488 686.847 298ZM756.692 287.376V295.824C754.388 297.744 749.14 298.896 745.684 298.896C741.46 298.896 738.004 297.232 736.212 294.288C730.836 299.408 723.796 300.048 719.572 300.048C704.98 300.048 697.94 292.24 697.94 281.872C697.94 258.064 733.524 263.184 734.292 258.576V256.016C734.292 250.64 729.94 248.592 724.564 248.592C717.78 248.592 709.46 251.92 703.956 258.064L703.06 243.6C710.1 238.864 718.292 237.328 725.204 237.328C737.748 237.328 748.884 242.448 748.884 258.576C748.884 262.8 748.116 275.088 748.116 284.048C748.116 287.632 748.244 289.424 750.676 289.424C752.212 289.424 754.772 288.784 756.692 287.376ZM734.164 280.848C734.164 277.008 734.164 272.4 734.292 269.584C730.324 272.784 713.172 269.712 713.172 281.104C713.172 285.84 716.244 288.272 720.98 288.272C725.972 288.272 731.092 285.712 734.164 280.848ZM783.929 298H766.265C768.057 296.208 768.057 282.256 768.057 274.832V227.728C768.057 220.304 768.057 206.352 766.265 204.56H783.929C782.137 206.352 782.137 220.304 782.137 227.728V274.832C782.137 282.256 782.137 296.208 783.929 298ZM181.173 350.864C181.173 355.216 177.333 358.8 172.725 358.8C168.117 358.8 164.277 355.216 164.277 350.864C164.277 346.512 168.117 342.928 172.725 342.928C177.333 342.928 181.173 346.512 181.173 350.864ZM181.557 426H163.893C165.685 424.208 165.685 410.256 165.685 402.832V390.16C165.685 382.736 165.685 368.784 163.893 366.992H181.557C179.765 368.784 179.765 382.736 179.765 390.16V402.832C179.765 410.256 179.765 424.208 181.557 426ZM253.097 426H235.689C237.097 424.08 237.225 415.76 237.225 406.032V388.112C237.225 380.304 234.665 376.336 226.473 376.336C217.001 376.336 212.265 381.584 212.265 387.216V406.16C212.265 409.232 212.265 424.336 213.929 426H196.265C197.929 424.08 198.185 416.144 198.185 411.92V382.992C198.185 377.616 198.185 372.368 196.905 366.992H210.345C211.113 368.144 211.369 369.424 211.625 370.832C217.001 366.352 222.633 365.328 228.265 365.328C237.865 365.328 249.897 368.272 251.177 380.944C251.433 383.888 251.433 387.088 251.433 390.032V407.056C251.433 414.352 251.817 425.488 253.097 426ZM266.366 424.592V410.896C268.926 416.272 275.71 417.808 280.446 417.808C287.23 417.808 290.43 414.736 290.43 410.64C290.43 399.76 266.75 401.936 266.75 382.736C266.75 372.368 273.662 365.584 285.694 365.584C290.046 365.584 296.446 366.48 300.286 368.144V379.92C296.702 376.592 292.862 375.056 288.51 375.056C282.494 375.056 279.166 378 279.166 381.84C279.166 392.08 303.23 391.568 303.23 410C303.23 419.088 297.342 427.92 283.518 427.92C278.27 427.92 270.59 426.64 266.366 424.592ZM349.685 413.968V425.744C346.357 427.024 342.517 427.92 337.525 427.92C324.085 427.92 319.989 421.264 319.989 408.976C319.989 406.8 320.117 395.408 320.117 392.592V377.872H316.405C314.869 377.872 313.205 378 312.437 378.512V366.352C312.949 366.992 314.485 366.992 320.117 366.992V359.44C320.117 356.88 319.989 354.96 319.989 354.96L335.221 349.712C334.581 350.48 334.197 355.856 334.197 359.824V366.992H339.189C343.413 366.992 347.125 366.864 347.893 366.224V378.512C346.741 377.872 343.157 377.872 339.317 377.872H334.197V407.696C334.197 415.504 334.709 417.68 342.005 417.68C342.517 417.68 348.405 416.912 349.685 413.968ZM378.173 350.864C378.173 355.216 374.333 358.8 369.725 358.8C365.117 358.8 361.277 355.216 361.277 350.864C361.277 346.512 365.117 342.928 369.725 342.928C374.333 342.928 378.173 346.512 378.173 350.864ZM378.557 426H360.893C362.685 424.208 362.685 410.256 362.685 402.832V390.16C362.685 382.736 362.685 368.784 360.893 366.992H378.557C376.765 368.784 376.765 382.736 376.765 390.16V402.832C376.765 410.256 376.765 424.208 378.557 426ZM427.185 413.968V425.744C423.857 427.024 420.017 427.92 415.025 427.92C401.585 427.92 397.489 421.264 397.489 408.976C397.489 406.8 397.617 395.408 397.617 392.592V377.872H393.905C392.369 377.872 390.705 378 389.937 378.512V366.352C390.449 366.992 391.985 366.992 397.617 366.992V359.44C397.617 356.88 397.489 354.96 397.489 354.96L412.721 349.712C412.081 350.48 411.697 355.856 411.697 359.824V366.992H416.689C420.913 366.992 424.625 366.864 425.393 366.224V378.512C424.241 377.872 420.657 377.872 416.817 377.872H411.697V407.696C411.697 415.504 412.209 417.68 419.505 417.68C420.017 417.68 425.905 416.912 427.185 413.968ZM493.689 426H480.249C479.481 424.848 479.225 423.568 478.969 422.16C473.593 426.64 468.089 427.664 462.585 427.664C453.369 427.664 441.209 424.72 439.929 412.048C439.673 409.104 439.673 405.904 439.673 402.96V385.936C439.673 378.64 439.289 367.504 438.009 366.992H455.417C454.009 368.912 453.881 377.232 453.881 386.96V404.88C453.881 412.56 456.441 416.656 464.505 416.656C473.721 416.656 478.329 411.408 478.329 405.776V386.832C478.329 383.504 478.329 368.784 476.665 366.992H494.329C492.665 368.912 492.409 376.848 492.409 381.072V410C492.409 415.376 492.409 420.624 493.689 426ZM542.685 413.968V425.744C539.357 427.024 535.517 427.92 530.525 427.92C517.085 427.92 512.989 421.264 512.989 408.976C512.989 406.8 513.117 395.408 513.117 392.592V377.872H509.405C507.869 377.872 506.205 378 505.437 378.512V366.352C505.949 366.992 507.485 366.992 513.117 366.992V359.44C513.117 356.88 512.989 354.96 512.989 354.96L528.221 349.712C527.581 350.48 527.197 355.856 527.197 359.824V366.992H532.189C536.413 366.992 540.125 366.864 540.893 366.224V378.512C539.741 377.872 536.157 377.872 532.317 377.872H527.197V407.696C527.197 415.504 527.709 417.68 535.005 417.68C535.517 417.68 541.405 416.912 542.685 413.968ZM571.173 350.864C571.173 355.216 567.333 358.8 562.725 358.8C558.117 358.8 554.277 355.216 554.277 350.864C554.277 346.512 558.117 342.928 562.725 342.928C567.333 342.928 571.173 346.512 571.173 350.864ZM571.557 426H553.893C555.685 424.208 555.685 410.256 555.685 402.832V390.16C555.685 382.736 555.685 368.784 553.893 366.992H571.557C569.765 368.784 569.765 382.736 569.765 390.16V402.832C569.765 410.256 569.765 424.208 571.557 426ZM614.297 428.176C595.097 428.176 583.449 412.944 583.449 396.688C583.449 380.944 594.457 365.072 614.041 365.072C631.577 365.072 645.529 377.744 645.529 396.304C645.529 413.84 632.985 428.176 614.297 428.176ZM614.937 417.04C627.353 417.04 631.321 406.16 631.321 396.944C631.321 385.808 625.433 376.336 613.785 376.336C601.881 376.336 597.401 386.064 597.401 395.92C597.401 406.928 602.905 417.04 614.937 417.04ZM714.097 426H696.689C698.097 424.08 698.225 415.76 698.225 406.032V388.112C698.225 380.304 695.665 376.336 687.473 376.336C678.001 376.336 673.265 381.584 673.265 387.216V406.16C673.265 409.232 673.265 424.336 674.929 426H657.265C658.929 424.08 659.185 416.144 659.185 411.92V382.992C659.185 377.616 659.185 372.368 657.905 366.992H671.345C672.113 368.144 672.369 369.424 672.625 370.832C678.001 366.352 683.633 365.328 689.265 365.328C698.865 365.328 710.897 368.272 712.177 380.944C712.433 383.888 712.433 387.088 712.433 390.032V407.056C712.433 414.352 712.817 425.488 714.097 426ZM727.366 424.592V410.896C729.926 416.272 736.71 417.808 741.446 417.808C748.23 417.808 751.43 414.736 751.43 410.64C751.43 399.76 727.75 401.936 727.75 382.736C727.75 372.368 734.662 365.584 746.694 365.584C751.046 365.584 757.446 366.48 761.286 368.144V379.92C757.702 376.592 753.862 375.056 749.51 375.056C743.494 375.056 740.166 378 740.166 381.84C740.166 392.08 764.23 391.568 764.23 410C764.23 419.088 758.342 427.92 744.518 427.92C739.27 427.92 731.59 426.64 727.366 424.592ZM269.659 554H252.123C253.659 552.72 253.915 541.2 253.915 535.184V505.872H250.459C248.027 505.872 244.955 506.128 243.803 506.896V493.968C245.211 494.864 249.691 494.992 252.251 494.992H253.915V490.384C253.915 483.728 254.555 476.688 258.011 471.184C262.107 464.528 269.403 460.56 278.363 460.56C281.179 460.56 284.507 460.944 287.835 461.968V474.512C286.427 472.976 281.947 472.08 278.747 472.08C269.403 472.08 267.995 482.576 267.995 490V494.992H270.811C274.779 494.992 281.435 494.864 282.587 494.096V506.896C281.307 506.128 276.315 505.872 272.091 505.872H267.995V535.696C267.995 540.816 268.251 552.592 269.659 554ZM319.547 556.176C300.347 556.176 288.699 540.944 288.699 524.688C288.699 508.944 299.707 493.072 319.291 493.072C336.827 493.072 350.779 505.744 350.779 524.304C350.779 541.84 338.235 556.176 319.547 556.176ZM320.187 545.04C332.603 545.04 336.571 534.16 336.571 524.944C336.571 513.808 330.683 504.336 319.035 504.336C307.131 504.336 302.651 514.064 302.651 523.92C302.651 534.928 308.155 545.04 320.187 545.04ZM379.923 554H362.387C364.307 551.568 364.435 540.688 364.435 535.568L364.307 510.992C364.307 504.976 363.923 496.656 362.899 494.992H376.595C377.363 496.016 377.875 498.064 378.131 499.6C381.075 495.76 384.787 493.2 390.931 493.2C393.235 493.2 395.283 493.584 397.459 494.352L397.331 508.048C395.027 506.384 392.339 505.488 389.779 505.488C386.835 505.488 383.379 506.64 381.331 508.688C379.539 510.608 378.387 513.04 378.387 523.536V534.544C378.387 542.224 378.387 553.232 379.923 554ZM457.664 585.488H440.768C442.304 583.568 442.304 572.048 442.304 566.288V515.216C442.304 501.008 442.176 496.4 440.64 494.992H453.824C454.464 496.272 454.592 497.68 454.72 498.96C459.968 494.608 465.216 493.328 471.488 493.328C492.864 493.328 500.8 508.56 500.8 523.152C500.8 540.56 489.664 555.28 470.72 555.28C465.344 555.28 460.736 554.128 456.128 551.568V566.8C456.128 570.128 456.128 583.44 457.664 585.488ZM456.128 510.352V527.12C456.128 536.336 456.128 543.888 469.056 543.888C480.96 543.888 485.952 537.36 485.952 524.944C485.952 512.272 480.832 505.104 469.824 505.104C464.32 505.104 459.84 506.896 456.128 510.352ZM530.173 478.864C530.173 483.216 526.333 486.8 521.725 486.8C517.117 486.8 513.277 483.216 513.277 478.864C513.277 474.512 517.117 470.928 521.725 470.928C526.333 470.928 530.173 474.512 530.173 478.864ZM530.557 554H512.893C514.685 552.208 514.685 538.256 514.685 530.832V518.16C514.685 510.736 514.685 496.784 512.893 494.992H530.557C528.765 496.784 528.765 510.736 528.765 518.16V530.832C528.765 538.256 528.765 552.208 530.557 554ZM562.929 554H545.265C547.057 552.208 547.057 538.256 547.057 530.832V483.728C547.057 476.304 547.057 462.352 545.265 460.56H562.929C561.137 462.352 561.137 476.304 561.137 483.728V530.832C561.137 538.256 561.137 552.208 562.929 554ZM605.547 556.176C586.347 556.176 574.699 540.944 574.699 524.688C574.699 508.944 585.707 493.072 605.291 493.072C622.827 493.072 636.779 505.744 636.779 524.304C636.779 541.84 624.235 556.176 605.547 556.176ZM606.187 545.04C618.603 545.04 622.571 534.16 622.571 524.944C622.571 513.808 616.683 504.336 605.035 504.336C593.131 504.336 588.651 514.064 588.651 523.92C588.651 534.928 594.155 545.04 606.187 545.04ZM681.935 541.968V553.744C678.607 555.024 674.767 555.92 669.775 555.92C656.335 555.92 652.239 549.264 652.239 536.976C652.239 534.8 652.367 523.408 652.367 520.592V505.872H648.655C647.119 505.872 645.455 506 644.687 506.512V494.352C645.199 494.992 646.735 494.992 652.367 494.992V487.44C652.367 484.88 652.239 482.96 652.239 482.96L667.471 477.712C666.831 478.48 666.447 483.856 666.447 487.824V494.992H671.439C675.663 494.992 679.375 494.864 680.143 494.224V506.512C678.991 505.872 675.407 505.872 671.567 505.872H666.447V535.696C666.447 543.504 666.959 545.68 674.255 545.68C674.767 545.68 680.655 544.912 681.935 541.968ZM227.976 713.488H211.08C212.616 711.568 212.616 700.048 212.616 694.288V643.216C212.616 629.008 212.488 624.4 210.952 622.992H224.136C224.776 624.272 224.904 625.68 225.032 626.96C230.28 622.608 235.528 621.328 241.8 621.328C263.176 621.328 271.112 636.56 271.112 651.152C271.112 668.56 259.976 683.28 241.032 683.28C235.656 683.28 231.048 682.128 226.44 679.568V694.8C226.44 698.128 226.44 711.44 227.976 713.488ZM226.44 638.352V655.12C226.44 664.336 226.44 671.888 239.368 671.888C251.272 671.888 256.264 665.36 256.264 652.944C256.264 640.272 251.144 633.104 240.136 633.104C234.632 633.104 230.152 634.896 226.44 638.352ZM300.485 682H282.949C284.869 679.568 284.997 668.688 284.997 663.568L284.869 638.992C284.869 632.976 284.485 624.656 283.461 622.992H297.157C297.925 624.016 298.437 626.064 298.693 627.6C301.637 623.76 305.349 621.2 311.493 621.2C313.797 621.2 315.845 621.584 318.021 622.352L317.893 636.048C315.589 634.384 312.901 633.488 310.341 633.488C307.397 633.488 303.941 634.64 301.893 636.688C300.101 638.608 298.949 641.04 298.949 651.536V662.544C298.949 670.224 298.949 681.232 300.485 682ZM355.484 684.176C336.284 684.176 324.636 668.944 324.636 652.688C324.636 636.944 335.644 621.072 355.228 621.072C372.764 621.072 386.716 633.744 386.716 652.304C386.716 669.84 374.172 684.176 355.484 684.176ZM356.124 673.04C368.54 673.04 372.508 662.16 372.508 652.944C372.508 641.808 366.62 632.336 354.972 632.336C343.068 632.336 338.588 642.064 338.588 651.92C338.588 662.928 344.092 673.04 356.124 673.04ZM447.22 633.488H444.66C446.708 636.688 447.22 639.632 447.22 642.832C447.22 657.424 436.468 665.104 422.9 665.104C421.108 665.104 418.164 664.976 417.012 664.976C412.916 664.976 411.38 666.512 411.38 668.176C411.38 670.096 413.556 672.016 418.42 672.016C420.212 672.016 421.236 671.76 426.1 671.76C433.78 671.76 454.644 672.4 454.644 690.32C454.644 706.448 437.492 713.616 421.876 713.616C410.484 713.616 393.46 709.776 393.46 693.52C393.46 685.584 397.556 680.336 402.932 677.136C400.5 675.088 399.092 672.272 399.092 668.432C399.092 663.44 401.268 660.24 404.852 658.064C400.756 654.736 398.068 650 398.068 643.088C398.068 628.752 409.588 621.712 423.668 621.712C429.684 621.712 432.628 622.992 438.772 622.992C451.7 622.992 454.388 622.736 455.412 622.224V634.384C454.26 633.488 450.932 633.488 447.22 633.488ZM423.412 654.48C430.58 654.48 433.652 651.536 433.652 644.112C433.652 635.92 429.94 632.464 422.26 632.464C416.5 632.464 411.892 634.384 411.892 643.216C411.892 650.896 415.476 654.48 423.412 654.48ZM440.052 691.6C440.052 682.512 428.276 682 424.052 682C412.916 682 406.772 685.584 406.772 692.752C406.772 701.712 416.372 702.736 422.004 702.736C433.14 702.736 440.052 698.64 440.052 691.6ZM481.485 682H463.949C465.869 679.568 465.997 668.688 465.997 663.568L465.869 638.992C465.869 632.976 465.485 624.656 464.461 622.992H478.157C478.925 624.016 479.437 626.064 479.693 627.6C482.637 623.76 486.349 621.2 492.493 621.2C494.797 621.2 496.845 621.584 499.021 622.352L498.893 636.048C496.589 634.384 493.901 633.488 491.341 633.488C488.397 633.488 484.941 634.64 482.893 636.688C481.101 638.608 479.949 641.04 479.949 651.536V662.544C479.949 670.224 479.949 681.232 481.485 682ZM563.879 671.376V679.824C561.575 681.744 556.327 682.896 552.871 682.896C548.647 682.896 545.191 681.232 543.399 678.288C538.023 683.408 530.983 684.048 526.759 684.048C512.167 684.048 505.127 676.24 505.127 665.872C505.127 642.064 540.711 647.184 541.479 642.576V640.016C541.479 634.64 537.127 632.592 531.751 632.592C524.967 632.592 516.647 635.92 511.143 642.064L510.247 627.6C517.287 622.864 525.479 621.328 532.391 621.328C544.935 621.328 556.071 626.448 556.071 642.576C556.071 646.8 555.303 659.088 555.303 668.048C555.303 671.632 555.431 673.424 557.863 673.424C559.399 673.424 561.959 672.784 563.879 671.376ZM541.351 664.848C541.351 661.008 541.351 656.4 541.479 653.584C537.511 656.784 520.359 653.712 520.359 665.104C520.359 669.84 523.431 672.272 528.167 672.272C533.159 672.272 538.279 669.712 541.351 664.848ZM666.764 682H649.612C650.892 681.104 651.148 669.712 651.148 659.216V642.96C651.148 636.688 648.332 632.336 640.268 632.336C630.284 632.336 627.212 639.12 627.212 642.704V668.816C627.212 671.504 627.468 680.336 628.748 682H611.212C612.876 680.08 613.132 671.76 613.132 668.56V645.648C613.132 636.944 611.468 632.464 603.148 632.464C593.804 632.464 589.452 638.224 589.452 642.32V667.92C589.452 672.656 589.964 680.848 591.116 682H573.324C574.86 680.976 575.372 673.552 575.372 667.28V634.384C575.372 631.184 575.116 625.424 573.964 622.992H587.532C588.3 624.144 588.556 625.424 588.812 626.832C594.188 622.608 598.668 621.328 605.324 621.328C610.956 621.328 617.996 622.224 622.604 627.728C627.596 623.76 635.532 621.328 643.084 621.328C651.404 621.328 660.62 624.272 663.82 631.824C664.972 634.64 665.228 637.712 665.228 643.216V668.176C665.228 669.84 665.484 679.568 666.764 682ZM680.178 680.592V666.896C682.738 672.272 689.522 673.808 694.258 673.808C701.042 673.808 704.242 670.736 704.242 666.64C704.242 655.76 680.562 657.936 680.562 638.736C680.562 628.368 687.474 621.584 699.506 621.584C703.858 621.584 710.258 622.48 714.098 624.144V635.92C710.514 632.592 706.674 631.056 702.322 631.056C696.306 631.056 692.978 634 692.978 637.84C692.978 648.08 717.042 647.568 717.042 666C717.042 675.088 711.154 683.92 697.33 683.92C692.082 683.92 684.402 682.64 680.178 680.592Z" fill="black"/>
<defs>
<filter id="filter0_n_379_198" x="0.96875" y="0" width="1342" height="915" filterUnits="userSpaceOnUse" color-interpolation-filters="sRGB">
<feFlood flood-opacity="0" result="BackgroundImageFix"/>
<feBlend mode="normal" in="SourceGraphic" in2="BackgroundImageFix" result="shape"/>
<feTurbulence type="fractalNoise" baseFrequency="10 10" stitchTiles="stitch" numOctaves="3" result="noise" seed="3796" />
<feColorMatrix in="noise" type="luminanceToAlpha" result="alphaNoise" />
<feComponentTransfer in="alphaNoise" result="coloredNoise1">
<feFuncA type="discrete" tableValues="0 0 0 0 0 0 0 0 0 0 0 0 0 0 0 0 0 1 1 1 1 1 1 1 1 1 1 1 1 1 1 1 1 0 0 0 0 0 0 0 0 0 0 0 0 0 0 0 0 0 0 0 0 0 0 0 0 0 0 0 0 0 0 0 0 0 0 0 0 0 0 0 0 0 0 0 0 0 0 0 0 0 0 0 0 0 0 0 0 0 0 0 0 0 0 0 0 0 0 0 "/>
</feComponentTransfer>
<feComposite operator="in" in2="shape" in="coloredNoise1" result="noise1Clipped" />
<feFlood flood-color="rgba(0, 0, 0, 0.25)" result="color1Flood" />
<feComposite operator="in" in2="noise1Clipped" in="color1Flood" result="color1" />
<feMerge result="effect1_noise_379_198">
<feMergeNode in="shape" />
<feMergeNode in="color1" />
</feMerge>
</filter>
</defs>
</svg>
