<svg width="1343" height="915" viewBox="0 0 1343 915" fill="none" xmlns="http://www.w3.org/2000/svg">
<g filter="url(#filter0_n_379_198)">
<rect width="1342" height="915" fill="#D0C5C5"/>
</g>
<path d="M1055.63 312.202C1036.14 314.944 1014.91 322.53 999.917 332.099C976.758 346.862 958.733 367.051 947.3 391.15C938.258 410.114 934 429.487 934 451.368C934 468.348 935.867 480.135 941 495.831C956.342 542.512 995.6 577.814 1044.02 588.434C1057.78 591.468 1077.91 592.343 1091.91 590.535C1140.56 584.116 1182.09 553.307 1202.04 508.727C1207.64 496.182 1211.26 483.169 1213.13 469.282C1214.29 460.237 1214.29 442.499 1213.13 433.455C1205.08 372.303 1158.82 323.93 1097.92 313.077C1088.53 311.385 1064.84 310.918 1055.63 312.202ZM1082.75 319.496C1101.24 320.896 1116.76 325.156 1133.15 333.325C1154.91 344.236 1173.93 361.683 1186.76 382.514C1190.14 388.058 1195.92 400.02 1198.25 406.438C1208.75 435.03 1208.63 468.582 1197.84 497.173C1173.81 561.009 1106.38 596.195 1040.69 579.215C1032.06 576.997 1025.76 574.663 1016.83 570.345C1003.42 563.868 991.633 555.641 981.308 545.429C950.683 515.087 936.742 472.258 943.625 430.012C948 403.171 961.242 377.438 980.667 358.007C1002.89 335.717 1032.88 321.946 1064.14 319.554C1073.07 318.854 1074.12 318.854 1082.75 319.496Z" fill="black"/>
<path d="M1026.74 374.871L980.952 401.012L980.777 405.213L980.602 409.356H1073.99H1167.38L1167.21 405.213L1167.03 401.012L1121.24 374.871C1094.47 359.524 1074.87 348.671 1073.99 348.671C1073.12 348.671 1053.52 359.524 1026.74 374.871ZM1078.66 377.613C1081.98 379.305 1085.08 384.09 1085.08 387.65C1085.08 390.684 1082.28 395.235 1079.36 396.927C1073.82 400.195 1067.34 398.211 1064.43 392.318C1063.61 390.684 1062.91 388.466 1062.91 387.533C1062.97 383.448 1067.28 377.73 1070.96 376.913C1071.83 376.738 1072.83 376.505 1073.12 376.388C1074.05 376.154 1077.08 376.796 1078.66 377.613Z" fill="black"/>
<path d="M1070.74 383.915C1067.35 386.774 1069.57 392.434 1074 392.434C1074.94 392.434 1076.39 391.792 1077.27 391.034C1080.65 388.174 1078.44 382.514 1074 382.514C1073.07 382.514 1071.61 383.156 1070.74 383.915Z" fill="black"/>
<path d="M980.664 421.551C980.664 426.919 980.781 427.444 981.947 428.261C983.114 429.078 992.797 429.195 1074 429.195C1155.2 429.195 1164.88 429.078 1166.05 428.261C1167.21 427.444 1167.33 426.919 1167.33 421.551V415.774H1074H980.664V421.551Z" fill="black"/>
<path d="M990 475.292V515.554H1006.33H1022.67V475.292V435.03H1006.33H990V475.292Z" fill="black"/>
<path d="M1029.08 475.292V515.554H1041.33H1053.58V493.322C1053.58 469.165 1053.64 468.64 1056.9 467.181C1058.83 466.306 1089.16 466.306 1091.09 467.181C1094.35 468.64 1094.41 469.165 1094.41 493.322V515.554H1106.66H1118.91V475.292V435.03H1073.99H1029.08V475.292Z" fill="black"/>
<path d="M1125.33 475.292V515.554H1141.66H1157.99V475.292V435.03H1141.66H1125.33V475.292Z" fill="black"/>
<path d="M1059.41 493.964V515.554H1074H1088.58V493.964V472.374H1074H1059.41V493.964Z" fill="black"/>
<path d="M982.413 522.148C981.013 522.848 980.955 523.198 980.78 528.391C980.663 533.059 980.78 534.051 981.655 534.635C983.113 535.743 1164.88 535.743 1166.34 534.635C1167.21 534.051 1167.33 533.059 1167.21 528.391C1167.04 523.198 1166.98 522.848 1165.58 522.148C1164.41 521.564 1145.4 521.389 1074 521.389C1002.6 521.389 983.58 521.564 982.413 522.148Z" fill="black"/>
<path d="M196.342 298H143.734C145.526 296.208 145.526 282.256 145.526 274.832V236.176C145.526 228.752 145.526 214.8 143.734 213.008H192.758V227.216C191.094 225.936 188.406 225.168 174.838 225.168H161.398C161.27 229.008 161.27 233.104 161.27 236.176V247.824H178.422C185.59 247.824 190.71 247.824 191.734 246.8V261.136C190.71 260.112 185.59 260.112 178.422 260.112H161.27V274.832C161.27 277.904 161.27 282 161.398 285.84H178.422C191.99 285.84 194.678 285.072 196.342 283.792V298ZM266.518 298H253.334C252.694 296.72 252.566 295.312 252.438 294.032C248.854 298.512 241.814 299.664 236.054 299.664C217.494 299.664 206.486 288.016 206.486 270.096C206.486 253.968 215.318 237.712 236.822 237.712C242.198 237.712 246.934 238.736 250.902 241.552V226.704C250.902 220.304 250.646 206.352 249.11 204.56H266.39C264.982 208.144 264.854 214.032 264.854 226.32V271.248C264.854 289.68 264.854 296.592 266.518 298ZM250.902 282.64V264.976C250.902 254.352 249.238 249.104 238.358 249.104C225.43 249.104 221.206 256.4 221.206 267.92C221.206 281.36 226.966 287.888 237.462 287.888C242.582 287.888 247.19 286.352 250.902 282.64ZM336.595 298H323.155C322.387 296.848 322.131 295.568 321.875 294.16C316.499 298.64 310.995 299.664 305.491 299.664C296.275 299.664 284.115 296.72 282.835 284.048C282.579 281.104 282.579 277.904 282.579 274.96V257.936C282.579 250.64 282.195 239.504 280.915 238.992H298.323C296.915 240.912 296.787 249.232 296.787 258.96V276.88C296.787 284.56 299.347 288.656 307.411 288.656C316.627 288.656 321.235 283.408 321.235 277.776V258.832C321.235 255.504 321.235 240.784 319.571 238.992H337.235C335.571 240.912 335.315 248.848 335.315 253.072V282C335.315 287.376 335.315 292.624 336.595 298ZM402.871 279.568L402.487 296.208C395.063 299.792 389.687 299.92 383.671 299.92C364.343 299.92 348.983 288.144 348.983 268.304C348.983 250 361.655 237.328 380.727 237.328C393.271 237.328 399.159 240.912 402.231 240.912C402.103 241.808 402.231 255.12 402.231 255.12C395.959 250.256 388.023 248.464 382.775 248.464C370.743 248.464 363.191 254.736 363.191 266.256C363.191 279.568 371.255 288.656 386.103 288.656C388.919 288.656 398.647 288.4 402.871 279.568ZM470.973 287.376V295.824C468.669 297.744 463.421 298.896 459.965 298.896C455.741 298.896 452.285 297.232 450.493 294.288C445.117 299.408 438.077 300.048 433.853 300.048C419.261 300.048 412.221 292.24 412.221 281.872C412.221 258.064 447.805 263.184 448.573 258.576V256.016C448.573 250.64 444.221 248.592 438.845 248.592C432.061 248.592 423.741 251.92 418.237 258.064L417.341 243.6C424.381 238.864 432.573 237.328 439.485 237.328C452.029 237.328 463.165 242.448 463.165 258.576C463.165 262.8 462.397 275.088 462.397 284.048C462.397 287.632 462.525 289.424 464.957 289.424C466.493 289.424 469.053 288.784 470.973 287.376ZM448.445 280.848C448.445 277.008 448.445 272.4 448.573 269.584C444.605 272.784 427.453 269.712 427.453 281.104C427.453 285.84 430.525 288.272 435.261 288.272C440.253 288.272 445.373 285.712 448.445 280.848ZM514.466 285.968V297.744C511.138 299.024 507.298 299.92 502.306 299.92C488.866 299.92 484.77 293.264 484.77 280.976C484.77 278.8 484.898 267.408 484.898 264.592V249.872H481.186C479.65 249.872 477.986 250 477.218 250.512V238.352C477.73 238.992 479.266 238.992 484.898 238.992V231.44C484.898 228.88 484.77 226.96 484.77 226.96L500.002 221.712C499.362 222.48 498.978 227.856 498.978 231.824V238.992H503.97C508.194 238.992 511.906 238.864 512.674 238.224V250.512C511.522 249.872 507.938 249.872 504.098 249.872H498.978V279.696C498.978 287.504 499.49 289.68 506.786 289.68C507.298 289.68 513.186 288.912 514.466 285.968ZM542.954 222.864C542.954 227.216 539.114 230.8 534.506 230.8C529.898 230.8 526.058 227.216 526.058 222.864C526.058 218.512 529.898 214.928 534.506 214.928C539.114 214.928 542.954 218.512 542.954 222.864ZM543.338 298H525.674C527.466 296.208 527.466 282.256 527.466 274.832V262.16C527.466 254.736 527.466 240.784 525.674 238.992H543.338C541.546 240.784 541.546 254.736 541.546 262.16V274.832C541.546 282.256 541.546 296.208 543.338 298ZM586.078 300.176C566.878 300.176 555.23 284.944 555.23 268.688C555.23 252.944 566.238 237.072 585.822 237.072C603.358 237.072 617.31 249.744 617.31 268.304C617.31 285.84 604.766 300.176 586.078 300.176ZM586.718 289.04C599.134 289.04 603.102 278.16 603.102 268.944C603.102 257.808 597.214 248.336 585.566 248.336C573.662 248.336 569.182 258.064 569.182 267.92C569.182 278.928 574.686 289.04 586.718 289.04ZM685.878 298H668.47C669.878 296.08 670.006 287.76 670.006 278.032V260.112C670.006 252.304 667.446 248.336 659.254 248.336C649.782 248.336 645.046 253.584 645.046 259.216V278.16C645.046 281.232 645.046 296.336 646.71 298H629.046C630.71 296.08 630.966 288.144 630.966 283.92V254.992C630.966 249.616 630.966 244.368 629.686 238.992H643.126C643.894 240.144 644.15 241.424 644.406 242.832C649.782 238.352 655.414 237.328 661.046 237.328C670.646 237.328 682.678 240.272 683.958 252.944C684.214 255.888 684.214 259.088 684.214 262.032V279.056C684.214 286.352 684.598 297.488 685.878 298ZM755.723 287.376V295.824C753.419 297.744 748.171 298.896 744.715 298.896C740.491 298.896 737.035 297.232 735.243 294.288C729.867 299.408 722.827 300.048 718.603 300.048C704.011 300.048 696.971 292.24 696.971 281.872C696.971 258.064 732.555 263.184 733.323 258.576V256.016C733.323 250.64 728.971 248.592 723.595 248.592C716.811 248.592 708.491 251.92 702.987 258.064L702.091 243.6C709.131 238.864 717.323 237.328 724.235 237.328C736.779 237.328 747.915 242.448 747.915 258.576C747.915 262.8 747.147 275.088 747.147 284.048C747.147 287.632 747.275 289.424 749.707 289.424C751.243 289.424 753.803 288.784 755.723 287.376ZM733.195 280.848C733.195 277.008 733.195 272.4 733.323 269.584C729.355 272.784 712.203 269.712 712.203 281.104C712.203 285.84 715.275 288.272 720.011 288.272C725.003 288.272 730.123 285.712 733.195 280.848ZM782.96 298H765.296C767.088 296.208 767.088 282.256 767.088 274.832V227.728C767.088 220.304 767.088 206.352 765.296 204.56H782.96C781.168 206.352 781.168 220.304 781.168 227.728V274.832C781.168 282.256 781.168 296.208 782.96 298ZM180.204 350.864C180.204 355.216 176.364 358.8 171.756 358.8C167.148 358.8 163.308 355.216 163.308 350.864C163.308 346.512 167.148 342.928 171.756 342.928C176.364 342.928 180.204 346.512 180.204 350.864ZM180.588 426H162.924C164.716 424.208 164.716 410.256 164.716 402.832V390.16C164.716 382.736 164.716 368.784 162.924 366.992H180.588C178.796 368.784 178.796 382.736 178.796 390.16V402.832C178.796 410.256 178.796 424.208 180.588 426ZM252.128 426H234.72C236.128 424.08 236.256 415.76 236.256 406.032V388.112C236.256 380.304 233.696 376.336 225.504 376.336C216.032 376.336 211.296 381.584 211.296 387.216V406.16C211.296 409.232 211.296 424.336 212.96 426H195.296C196.96 424.08 197.216 416.144 197.216 411.92V382.992C197.216 377.616 197.216 372.368 195.936 366.992H209.376C210.144 368.144 210.4 369.424 210.656 370.832C216.032 366.352 221.664 365.328 227.296 365.328C236.896 365.328 248.928 368.272 250.208 380.944C250.464 383.888 250.464 387.088 250.464 390.032V407.056C250.464 414.352 250.848 425.488 252.128 426ZM265.397 424.592V410.896C267.957 416.272 274.741 417.808 279.477 417.808C286.261 417.808 289.461 414.736 289.461 410.64C289.461 399.76 265.781 401.936 265.781 382.736C265.781 372.368 272.693 365.584 284.725 365.584C289.077 365.584 295.477 366.48 299.317 368.144V379.92C295.733 376.592 291.893 375.056 287.541 375.056C281.525 375.056 278.197 378 278.197 381.84C278.197 392.08 302.261 391.568 302.261 410C302.261 419.088 296.373 427.92 282.549 427.92C277.301 427.92 269.621 426.64 265.397 424.592ZM348.716 413.968V425.744C345.388 427.024 341.548 427.92 336.556 427.92C323.116 427.92 319.02 421.264 319.02 408.976C319.02 406.8 319.148 395.408 319.148 392.592V377.872H315.436C313.9 377.872 312.236 378 311.468 378.512V366.352C311.98 366.992 313.516 366.992 319.148 366.992V359.44C319.148 356.88 319.02 354.96 319.02 354.96L334.252 349.712C333.612 350.48 333.228 355.856 333.228 359.824V366.992H338.22C342.444 366.992 346.156 366.864 346.924 366.224V378.512C345.772 377.872 342.188 377.872 338.348 377.872H333.228V407.696C333.228 415.504 333.74 417.68 341.036 417.68C341.548 417.68 347.436 416.912 348.716 413.968ZM377.204 350.864C377.204 355.216 373.364 358.8 368.756 358.8C364.148 358.8 360.308 355.216 360.308 350.864C360.308 346.512 364.148 342.928 368.756 342.928C373.364 342.928 377.204 346.512 377.204 350.864ZM377.588 426H359.924C361.716 424.208 361.716 410.256 361.716 402.832V390.16C361.716 382.736 361.716 368.784 359.924 366.992H377.588C375.796 368.784 375.796 382.736 375.796 390.16V402.832C375.796 410.256 375.796 424.208 377.588 426ZM426.216 413.968V425.744C422.888 427.024 419.048 427.92 414.056 427.92C400.616 427.92 396.52 421.264 396.52 408.976C396.52 406.8 396.648 395.408 396.648 392.592V377.872H392.936C391.4 377.872 389.736 378 388.968 378.512V366.352C389.48 366.992 391.016 366.992 396.648 366.992V359.44C396.648 356.88 396.52 354.96 396.52 354.96L411.752 349.712C411.112 350.48 410.728 355.856 410.728 359.824V366.992H415.72C419.944 366.992 423.656 366.864 424.424 366.224V378.512C423.272 377.872 419.688 377.872 415.848 377.872H410.728V407.696C410.728 415.504 411.24 417.68 418.536 417.68C419.048 417.68 424.936 416.912 426.216 413.968ZM492.72 426H479.28C478.512 424.848 478.256 423.568 478 422.16C472.624 426.64 467.12 427.664 461.616 427.664C452.4 427.664 440.24 424.72 438.96 412.048C438.704 409.104 438.704 405.904 438.704 402.96V385.936C438.704 378.64 438.32 367.504 437.04 366.992H454.448C453.04 368.912 452.912 377.232 452.912 386.96V404.88C452.912 412.56 455.472 416.656 463.536 416.656C472.752 416.656 477.36 411.408 477.36 405.776V386.832C477.36 383.504 477.36 368.784 475.696 366.992H493.36C491.696 368.912 491.44 376.848 491.44 381.072V410C491.44 415.376 491.44 420.624 492.72 426ZM541.716 413.968V425.744C538.388 427.024 534.548 427.92 529.556 427.92C516.116 427.92 512.02 421.264 512.02 408.976C512.02 406.8 512.148 395.408 512.148 392.592V377.872H508.436C506.9 377.872 505.236 378 504.468 378.512V366.352C504.98 366.992 506.516 366.992 512.148 366.992V359.44C512.148 356.88 512.02 354.96 512.02 354.96L527.252 349.712C526.612 350.48 526.228 355.856 526.228 359.824V366.992H531.22C535.444 366.992 539.156 366.864 539.924 366.224V378.512C538.772 377.872 535.188 377.872 531.348 377.872H526.228V407.696C526.228 415.504 526.74 417.68 534.036 417.68C534.548 417.68 540.436 416.912 541.716 413.968ZM570.204 350.864C570.204 355.216 566.364 358.8 561.756 358.8C557.148 358.8 553.308 355.216 553.308 350.864C553.308 346.512 557.148 342.928 561.756 342.928C566.364 342.928 570.204 346.512 570.204 350.864ZM570.588 426H552.924C554.716 424.208 554.716 410.256 554.716 402.832V390.16C554.716 382.736 554.716 368.784 552.924 366.992H570.588C568.796 368.784 568.796 382.736 568.796 390.16V402.832C568.796 410.256 568.796 424.208 570.588 426ZM613.328 428.176C594.128 428.176 582.48 412.944 582.48 396.688C582.48 380.944 593.488 365.072 613.072 365.072C630.608 365.072 644.56 377.744 644.56 396.304C644.56 413.84 632.016 428.176 613.328 428.176ZM613.968 417.04C626.384 417.04 630.352 406.16 630.352 396.944C630.352 385.808 624.464 376.336 612.816 376.336C600.912 376.336 596.432 386.064 596.432 395.92C596.432 406.928 601.936 417.04 613.968 417.04ZM713.128 426H695.72C697.128 424.08 697.256 415.76 697.256 406.032V388.112C697.256 380.304 694.696 376.336 686.504 376.336C677.032 376.336 672.296 381.584 672.296 387.216V406.16C672.296 409.232 672.296 424.336 673.96 426H656.296C657.96 424.08 658.216 416.144 658.216 411.92V382.992C658.216 377.616 658.216 372.368 656.936 366.992H670.376C671.144 368.144 671.4 369.424 671.656 370.832C677.032 366.352 682.664 365.328 688.296 365.328C697.896 365.328 709.928 368.272 711.208 380.944C711.464 383.888 711.464 387.088 711.464 390.032V407.056C711.464 414.352 711.848 425.488 713.128 426ZM726.397 424.592V410.896C728.957 416.272 735.741 417.808 740.477 417.808C747.261 417.808 750.461 414.736 750.461 410.64C750.461 399.76 726.781 401.936 726.781 382.736C726.781 372.368 733.693 365.584 745.725 365.584C750.077 365.584 756.477 366.48 760.317 368.144V379.92C756.733 376.592 752.893 375.056 748.541 375.056C742.525 375.056 739.197 378 739.197 381.84C739.197 392.08 763.261 391.568 763.261 410C763.261 419.088 757.373 427.92 743.549 427.92C738.301 427.92 730.621 426.64 726.397 424.592ZM268.69 554H251.154C252.69 552.72 252.946 541.2 252.946 535.184V505.872H249.49C247.058 505.872 243.986 506.128 242.834 506.896V493.968C244.242 494.864 248.722 494.992 251.282 494.992H252.946V490.384C252.946 483.728 253.586 476.688 257.042 471.184C261.138 464.528 268.434 460.56 277.394 460.56C280.21 460.56 283.538 460.944 286.866 461.968V474.512C285.458 472.976 280.978 472.08 277.778 472.08C268.434 472.08 267.026 482.576 267.026 490V494.992H269.842C273.81 494.992 280.466 494.864 281.618 494.096V506.896C280.338 506.128 275.346 505.872 271.122 505.872H267.026V535.696C267.026 540.816 267.282 552.592 268.69 554ZM318.578 556.176C299.378 556.176 287.73 540.944 287.73 524.688C287.73 508.944 298.738 493.072 318.322 493.072C335.858 493.072 349.81 505.744 349.81 524.304C349.81 541.84 337.266 556.176 318.578 556.176ZM319.218 545.04C331.634 545.04 335.602 534.16 335.602 524.944C335.602 513.808 329.714 504.336 318.066 504.336C306.162 504.336 301.682 514.064 301.682 523.92C301.682 534.928 307.186 545.04 319.218 545.04ZM378.954 554H361.418C363.338 551.568 363.466 540.688 363.466 535.568L363.338 510.992C363.338 504.976 362.954 496.656 361.93 494.992H375.626C376.394 496.016 376.906 498.064 377.162 499.6C380.106 495.76 383.818 493.2 389.962 493.2C392.266 493.2 394.314 493.584 396.49 494.352L396.362 508.048C394.058 506.384 391.37 505.488 388.81 505.488C385.866 505.488 382.41 506.64 380.362 508.688C378.57 510.608 377.418 513.04 377.418 523.536V534.544C377.418 542.224 377.418 553.232 378.954 554ZM456.695 585.488H439.799C441.335 583.568 441.335 572.048 441.335 566.288V515.216C441.335 501.008 441.207 496.4 439.671 494.992H452.855C453.495 496.272 453.623 497.68 453.751 498.96C458.999 494.608 464.247 493.328 470.519 493.328C491.895 493.328 499.831 508.56 499.831 523.152C499.831 540.56 488.695 555.28 469.751 555.28C464.375 555.28 459.767 554.128 455.159 551.568V566.8C455.159 570.128 455.159 583.44 456.695 585.488ZM455.159 510.352V527.12C455.159 536.336 455.159 543.888 468.087 543.888C479.991 543.888 484.983 537.36 484.983 524.944C484.983 512.272 479.863 505.104 468.855 505.104C463.351 505.104 458.871 506.896 455.159 510.352ZM529.204 478.864C529.204 483.216 525.364 486.8 520.756 486.8C516.148 486.8 512.308 483.216 512.308 478.864C512.308 474.512 516.148 470.928 520.756 470.928C525.364 470.928 529.204 474.512 529.204 478.864ZM529.588 554H511.924C513.716 552.208 513.716 538.256 513.716 530.832V518.16C513.716 510.736 513.716 496.784 511.924 494.992H529.588C527.796 496.784 527.796 510.736 527.796 518.16V530.832C527.796 538.256 527.796 552.208 529.588 554ZM561.96 554H544.296C546.088 552.208 546.088 538.256 546.088 530.832V483.728C546.088 476.304 546.088 462.352 544.296 460.56H561.96C560.168 462.352 560.168 476.304 560.168 483.728V530.832C560.168 538.256 560.168 552.208 561.96 554ZM604.578 556.176C585.378 556.176 573.73 540.944 573.73 524.688C573.73 508.944 584.738 493.072 604.322 493.072C621.858 493.072 635.81 505.744 635.81 524.304C635.81 541.84 623.266 556.176 604.578 556.176ZM605.218 545.04C617.634 545.04 621.602 534.16 621.602 524.944C621.602 513.808 615.714 504.336 604.066 504.336C592.162 504.336 587.682 514.064 587.682 523.92C587.682 534.928 593.186 545.04 605.218 545.04ZM680.966 541.968V553.744C677.638 555.024 673.798 555.92 668.806 555.92C655.366 555.92 651.27 549.264 651.27 536.976C651.27 534.8 651.398 523.408 651.398 520.592V505.872H647.686C646.15 505.872 644.486 506 643.718 506.512V494.352C644.23 494.992 645.766 494.992 651.398 494.992V487.44C651.398 484.88 651.27 482.96 651.27 482.96L666.502 477.712C665.862 478.48 665.478 483.856 665.478 487.824V494.992H670.47C674.694 494.992 678.406 494.864 679.174 494.224V506.512C678.022 505.872 674.438 505.872 670.598 505.872H665.478V535.696C665.478 543.504 665.99 545.68 673.286 545.68C673.798 545.68 679.686 544.912 680.966 541.968ZM227.008 713.488H210.112C211.648 711.568 211.648 700.048 211.648 694.288V643.216C211.648 629.008 211.52 624.4 209.984 622.992H223.168C223.808 624.272 223.936 625.68 224.064 626.96C229.312 622.608 234.56 621.328 240.832 621.328C262.208 621.328 270.144 636.56 270.144 651.152C270.144 668.56 259.008 683.28 240.064 683.28C234.688 683.28 230.08 682.128 225.472 679.568V694.8C225.472 698.128 225.472 711.44 227.008 713.488ZM225.472 638.352V655.12C225.472 664.336 225.472 671.888 238.4 671.888C250.304 671.888 255.296 665.36 255.296 652.944C255.296 640.272 250.176 633.104 239.168 633.104C233.664 633.104 229.184 634.896 225.472 638.352ZM299.517 682H281.981C283.901 679.568 284.029 668.688 284.029 663.568L283.901 638.992C283.901 632.976 283.517 624.656 282.493 622.992H296.189C296.957 624.016 297.469 626.064 297.725 627.6C300.669 623.76 304.381 621.2 310.525 621.2C312.829 621.2 314.877 621.584 317.053 622.352L316.925 636.048C314.621 634.384 311.933 633.488 309.373 633.488C306.429 633.488 302.973 634.64 300.925 636.688C299.133 638.608 297.981 641.04 297.981 651.536V662.544C297.981 670.224 297.981 681.232 299.517 682ZM354.516 684.176C335.316 684.176 323.668 668.944 323.668 652.688C323.668 636.944 334.676 621.072 354.26 621.072C371.796 621.072 385.748 633.744 385.748 652.304C385.748 669.84 373.204 684.176 354.516 684.176ZM355.156 673.04C367.572 673.04 371.54 662.16 371.54 652.944C371.54 641.808 365.652 632.336 354.004 632.336C342.1 632.336 337.62 642.064 337.62 651.92C337.62 662.928 343.124 673.04 355.156 673.04ZM446.252 633.488H443.692C445.74 636.688 446.252 639.632 446.252 642.832C446.252 657.424 435.5 665.104 421.932 665.104C420.14 665.104 417.196 664.976 416.044 664.976C411.948 664.976 410.412 666.512 410.412 668.176C410.412 670.096 412.588 672.016 417.452 672.016C419.244 672.016 420.268 671.76 425.132 671.76C432.812 671.76 453.676 672.4 453.676 690.32C453.676 706.448 436.524 713.616 420.908 713.616C409.516 713.616 392.492 709.776 392.492 693.52C392.492 685.584 396.588 680.336 401.964 677.136C399.532 675.088 398.124 672.272 398.124 668.432C398.124 663.44 400.3 660.24 403.884 658.064C399.788 654.736 397.1 650 397.1 643.088C397.1 628.752 408.62 621.712 422.7 621.712C428.716 621.712 431.66 622.992 437.804 622.992C450.732 622.992 453.42 622.736 454.444 622.224V634.384C453.292 633.488 449.964 633.488 446.252 633.488ZM422.444 654.48C429.612 654.48 432.684 651.536 432.684 644.112C432.684 635.92 428.972 632.464 421.292 632.464C415.532 632.464 410.924 634.384 410.924 643.216C410.924 650.896 414.508 654.48 422.444 654.48ZM439.084 691.6C439.084 682.512 427.308 682 423.083 682C411.948 682 405.804 685.584 405.804 692.752C405.804 701.712 415.404 702.736 421.036 702.736C432.172 702.736 439.084 698.64 439.084 691.6ZM480.517 682H462.981C464.901 679.568 465.029 668.688 465.029 663.568L464.901 638.992C464.901 632.976 464.517 624.656 463.493 622.992H477.189C477.957 624.016 478.469 626.064 478.725 627.6C481.669 623.76 485.381 621.2 491.525 621.2C493.829 621.2 495.877 621.584 498.053 622.352L497.925 636.048C495.621 634.384 492.933 633.488 490.373 633.488C487.429 633.488 483.973 634.64 481.925 636.688C480.133 638.608 478.981 641.04 478.981 651.536V662.544C478.981 670.224 478.981 681.232 480.517 682ZM562.911 671.376V679.824C560.607 681.744 555.359 682.896 551.903 682.896C547.679 682.896 544.223 681.232 542.431 678.288C537.055 683.408 530.015 684.048 525.791 684.048C511.199 684.048 504.159 676.24 504.159 665.872C504.159 642.064 539.743 647.184 540.511 642.576V640.016C540.511 634.64 536.159 632.592 530.783 632.592C523.999 632.592 515.679 635.92 510.175 642.064L509.279 627.6C516.319 622.864 524.511 621.328 531.423 621.328C543.967 621.328 555.103 626.448 555.103 642.576C555.103 646.8 554.335 659.088 554.335 668.048C554.335 671.632 554.463 673.424 556.895 673.424C558.431 673.424 560.991 672.784 562.911 671.376ZM540.383 664.848C540.383 661.008 540.383 656.4 540.511 653.584C536.543 656.784 519.391 653.712 519.391 665.104C519.391 669.84 522.463 672.272 527.199 672.272C532.191 672.272 537.311 669.712 540.383 664.848ZM665.796 682H648.644C649.924 681.104 650.18 669.712 650.18 659.216V642.96C650.18 636.688 647.364 632.336 639.3 632.336C629.316 632.336 626.244 639.12 626.244 642.704V668.816C626.244 671.504 626.5 680.336 627.78 682H610.244C611.908 680.08 612.164 671.76 612.164 668.56V645.648C612.164 636.944 610.5 632.464 602.18 632.464C592.836 632.464 588.484 638.224 588.484 642.32V667.92C588.484 672.656 588.996 680.848 590.148 682H572.356C573.892 680.976 574.404 673.552 574.404 667.28V634.384C574.404 631.184 574.148 625.424 572.996 622.992H586.564C587.332 624.144 587.588 625.424 587.844 626.832C593.22 622.608 597.7 621.328 604.356 621.328C609.988 621.328 617.028 622.224 621.636 627.728C626.628 623.76 634.564 621.328 642.116 621.328C650.436 621.328 659.652 624.272 662.852 631.824C664.004 634.64 664.26 637.712 664.26 643.216V668.176C664.26 669.84 664.516 679.568 665.796 682ZM679.21 680.592V666.896C681.77 672.272 688.554 673.808 693.29 673.808C700.074 673.808 703.274 670.736 703.274 666.64C703.274 655.76 679.594 657.936 679.594 638.736C679.594 628.368 686.506 621.584 698.538 621.584C702.89 621.584 709.29 622.48 713.13 624.144V635.92C709.546 632.592 705.706 631.056 701.354 631.056C695.338 631.056 692.01 634 692.01 637.84C692.01 648.08 716.074 647.568 716.074 666C716.074 675.088 710.186 683.92 696.362 683.92C691.114 683.92 683.434 682.64 679.21 680.592Z" fill="black"/>
<defs>
<filter id="filter0_n_379_198" x="0" y="0" width="1342" height="915" filterUnits="userSpaceOnUse" color-interpolation-filters="sRGB">
<feFlood flood-opacity="0" result="BackgroundImageFix"/>
<feBlend mode="normal" in="SourceGraphic" in2="BackgroundImageFix" result="shape"/>
<feTurbulence type="fractalNoise" baseFrequency="2 2" stitchTiles="stitch" numOctaves="3" result="noise" seed="3796" />
<feColorMatrix in="noise" type="luminanceToAlpha" result="alphaNoise" />
<feComponentTransfer in="alphaNoise" result="coloredNoise1">
<feFuncA type="discrete" tableValues="0 0 0 0 0 0 0 0 0 0 0 0 1 1 1 1 1 1 1 1 1 1 1 1 1 1 1 1 1 1 1 1 1 1 1 1 1 1 0 0 0 0 0 0 0 0 0 0 0 0 0 0 0 0 0 0 0 0 0 0 0 0 0 0 0 0 0 0 0 0 0 0 0 0 0 0 0 0 0 0 0 0 0 0 0 0 0 0 0 0 0 0 0 0 0 0 0 0 0 0 "/>
</feComponentTransfer>
<feComposite operator="in" in2="shape" in="coloredNoise1" result="noise1Clipped" />
<feFlood flood-color="rgba(0, 0, 0, 0.25)" result="color1Flood" />
<feComposite operator="in" in2="noise1Clipped" in="color1Flood" result="color1" />
<feMerge result="effect1_noise_379_198">
<feMergeNode in="shape" />
<feMergeNode in="color1" />
</feMerge>
</filter>
</defs>
</svg>
