<svg width="145" height="145" viewBox="0 0 145 145" fill="none" xmlns="http://www.w3.org/2000/svg">
<g clip-path="url(#clip0_237_241)">
<path d="M117.251 14.9786C117.809 15.4568 118.367 15.9351 118.942 16.4278C119.231 16.6738 119.521 16.9197 119.819 17.1732C133.436 28.8343 143.513 45.8933 144.996 64.0059C146.063 85.6046 141.509 104.851 126.73 121.213C125.659 122.361 124.57 123.489 123.473 124.611C122.705 125.401 122.705 125.401 121.922 126.207C113.989 133.92 103.656 139.441 93.0993 142.63C92.7346 142.741 92.3698 142.851 91.994 142.965C85.6271 144.76 79.2267 145.209 72.6379 145.179C71.8904 145.176 71.1429 145.173 70.3728 145.169C53.9325 144.965 38.5696 139.309 26.051 128.576C25.7615 128.33 25.472 128.084 25.1737 127.831C11.557 116.17 1.47935 99.1108 -0.00372154 80.9981C-1.01392 60.5511 2.83101 41.9095 16.4221 26.0567C16.668 25.7672 16.914 25.4777 17.1674 25.1795C41.8876 -3.68632 87.2809 -9.40083 117.251 14.9786Z" fill="#BBACAC"/>
<path d="M102.52 50.9785C104.676 53.1339 106.83 55.2919 108.983 57.4507C112.556 61.0327 116.13 64.6133 119.705 68.193C121.865 70.3565 124.025 72.5205 126.184 74.6857C128.276 76.7835 130.369 78.88 132.463 80.9755C133.261 81.7744 134.058 82.5739 134.855 83.3739C135.965 84.4884 137.078 85.6012 138.19 86.7136C138.521 87.046 138.851 87.3785 139.192 87.7211C140.808 89.378 140.808 89.378 142.734 90.627C141.229 103.406 132.504 114.946 124.043 124.045C123.724 124.395 123.405 124.744 123.076 125.105C115.003 133.61 102.267 141.028 90.625 142.736C90.4255 142.497 90.226 142.257 90.0204 142.01C86.6219 138.022 82.896 134.37 79.1862 130.676C78.462 129.953 77.7379 129.229 77.014 128.506C75.1187 126.613 73.2216 124.721 71.3243 122.83C69.3957 120.908 67.4687 118.983 65.5416 117.059C62.4294 113.952 59.3162 110.845 56.2017 107.74C54.4584 106.002 52.7168 104.263 50.9766 102.521C52.6615 103.153 54.2008 103.864 55.791 104.716C60.1732 106.937 64.8315 108.061 69.668 108.752C69.9483 112.958 69.9483 112.958 70.2344 117.248C71.1689 117.435 72.1035 117.622 73.0664 117.814C73.6271 117.441 74.1879 117.067 74.7656 116.682C75.098 114.786 75.098 114.786 75.155 112.646C75.1923 111.92 75.2295 111.194 75.2679 110.447C75.289 109.887 75.3102 109.328 75.332 108.752C75.7781 108.662 76.2243 108.572 76.6839 108.48C83.9615 106.921 91.3356 104.809 96.6563 99.2868C97.4219 98.5566 97.4219 98.5566 98.5547 98.5566C98.7044 98.2259 98.854 97.8951 99.0083 97.5544C99.7118 96.2459 100.509 95.3119 101.493 94.2024C105.694 88.8849 107.907 81.981 108.75 75.334C111.554 75.1471 114.357 74.9602 117.246 74.7676C117.433 73.6461 117.62 72.5246 117.812 71.3691C115.818 70.0394 114.693 70.023 112.325 69.8823C111.657 69.84 110.989 69.7976 110.301 69.754C109.789 69.7263 109.277 69.6985 108.75 69.6699C108.695 69.3465 108.639 69.023 108.582 68.6898C107.56 63.1506 106.366 57.6059 103.059 52.9543C102.52 52.1113 102.52 52.1113 102.52 50.9785Z" fill="#8C7676"/>
<path d="M69.668 41.916C69.7023 42.4819 69.7366 43.0477 69.772 43.6307C69.8194 44.3616 69.8669 45.0924 69.9158 45.8455C69.9618 46.5749 70.0078 47.3043 70.0552 48.0558C70.0357 49.7665 70.0357 49.7665 70.8008 50.4121C72.1931 50.5538 72.1931 50.5538 73.6328 50.4121C75.202 48.8429 74.991 47.713 75.1196 45.5269C75.162 44.8537 75.2043 44.1805 75.248 43.4869C75.2757 42.9685 75.3034 42.4501 75.332 41.916C83.8102 42.1183 90.8817 46.7742 96.6475 52.7286C100.549 57.5252 103.086 63.446 103.086 69.6699C102.52 69.7042 101.954 69.7386 101.371 69.7739C100.64 69.8214 99.9095 69.8688 99.1565 69.9177C98.4271 69.9637 97.6977 70.0097 96.9462 70.0571C95.2354 70.0376 95.2354 70.0376 94.5898 70.8027C94.4482 72.195 94.4482 72.195 94.5898 73.6348C96.159 75.2039 97.289 74.993 99.4751 75.1216C100.148 75.1639 100.821 75.2063 101.515 75.2499C102.033 75.2777 102.552 75.3054 103.086 75.334C102.892 83.4603 98.5436 90.6118 92.7888 96.1715C87.9565 99.9598 81.5492 103.088 75.332 103.088C75.2977 102.522 75.2634 101.956 75.228 101.373C75.1806 100.642 75.1331 99.9115 75.0842 99.1584C75.0382 98.429 74.9922 97.6996 74.9448 96.9481C74.9643 95.2374 74.9643 95.2374 74.1992 94.5918C72.8069 94.4502 72.8069 94.4502 71.3672 94.5918C69.798 96.161 70.009 97.2909 69.8804 99.4771C69.838 100.15 69.7957 100.823 69.752 101.517C69.7243 102.035 69.6966 102.554 69.668 103.088C61.2303 102.729 54.6227 98.7896 48.8105 92.7709C45.0353 87.9384 41.9141 81.5429 41.9141 75.334C42.4799 75.2997 43.0458 75.2654 43.6288 75.23C44.3596 75.1825 45.0905 75.1351 45.8435 75.0862C46.5729 75.0402 47.3023 74.9942 48.0538 74.9468C49.7646 74.9663 49.7646 74.9663 50.4102 74.2012C50.599 72.809 50.599 72.809 50.4102 71.3691C48.4819 70.0837 47.4845 70.0293 45.2063 69.8823C44.5908 69.84 43.9753 69.7976 43.3411 69.754C42.8702 69.7263 42.3993 69.6985 41.9141 69.6699C42.2887 60.8656 46.6293 54.2243 52.8926 48.1885C57.6699 44.4023 63.5419 41.916 69.668 41.916Z" fill="#8C7676"/>
<path d="M71.3711 26.623C73.0349 26.8354 73.0349 26.8354 74.7695 27.1895C75.62 28.8904 75.3885 30.4693 75.3713 32.3579C75.3662 33.0837 75.3611 33.8094 75.3559 34.5572C75.3493 35.1164 75.3427 35.6757 75.3359 36.252C75.6806 36.2468 76.0252 36.2417 76.3802 36.2365C85.282 36.5376 93.7244 41.757 99.7578 48.0469C104.455 53.4745 108.911 60.7292 108.896 68.1477C108.849 68.65 108.802 69.1524 108.754 69.6699C109.259 69.6502 109.764 69.6305 110.285 69.6102C110.948 69.5949 111.611 69.5795 112.294 69.5637C113.28 69.5341 113.28 69.5341 114.285 69.504C116.243 69.6813 116.976 70.0421 118.383 71.3691C117.887 74.6968 117.887 74.6968 117.25 75.334C115.817 75.3754 114.399 75.3864 112.967 75.3694C112.363 75.3656 112.363 75.3656 111.746 75.3616C110.749 75.3549 109.751 75.3448 108.754 75.334C108.759 75.672 108.764 76.0101 108.769 76.3584C108.521 83.6366 105.236 91.0118 100.258 96.291C99.5744 97.027 99.5744 97.027 98.8772 97.7778C98.1587 98.4437 98.1587 98.4437 97.4258 99.123C97.1147 99.4304 96.8037 99.7378 96.4832 100.055C91.4409 104.817 83.8335 108.599 76.8183 108.809C76.0845 108.781 76.0845 108.781 75.3359 108.752C75.3622 109.305 75.3885 109.857 75.4156 110.427C75.436 111.147 75.4565 111.868 75.4775 112.611C75.5038 113.327 75.5301 114.043 75.5572 114.781C75.3359 116.682 75.3359 116.682 74.2894 117.795C72.7059 118.556 71.8834 118.348 70.2383 117.814C69.6719 117.248 69.6719 117.248 69.6166 115.334C69.6203 114.544 69.6271 113.754 69.6365 112.965C69.639 112.562 69.6416 112.159 69.6442 111.744C69.6509 110.747 69.6611 109.749 69.6719 108.752C69.1031 108.777 68.5343 108.802 67.9483 108.827C58.7785 108.519 51.0024 102.738 44.8916 96.395C44.0447 95.4445 43.2601 94.4681 42.4844 93.459C42.2004 93.1158 41.9163 92.7727 41.6237 92.4191C39.515 89.6324 38.4419 86.7551 37.4575 83.4407C37.3355 83.0301 37.2136 82.6195 37.0879 82.1964C36.438 79.8516 36.1224 77.79 36.2539 75.334C35.7487 75.3537 35.2434 75.3734 34.7228 75.3937C34.0599 75.4091 33.3969 75.4244 32.7139 75.4402C31.7282 75.4698 31.7282 75.4698 30.7226 75.4999C28.7645 75.3226 28.0321 74.9618 26.625 73.6348C26.8374 71.9709 26.8374 71.9709 27.1914 70.2363C28.8924 69.3858 30.4713 69.6174 32.3599 69.6345C33.4485 69.6422 33.4485 69.6422 34.5591 69.65C35.1184 69.6566 35.6777 69.6632 36.2539 69.6699C36.3123 68.9456 36.3707 68.2213 36.4309 67.4751C37.5739 57.691 42.9059 49.4053 50.4959 43.2568C56.2914 38.9865 62.4813 36.7394 69.6719 36.252C69.6522 35.7467 69.6324 35.2414 69.6121 34.7209C69.5968 34.0579 69.5815 33.395 69.5657 32.7119C69.5361 31.7262 69.5361 31.7262 69.5059 30.7206C69.6833 28.7625 70.0441 28.0302 71.3711 26.623ZM51.0159 49.9873C45.5287 55.8785 42.3942 61.6558 41.918 69.6699C42.3889 69.6977 42.8598 69.7254 43.345 69.754C43.9605 69.7963 44.5761 69.8387 45.2102 69.8823C45.8213 69.9218 46.4324 69.9612 47.0621 70.0018C48.7148 70.2363 48.7148 70.2363 50.4141 71.3691C50.5557 72.8206 50.5557 72.8206 50.4141 74.2012C49.3147 75.3005 47.3142 74.9937 45.8474 75.0862C45.1165 75.1336 44.3857 75.1811 43.6327 75.23C43.0668 75.2643 42.501 75.2986 41.918 75.334C41.918 82.0445 45.3038 88.8675 49.9826 93.6515C50.4766 94.1169 50.4766 94.1169 50.9805 94.5918C51.4832 95.1011 51.4832 95.1011 51.996 95.6206C56.7877 100.195 63.0188 103.088 69.6719 103.088C69.6996 102.569 69.7274 102.051 69.756 101.517C69.7983 100.844 69.8406 100.171 69.8843 99.4771C69.9434 98.4717 69.9434 98.4717 70.0038 97.446C70.2383 95.7246 70.2383 95.7246 71.3711 94.5918C72.8225 94.4856 72.8225 94.4856 74.2031 94.5918C75.3025 95.6911 74.9956 97.6917 75.0881 99.1584C75.1356 99.8893 75.1831 100.62 75.2319 101.373C75.2663 101.939 75.3006 102.505 75.3359 103.088C82.0505 103.088 88.8534 99.7007 93.649 95.0321C93.9608 94.6999 94.2725 94.3677 94.5938 94.0254C94.9464 93.664 95.2991 93.3026 95.6624 92.9302C97.9468 90.4733 99.4882 88.0264 100.824 84.9629C101.14 84.3321 101.455 83.7012 101.78 83.0513C102.71 80.4826 102.932 78.0466 103.09 75.334C102.571 75.3062 102.053 75.2785 101.519 75.2499C100.846 75.2076 100.173 75.1652 99.479 75.1216C98.8087 75.0822 98.1385 75.0427 97.4479 75.0021C95.7266 74.7676 95.7266 74.7676 94.5938 73.6348C94.4875 72.1833 94.4875 72.1833 94.5938 70.8027C95.6931 69.7034 97.6937 70.0102 99.1604 69.9177C99.8913 69.8703 100.622 69.8228 101.375 69.7739C101.941 69.7396 102.507 69.7053 103.09 69.6699C102.735 61.3256 99.0457 55.0323 93.0937 49.3191C87.8781 44.7274 82.2962 42.2122 75.3359 41.916C75.3082 42.4344 75.2804 42.9528 75.2519 43.4869C75.2095 44.1601 75.1672 44.8333 75.1235 45.5269C75.0841 46.1971 75.0447 46.8674 75.0041 47.558C74.7695 49.2793 74.7695 49.2793 73.6367 50.4121C72.1853 50.5183 72.1853 50.5183 70.8047 50.4121C69.7053 49.3128 70.0122 47.3122 69.9197 45.8455C69.8722 45.1146 69.8248 44.3837 69.7759 43.6307C69.7415 43.0649 69.7072 42.499 69.6719 41.916C62.5714 41.916 56.0661 45.1316 51.0159 49.9873Z" fill="#FBFBFB"/>
<path d="M75.3281 28.3223C78.2977 30.7969 81.2864 33.3252 83.8242 36.252C83.8242 36.6258 83.8242 36.9996 83.8242 37.3848C82.939 37.304 82.0541 37.2209 81.1692 37.137C80.6763 37.091 80.1835 37.045 79.6757 36.9976C78.2155 36.8249 76.7699 36.5403 75.3281 36.252C75.3281 33.6352 75.3281 31.0184 75.3281 28.3223Z" fill="#917C7C"/>
<path d="M28.8906 75.334C31.3205 75.334 33.7504 75.334 36.2539 75.334C37.4951 81.4671 37.4951 81.4671 36.8203 83.8301C35.4964 82.5225 34.1757 81.2119 32.8555 79.9006C32.4773 79.5272 32.0991 79.1537 31.7094 78.7689C31.3516 78.413 30.9939 78.057 30.6252 77.6903C30.293 77.3611 29.9608 77.0318 29.6185 76.6926C28.8906 75.9004 28.8906 75.9004 28.8906 75.334Z" fill="#8D7777"/>
</g>
<defs>
<clipPath id="clip0_237_241">
<rect width="145" height="145" fill="white" transform="translate(0 0.00195312)"/>
</clipPath>
</defs>
</svg>
