<svg width="425" height="353" viewBox="0 0 425 353" fill="none" xmlns="http://www.w3.org/2000/svg">
<g filter="url(#filter0_d_220_191)">
<path d="M31 322.002H412V63.002C412 35.3877 389.614 13.002 362 13.002H31V322.002Z" fill="#D7D7D7"/>
<path d="M27 318.502C27 322.644 30.3579 326.002 34.5 326.002C38.6421 326.002 42 322.644 42 318.502V13.002H27V318.502Z" fill="black"/>
<path d="M37 306.002C31.4772 306.002 27 310.479 27 316.002C27 321.525 31.4772 326.002 37 326.002H411V306.002H37Z" fill="black"/>
<path d="M72.4298 189.926L75.9923 188.414C76.1256 189.294 75.6543 190.187 74.797 190.551C73.9397 190.915 72.9704 190.634 72.4298 189.926ZM77.8625 172.096C79.9482 173.235 81.514 174.699 82.5442 176.483C83.5744 178.267 84.0587 180.355 84.0027 182.731C83.9929 183.145 83.6493 183.473 83.2352 183.463C82.8211 183.453 82.4933 183.11 82.5031 182.696C82.5528 180.584 82.1316 178.768 81.2452 177.233C80.3587 175.698 78.9966 174.425 77.1433 173.412C76.7798 173.214 76.6461 172.758 76.8447 172.394C77.0433 172.031 77.499 171.897 77.8625 172.096ZM68.7127 176.517C71.5744 175.243 74.9168 176.448 76.3121 179.263L76.4104 179.472L77.6978 182.364L79.3961 183.834C79.4888 183.914 79.5691 184.008 79.6622 184.159L79.7209 184.273C80.0003 184.904 79.715 185.643 79.0837 185.922L68.7571 190.492C68.5978 190.563 68.4255 190.599 68.2512 190.599C67.5609 190.599 67.0012 190.039 67.0012 189.349L67.0001 187.007L65.7578 184.215C64.4443 181.265 65.7669 177.829 68.7127 176.517ZM67.1281 183.605L68.5 186.687L68.501 188.965L78.1161 184.71L76.4634 183.28L75.0465 180.097L74.9615 179.915C73.9301 177.835 71.4497 176.941 69.3228 177.888C67.1333 178.863 66.1518 181.412 67.1281 183.605ZM77.6249 175.697C78.5919 176.224 79.3669 176.991 79.9412 177.986C80.5154 178.981 80.7925 180.035 80.7656 181.136C80.7555 181.551 80.4117 181.878 79.9976 181.868C79.5835 181.858 79.256 181.514 79.2661 181.1C79.2861 180.278 79.0804 179.495 78.6421 178.736C78.2039 177.977 77.6284 177.407 76.9068 177.013C76.5432 176.815 76.4091 176.36 76.6074 175.996C76.8057 175.632 77.2613 175.498 77.6249 175.697Z" fill="#212121"/>
<path d="M179.28 280.533L179.353 280.449C179.571 280.155 179.546 279.738 179.28 279.472L176.561 276.753L183.25 276.752L183.352 276.745C183.718 276.696 184 276.382 184 276.002L183.994 275.901C183.944 275.534 183.63 275.252 183.25 275.252L176.559 275.253L179.281 272.532L179.353 272.448C179.571 272.154 179.547 271.738 179.281 271.471C178.988 271.178 178.513 271.178 178.22 271.471L174.219 275.471L174.146 275.555C173.928 275.849 173.952 276.266 174.219 276.532L178.219 280.533L178.304 280.605C178.597 280.823 179.014 280.799 179.28 280.533ZM179 266.002C173.477 266.002 169 270.479 169 276.002C169 281.525 173.477 286.002 179 286.002C184.523 286.002 189 281.525 189 276.002C189 270.479 184.523 266.002 179 266.002ZM179 284.502C174.306 284.502 170.5 280.696 170.5 276.002C170.5 271.308 174.306 267.502 179 267.502C183.694 267.502 187.5 271.308 187.5 276.002C187.5 280.696 183.694 284.502 179 284.502Z" fill="#212121"/>
<path d="M343.753 268.502C344.132 268.502 344.446 268.784 344.496 269.15L344.502 269.252L344.5 282.256C344.5 282.67 344.164 283.006 343.75 283.006C343.37 283.006 343.056 282.724 343.007 282.358L343 282.256L343.002 269.252C343.002 268.838 343.338 268.502 343.753 268.502ZM356.647 270.306L356.72 270.222C356.986 269.955 357.403 269.931 357.696 270.149L357.78 270.222L362.777 275.219C363.043 275.485 363.067 275.902 362.85 276.195L362.777 276.28L357.781 281.283C357.488 281.576 357.013 281.576 356.72 281.284C356.454 281.018 356.429 280.601 356.647 280.307L356.719 280.223L360.43 276.506L346.753 276.507C346.373 276.507 346.059 276.225 346.01 275.859L346.003 275.757C346.003 275.377 346.285 275.063 346.651 275.014L346.753 275.007L360.443 275.006L356.72 271.282C356.453 271.016 356.429 270.599 356.647 270.306Z" fill="#212121"/>
<path d="M257.5 276.002C257.5 271.308 261.306 267.502 266 267.502C270.694 267.502 274.5 271.308 274.5 276.002C274.5 280.696 270.694 284.502 266 284.502C261.306 284.502 257.5 280.696 257.5 276.002ZM266 266.002C260.477 266.002 256 270.479 256 276.002C256 281.525 260.477 286.002 266 286.002C271.523 286.002 276 281.525 276 276.002C276 270.479 271.523 266.002 266 266.002ZM271.5 272.252C271.5 271.838 271.164 271.502 270.75 271.502C270.336 271.502 270 271.838 270 272.252V273.001C269.088 271.787 267.636 271.002 266 271.002C264.473 271.002 263.106 271.687 262.19 272.764C261.922 273.08 261.96 273.553 262.275 273.821C262.591 274.09 263.064 274.051 263.333 273.736C263.976 272.98 264.932 272.502 266 272.502C267.396 272.502 268.602 273.319 269.163 274.502H267.75C267.336 274.502 267 274.838 267 275.252C267 275.666 267.336 276.002 267.75 276.002H270.75C271.164 276.002 271.5 275.666 271.5 275.252V272.252ZM261.25 280.502C260.836 280.502 260.5 280.166 260.5 279.752V276.752C260.5 276.338 260.836 276.002 261.25 276.002H264.25C264.664 276.002 265 276.338 265 276.752C265 277.166 264.664 277.502 264.25 277.502H262.837C263.399 278.684 264.604 279.502 266 279.502C267.068 279.502 268.024 279.025 268.667 278.269C268.935 277.954 269.408 277.916 269.724 278.184C270.039 278.453 270.077 278.926 269.809 279.241C268.893 280.317 267.526 281.002 266 281.002C264.364 281.002 262.912 280.217 262 279.002V279.752C262 280.166 261.664 280.502 261.25 280.502Z" fill="#212121"/>
<path d="M92 119.002C96.6944 119.002 100.5 122.808 100.5 127.502C100.5 132.196 96.6944 136.002 92 136.002C87.3056 136.002 83.5 132.196 83.5 127.502C83.5 122.808 87.3056 119.002 92 119.002ZM92 120.502C88.134 120.502 85 123.636 85 127.502C85 131.368 88.134 134.502 92 134.502C95.866 134.502 99 131.368 99 127.502C99 123.636 95.866 120.502 92 120.502ZM92 122.002C92.3797 122.002 92.6935 122.284 92.7432 122.65L92.75 122.752V127.252C92.75 127.666 92.4142 128.002 92 128.002C91.6203 128.002 91.3065 127.72 91.2568 127.354L91.25 127.252V122.752C91.25 122.338 91.5858 122.002 92 122.002ZM99.1472 119.116L99.2298 119.176L100.388 120.14C100.707 120.405 100.75 120.878 100.485 121.196C100.242 121.488 99.8243 121.548 99.5112 121.352L99.4286 121.293L98.2702 120.328C97.9518 120.063 97.9086 119.591 98.1735 119.272C98.4165 118.98 98.8341 118.92 99.1472 119.116ZM94.25 116.502C94.6642 116.502 95 116.838 95 117.252C95 117.632 94.7178 117.945 94.3518 117.995L94.25 118.002H89.75C89.3358 118.002 89 117.666 89 117.252C89 116.872 89.2821 116.558 89.6482 116.509L89.75 116.502H94.25Z" fill="#212121"/>
<path d="M179 119.002C183.199 119.002 186.686 122.046 187.376 126.048C187.172 126.018 186.963 126.002 186.75 126.002C186.444 126.002 186.146 126.034 185.859 126.096C185.208 122.904 182.384 120.502 179 120.502C175.134 120.502 172 123.636 172 127.502C172 131.368 175.134 134.502 179 134.502C179.168 134.502 179.335 134.496 179.5 134.484V135.987C179.335 135.997 179.168 136.002 179 136.002C174.306 136.002 170.5 132.196 170.5 127.502C170.5 122.808 174.306 119.002 179 119.002ZM179.75 126.407V122.752L179.743 122.65C179.694 122.284 179.38 122.002 179 122.002C178.586 122.002 178.25 122.338 178.25 122.752V127.252L178.256 127.341C178.464 127 178.788 126.728 179.197 126.592L179.75 126.407ZM186.147 119.116L186.23 119.176L187.388 120.14C187.707 120.405 187.75 120.878 187.485 121.196C187.242 121.488 186.824 121.548 186.511 121.352L186.429 121.293L185.27 120.328C184.952 120.063 184.909 119.591 185.174 119.272C185.417 118.98 185.834 118.92 186.147 119.116ZM181.25 116.502C181.664 116.502 182 116.838 182 117.252C182 117.632 181.718 117.945 181.352 117.995L181.25 118.002H176.75C176.336 118.002 176 117.666 176 117.252C176 116.872 176.282 116.558 176.648 116.509L176.75 116.502H181.25ZM181.689 127.144C181.884 127.284 182 127.511 182 127.752V136.252C182 136.666 181.664 137.002 181.25 137.002C180.836 137.002 180.5 136.666 180.5 136.252V128.793L179.987 128.963C179.594 129.094 179.169 128.882 179.038 128.489C178.908 128.096 179.12 127.671 179.513 127.54L181.013 127.04C181.241 126.964 181.493 127.003 181.689 127.144ZM183.5 130.252C183.5 128.457 184.955 127.002 186.75 127.002C188.545 127.002 190 128.457 190 130.252V133.752C190 135.547 188.545 137.002 186.75 137.002C184.955 137.002 183.5 135.547 183.5 133.752V130.252ZM186.75 128.502C185.783 128.502 185 129.285 185 130.252V133.752C185 134.718 185.783 135.502 186.75 135.502C187.716 135.502 188.5 134.718 188.5 133.752V130.252C188.5 129.285 187.716 128.502 186.75 128.502Z" fill="#212121"/>
<path d="M262.75 125.502C262.336 125.502 262 125.838 262 126.252C262 126.666 262.336 127.002 262.75 127.002H269.25C269.664 127.002 270 126.666 270 126.252C270 125.838 269.664 125.502 269.25 125.502H262.75ZM262.75 128.252C262.336 128.252 262 128.588 262 129.002C262 129.416 262.336 129.752 262.75 129.752H269.25C269.664 129.752 270 129.416 270 129.002C270 128.588 269.664 128.252 269.25 128.252H262.75ZM262.75 131.002C262.336 131.002 262 131.338 262 131.752C262 132.166 262.336 132.502 262.75 132.502H269.25C269.664 132.502 270 132.166 270 131.752C270 131.338 269.664 131.002 269.25 131.002H262.75ZM267.585 116.588L273.414 122.416C273.789 122.791 274 123.3 274 123.83V134.002C274 135.106 273.104 136.002 272 136.002H260C258.896 136.002 258 135.106 258 134.002V118.002C258 116.898 258.896 116.002 260 116.002H266.172C266.2 116.002 266.227 116.006 266.254 116.009C266.274 116.012 266.293 116.015 266.313 116.016C266.528 116.031 266.74 116.072 266.937 116.154C266.994 116.178 267.049 116.21 267.103 116.241C267.12 116.251 267.136 116.261 267.153 116.27C267.168 116.278 267.184 116.286 267.2 116.294C267.228 116.307 267.256 116.321 267.281 116.338C267.359 116.391 267.429 116.454 267.5 116.518C267.512 116.528 267.524 116.538 267.536 116.547C267.553 116.56 267.57 116.573 267.585 116.588ZM272 134.502C272.276 134.502 272.5 134.277 272.5 134.002V124.002H268C266.896 124.002 266 123.106 266 122.002V117.502H260C259.724 117.502 259.5 117.727 259.5 118.002V134.002C259.5 134.277 259.724 134.502 260 134.502H272ZM271.378 122.502L267.5 118.623V122.002C267.5 122.277 267.724 122.502 268 122.502H271.378Z" fill="#212121"/>
<path d="M74 211.502C78.1421 211.502 81.5 214.86 81.5 219.002C81.5 223.144 78.1421 226.502 74 226.502C69.8579 226.502 66.5 223.144 66.5 219.002C66.5 218.626 66.5277 218.256 66.5812 217.894C66.6485 217.44 66.3161 217.002 65.8571 217.002C65.4862 217.002 65.161 217.258 65.1047 217.625C65.0358 218.074 65 218.534 65 219.002C65 223.973 69.0294 228.002 74 228.002C78.9706 228.002 83 223.973 83 219.002C83 214.031 78.9706 210.002 74 210.002C71.6949 210.002 69.5923 210.869 68 212.294V211.252C68 210.838 67.6642 210.502 67.25 210.502C66.8358 210.502 66.5 210.838 66.5 211.252V214.252C66.5 214.666 66.8358 215.002 67.25 215.002H70.25C70.6642 215.002 71 214.666 71 214.252C71 213.838 70.6642 213.502 70.25 213.502H68.9009C70.2391 212.261 72.0309 211.502 74 211.502Z" fill="#212121"/>
<line x1="41.9694" y1="43.002" x2="406.001" y2="43.4952" stroke="black"/>
<line x1="98" y1="181.002" x2="411.002" y2="181.002" stroke="black"/>
<line x1="98" y1="216.502" x2="411" y2="216.502" stroke="black" stroke-width="5"/>
<line x1="42" y1="91.752" x2="411.066" y2="91.752" stroke="black" stroke-width="0.5"/>
<line x1="98" y1="180.502" x2="223" y2="180.502" stroke="black" stroke-width="5"/>
<path d="M351.559 117.624L354.718 120.782C355.011 121.075 355.486 121.075 355.778 120.782C356.071 120.489 356.071 120.015 355.778 119.722L353.578 117.521C354.415 117.577 355.218 117.755 355.971 118.036L358.468 120.532C358.757 120.821 359.223 120.825 359.517 120.544C360.755 122.021 361.5 123.924 361.5 126.002C361.5 130.696 357.694 134.502 353 134.502C350.922 134.502 349.019 133.756 347.542 132.518C347.821 132.225 347.817 131.76 347.528 131.472L345.036 128.979C344.754 128.226 344.576 127.422 344.52 126.584L346.718 128.782C347.011 129.075 347.486 129.075 347.778 128.782C348.071 128.489 348.071 128.015 347.778 127.722L344.621 124.564C344.708 124.053 344.841 123.556 345.016 123.08L347.718 125.782C348.011 126.075 348.486 126.075 348.778 125.782C349.071 125.489 349.071 125.015 348.778 124.722L345.701 121.644C345.932 121.257 346.194 120.89 346.482 120.546L349.218 123.282C349.511 123.575 349.986 123.575 350.278 123.282C350.571 122.989 350.571 122.515 350.278 122.222L347.542 119.485C347.886 119.197 348.253 118.936 348.64 118.704L351.718 121.782C352.011 122.075 352.486 122.075 352.778 121.782C353.071 121.489 353.071 121.015 352.778 120.722L350.075 118.019C350.551 117.844 351.047 117.711 351.559 117.624ZM353 116.002C347.477 116.002 343 120.479 343 126.002C343 131.525 347.477 136.002 353 136.002C358.523 136.002 363 131.525 363 126.002C363 120.479 358.523 116.002 353 116.002Z" fill="#212121"/>
<path d="M88 281.252C88 281.666 88.3358 282.002 88.75 282.002C89.1642 282.002 89.5 281.666 89.5 281.252V273.752C89.5 273.338 89.1642 273.002 88.75 273.002C88.3358 273.002 88 273.338 88 273.752V281.252ZM95.25 282.002C94.8358 282.002 94.5 281.666 94.5 281.252V273.752C94.5 273.338 94.8358 273.002 95.25 273.002C95.6642 273.002 96 273.338 96 273.752V281.252C96 281.666 95.6642 282.002 95.25 282.002ZM91.25 281.252C91.25 281.666 91.5858 282.002 92 282.002C92.4142 282.002 92.75 281.666 92.75 281.252V273.752C92.75 273.338 92.4142 273.002 92 273.002C91.5858 273.002 91.25 273.338 91.25 273.752V281.252ZM95.9862 268.001C95.8616 266.877 94.9079 266.002 93.75 266.002H90.25C89.0921 266.002 88.1384 266.877 88.0138 268.001L86.25 268.002C85.0074 268.002 84 269.009 84 270.252V283.752C84 284.995 85.0074 286.002 86.25 286.002H97.75C98.9926 286.002 100 284.995 100 283.752V270.252C100 269.009 98.9926 268.002 97.75 268.002L95.9862 268.001ZM95.9948 268.098L96 268.252C96 268.2 95.9983 268.149 95.9948 268.098ZM90.25 270.502H93.75C94.53 270.502 95.2174 270.105 95.621 269.502L97.75 269.502C98.1642 269.502 98.5 269.838 98.5 270.252V283.752C98.5 284.166 98.1642 284.502 97.75 284.502H86.25C85.8358 284.502 85.5 284.166 85.5 283.752V270.252C85.5 269.838 85.8358 269.502 86.25 269.502L88.379 269.502C88.7827 270.105 89.47 270.502 90.25 270.502ZM90.25 267.502H93.75C94.1642 267.502 94.5 267.838 94.5 268.252C94.5 268.666 94.1642 269.002 93.75 269.002H90.25C89.8358 269.002 89.5 268.666 89.5 268.252C89.5 267.838 89.8358 267.502 90.25 267.502Z" fill="#212121"/>
<circle cx="227.5" cy="180.502" r="7.5" fill="black"/>
<path d="M145.557 66.9224L144.653 67.1781C144.597 67.0275 144.513 66.8812 144.402 66.7392C144.294 66.5943 144.146 66.475 143.959 66.3812C143.771 66.2875 143.531 66.2406 143.239 66.2406C142.838 66.2406 142.504 66.3329 142.237 66.5176C141.973 66.6994 141.841 66.9309 141.841 67.2122C141.841 67.4622 141.932 67.6596 142.114 67.8045C142.295 67.9494 142.58 68.0701 142.966 68.1667L143.938 68.4054C144.523 68.5474 144.959 68.7647 145.246 69.0574C145.533 69.3471 145.676 69.7207 145.676 70.1781C145.676 70.5531 145.568 70.8883 145.352 71.1838C145.139 71.4792 144.841 71.7122 144.457 71.8826C144.074 72.0531 143.628 72.1383 143.119 72.1383C142.452 72.1383 141.899 71.9934 141.462 71.7037C141.024 71.4139 140.747 70.9906 140.631 70.4338L141.585 70.1951C141.676 70.5474 141.848 70.8116 142.101 70.9877C142.357 71.1639 142.69 71.252 143.102 71.252C143.571 71.252 143.943 71.1525 144.219 70.9537C144.497 70.752 144.636 70.5105 144.636 70.2292C144.636 70.002 144.557 69.8116 144.398 69.6582C144.239 69.502 143.994 69.3855 143.665 69.3088L142.574 69.0531C141.974 68.911 141.534 68.6909 141.253 68.3926C140.974 68.0914 140.835 67.715 140.835 67.2633C140.835 66.894 140.939 66.5673 141.146 66.2832C141.357 65.9991 141.642 65.7761 142.003 65.6142C142.366 65.4522 142.778 65.3713 143.239 65.3713C143.886 65.3713 144.395 65.5133 144.764 65.7974C145.136 66.0815 145.401 66.4565 145.557 66.9224ZM147.19 74.4565V65.4565H148.162V66.4963H148.281C148.355 66.3826 148.457 66.2377 148.588 66.0616C148.721 65.8826 148.912 65.7235 149.159 65.5843C149.409 65.4423 149.747 65.3713 150.173 65.3713C150.724 65.3713 151.21 65.5091 151.63 65.7846C152.051 66.0602 152.379 66.4508 152.615 66.9565C152.85 67.4622 152.968 68.0588 152.968 68.7463C152.968 69.4395 152.85 70.0403 152.615 70.5488C152.379 71.0545 152.052 71.4466 151.635 71.725C151.217 72.0005 150.735 72.1383 150.19 72.1383C149.77 72.1383 149.433 72.0687 149.18 71.9295C148.927 71.7875 148.733 71.627 148.596 71.448C148.46 71.2662 148.355 71.1156 148.281 70.9963H148.196V74.4565H147.19ZM148.179 68.7292C148.179 69.2235 148.251 69.6596 148.396 70.0375C148.541 70.4125 148.752 70.7065 149.031 70.9196C149.309 71.1298 149.65 71.2349 150.054 71.2349C150.474 71.2349 150.825 71.1241 151.106 70.9025C151.39 70.6781 151.603 70.377 151.745 69.9991C151.89 69.6184 151.963 69.1951 151.963 68.7292C151.963 68.269 151.892 67.8542 151.75 67.4849C151.61 67.1127 151.399 66.8187 151.115 66.6028C150.833 66.3841 150.48 66.2747 150.054 66.2747C149.645 66.2747 149.301 66.3784 149.022 66.5858C148.744 66.7903 148.534 67.0772 148.392 67.4466C148.25 67.813 148.179 68.2406 148.179 68.7292ZM157.247 72.1383C156.616 72.1383 156.072 71.9991 155.615 71.7207C155.16 71.4395 154.809 71.0474 154.562 70.5446C154.318 70.0389 154.196 69.4508 154.196 68.7804C154.196 68.1099 154.318 67.519 154.562 67.0076C154.809 66.4934 155.153 66.0929 155.593 65.8059C156.037 65.5162 156.554 65.3713 157.145 65.3713C157.485 65.3713 157.822 65.4281 158.154 65.5417C158.487 65.6554 158.789 65.84 159.062 66.0957C159.335 66.3485 159.552 66.6838 159.714 67.1014C159.876 67.519 159.957 68.0332 159.957 68.644V69.0701H154.912V68.2008H158.934C158.934 67.8315 158.86 67.502 158.713 67.2122C158.568 66.9224 158.36 66.6937 158.091 66.5261C157.824 66.3585 157.508 66.2747 157.145 66.2747C156.744 66.2747 156.397 66.3741 156.105 66.573C155.815 66.769 155.592 67.0247 155.436 67.34C155.279 67.6554 155.201 67.9934 155.201 68.3542V68.9338C155.201 69.4281 155.287 69.8471 155.457 70.1909C155.63 70.5318 155.87 70.7917 156.177 70.9707C156.484 71.1468 156.841 71.2349 157.247 71.2349C157.511 71.2349 157.75 71.198 157.963 71.1241C158.179 71.0474 158.365 70.9338 158.521 70.7832C158.677 70.6298 158.798 70.4395 158.883 70.2122L159.855 70.4849C159.752 70.8145 159.581 71.1042 159.339 71.3542C159.098 71.6014 158.799 71.7946 158.444 71.9338C158.089 72.0701 157.69 72.1383 157.247 72.1383ZM164.231 72.1383C163.6 72.1383 163.056 71.9991 162.599 71.7207C162.145 71.4395 161.794 71.0474 161.547 70.5446C161.302 70.0389 161.18 69.4508 161.18 68.7804C161.18 68.1099 161.302 67.519 161.547 67.0076C161.794 66.4934 162.137 66.0929 162.578 65.8059C163.021 65.5162 163.538 65.3713 164.129 65.3713C164.47 65.3713 164.806 65.4281 165.139 65.5417C165.471 65.6554 165.774 65.84 166.047 66.0957C166.319 66.3485 166.537 66.6838 166.699 67.1014C166.86 67.519 166.941 68.0332 166.941 68.644V69.0701H161.896V68.2008H165.919C165.919 67.8315 165.845 67.502 165.697 67.2122C165.552 66.9224 165.345 66.6937 165.075 66.5261C164.808 66.3585 164.493 66.2747 164.129 66.2747C163.728 66.2747 163.382 66.3741 163.089 66.573C162.799 66.769 162.576 67.0247 162.42 67.34C162.264 67.6554 162.186 67.9934 162.186 68.3542V68.9338C162.186 69.4281 162.271 69.8471 162.441 70.1909C162.615 70.5318 162.855 70.7917 163.162 70.9707C163.468 71.1468 163.825 71.2349 164.231 71.2349C164.495 71.2349 164.734 71.198 164.947 71.1241C165.163 71.0474 165.349 70.9338 165.505 70.7832C165.662 70.6298 165.782 70.4395 165.868 70.2122L166.839 70.4849C166.737 70.8145 166.565 71.1042 166.324 71.3542C166.082 71.6014 165.784 71.7946 165.429 71.9338C165.074 72.0701 164.674 72.1383 164.231 72.1383ZM171.13 72.1383C170.517 72.1383 169.988 71.9934 169.545 71.7037C169.102 71.4139 168.761 71.0147 168.522 70.5062C168.284 69.9977 168.164 69.4167 168.164 68.7633C168.164 68.0985 168.287 67.5119 168.531 67.0034C168.778 66.492 169.122 66.0929 169.562 65.8059C170.005 65.5162 170.522 65.3713 171.113 65.3713C171.574 65.3713 171.988 65.4565 172.358 65.627C172.727 65.7974 173.029 66.036 173.265 66.3429C173.501 66.6497 173.647 67.0076 173.704 67.4167H172.699C172.622 67.1184 172.451 66.8542 172.187 66.6241C171.926 66.3912 171.574 66.2747 171.13 66.2747C170.738 66.2747 170.395 66.377 170.099 66.5815C169.806 66.7832 169.578 67.0687 169.413 67.438C169.251 67.8045 169.17 68.2349 169.17 68.7292C169.17 69.2349 169.25 69.6752 169.409 70.0502C169.571 70.4252 169.798 70.7164 170.091 70.9238C170.386 71.1312 170.733 71.2349 171.13 71.2349C171.392 71.2349 171.629 71.1895 171.842 71.0985C172.055 71.0076 172.235 70.877 172.383 70.7065C172.531 70.536 172.636 70.3315 172.699 70.0929H173.704C173.647 70.4792 173.507 70.8272 173.282 71.1369C173.061 71.4437 172.767 71.688 172.4 71.8699C172.037 72.0488 171.613 72.1383 171.13 72.1383ZM176.18 68.0645V72.002H175.174V63.2747H176.18V66.4792H176.265C176.419 66.1412 176.649 65.8727 176.956 65.6738C177.265 65.4721 177.677 65.3713 178.191 65.3713C178.637 65.3713 179.028 65.4608 179.363 65.6397C179.699 65.8159 179.958 66.0872 180.143 66.4537C180.331 66.8173 180.424 67.2804 180.424 67.8429V72.002H179.419V67.911C179.419 67.3912 179.284 66.9892 179.014 66.7051C178.747 66.4181 178.376 66.2747 177.902 66.2747C177.572 66.2747 177.277 66.3443 177.015 66.4835C176.757 66.6227 176.552 66.8258 176.402 67.0929C176.254 67.3599 176.18 67.6838 176.18 68.0645ZM185.639 72.002V65.4565H186.611V66.4451H186.679C186.798 66.1213 187.014 65.8585 187.327 65.6568C187.639 65.4551 187.991 65.3542 188.384 65.3542C188.457 65.3542 188.55 65.3556 188.661 65.3585C188.771 65.3613 188.855 65.3656 188.912 65.3713V66.394C188.878 66.3855 188.8 66.3727 188.678 66.3556C188.558 66.3358 188.432 66.3258 188.298 66.3258C187.98 66.3258 187.696 66.3926 187.446 66.5261C187.199 66.6568 187.003 66.8386 186.858 67.0716C186.716 67.3017 186.645 67.5645 186.645 67.8599V72.002H185.639ZM192.649 72.1383C192.018 72.1383 191.474 71.9991 191.017 71.7207C190.562 71.4395 190.212 71.0474 189.964 70.5446C189.72 70.0389 189.598 69.4508 189.598 68.7804C189.598 68.1099 189.72 67.519 189.964 67.0076C190.212 66.4934 190.555 66.0929 190.996 65.8059C191.439 65.5162 191.956 65.3713 192.547 65.3713C192.888 65.3713 193.224 65.4281 193.557 65.5417C193.889 65.6554 194.192 65.84 194.464 66.0957C194.737 66.3485 194.955 66.6838 195.116 67.1014C195.278 67.519 195.359 68.0332 195.359 68.644V69.0701H190.314V68.2008H194.337C194.337 67.8315 194.263 67.502 194.115 67.2122C193.97 66.9224 193.763 66.6937 193.493 66.5261C193.226 66.3585 192.911 66.2747 192.547 66.2747C192.146 66.2747 191.8 66.3741 191.507 66.573C191.217 66.769 190.994 67.0247 190.838 67.34C190.682 67.6554 190.604 67.9934 190.604 68.3542V68.9338C190.604 69.4281 190.689 69.8471 190.859 70.1909C191.033 70.5318 191.273 70.7917 191.58 70.9707C191.886 71.1468 192.243 71.2349 192.649 71.2349C192.913 71.2349 193.152 71.198 193.365 71.1241C193.581 71.0474 193.767 70.9338 193.923 70.7832C194.08 70.6298 194.2 70.4395 194.286 70.2122L195.257 70.4849C195.155 70.8145 194.983 71.1042 194.741 71.3542C194.5 71.6014 194.202 71.7946 193.847 71.9338C193.491 72.0701 193.092 72.1383 192.649 72.1383ZM199.548 72.1383C198.935 72.1383 198.406 71.9934 197.963 71.7037C197.52 71.4139 197.179 71.0147 196.94 70.5062C196.702 69.9977 196.582 69.4167 196.582 68.7633C196.582 68.0985 196.705 67.5119 196.949 67.0034C197.196 66.492 197.54 66.0929 197.98 65.8059C198.423 65.5162 198.94 65.3713 199.531 65.3713C199.991 65.3713 200.406 65.4565 200.776 65.627C201.145 65.7974 201.447 66.036 201.683 66.3429C201.919 66.6497 202.065 67.0076 202.122 67.4167H201.116C201.04 67.1184 200.869 66.8542 200.605 66.6241C200.344 66.3912 199.991 66.2747 199.548 66.2747C199.156 66.2747 198.813 66.377 198.517 66.5815C198.224 66.7832 197.996 67.0687 197.831 67.438C197.669 67.8045 197.588 68.2349 197.588 68.7292C197.588 69.2349 197.668 69.6752 197.827 70.0502C197.989 70.4252 198.216 70.7164 198.509 70.9238C198.804 71.1312 199.151 71.2349 199.548 71.2349C199.81 71.2349 200.047 71.1895 200.26 71.0985C200.473 71.0076 200.653 70.877 200.801 70.7065C200.949 70.536 201.054 70.3315 201.116 70.0929H202.122C202.065 70.4792 201.925 70.8272 201.7 71.1369C201.479 71.4437 201.185 71.688 200.818 71.8699C200.455 72.0488 200.031 72.1383 199.548 72.1383ZM206.251 72.1383C205.661 72.1383 205.142 71.9977 204.696 71.7164C204.253 71.4352 203.906 71.0417 203.656 70.536C203.409 70.0304 203.286 69.4395 203.286 68.7633C203.286 68.0815 203.409 67.4863 203.656 66.9778C203.906 66.4693 204.253 66.0744 204.696 65.7931C205.142 65.5119 205.661 65.3713 206.251 65.3713C206.842 65.3713 207.359 65.5119 207.803 65.7931C208.249 66.0744 208.595 66.4693 208.842 66.9778C209.092 67.4863 209.217 68.0815 209.217 68.7633C209.217 69.4395 209.092 70.0304 208.842 70.536C208.595 71.0417 208.249 71.4352 207.803 71.7164C207.359 71.9977 206.842 72.1383 206.251 72.1383ZM206.251 71.2349C206.7 71.2349 207.07 71.1199 207.359 70.8897C207.649 70.6596 207.864 70.3571 208.003 69.9821C208.142 69.6071 208.212 69.2008 208.212 68.7633C208.212 68.3258 208.142 67.9181 208.003 67.5403C207.864 67.1625 207.649 66.8571 207.359 66.6241C207.07 66.3912 206.7 66.2747 206.251 66.2747C205.803 66.2747 205.433 66.3912 205.143 66.6241C204.854 66.8571 204.639 67.1625 204.5 67.5403C204.361 67.9181 204.291 68.3258 204.291 68.7633C204.291 69.2008 204.361 69.6071 204.5 69.9821C204.639 70.3571 204.854 70.6596 205.143 70.8897C205.433 71.1199 205.803 71.2349 206.251 71.2349ZM213.395 74.5929C212.909 74.5929 212.491 74.5304 212.142 74.4054C211.792 74.2832 211.501 74.1213 211.268 73.9196C211.038 73.7207 210.855 73.5076 210.718 73.2804L211.52 72.7179C211.61 72.8372 211.725 72.9735 211.865 73.127C212.004 73.2832 212.194 73.4181 212.436 73.5318C212.68 73.6483 213 73.7065 213.395 73.7065C213.923 73.7065 214.359 73.5787 214.703 73.323C215.047 73.0673 215.218 72.6667 215.218 72.1213V70.7917H215.133C215.059 70.911 214.954 71.0588 214.818 71.2349C214.684 71.4082 214.491 71.563 214.238 71.6994C213.988 71.8329 213.65 71.8997 213.224 71.8997C212.696 71.8997 212.221 71.7747 211.801 71.5247C211.383 71.2747 211.052 70.911 210.808 70.4338C210.566 69.9565 210.446 69.377 210.446 68.6951C210.446 68.0247 210.564 67.4409 210.799 66.9437C211.035 66.4437 211.363 66.0574 211.784 65.7846C212.204 65.5091 212.69 65.3713 213.241 65.3713C213.667 65.3713 214.005 65.4423 214.255 65.5843C214.508 65.7235 214.701 65.8826 214.835 66.0616C214.971 66.2377 215.076 66.3826 215.15 66.4963H215.252V65.4565H216.224V72.1895C216.224 72.752 216.096 73.2093 215.841 73.5616C215.588 73.9167 215.247 74.1767 214.818 74.3414C214.392 74.5091 213.917 74.5929 213.395 74.5929ZM213.36 70.9963C213.764 70.9963 214.105 70.9039 214.383 70.7193C214.662 70.5346 214.873 70.269 215.018 69.9224C215.163 69.5758 215.235 69.161 215.235 68.6781C215.235 68.2065 215.164 67.7903 215.022 67.4295C214.88 67.0687 214.67 66.786 214.392 66.5815C214.113 66.377 213.77 66.2747 213.36 66.2747C212.934 66.2747 212.579 66.3826 212.295 66.5985C212.014 66.8145 211.802 67.1042 211.66 67.4679C211.521 67.8315 211.451 68.2349 211.451 68.6781C211.451 69.1326 211.522 69.5346 211.664 69.8841C211.809 70.2306 212.022 70.5034 212.304 70.7022C212.588 70.8983 212.94 70.9963 213.36 70.9963ZM219.071 68.0645V72.002H218.065V65.4565H219.037V66.4792H219.122C219.275 66.1468 219.508 65.8798 219.821 65.6781C220.133 65.4735 220.537 65.3713 221.031 65.3713C221.474 65.3713 221.862 65.4622 222.194 65.644C222.527 65.823 222.785 66.0957 222.97 66.4622C223.154 66.8258 223.247 67.286 223.247 67.8429V72.002H222.241V67.911C222.241 67.3968 222.108 66.9963 221.841 66.7093C221.574 66.4196 221.207 66.2747 220.741 66.2747C220.42 66.2747 220.133 66.3443 219.88 66.4835C219.63 66.6227 219.433 66.8258 219.288 67.0929C219.143 67.3599 219.071 67.6838 219.071 68.0645ZM225.085 72.002V65.4565H226.09V72.002H225.085ZM225.596 64.3656C225.4 64.3656 225.231 64.2988 225.089 64.1653C224.95 64.0318 224.88 63.8713 224.88 63.6838C224.88 63.4963 224.95 63.3358 225.089 63.2022C225.231 63.0687 225.4 63.002 225.596 63.002C225.792 63.002 225.96 63.0687 226.099 63.2022C226.241 63.3358 226.312 63.4963 226.312 63.6838C226.312 63.8713 226.241 64.0318 226.099 64.1653C225.96 64.2988 225.792 64.3656 225.596 64.3656ZM230.779 65.4565V66.3088H227.387V65.4565H230.779ZM228.375 63.8883H229.381V70.127C229.381 70.411 229.422 70.6241 229.505 70.7662C229.59 70.9054 229.698 70.9991 229.828 71.0474C229.962 71.0929 230.103 71.1156 230.25 71.1156C230.361 71.1156 230.452 71.1099 230.523 71.0985C230.594 71.0843 230.651 71.073 230.694 71.0645L230.898 71.9679C230.83 71.9934 230.735 72.019 230.613 72.0446C230.49 72.073 230.336 72.0872 230.148 72.0872C229.864 72.0872 229.586 72.0261 229.313 71.9039C229.043 71.7818 228.819 71.5957 228.64 71.3457C228.463 71.0957 228.375 70.7804 228.375 70.3997V63.8883ZM232.292 72.002V65.4565H233.297V72.002H232.292ZM232.803 64.3656C232.607 64.3656 232.438 64.2988 232.296 64.1653C232.157 64.0318 232.087 63.8713 232.087 63.6838C232.087 63.4963 232.157 63.3358 232.296 63.2022C232.438 63.0687 232.607 63.002 232.803 63.002C232.999 63.002 233.167 63.0687 233.306 63.2022C233.448 63.3358 233.519 63.4963 233.519 63.6838C233.519 63.8713 233.448 64.0318 233.306 64.1653C233.167 64.2988 232.999 64.3656 232.803 64.3656ZM237.798 72.1383C237.207 72.1383 236.689 71.9977 236.243 71.7164C235.8 71.4352 235.453 71.0417 235.203 70.536C234.956 70.0304 234.832 69.4395 234.832 68.7633C234.832 68.0815 234.956 67.4863 235.203 66.9778C235.453 66.4693 235.8 66.0744 236.243 65.7931C236.689 65.5119 237.207 65.3713 237.798 65.3713C238.389 65.3713 238.906 65.5119 239.349 65.7931C239.795 66.0744 240.142 66.4693 240.389 66.9778C240.639 67.4863 240.764 68.0815 240.764 68.7633C240.764 69.4395 240.639 70.0304 240.389 70.536C240.142 71.0417 239.795 71.4352 239.349 71.7164C238.906 71.9977 238.389 72.1383 237.798 72.1383ZM237.798 71.2349C238.247 71.2349 238.616 71.1199 238.906 70.8897C239.196 70.6596 239.411 70.3571 239.55 69.9821C239.689 69.6071 239.759 69.2008 239.759 68.7633C239.759 68.3258 239.689 67.9181 239.55 67.5403C239.411 67.1625 239.196 66.8571 238.906 66.6241C238.616 66.3912 238.247 66.2747 237.798 66.2747C237.349 66.2747 236.98 66.3912 236.69 66.6241C236.401 66.8571 236.186 67.1625 236.047 67.5403C235.908 67.9181 235.838 68.3258 235.838 68.7633C235.838 69.2008 235.908 69.6071 236.047 69.9821C236.186 70.3571 236.401 70.6596 236.69 70.8897C236.98 71.1199 237.349 71.2349 237.798 71.2349ZM243.305 68.0645V72.002H242.299V65.4565H243.271V66.4792H243.356C243.51 66.1468 243.743 65.8798 244.055 65.6781C244.368 65.4735 244.771 65.3713 245.265 65.3713C245.708 65.3713 246.096 65.4622 246.429 65.644C246.761 65.823 247.02 66.0957 247.204 66.4622C247.389 66.8258 247.481 67.286 247.481 67.8429V72.002H246.475V67.911C246.475 67.3968 246.342 66.9963 246.075 66.7093C245.808 66.4196 245.441 66.2747 244.975 66.2747C244.654 66.2747 244.368 66.3443 244.115 66.4835C243.865 66.6227 243.667 66.8258 243.522 67.0929C243.377 67.3599 243.305 67.6838 243.305 68.0645ZM254.62 72.1554C254.205 72.1554 253.829 72.0772 253.491 71.921C253.153 71.7619 252.884 71.5332 252.685 71.2349C252.487 70.9338 252.387 70.5701 252.387 70.144C252.387 69.769 252.461 69.465 252.609 69.2321C252.756 68.9963 252.954 68.8116 253.201 68.6781C253.448 68.5446 253.721 68.4451 254.019 68.3798C254.32 68.3116 254.623 68.2576 254.927 68.2179C255.325 68.1667 255.647 68.1284 255.894 68.1028C256.144 68.0744 256.326 68.0275 256.44 67.9622C256.556 67.8968 256.614 67.7832 256.614 67.6213V67.5872C256.614 67.1667 256.499 66.84 256.269 66.6071C256.042 66.3741 255.697 66.2576 255.234 66.2576C254.754 66.2576 254.377 66.3627 254.104 66.573C253.832 66.7832 253.64 67.0076 253.529 67.2463L252.575 66.9054C252.745 66.5076 252.972 66.198 253.256 65.9764C253.543 65.752 253.856 65.5957 254.194 65.5076C254.535 65.4167 254.87 65.3713 255.2 65.3713C255.41 65.3713 255.651 65.3968 255.924 65.448C256.2 65.4963 256.465 65.5971 256.721 65.7505C256.979 65.9039 257.194 66.1355 257.364 66.4451C257.535 66.7548 257.62 67.1696 257.62 67.6895V72.002H256.614V71.1156H256.563C256.495 71.2576 256.381 71.4096 256.222 71.5716C256.063 71.7335 255.852 71.8713 255.587 71.9849C255.323 72.0985 255.001 72.1554 254.62 72.1554ZM254.773 71.252C255.171 71.252 255.506 71.1738 255.779 71.0176C256.055 70.8613 256.262 70.6596 256.401 70.4125C256.543 70.1653 256.614 69.9054 256.614 69.6326V68.7122C256.572 68.7633 256.478 68.8102 256.333 68.8528C256.191 68.8926 256.026 68.9281 255.839 68.9593C255.654 68.9877 255.474 69.0133 255.298 69.036C255.124 69.0559 254.984 69.073 254.876 69.0872C254.614 69.1213 254.37 69.1767 254.143 69.2534C253.918 69.3272 253.737 69.4395 253.597 69.59C253.461 69.7377 253.393 69.9395 253.393 70.1951C253.393 70.5446 253.522 70.8088 253.781 70.9877C254.042 71.1639 254.373 71.252 254.773 71.252ZM260.461 68.0645V72.002H259.456V65.4565H260.427V66.4792H260.512C260.666 66.1468 260.899 65.8798 261.211 65.6781C261.524 65.4735 261.927 65.3713 262.422 65.3713C262.865 65.3713 263.252 65.4622 263.585 65.644C263.917 65.823 264.176 66.0957 264.36 66.4622C264.545 66.8258 264.637 67.286 264.637 67.8429V72.002H263.632V67.911C263.632 67.3968 263.498 66.9963 263.231 66.7093C262.964 66.4196 262.598 66.2747 262.132 66.2747C261.811 66.2747 261.524 66.3443 261.271 66.4835C261.021 66.6227 260.824 66.8258 260.679 67.0929C260.534 67.3599 260.461 67.6838 260.461 68.0645ZM268.947 72.1383C268.401 72.1383 267.92 72.0005 267.502 71.725C267.085 71.4466 266.758 71.0545 266.522 70.5488C266.286 70.0403 266.168 69.4395 266.168 68.7463C266.168 68.0588 266.286 67.4622 266.522 66.9565C266.758 66.4508 267.086 66.0602 267.506 65.7846C267.927 65.5091 268.413 65.3713 268.964 65.3713C269.39 65.3713 269.727 65.4423 269.974 65.5843C270.224 65.7235 270.414 65.8826 270.545 66.0616C270.678 66.2377 270.782 66.3826 270.856 66.4963H270.941V63.2747H271.947V72.002H270.975V70.9963H270.856C270.782 71.1156 270.677 71.2662 270.54 71.448C270.404 71.627 270.21 71.7875 269.957 71.9295C269.704 72.0687 269.367 72.1383 268.947 72.1383ZM269.083 71.2349C269.487 71.2349 269.827 71.1298 270.106 70.9196C270.384 70.7065 270.596 70.4125 270.741 70.0375C270.886 69.6596 270.958 69.2235 270.958 68.7292C270.958 68.2406 270.887 67.813 270.745 67.4466C270.603 67.0772 270.393 66.7903 270.114 66.5858C269.836 66.3784 269.492 66.2747 269.083 66.2747C268.657 66.2747 268.302 66.3841 268.018 66.6028C267.737 66.8187 267.525 67.1127 267.383 67.4849C267.244 67.8542 267.174 68.269 267.174 68.7292C267.174 69.1951 267.245 69.6184 267.387 69.9991C267.532 70.377 267.745 70.6781 268.026 70.9025C268.31 71.1241 268.663 71.2349 269.083 71.2349ZM281.94 66.9224L281.036 67.1781C280.979 67.0275 280.896 66.8812 280.785 66.7392C280.677 66.5943 280.529 66.475 280.342 66.3812C280.154 66.2875 279.914 66.2406 279.621 66.2406C279.221 66.2406 278.887 66.3329 278.62 66.5176C278.356 66.6994 278.224 66.9309 278.224 67.2122C278.224 67.4622 278.315 67.6596 278.496 67.8045C278.678 67.9494 278.962 68.0701 279.349 68.1667L280.32 68.4054C280.906 68.5474 281.342 68.7647 281.629 69.0574C281.915 69.3471 282.059 69.7207 282.059 70.1781C282.059 70.5531 281.951 70.8883 281.735 71.1838C281.522 71.4792 281.224 71.7122 280.84 71.8826C280.457 72.0531 280.011 72.1383 279.502 72.1383C278.835 72.1383 278.282 71.9934 277.844 71.7037C277.407 71.4139 277.13 70.9906 277.013 70.4338L277.968 70.1951C278.059 70.5474 278.231 70.8116 278.484 70.9877C278.739 71.1639 279.073 71.252 279.485 71.252C279.954 71.252 280.326 71.1525 280.602 70.9537C280.88 70.752 281.019 70.5105 281.019 70.2292C281.019 70.002 280.94 69.8116 280.781 69.6582C280.621 69.502 280.377 69.3855 280.048 69.3088L278.957 69.0531C278.357 68.911 277.917 68.6909 277.636 68.3926C277.357 68.0914 277.218 67.715 277.218 67.2633C277.218 66.894 277.322 66.5673 277.529 66.2832C277.739 65.9991 278.025 65.7761 278.386 65.6142C278.749 65.4522 279.161 65.3713 279.621 65.3713C280.269 65.3713 280.778 65.5133 281.147 65.7974C281.519 66.0815 281.783 66.4565 281.94 66.9224ZM284.221 74.4565C284.05 74.4565 283.898 74.4423 283.765 74.4139C283.631 74.3883 283.539 74.3627 283.488 74.3372L283.743 73.4508C283.988 73.5133 284.203 73.536 284.391 73.519C284.578 73.502 284.745 73.4181 284.89 73.2676C285.037 73.1199 285.172 72.8798 285.294 72.5474L285.482 72.036L283.061 65.4565H284.152L285.959 70.6724H286.027L287.834 65.4565H288.925L286.147 72.9565C286.022 73.2946 285.867 73.5744 285.682 73.796C285.498 74.0204 285.283 74.1866 285.039 74.2946C284.797 74.4025 284.525 74.4565 284.221 74.4565ZM291.258 68.0645V72.002H290.252V65.4565H291.224V66.4792H291.309C291.463 66.1468 291.696 65.8798 292.008 65.6781C292.321 65.4735 292.724 65.3713 293.218 65.3713C293.662 65.3713 294.049 65.4622 294.382 65.644C294.714 65.823 294.973 66.0957 295.157 66.4622C295.342 66.8258 295.434 67.286 295.434 67.8429V72.002H294.429V67.911C294.429 67.3968 294.295 66.9963 294.028 66.7093C293.761 66.4196 293.395 66.2747 292.929 66.2747C292.608 66.2747 292.321 66.3443 292.068 66.4835C291.818 66.6227 291.62 66.8258 291.475 67.0929C291.331 67.3599 291.258 67.6838 291.258 68.0645ZM300.119 65.4565V66.3088H296.727V65.4565H300.119ZM297.715 63.8883H298.721V70.127C298.721 70.411 298.762 70.6241 298.844 70.7662C298.93 70.9054 299.038 70.9991 299.168 71.0474C299.302 71.0929 299.442 71.1156 299.59 71.1156C299.701 71.1156 299.792 71.1099 299.863 71.0985C299.934 71.0843 299.991 71.073 300.033 71.0645L300.238 71.9679C300.17 71.9934 300.075 72.019 299.952 72.0446C299.83 72.073 299.675 72.0872 299.488 72.0872C299.204 72.0872 298.925 72.0261 298.653 71.9039C298.383 71.7818 298.158 71.5957 297.979 71.3457C297.803 71.0957 297.715 70.7804 297.715 70.3997V63.8883ZM302.778 68.0645V72.002H301.772V63.2747H302.778V66.4792H302.863C303.016 66.1412 303.246 65.8727 303.553 65.6738C303.863 65.4721 304.275 65.3713 304.789 65.3713C305.235 65.3713 305.626 65.4608 305.961 65.6397C306.296 65.8159 306.556 66.0872 306.741 66.4537C306.928 66.8173 307.022 67.2804 307.022 67.8429V72.002H306.016V67.911C306.016 67.3912 305.881 66.9892 305.612 66.7051C305.344 66.4181 304.974 66.2747 304.499 66.2747C304.17 66.2747 303.874 66.3443 303.613 66.4835C303.354 66.6227 303.15 66.8258 302.999 67.0929C302.852 67.3599 302.778 67.6838 302.778 68.0645ZM311.606 72.1383C310.975 72.1383 310.431 71.9991 309.974 71.7207C309.52 71.4395 309.169 71.0474 308.922 70.5446C308.677 70.0389 308.555 69.4508 308.555 68.7804C308.555 68.1099 308.677 67.519 308.922 67.0076C309.169 66.4934 309.512 66.0929 309.953 65.8059C310.396 65.5162 310.913 65.3713 311.504 65.3713C311.845 65.3713 312.181 65.4281 312.514 65.5417C312.846 65.6554 313.149 65.84 313.422 66.0957C313.694 66.3485 313.912 66.6838 314.074 67.1014C314.235 67.519 314.316 68.0332 314.316 68.644V69.0701H309.271V68.2008H313.294C313.294 67.8315 313.22 67.502 313.072 67.2122C312.927 66.9224 312.72 66.6937 312.45 66.5261C312.183 66.3585 311.868 66.2747 311.504 66.2747C311.103 66.2747 310.757 66.3741 310.464 66.573C310.174 66.769 309.951 67.0247 309.795 67.34C309.639 67.6554 309.561 67.9934 309.561 68.3542V68.9338C309.561 69.4281 309.646 69.8471 309.816 70.1909C309.99 70.5318 310.23 70.7917 310.537 70.9707C310.843 71.1468 311.2 71.2349 311.606 71.2349C311.87 71.2349 312.109 71.198 312.322 71.1241C312.538 71.0474 312.724 70.9338 312.88 70.7832C313.037 70.6298 313.157 70.4395 313.243 70.2122L314.214 70.4849C314.112 70.8145 313.94 71.1042 313.699 71.3542C313.457 71.6014 313.159 71.7946 312.804 71.9338C312.449 72.0701 312.049 72.1383 311.606 72.1383ZM320.483 66.9224L319.579 67.1781C319.522 67.0275 319.439 66.8812 319.328 66.7392C319.22 66.5943 319.072 66.475 318.885 66.3812C318.697 66.2875 318.457 66.2406 318.164 66.2406C317.764 66.2406 317.43 66.3329 317.163 66.5176C316.899 66.6994 316.767 66.9309 316.767 67.2122C316.767 67.4622 316.858 67.6596 317.039 67.8045C317.221 67.9494 317.505 68.0701 317.892 68.1667L318.863 68.4054C319.449 68.5474 319.885 68.7647 320.172 69.0574C320.458 69.3471 320.602 69.7207 320.602 70.1781C320.602 70.5531 320.494 70.8883 320.278 71.1838C320.065 71.4792 319.767 71.7122 319.383 71.8826C319 72.0531 318.554 72.1383 318.045 72.1383C317.377 72.1383 316.825 71.9934 316.387 71.7037C315.95 71.4139 315.673 70.9906 315.556 70.4338L316.511 70.1951C316.602 70.5474 316.774 70.8116 317.027 70.9877C317.282 71.1639 317.616 71.252 318.028 71.252C318.497 71.252 318.869 71.1525 319.145 70.9537C319.423 70.752 319.562 70.5105 319.562 70.2292C319.562 70.002 319.483 69.8116 319.324 69.6582C319.164 69.502 318.92 69.3855 318.591 69.3088L317.5 69.0531C316.9 68.911 316.46 68.6909 316.179 68.3926C315.9 68.0914 315.761 67.715 315.761 67.2633C315.761 66.894 315.865 66.5673 316.072 66.2832C316.282 65.9991 316.568 65.7761 316.929 65.6142C317.292 65.4522 317.704 65.3713 318.164 65.3713C318.812 65.3713 319.321 65.5133 319.69 65.7974C320.062 66.0815 320.326 66.4565 320.483 66.9224ZM322.116 72.002V65.4565H323.121V72.002H322.116ZM322.627 64.3656C322.431 64.3656 322.262 64.2988 322.12 64.1653C321.981 64.0318 321.911 63.8713 321.911 63.6838C321.911 63.4963 321.981 63.3358 322.12 63.2022C322.262 63.0687 322.431 63.002 322.627 63.002C322.823 63.002 322.991 63.0687 323.13 63.2022C323.272 63.3358 323.343 63.4963 323.343 63.6838C323.343 63.8713 323.272 64.0318 323.13 64.1653C322.991 64.2988 322.823 64.3656 322.627 64.3656ZM329.6 66.9224L328.696 67.1781C328.64 67.0275 328.556 66.8812 328.445 66.7392C328.337 66.5943 328.189 66.475 328.002 66.3812C327.814 66.2875 327.574 66.2406 327.282 66.2406C326.881 66.2406 326.547 66.3329 326.28 66.5176C326.016 66.6994 325.884 66.9309 325.884 67.2122C325.884 67.4622 325.975 67.6596 326.157 67.8045C326.338 67.9494 326.623 68.0701 327.009 68.1667L327.98 68.4054C328.566 68.5474 329.002 68.7647 329.289 69.0574C329.576 69.3471 329.719 69.7207 329.719 70.1781C329.719 70.5531 329.611 70.8883 329.395 71.1838C329.182 71.4792 328.884 71.7122 328.5 71.8826C328.117 72.0531 327.671 72.1383 327.162 72.1383C326.495 72.1383 325.942 71.9934 325.505 71.7037C325.067 71.4139 324.79 70.9906 324.674 70.4338L325.628 70.1951C325.719 70.5474 325.891 70.8116 326.144 70.9877C326.4 71.1639 326.733 71.252 327.145 71.252C327.614 71.252 327.986 71.1525 328.262 70.9537C328.54 70.752 328.679 70.5105 328.679 70.2292C328.679 70.002 328.6 69.8116 328.441 69.6582C328.282 69.502 328.037 69.3855 327.708 69.3088L326.617 69.0531C326.017 68.911 325.577 68.6909 325.296 68.3926C325.017 68.0914 324.878 67.715 324.878 67.2633C324.878 66.894 324.982 66.5673 325.189 66.2832C325.4 65.9991 325.685 65.7761 326.046 65.6142C326.409 65.4522 326.821 65.3713 327.282 65.3713C327.929 65.3713 328.438 65.5133 328.807 65.7974C329.179 66.0815 329.444 66.4565 329.6 66.9224Z" fill="black"/>
<path d="M86.6875 30.002H83.321V19.0929H86.8366C87.8949 19.0929 88.8004 19.3113 89.5533 19.748C90.3061 20.1813 90.8832 20.8045 91.2844 21.6177C91.6857 22.4274 91.8864 23.3968 91.8864 24.5261C91.8864 25.6625 91.6839 26.6408 91.2791 27.4611C90.8743 28.2779 90.2848 28.9064 89.5107 29.3468C88.7365 29.7836 87.7955 30.002 86.6875 30.002ZM84.642 28.8301H86.6023C87.5043 28.8301 88.2518 28.6561 88.8448 28.3081C89.4379 27.96 89.88 27.4647 90.1712 26.8219C90.4624 26.1792 90.608 25.4139 90.608 24.5261C90.608 23.6454 90.4641 22.8873 90.1765 22.2516C89.8888 21.6124 89.4592 21.1223 88.8874 20.7814C88.3157 20.437 87.6037 20.2647 86.7514 20.2647H84.642V28.8301ZM97.2557 30.1724C96.517 30.1724 95.869 29.9966 95.3114 29.6451C94.7575 29.2935 94.3242 28.8017 94.0117 28.1696C93.7028 27.5375 93.5483 26.7988 93.5483 25.9537C93.5483 25.1014 93.7028 24.3574 94.0117 23.7218C94.3242 23.0861 94.7575 22.5925 95.3114 22.2409C95.869 21.8894 96.517 21.7136 97.2557 21.7136C97.9943 21.7136 98.6406 21.8894 99.1946 22.2409C99.7521 22.5925 100.185 23.0861 100.494 23.7218C100.807 24.3574 100.963 25.1014 100.963 25.9537C100.963 26.7988 100.807 27.5375 100.494 28.1696C100.185 28.8017 99.7521 29.2935 99.1946 29.6451C98.6406 29.9966 97.9943 30.1724 97.2557 30.1724ZM97.2557 29.0431C97.8168 29.0431 98.2784 28.8993 98.6406 28.6117C99.0028 28.324 99.271 27.9458 99.445 27.4771C99.619 27.0083 99.706 26.5005 99.706 25.9537C99.706 25.4068 99.619 24.8972 99.445 24.4249C99.271 23.9526 99.0028 23.5708 98.6406 23.2797C98.2784 22.9885 97.8168 22.8429 97.2557 22.8429C96.6946 22.8429 96.233 22.9885 95.8707 23.2797C95.5085 23.5708 95.2404 23.9526 95.0664 24.4249C94.8924 24.8972 94.8054 25.4068 94.8054 25.9537C94.8054 26.5005 94.8924 27.0083 95.0664 27.4771C95.2404 27.9458 95.5085 28.324 95.8707 28.6117C96.233 28.8993 96.6946 29.0431 97.2557 29.0431ZM106.206 30.1724C105.439 30.1724 104.778 29.9913 104.224 29.6291C103.67 29.2669 103.244 28.7679 102.946 28.1323C102.648 27.4966 102.498 26.7704 102.498 25.9537C102.498 25.1227 102.651 24.3894 102.957 23.7537C103.266 23.1145 103.695 22.6156 104.246 22.2569C104.8 21.8947 105.446 21.7136 106.185 21.7136C106.76 21.7136 107.278 21.8201 107.74 22.0332C108.202 22.2463 108.58 22.5446 108.875 22.9281C109.169 23.3116 109.352 23.7591 109.423 24.2704H108.166C108.07 23.8975 107.857 23.5673 107.527 23.2797C107.2 22.9885 106.76 22.8429 106.206 22.8429C105.716 22.8429 105.286 22.9707 104.917 23.2264C104.551 23.4785 104.265 23.8354 104.059 24.2971C103.857 24.7551 103.756 25.2931 103.756 25.911C103.756 26.5431 103.855 27.0936 104.054 27.5623C104.256 28.0311 104.54 28.3951 104.906 28.6543C105.275 28.9135 105.709 29.0431 106.206 29.0431C106.533 29.0431 106.829 28.9863 107.095 28.8727C107.362 28.7591 107.587 28.5957 107.772 28.3826C107.957 28.1696 108.088 27.9139 108.166 27.6156H109.423C109.352 28.0985 109.176 28.5336 108.896 28.9206C108.619 29.3042 108.251 29.6096 107.793 29.8368C107.339 30.0605 106.81 30.1724 106.206 30.1724ZM116.417 26.6568V21.8201H117.674V30.002H116.417V28.617H116.332C116.14 29.0325 115.842 29.3858 115.437 29.677C115.032 29.9647 114.521 30.1085 113.903 30.1085C113.392 30.1085 112.937 29.9966 112.539 29.7729C112.142 29.5456 111.829 29.2047 111.602 28.7502C111.375 28.2921 111.261 27.715 111.261 27.019V21.8201H112.518V26.9338C112.518 27.5304 112.685 28.0062 113.019 28.3613C113.356 28.7164 113.786 28.894 114.308 28.894C114.62 28.894 114.938 28.8141 115.261 28.6543C115.588 28.4945 115.861 28.2495 116.082 27.9192C116.305 27.589 116.417 27.1681 116.417 26.6568ZM119.977 30.002V21.8201H121.191V23.0985H121.298C121.468 22.6618 121.743 22.3226 122.123 22.0811C122.503 21.8361 122.96 21.7136 123.492 21.7136C124.032 21.7136 124.481 21.8361 124.84 22.0811C125.202 22.3226 125.485 22.6618 125.687 23.0985H125.772C125.982 22.676 126.296 22.3404 126.715 22.0918C127.134 21.8397 127.637 21.7136 128.222 21.7136C128.954 21.7136 129.552 21.9426 130.018 22.4007C130.483 22.8553 130.715 23.5637 130.715 24.5261V30.002H129.458V24.5261C129.458 23.9224 129.293 23.4909 128.963 23.2317C128.633 22.9725 128.244 22.8429 127.796 22.8429C127.221 22.8429 126.775 23.0169 126.459 23.3649C126.143 23.7093 125.985 24.1461 125.985 24.6752V30.002H124.707V24.3983C124.707 23.9331 124.556 23.5584 124.254 23.2743C123.952 22.9867 123.563 22.8429 123.088 22.8429C122.761 22.8429 122.455 22.9299 122.171 23.1039C121.891 23.2779 121.664 23.5194 121.49 23.8283C121.319 24.1337 121.234 24.487 121.234 24.8883V30.002H119.977ZM136.444 30.1724C135.656 30.1724 134.976 29.9984 134.404 29.6504C133.836 29.2988 133.397 28.8088 133.088 28.1802C132.783 27.5481 132.63 26.813 132.63 25.975C132.63 25.1369 132.783 24.3983 133.088 23.7591C133.397 23.1163 133.827 22.6156 134.377 22.2569C134.931 21.8947 135.578 21.7136 136.316 21.7136C136.743 21.7136 137.163 21.7846 137.579 21.9267C137.994 22.0687 138.373 22.2995 138.713 22.6191C139.054 22.9352 139.326 23.3542 139.528 23.8762C139.731 24.3983 139.832 25.041 139.832 25.8045V26.3372H133.525V25.2505H138.554C138.554 24.7889 138.461 24.377 138.277 24.0147C138.096 23.6525 137.836 23.3667 137.499 23.1571C137.165 22.9476 136.771 22.8429 136.316 22.8429C135.816 22.8429 135.382 22.9672 135.017 23.2157C134.654 23.4608 134.376 23.7804 134.18 24.1745C133.985 24.5687 133.887 24.9913 133.887 25.4423V26.1667C133.887 26.7846 133.994 27.3084 134.207 27.7381C134.424 28.1642 134.724 28.4892 135.107 28.7129C135.491 28.9331 135.936 29.0431 136.444 29.0431C136.775 29.0431 137.073 28.997 137.339 28.9047C137.609 28.8088 137.842 28.6667 138.037 28.4785C138.232 28.2868 138.383 28.0488 138.49 27.7647L139.704 28.1056C139.576 28.5176 139.362 28.8798 139.06 29.1923C138.758 29.5012 138.385 29.7427 137.941 29.9167C137.497 30.0872 136.998 30.1724 136.444 30.1724ZM143.001 25.0801V30.002H141.744V21.8201H142.959V23.0985H143.065C143.257 22.6831 143.548 22.3493 143.939 22.0971C144.33 21.8414 144.834 21.7136 145.452 21.7136C146.006 21.7136 146.49 21.8272 146.906 22.0545C147.321 22.2782 147.645 22.6191 147.875 23.0772C148.106 23.5318 148.222 24.1071 148.222 24.8031V30.002H146.964V24.8883C146.964 24.2456 146.798 23.7449 146.464 23.3862C146.13 23.024 145.672 22.8429 145.089 22.8429C144.688 22.8429 144.33 22.9299 144.013 23.1039C143.701 23.2779 143.454 23.5318 143.273 23.8656C143.092 24.1994 143.001 24.6042 143.001 25.0801ZM154.077 21.8201V22.8855H149.837V21.8201H154.077ZM151.073 19.8599H152.33V27.6582C152.33 28.0133 152.381 28.2797 152.484 28.4572C152.591 28.6312 152.726 28.7484 152.889 28.8088C153.056 28.8656 153.232 28.894 153.416 28.894C153.555 28.894 153.669 28.8869 153.757 28.8727C153.846 28.8549 153.917 28.8407 153.97 28.8301L154.226 29.9593C154.141 29.9913 154.022 30.0233 153.869 30.0552C153.717 30.0907 153.523 30.1085 153.289 30.1085C152.934 30.1085 152.585 30.0321 152.245 29.8794C151.907 29.7267 151.627 29.4941 151.403 29.1816C151.183 28.8691 151.073 28.475 151.073 27.9991V19.8599ZM163.511 30.1724C162.772 30.1724 162.124 29.9966 161.566 29.6451C161.012 29.2935 160.579 28.8017 160.267 28.1696C159.958 27.5375 159.803 26.7988 159.803 25.9537C159.803 25.1014 159.958 24.3574 160.267 23.7218C160.579 23.0861 161.012 22.5925 161.566 22.2409C162.124 21.8894 162.772 21.7136 163.511 21.7136C164.249 21.7136 164.896 21.8894 165.449 22.2409C166.007 22.5925 166.44 23.0861 166.749 23.7218C167.062 24.3574 167.218 25.1014 167.218 25.9537C167.218 26.7988 167.062 27.5375 166.749 28.1696C166.44 28.8017 166.007 29.2935 165.449 29.6451C164.896 29.9966 164.249 30.1724 163.511 30.1724ZM163.511 29.0431C164.072 29.0431 164.533 28.8993 164.896 28.6117C165.258 28.324 165.526 27.9458 165.7 27.4771C165.874 27.0083 165.961 26.5005 165.961 25.9537C165.961 25.4068 165.874 24.8972 165.7 24.4249C165.526 23.9526 165.258 23.5708 164.896 23.2797C164.533 22.9885 164.072 22.8429 163.511 22.8429C162.949 22.8429 162.488 22.9885 162.126 23.2797C161.763 23.5708 161.495 23.9526 161.321 24.4249C161.147 24.8972 161.06 25.4068 161.06 25.9537C161.06 26.5005 161.147 27.0083 161.321 27.4771C161.495 27.9458 161.763 28.324 162.126 28.6117C162.488 28.8993 162.949 29.0431 163.511 29.0431ZM172.78 21.8201V22.8855H168.37V21.8201H172.78ZM169.691 30.002V20.6909C169.691 20.2221 169.801 19.8315 170.021 19.519C170.241 19.2065 170.527 18.9721 170.879 18.8159C171.23 18.6596 171.601 18.5815 171.992 18.5815C172.301 18.5815 172.553 18.6064 172.748 18.6561C172.944 18.7058 173.089 18.752 173.185 18.7946L172.823 19.8812C172.759 19.8599 172.67 19.8333 172.557 19.8013C172.447 19.7694 172.301 19.7534 172.12 19.7534C171.704 19.7534 171.404 19.8581 171.22 20.0676C171.039 20.2772 170.948 20.5843 170.948 20.9892V30.002H169.691ZM182.319 21.8201V22.8855H178.079V21.8201H182.319ZM179.315 19.8599H180.572V27.6582C180.572 28.0133 180.623 28.2797 180.726 28.4572C180.833 28.6312 180.968 28.7484 181.131 28.8088C181.298 28.8656 181.474 28.894 181.659 28.894C181.797 28.894 181.911 28.8869 182 28.8727C182.088 28.8549 182.159 28.8407 182.213 28.8301L182.468 29.9593C182.383 29.9913 182.264 30.0233 182.111 30.0552C181.959 30.0907 181.765 30.1085 181.531 30.1085C181.176 30.1085 180.828 30.0321 180.487 29.8794C180.149 29.7267 179.869 29.4941 179.645 29.1816C179.425 28.8691 179.315 28.475 179.315 27.9991V19.8599ZM185.643 25.0801V30.002H184.386V19.0929H185.643V23.0985H185.75C185.941 22.676 186.229 22.3404 186.612 22.0918C187 21.8397 187.514 21.7136 188.157 21.7136C188.715 21.7136 189.203 21.8255 189.622 22.0492C190.041 22.2694 190.366 22.6085 190.597 23.0666C190.831 23.5211 190.948 24.1 190.948 24.8031V30.002H189.691V24.8883C189.691 24.2385 189.523 23.736 189.185 23.3809C188.851 23.0222 188.388 22.8429 187.795 22.8429C187.383 22.8429 187.014 22.9299 186.687 23.1039C186.364 23.2779 186.108 23.5318 185.92 23.8656C185.735 24.1994 185.643 24.6042 185.643 25.0801ZM196.679 30.1724C195.89 30.1724 195.21 29.9984 194.638 29.6504C194.07 29.2988 193.632 28.8088 193.323 28.1802C193.017 27.5481 192.865 26.813 192.865 25.975C192.865 25.1369 193.017 24.3983 193.323 23.7591C193.632 23.1163 194.061 22.6156 194.612 22.2569C195.166 21.8947 195.812 21.7136 196.551 21.7136C196.977 21.7136 197.398 21.7846 197.813 21.9267C198.229 22.0687 198.607 22.2995 198.948 22.6191C199.289 22.9352 199.56 23.3542 199.763 23.8762C199.965 24.3983 200.066 25.041 200.066 25.8045V26.3372H193.76V25.2505H198.788C198.788 24.7889 198.696 24.377 198.511 24.0147C198.33 23.6525 198.071 23.3667 197.733 23.1571C197.4 22.9476 197.005 22.8429 196.551 22.8429C196.05 22.8429 195.617 22.9672 195.251 23.2157C194.889 23.4608 194.61 23.7804 194.415 24.1745C194.219 24.5687 194.122 24.9913 194.122 25.4423V26.1667C194.122 26.7846 194.228 27.3084 194.441 27.7381C194.658 28.1642 194.958 28.4892 195.342 28.7129C195.725 28.9331 196.171 29.0431 196.679 29.0431C197.009 29.0431 197.307 28.997 197.574 28.9047C197.843 28.8088 198.076 28.6667 198.271 28.4785C198.467 28.2868 198.618 28.0488 198.724 27.7647L199.939 28.1056C199.811 28.5176 199.596 28.8798 199.294 29.1923C198.992 29.5012 198.619 29.7427 198.175 29.9167C197.732 30.0872 197.233 30.1724 196.679 30.1724ZM209.521 30.1724C208.754 30.1724 208.094 29.9913 207.54 29.6291C206.986 29.2669 206.56 28.7679 206.261 28.1323C205.963 27.4966 205.814 26.7704 205.814 25.9537C205.814 25.1227 205.967 24.3894 206.272 23.7537C206.581 23.1145 207.011 22.6156 207.561 22.2569C208.115 21.8947 208.761 21.7136 209.5 21.7136C210.075 21.7136 210.594 21.8201 211.055 22.0332C211.517 22.2463 211.895 22.5446 212.19 22.9281C212.485 23.3116 212.668 23.7591 212.739 24.2704H211.482C211.386 23.8975 211.173 23.5673 210.842 23.2797C210.516 22.9885 210.075 22.8429 209.521 22.8429C209.031 22.8429 208.602 22.9707 208.232 23.2264C207.866 23.4785 207.581 23.8354 207.375 24.2971C207.172 24.7551 207.071 25.2931 207.071 25.911C207.071 26.5431 207.17 27.0936 207.369 27.5623C207.572 28.0311 207.856 28.3951 208.222 28.6543C208.591 28.9135 209.024 29.0431 209.521 29.0431C209.848 29.0431 210.145 28.9863 210.411 28.8727C210.677 28.7591 210.903 28.5957 211.087 28.3826C211.272 28.1696 211.403 27.9139 211.482 27.6156H212.739C212.668 28.0985 212.492 28.5336 212.211 28.9206C211.934 29.3042 211.567 29.6096 211.109 29.8368C210.654 30.0605 210.125 30.1724 209.521 30.1724ZM215.833 25.0801V30.002H214.576V19.0929H215.833V23.0985H215.94C216.132 22.676 216.419 22.3404 216.803 22.0918C217.19 21.8397 217.705 21.7136 218.348 21.7136C218.905 21.7136 219.393 21.8255 219.812 22.0492C220.232 22.2694 220.556 22.6085 220.787 23.0666C221.022 23.5211 221.139 24.1 221.139 24.8031V30.002H219.882V24.8883C219.882 24.2385 219.713 23.736 219.376 23.3809C219.042 23.0222 218.578 22.8429 217.985 22.8429C217.574 22.8429 217.204 22.9299 216.877 23.1039C216.554 23.2779 216.299 23.5318 216.11 23.8656C215.926 24.1994 215.833 24.6042 215.833 25.0801ZM225.846 30.1937C225.328 30.1937 224.857 30.0961 224.435 29.9007C224.012 29.7019 223.677 29.416 223.428 29.0431C223.179 28.6667 223.055 28.2122 223.055 27.6795C223.055 27.2108 223.147 26.8308 223.332 26.5396C223.517 26.2449 223.764 26.014 224.073 25.8471C224.381 25.6802 224.722 25.5559 225.095 25.4743C225.472 25.389 225.85 25.3216 226.23 25.2718C226.727 25.2079 227.13 25.16 227.439 25.128C227.752 25.0925 227.979 25.0339 228.121 24.9522C228.266 24.8706 228.339 24.7285 228.339 24.5261V24.4835C228.339 23.9579 228.195 23.5495 227.908 23.2583C227.624 22.9672 227.192 22.8216 226.613 22.8216C226.013 22.8216 225.543 22.9529 225.202 23.2157C224.861 23.4785 224.621 23.7591 224.483 24.0574L223.29 23.6312C223.503 23.1341 223.787 22.747 224.142 22.47C224.5 22.1895 224.891 21.9941 225.314 21.8841C225.74 21.7704 226.159 21.7136 226.571 21.7136C226.834 21.7136 227.135 21.7456 227.476 21.8095C227.821 21.8699 228.153 21.9959 228.472 22.1877C228.796 22.3794 229.064 22.6689 229.277 23.0559C229.49 23.443 229.596 23.9615 229.596 24.6113V30.002H228.339V28.894H228.275C228.19 29.0716 228.048 29.2615 227.849 29.464C227.65 29.6664 227.386 29.8386 227.055 29.9806C226.725 30.1227 226.322 30.1937 225.846 30.1937ZM226.038 29.0645C226.535 29.0645 226.954 28.9668 227.295 28.7715C227.64 28.5762 227.899 28.324 228.073 28.0151C228.25 27.7061 228.339 27.3812 228.339 27.0403V25.8897C228.286 25.9537 228.169 26.0123 227.988 26.0655C227.81 26.1152 227.604 26.1596 227.37 26.1987C227.139 26.2342 226.913 26.2662 226.693 26.2946C226.477 26.3194 226.301 26.3407 226.166 26.3585C225.839 26.4011 225.534 26.4703 225.25 26.5662C224.969 26.6586 224.742 26.7988 224.568 26.987C224.397 27.1717 224.312 27.4238 224.312 27.7434C224.312 28.1802 224.474 28.5105 224.797 28.7342C225.124 28.9544 225.537 29.0645 226.038 29.0645ZM231.891 30.002V21.8201H233.148V30.002H231.891ZM232.53 20.4565C232.285 20.4565 232.074 20.373 231.896 20.2061C231.722 20.0392 231.635 19.8386 231.635 19.6042C231.635 19.3699 231.722 19.1692 231.896 19.0023C232.074 18.8354 232.285 18.752 232.53 18.752C232.775 18.752 232.985 18.8354 233.159 19.0023C233.336 19.1692 233.425 19.3699 233.425 19.6042C233.425 19.8386 233.336 20.0392 233.159 20.2061C232.985 20.373 232.775 20.4565 232.53 20.4565ZM235.45 30.002V21.8201H236.665V23.0559H236.75C236.899 22.6511 237.169 22.3226 237.56 22.0705C237.95 21.8184 238.391 21.6923 238.881 21.6923C238.973 21.6923 239.089 21.6941 239.227 21.6976C239.366 21.7012 239.47 21.7065 239.541 21.7136V22.992C239.499 22.9814 239.401 22.9654 239.248 22.9441C239.099 22.9192 238.941 22.9068 238.774 22.9068C238.377 22.9068 238.021 22.9902 237.709 23.1571C237.4 23.3205 237.155 23.5478 236.974 23.839C236.796 24.1266 236.707 24.4551 236.707 24.8244V30.002H235.45ZM241.031 30.002V21.8201H242.246V23.0985H242.352C242.523 22.6618 242.798 22.3226 243.178 22.0811C243.558 21.8361 244.014 21.7136 244.547 21.7136C245.087 21.7136 245.536 21.8361 245.895 22.0811C246.257 22.3226 246.539 22.6618 246.742 23.0985H246.827C247.036 22.676 247.351 22.3404 247.77 22.0918C248.189 21.8397 248.691 21.7136 249.277 21.7136C250.009 21.7136 250.607 21.9426 251.072 22.4007C251.537 22.8553 251.77 23.5637 251.77 24.5261V30.002H250.513V24.5261C250.513 23.9224 250.348 23.4909 250.018 23.2317C249.687 22.9725 249.298 22.8429 248.851 22.8429C248.276 22.8429 247.83 23.0169 247.514 23.3649C247.198 23.7093 247.04 24.1461 247.04 24.6752V30.002H245.762V24.3983C245.762 23.9331 245.611 23.5584 245.309 23.2743C245.007 22.9867 244.618 22.8429 244.142 22.8429C243.816 22.8429 243.51 22.9299 243.226 23.1039C242.945 23.2779 242.718 23.5194 242.544 23.8283C242.374 24.1337 242.289 24.487 242.289 24.8883V30.002H241.031ZM256.476 30.1937C255.958 30.1937 255.487 30.0961 255.065 29.9007C254.642 29.7019 254.306 29.416 254.058 29.0431C253.809 28.6667 253.685 28.2122 253.685 27.6795C253.685 27.2108 253.777 26.8308 253.962 26.5396C254.147 26.2449 254.393 26.014 254.702 25.8471C255.011 25.6802 255.352 25.5559 255.725 25.4743C256.102 25.389 256.48 25.3216 256.86 25.2718C257.357 25.2079 257.76 25.16 258.069 25.128C258.381 25.0925 258.609 25.0339 258.751 24.9522C258.896 24.8706 258.969 24.7285 258.969 24.5261V24.4835C258.969 23.9579 258.825 23.5495 258.538 23.2583C258.254 22.9672 257.822 22.8216 257.243 22.8216C256.643 22.8216 256.173 22.9529 255.832 23.2157C255.491 23.4785 255.251 23.7591 255.113 24.0574L253.919 23.6312C254.132 23.1341 254.417 22.747 254.772 22.47C255.13 22.1895 255.521 21.9941 255.944 21.8841C256.37 21.7704 256.789 21.7136 257.201 21.7136C257.463 21.7136 257.765 21.7456 258.106 21.8095C258.451 21.8699 258.783 21.9959 259.102 22.1877C259.425 22.3794 259.694 22.6689 259.907 23.0559C260.12 23.443 260.226 23.9615 260.226 24.6113V30.002H258.969V28.894H258.905C258.82 29.0716 258.678 29.2615 258.479 29.464C258.28 29.6664 258.016 29.8386 257.685 29.9806C257.355 30.1227 256.952 30.1937 256.476 30.1937ZM256.668 29.0645C257.165 29.0645 257.584 28.9668 257.925 28.7715C258.27 28.5762 258.529 28.324 258.703 28.0151C258.88 27.7061 258.969 27.3812 258.969 27.0403V25.8897C258.916 25.9537 258.799 26.0123 258.618 26.0655C258.44 26.1152 258.234 26.1596 258 26.1987C257.769 26.2342 257.543 26.2662 257.323 26.2946C257.107 26.3194 256.931 26.3407 256.796 26.3585C256.469 26.4011 256.164 26.4703 255.88 26.5662C255.599 26.6586 255.372 26.7988 255.198 26.987C255.027 27.1717 254.942 27.4238 254.942 27.7434C254.942 28.1802 255.104 28.5105 255.427 28.7342C255.754 28.9544 256.167 29.0645 256.668 29.0645ZM263.778 25.0801V30.002H262.521V21.8201H263.735V23.0985H263.842C264.033 22.6831 264.325 22.3493 264.715 22.0971C265.106 21.8414 265.61 21.7136 266.228 21.7136C266.782 21.7136 267.267 21.8272 267.682 22.0545C268.098 22.2782 268.421 22.6191 268.652 23.0772C268.883 23.5318 268.998 24.1071 268.998 24.8031V30.002H267.741V24.8883C267.741 24.2456 267.574 23.7449 267.24 23.3862C266.906 23.024 266.448 22.8429 265.866 22.8429C265.465 22.8429 265.106 22.9299 264.79 23.1039C264.477 23.2779 264.231 23.5318 264.049 23.8656C263.868 24.1994 263.778 24.6042 263.778 25.0801ZM278.838 30.1724C278.099 30.1724 277.451 29.9966 276.893 29.6451C276.339 29.2935 275.906 28.8017 275.594 28.1696C275.285 27.5375 275.13 26.7988 275.13 25.9537C275.13 25.1014 275.285 24.3574 275.594 23.7218C275.906 23.0861 276.339 22.5925 276.893 22.2409C277.451 21.8894 278.099 21.7136 278.838 21.7136C279.576 21.7136 280.223 21.8894 280.777 22.2409C281.334 22.5925 281.767 23.0861 282.076 23.7218C282.389 24.3574 282.545 25.1014 282.545 25.9537C282.545 26.7988 282.389 27.5375 282.076 28.1696C281.767 28.8017 281.334 29.2935 280.777 29.6451C280.223 29.9966 279.576 30.1724 278.838 30.1724ZM278.838 29.0431C279.399 29.0431 279.86 28.8993 280.223 28.6117C280.585 28.324 280.853 27.9458 281.027 27.4771C281.201 27.0083 281.288 26.5005 281.288 25.9537C281.288 25.4068 281.201 24.8972 281.027 24.4249C280.853 23.9526 280.585 23.5708 280.223 23.2797C279.86 22.9885 279.399 22.8429 278.838 22.8429C278.277 22.8429 277.815 22.9885 277.453 23.2797C277.091 23.5708 276.822 23.9526 276.648 24.4249C276.474 24.8972 276.387 25.4068 276.387 25.9537C276.387 26.5005 276.474 27.0083 276.648 27.4771C276.822 27.9458 277.091 28.324 277.453 28.6117C277.815 28.8993 278.277 29.0431 278.838 29.0431ZM288.108 21.8201V22.8855H283.697V21.8201H288.108ZM285.018 30.002V20.6909C285.018 20.2221 285.128 19.8315 285.348 19.519C285.568 19.2065 285.854 18.9721 286.206 18.8159C286.557 18.6596 286.929 18.5815 287.319 18.5815C287.628 18.5815 287.88 18.6064 288.076 18.6561C288.271 18.7058 288.416 18.752 288.512 18.7946L288.15 19.8812C288.086 19.8599 287.997 19.8333 287.884 19.8013C287.774 19.7694 287.628 19.7534 287.447 19.7534C287.032 19.7534 286.731 19.8581 286.547 20.0676C286.366 20.2772 286.275 20.5843 286.275 20.9892V30.002H285.018ZM293.513 21.8201V22.8855H289.102V21.8201H293.513ZM290.423 30.002V20.6909C290.423 20.2221 290.533 19.8315 290.754 19.519C290.974 19.2065 291.26 18.9721 291.611 18.8159C291.963 18.6596 292.334 18.5815 292.724 18.5815C293.033 18.5815 293.286 18.6064 293.481 18.6561C293.676 18.7058 293.822 18.752 293.918 18.7946L293.555 19.8812C293.491 19.8599 293.403 19.8333 293.289 19.8013C293.179 19.7694 293.033 19.7534 292.852 19.7534C292.437 19.7534 292.137 19.8581 291.952 20.0676C291.771 20.2772 291.68 20.5843 291.68 20.9892V30.002H290.423ZM295.275 30.002V21.8201H296.532V30.002H295.275ZM295.914 20.4565C295.669 20.4565 295.457 20.373 295.28 20.2061C295.106 20.0392 295.019 19.8386 295.019 19.6042C295.019 19.3699 295.106 19.1692 295.28 19.0023C295.457 18.8354 295.669 18.752 295.914 18.752C296.159 18.752 296.368 18.8354 296.542 19.0023C296.72 19.1692 296.809 19.3699 296.809 19.6042C296.809 19.8386 296.72 20.0392 296.542 20.2061C296.368 20.373 296.159 20.4565 295.914 20.4565ZM302.158 30.1724C301.391 30.1724 300.73 29.9913 300.176 29.6291C299.623 29.2669 299.196 28.7679 298.898 28.1323C298.6 27.4966 298.451 26.7704 298.451 25.9537C298.451 25.1227 298.603 24.3894 298.909 23.7537C299.218 23.1145 299.647 22.6156 300.198 22.2569C300.752 21.8947 301.398 21.7136 302.137 21.7136C302.712 21.7136 303.23 21.8201 303.692 22.0332C304.154 22.2463 304.532 22.5446 304.827 22.9281C305.121 23.3116 305.304 23.7591 305.375 24.2704H304.118C304.022 23.8975 303.809 23.5673 303.479 23.2797C303.152 22.9885 302.712 22.8429 302.158 22.8429C301.668 22.8429 301.238 22.9707 300.869 23.2264C300.503 23.4785 300.217 23.8354 300.011 24.2971C299.809 24.7551 299.708 25.2931 299.708 25.911C299.708 26.5431 299.807 27.0936 300.006 27.5623C300.208 28.0311 300.493 28.3951 300.858 28.6543C301.228 28.9135 301.661 29.0431 302.158 29.0431C302.485 29.0431 302.781 28.9863 303.048 28.8727C303.314 28.7591 303.539 28.5957 303.724 28.3826C303.909 28.1696 304.04 27.9139 304.118 27.6156H305.375C305.304 28.0985 305.129 28.5336 304.848 28.9206C304.571 29.3042 304.203 29.6096 303.745 29.8368C303.291 30.0605 302.762 30.1724 302.158 30.1724ZM310.643 30.1724C309.855 30.1724 309.175 29.9984 308.603 29.6504C308.035 29.2988 307.597 28.8088 307.288 28.1802C306.982 27.5481 306.83 26.813 306.83 25.975C306.83 25.1369 306.982 24.3983 307.288 23.7591C307.597 23.1163 308.026 22.6156 308.577 22.2569C309.131 21.8947 309.777 21.7136 310.516 21.7136C310.942 21.7136 311.363 21.7846 311.778 21.9267C312.194 22.0687 312.572 22.2995 312.913 22.6191C313.254 22.9352 313.525 23.3542 313.728 23.8762C313.93 24.3983 314.031 25.041 314.031 25.8045V26.3372H307.724V25.2505H312.753C312.753 24.7889 312.661 24.377 312.476 24.0147C312.295 23.6525 312.036 23.3667 311.698 23.1571C311.364 22.9476 310.97 22.8429 310.516 22.8429C310.015 22.8429 309.582 22.9672 309.216 23.2157C308.854 23.4608 308.575 23.7804 308.38 24.1745C308.184 24.5687 308.087 24.9913 308.087 25.4423V26.1667C308.087 26.7846 308.193 27.3084 308.406 27.7381C308.623 28.1642 308.923 28.4892 309.306 28.7129C309.69 28.9331 310.136 29.0431 310.643 29.0431C310.974 29.0431 311.272 28.997 311.538 28.9047C311.808 28.8088 312.041 28.6667 312.236 28.4785C312.431 28.2868 312.582 28.0488 312.689 27.7647L313.903 28.1056C313.776 28.5176 313.561 28.8798 313.259 29.1923C312.957 29.5012 312.584 29.7427 312.14 29.9167C311.696 30.0872 311.197 30.1724 310.643 30.1724ZM323.486 30.1724C322.748 30.1724 322.099 29.9966 321.542 29.6451C320.988 29.2935 320.555 28.8017 320.242 28.1696C319.933 27.5375 319.779 26.7988 319.779 25.9537C319.779 25.1014 319.933 24.3574 320.242 23.7218C320.555 23.0861 320.988 22.5925 321.542 22.2409C322.099 21.8894 322.748 21.7136 323.486 21.7136C324.225 21.7136 324.871 21.8894 325.425 22.2409C325.983 22.5925 326.416 23.0861 326.725 23.7218C327.037 24.3574 327.194 25.1014 327.194 25.9537C327.194 26.7988 327.037 27.5375 326.725 28.1696C326.416 28.8017 325.983 29.2935 325.425 29.6451C324.871 29.9966 324.225 30.1724 323.486 30.1724ZM323.486 29.0431C324.047 29.0431 324.509 28.8993 324.871 28.6117C325.233 28.324 325.501 27.9458 325.675 27.4771C325.849 27.0083 325.936 26.5005 325.936 25.9537C325.936 25.4068 325.849 24.8972 325.675 24.4249C325.501 23.9526 325.233 23.5708 324.871 23.2797C324.509 22.9885 324.047 22.8429 323.486 22.8429C322.925 22.8429 322.463 22.9885 322.101 23.2797C321.739 23.5708 321.471 23.9526 321.297 24.4249C321.123 24.8972 321.036 25.4068 321.036 25.9537C321.036 26.5005 321.123 27.0083 321.297 27.4771C321.471 27.9458 321.739 28.324 322.101 28.6117C322.463 28.8993 322.925 29.0431 323.486 29.0431ZM330.37 25.0801V30.002H329.112V21.8201H330.327V23.0985H330.434C330.625 22.6831 330.916 22.3493 331.307 22.0971C331.698 21.8414 332.202 21.7136 332.82 21.7136C333.374 21.7136 333.859 21.8272 334.274 22.0545C334.69 22.2782 335.013 22.6191 335.244 23.0772C335.474 23.5318 335.59 24.1071 335.59 24.8031V30.002H334.333V24.8883C334.333 24.2456 334.166 23.7449 333.832 23.3862C333.498 23.024 333.04 22.8429 332.458 22.8429C332.056 22.8429 331.698 22.9299 331.382 23.1039C331.069 23.2779 330.822 23.5318 330.641 23.8656C330.46 24.1994 330.37 24.6042 330.37 25.0801ZM342.276 30.002V19.0929H343.533V23.1199H343.64C343.732 22.9778 343.86 22.7967 344.023 22.5765C344.19 22.3528 344.428 22.1539 344.737 21.9799C345.05 21.8024 345.472 21.7136 346.005 21.7136C346.694 21.7136 347.301 21.8858 347.827 22.2303C348.352 22.5748 348.762 23.063 349.057 23.6951C349.352 24.3272 349.499 25.073 349.499 25.9324C349.499 26.7988 349.352 27.5499 349.057 28.1855C348.762 28.8176 348.354 29.3077 347.832 29.6557C347.31 30.0002 346.708 30.1724 346.026 30.1724C345.501 30.1724 345.08 30.0854 344.764 29.9114C344.448 29.7338 344.204 29.5332 344.034 29.3095C343.863 29.0822 343.732 28.894 343.64 28.7449H343.491V30.002H342.276ZM343.512 25.911C343.512 26.5289 343.602 27.074 343.784 27.5463C343.965 28.0151 344.229 28.3826 344.577 28.649C344.925 28.9118 345.351 29.0431 345.856 29.0431C346.381 29.0431 346.82 28.9047 347.171 28.6277C347.526 28.3471 347.793 27.9707 347.97 27.4984C348.151 27.0225 348.242 26.4934 348.242 25.911C348.242 25.3358 348.153 24.8173 347.976 24.3556C347.802 23.8904 347.537 23.5229 347.182 23.253C346.83 22.9796 346.388 22.8429 345.856 22.8429C345.344 22.8429 344.915 22.9725 344.567 23.2317C344.219 23.4874 343.956 23.8461 343.778 24.3077C343.601 24.7658 343.512 25.3002 343.512 25.911ZM353.83 30.1937C353.311 30.1937 352.841 30.0961 352.418 29.9007C351.996 29.7019 351.66 29.416 351.411 29.0431C351.163 28.6667 351.039 28.2122 351.039 27.6795C351.039 27.2108 351.131 26.8308 351.316 26.5396C351.5 26.2449 351.747 26.014 352.056 25.8471C352.365 25.6802 352.706 25.5559 353.079 25.4743C353.455 25.389 353.833 25.3216 354.213 25.2718C354.71 25.2079 355.113 25.16 355.422 25.128C355.735 25.0925 355.962 25.0339 356.104 24.9522C356.25 24.8706 356.323 24.7285 356.323 24.5261V24.4835C356.323 23.9579 356.179 23.5495 355.891 23.2583C355.607 22.9672 355.176 22.8216 354.597 22.8216C353.997 22.8216 353.526 22.9529 353.185 23.2157C352.844 23.4785 352.605 23.7591 352.466 24.0574L351.273 23.6312C351.486 23.1341 351.77 22.747 352.125 22.47C352.484 22.1895 352.874 21.9941 353.297 21.8841C353.723 21.7704 354.142 21.7136 354.554 21.7136C354.817 21.7136 355.119 21.7456 355.46 21.8095C355.804 21.8699 356.136 21.9959 356.456 22.1877C356.779 22.3794 357.047 22.6689 357.26 23.0559C357.473 23.443 357.58 23.9615 357.58 24.6113V30.002H356.323V28.894H356.259C356.173 29.0716 356.031 29.2615 355.833 29.464C355.634 29.6664 355.369 29.8386 355.039 29.9806C354.709 30.1227 354.306 30.1937 353.83 30.1937ZM354.021 29.0645C354.519 29.0645 354.938 28.9668 355.279 28.7715C355.623 28.5762 355.882 28.324 356.056 28.0151C356.234 27.7061 356.323 27.3812 356.323 27.0403V25.8897C356.269 25.9537 356.152 26.0123 355.971 26.0655C355.794 26.1152 355.588 26.1596 355.353 26.1987C355.122 26.2342 354.897 26.2662 354.677 26.2946C354.46 26.3194 354.284 26.3407 354.149 26.3585C353.823 26.4011 353.517 26.4703 353.233 26.5662C352.953 26.6586 352.725 26.7988 352.551 26.987C352.381 27.1717 352.296 27.4238 352.296 27.7434C352.296 28.1802 352.457 28.5105 352.78 28.7342C353.107 28.9544 353.521 29.0645 354.021 29.0645ZM361.131 25.0801V30.002H359.874V21.8201H361.089V23.0985H361.195C361.387 22.6831 361.678 22.3493 362.069 22.0971C362.459 21.8414 362.964 21.7136 363.582 21.7136C364.136 21.7136 364.62 21.8272 365.036 22.0545C365.451 22.2782 365.774 22.6191 366.005 23.0772C366.236 23.5318 366.351 24.1071 366.351 24.8031V30.002H365.094V24.8883C365.094 24.2456 364.927 23.7449 364.594 23.3862C364.26 23.024 363.802 22.8429 363.219 22.8429C362.818 22.8429 362.459 22.9299 362.143 23.1039C361.831 23.2779 361.584 23.5318 361.403 23.8656C361.222 24.1994 361.131 24.6042 361.131 25.0801ZM369.82 27.019L369.799 25.4636H370.055L373.634 21.8201H375.19L371.376 25.6767H371.269L369.82 27.019ZM368.649 30.002V19.0929H369.906V30.002H368.649ZM373.847 30.002L370.651 25.9537L371.546 25.0801L375.445 30.002H373.847ZM383.434 30.1937C382.916 30.1937 382.445 30.0961 382.023 29.9007C381.6 29.7019 381.264 29.416 381.016 29.0431C380.767 28.6667 380.643 28.2122 380.643 27.6795C380.643 27.2108 380.735 26.8308 380.92 26.5396C381.105 26.2449 381.351 26.014 381.66 25.8471C381.969 25.6802 382.31 25.5559 382.683 25.4743C383.06 25.389 383.438 25.3216 383.818 25.2718C384.315 25.2079 384.718 25.16 385.027 25.128C385.339 25.0925 385.567 25.0339 385.709 24.9522C385.854 24.8706 385.927 24.7285 385.927 24.5261V24.4835C385.927 23.9579 385.783 23.5495 385.496 23.2583C385.212 22.9672 384.78 22.8216 384.201 22.8216C383.601 22.8216 383.131 22.9529 382.79 23.2157C382.449 23.4785 382.209 23.7591 382.071 24.0574L380.877 23.6312C381.09 23.1341 381.375 22.747 381.73 22.47C382.088 22.1895 382.479 21.9941 382.902 21.8841C383.328 21.7704 383.747 21.7136 384.159 21.7136C384.421 21.7136 384.723 21.7456 385.064 21.8095C385.409 21.8699 385.741 21.9959 386.06 22.1877C386.383 22.3794 386.652 22.6689 386.865 23.0559C387.078 23.443 387.184 23.9615 387.184 24.6113V30.002H385.927V28.894H385.863C385.778 29.0716 385.636 29.2615 385.437 29.464C385.238 29.6664 384.974 29.8386 384.643 29.9806C384.313 30.1227 383.91 30.1937 383.434 30.1937ZM383.626 29.0645C384.123 29.0645 384.542 28.9668 384.883 28.7715C385.228 28.5762 385.487 28.324 385.661 28.0151C385.838 27.7061 385.927 27.3812 385.927 27.0403V25.8897C385.874 25.9537 385.757 26.0123 385.576 26.0655C385.398 26.1152 385.192 26.1596 384.958 26.1987C384.727 26.2342 384.501 26.2662 384.281 26.2946C384.065 26.3194 383.889 26.3407 383.754 26.3585C383.427 26.4011 383.122 26.4703 382.838 26.5662C382.557 26.6586 382.33 26.7988 382.156 26.987C381.985 27.1717 381.9 27.4238 381.9 27.7434C381.9 28.1802 382.062 28.5105 382.385 28.7342C382.712 28.9544 383.125 29.0645 383.626 29.0645Z" fill="#848484"/>
</g>
<defs>
<filter id="filter0_d_220_191" x="0" y="0.00195312" width="425" height="353" filterUnits="userSpaceOnUse" color-interpolation-filters="sRGB">
<feFlood flood-opacity="0" result="BackgroundImageFix"/>
<feColorMatrix in="SourceAlpha" type="matrix" values="0 0 0 0 0 0 0 0 0 0 0 0 0 0 0 0 0 0 127 0" result="hardAlpha"/>
<feOffset dx="-7" dy="7"/>
<feGaussianBlur stdDeviation="10"/>
<feComposite in2="hardAlpha" operator="out"/>
<feColorMatrix type="matrix" values="0 0 0 0 1 0 0 0 0 1 0 0 0 0 1 0 0 0 0.25 0"/>
<feBlend mode="normal" in2="BackgroundImageFix" result="effect1_dropShadow_220_191"/>
<feBlend mode="normal" in="SourceGraphic" in2="effect1_dropShadow_220_191" result="shape"/>
</filter>
</defs>
</svg>
