<svg width="170" height="164" viewBox="0 0 170 164" fill="none" xmlns="http://www.w3.org/2000/svg">
<path d="M31.5513 0.123917C30.3888 0.611694 29.8906 1.51221 29.8906 3.01308C29.8906 4.47642 30.0567 4.73907 34.3079 9.42927C36.7325 12.0933 40.6184 15.9205 42.9433 17.8716C47.0949 21.3236 47.1945 21.4362 46.9288 22.5618C46.796 23.1622 46.6631 26.0513 46.6631 28.9405C46.6631 33.368 46.796 34.6438 47.4602 37.0076C49.4198 44.1367 53.3721 49.765 58.9519 53.3295C64.2327 56.7065 82.4998 63.0851 92.1979 64.9612C96.9474 65.8617 99.704 64.8862 102.494 61.2091L104.088 59.1454L105.184 61.4717C106.546 64.3609 107.21 65.1488 109.369 66.4996C111.063 67.5502 111.229 67.5877 116.908 67.7003C123.451 67.8504 124.016 67.6628 124.414 65.2614C124.58 64.2483 124.448 63.8731 123.617 62.8975L122.621 61.7719H117.639C111.561 61.7719 111.229 61.5843 109.136 57.0817C107.575 53.6297 106.247 52.3915 104.221 52.3915C102.328 52.3915 101.265 53.1794 99.3055 55.9936C96.8809 59.4831 96.2499 59.7082 91.9322 58.7326C80.7727 56.2187 64.5316 50.3278 60.6125 47.3636C57.0587 44.662 54.136 40.4971 52.8075 36.1446C52.2761 34.4562 52.0104 32.6176 51.9107 29.3908C51.8111 26.9894 51.8111 25.0007 51.944 25.0007C52.0436 25.0007 53.9035 26.1264 56.0623 27.5147C72.9013 38.3209 92.364 44.9997 115.082 47.7388C120.96 48.4517 138.663 48.8269 144.11 48.3767C147.796 48.039 148.294 47.9264 148.859 47.1385C149.689 46.0128 149.623 44.0617 148.759 43.1612C148.095 42.4858 147.331 42.4483 134.411 42.4483C120.495 42.4108 117.141 42.1856 107.443 40.5722C95.951 38.6961 84.0608 35.0565 73.7316 30.3663C66.8565 27.2145 54.8003 20.198 54.8003 19.3725C54.8003 18.6971 57.0919 17.0837 60.3136 15.5078C67.4211 11.9432 74.4623 10.1047 79.6767 10.4799C82.1012 10.63 83.164 10.9677 86.5185 12.506C90.0391 14.157 90.5705 14.4947 91.1351 15.6954L91.7994 17.0462L90.7366 20.1229C90.1387 21.7739 89.6737 23.5749 89.6737 24.1002C89.6737 26.3515 91.7662 28.7529 93.7589 28.7529C95.0542 28.7529 96.1502 28.04 100.8 24.2128C103.025 22.4117 105.217 20.7983 105.716 20.6857C106.214 20.5357 107.609 20.7983 109.336 21.3987C112.956 22.6369 120.661 24.7756 124.215 25.5636C128.433 26.4641 128.134 26.2389 128.367 28.9405C128.5 30.2538 128.865 31.8297 129.23 32.4675C130.359 34.6063 133.149 35.4693 135.375 34.4562C136.006 34.156 137.301 32.6927 138.596 30.8166L140.822 27.6272L142.881 27.8524C148.095 28.3402 150.985 29.2031 154.937 31.5295C159.388 34.081 164.735 40.7973 164.735 43.8366C164.735 45.2249 162.111 48.7144 159.055 51.3409C153.143 56.4438 146.601 59.1454 136.869 60.6462C133.515 61.134 131.92 61.5468 131.489 61.997C130.592 62.8975 130.625 65.2614 131.555 66.312C132.219 67.0624 132.485 67.1 135.242 66.8748C147.763 65.7867 158.823 60.6838 165.798 52.6917C169.252 48.7519 170.148 46.7257 169.982 43.2362C169.883 40.7973 169.75 40.3095 168.255 37.608C163.174 28.3777 155.302 23.1997 144.674 21.999C138.995 21.3611 137.533 21.999 134.744 26.4266L133.681 28.0775L133.481 26.2014C133.249 24.1377 132.385 22.4868 131.024 21.4737C130.559 21.136 127.404 20.1604 124.049 19.335C120.695 18.5095 115.58 17.0837 112.69 16.1832C109.801 15.2451 106.878 14.4947 106.214 14.4947C104.387 14.4947 102.095 15.6203 99.4383 17.7966C98.1098 18.8847 96.9806 19.7477 96.8477 19.7477C96.7481 19.7477 96.7481 18.9973 96.8477 18.1343C97.1798 15.5453 96.2167 12.506 94.556 10.5924C93.4268 9.3167 92.1979 8.56627 88.3452 6.80276L83.5294 4.58899H78.5474C74.5619 4.58899 72.868 4.73907 70.1446 5.41446C62.9374 7.2155 54.601 11.1928 51.5786 14.2696L49.8515 16.0331L45.8328 12.5811C43.6075 10.705 39.9541 7.14045 37.7289 4.70155C33.8762 0.49913 32.6805 -0.363869 31.5513 0.123917Z" fill="black"/>
<path d="M59.2849 82.7842C54.0373 83.1595 51.3139 83.7973 46.9962 85.5984C37.9623 89.388 28.0981 96.5922 20.3927 105.072C17.5696 108.186 17.4367 108.299 16.54 107.886C15.1118 107.211 11.6245 107.624 10.3956 108.599C9.2996 109.462 1.561 120.794 0.597831 122.895C0.199277 123.795 0 125.071 0 126.872C0 131.45 0 131.45 17.2707 147.547C25.5739 155.313 33.0468 162.03 33.8771 162.443C36.4013 163.756 39.7226 163.418 42.1139 161.617C43.3096 160.679 51.8785 147.697 52.4099 146.008C52.9745 144.17 52.7752 142.181 51.812 140.117L51.0814 138.541L52.0445 137.641C52.5427 137.153 53.9377 136.215 55.1333 135.577C56.9932 134.564 57.7571 134.376 60.4806 134.264C64.6322 134.076 65.5954 134.376 77.2199 139.554C82.5339 141.918 87.4826 144.057 88.2797 144.32C92.4314 145.558 98.3432 145.483 102.096 144.095C104.82 143.119 118.005 136.403 118.703 135.69C119.467 134.827 119.5 132.5 118.703 131.525C117.64 130.212 116.212 130.624 108.307 134.527C99.4061 138.917 100.104 138.616 97.2804 139.067C93.0956 139.742 90.9368 139.142 79.8437 134.151C67.9867 128.861 65.8943 128.185 61.3109 128.185C55.9636 128.185 51.7124 129.836 48.2915 133.213L46.6973 134.827L34.3089 123.57L21.9205 112.351L22.784 111.151C24.1457 109.312 28.7955 104.659 32.1168 101.845C40.1211 95.1288 49.2879 90.2135 55.9969 89.1254C57.4582 88.8627 62.5066 88.6751 67.256 88.6376C75.3932 88.6001 76.0242 88.6376 78.3159 89.4631C82.5339 90.964 102.428 100.082 103.491 100.982C104.056 101.47 104.787 102.446 105.085 103.158C106.58 106.798 104.554 111.676 101.498 111.676C101.067 111.676 95.7526 110.325 89.7079 108.674C83.6632 107.023 78.2163 105.672 77.552 105.672C76.8213 105.672 76.1238 105.973 75.7253 106.423C74.8618 107.398 74.8285 109.537 75.6921 110.513C76.5224 111.451 97.8783 117.379 101.133 117.604C103.259 117.717 103.657 117.642 105.584 116.479C107.178 115.578 108.008 114.753 108.839 113.364L110.001 111.488L127.471 105.635C137.103 102.408 146.004 99.4063 147.266 98.956C150.122 97.943 151.849 97.943 153.709 98.956C156.134 100.307 157.462 103.459 156.964 106.573C156.698 108.149 154.174 111.413 152.48 112.389C151.816 112.764 145.605 115.916 138.664 119.368C131.722 122.82 125.777 125.972 125.478 126.384C124.681 127.397 124.714 129.499 125.545 130.437C125.943 130.887 126.641 131.187 127.272 131.187C128.534 131.187 154.108 118.58 156.3 116.891C158.525 115.165 160.949 111.901 161.747 109.5C162.344 107.811 162.444 106.798 162.344 104.547C161.879 95.8042 155.27 90.5137 147.465 92.6899C146.269 93.0276 137.601 95.8793 128.202 99.0686L111.097 104.809L110.566 102.558C109.901 99.8941 108.606 97.6803 106.713 96.0669C105.252 94.7912 83.8957 84.998 79.3787 83.4971C77.2531 82.8218 75.9246 82.6717 70.2452 82.5966C66.5918 82.5216 61.6763 82.6341 59.2849 82.7842ZM30.7551 128.223C39.6894 136.29 47.129 143.119 47.2619 143.457C47.4612 143.832 46.3651 145.745 43.2763 150.361C38.8922 156.889 37.9955 157.79 36.4345 157.115C35.6706 156.777 6.01153 129.198 5.57976 128.41C5.44691 128.185 5.31406 127.472 5.31406 126.797C5.31406 125.859 6.14438 124.358 9.33281 119.593C11.8238 115.841 13.5841 113.552 13.9494 113.552C14.2815 113.552 21.8208 120.156 30.7551 128.223Z" fill="black"/>
</svg>
