<svg width="87" height="83" viewBox="0 0 87 83" fill="none" xmlns="http://www.w3.org/2000/svg">
<path fill-rule="evenodd" clip-rule="evenodd" d="M49.3849 33.9537C54.2704 28.3286 59.7963 25.4756 66.7828 25.82C78.1491 26.3794 86.149 34.3028 86.7241 46.6724C87.2291 57.5672 86.8709 68.5001 86.9484 79.4139C86.9674 82.0328 85.7426 83.0115 83.2325 82.9482C79.8701 82.8631 76.4955 82.7856 73.1412 82.9816C69.8135 83.1762 68.5479 81.8389 68.605 78.5292C68.7362 71.1197 68.6553 63.7047 68.641 56.2925C68.6363 54.2725 68.6614 52.243 68.5037 50.2325C68.0178 44.01 64.3712 40.2545 58.965 40.2967C53.4086 40.3396 48.9132 44.811 48.8153 50.76C48.6719 59.5178 48.7582 68.2789 48.7398 77.0387C48.7269 82.904 48.7222 82.904 42.9387 82.9421C30.4325 83.0224 30.4373 83.0224 30.4325 70.4969C30.4278 57.6945 30.5209 44.8886 30.3346 32.0889C30.2809 28.3824 31.5186 26.898 35.2093 27.2445C37.3436 27.4452 39.5124 27.2669 41.667 27.2758C48.0955 27.3043 48.0955 27.3078 49.3849 33.9537ZM1.30595 54.8762C1.30595 47.1978 1.44664 39.5161 1.2441 31.8438C1.15098 28.2558 2.51919 27.0137 5.97335 27.2268C9.3242 27.4323 12.6995 27.3425 16.0599 27.271C18.5842 27.2186 19.7254 28.2476 19.7159 30.8577C19.6561 47.0222 19.6479 63.1847 19.6792 79.3493C19.684 81.9369 18.5666 83.0033 16.0252 82.9496C12.395 82.872 8.75802 82.8434 5.13054 82.9639C2.34587 83.0571 1.29983 81.8654 1.32974 79.1213C1.4181 71.04 1.361 62.9567 1.361 54.8755C1.34401 54.8762 1.32498 54.8762 1.30595 54.8762ZM10.3193 19.2578C4.41415 19.2326 0.0403756 15.1607 0.000274113 9.65068C-0.040507 4.23459 4.47396 0.00408572 10.2955 2.21985e-06C16.6301 -0.0034007 20.9203 3.90587 20.8952 9.65749C20.868 15.5146 16.7151 19.283 10.3193 19.2578Z" fill="white"/>
</svg>
