<svg width="92" height="119" viewBox="0 0 92 119" fill="none" xmlns="http://www.w3.org/2000/svg">
<g filter="url(#filter0_d_97_215)">
<path d="M81.5195 99.5C81.4089 100.709 80.9006 101.85 80.0674 102.721C79.1193 103.712 77.8283 104.272 76.4775 104.272C75.1268 104.272 73.8358 103.712 72.8877 102.721C72.0544 101.85 71.5452 100.709 71.4346 99.5H66.5107C66.6247 102.114 67.6312 104.586 69.3975 106.433C71.279 108.399 73.8267 109.5 76.4775 109.5C79.1283 109.5 81.6752 108.399 83.5566 106.433C85.3262 104.583 86.3696 102.109 86.4883 99.5H81.5195Z" fill="black" stroke="white"/>
<mask id="path-2-outside-1_97_215" maskUnits="userSpaceOnUse" x="81" y="1" width="6" height="99" fill="black">
<rect fill="white" x="81" y="1" width="6" height="99"/>
<path d="M86 2H82V100H86V2Z"/>
</mask>
<path d="M86 2H82V100H86V2Z" fill="black"/>
<path d="M86 2V1H87V2H86ZM82 2H81V1H82V2ZM86 2V3H82V2V1H86V2ZM82 2H83V100H82H81V2H82ZM86 100H85V2H86H87V100H86Z" fill="white" mask="url(#path-2-outside-1_97_215)"/>
<mask id="path-4-outside-2_97_215" maskUnits="userSpaceOnUse" x="66" y="1" width="6" height="99" fill="black">
<rect fill="white" x="66" y="1" width="6" height="99"/>
<path d="M71 2H67V100H71V2Z"/>
</mask>
<path d="M71 2H67V100H71V2Z" fill="black"/>
<path d="M71 2V1H72V2H71ZM67 2H66V1H67V2ZM71 2V3H67V2V1H71V2ZM67 2H68V100H67H66V2H67ZM71 100H70V2H71H72V100H71Z" fill="white" mask="url(#path-4-outside-2_97_215)"/>
<mask id="path-6-outside-3_97_215" maskUnits="userSpaceOnUse" x="19.1507" y="10.6085" width="54.234" height="95.4799" fill="black">
<rect fill="white" x="19.1507" y="10.6085" width="54.234" height="95.4799"/>
<path d="M24.4727 11.0703L20.8713 12.9452L68.5482 104.524L72.1496 102.649L24.4727 11.0703Z"/>
</mask>
<path d="M24.4727 11.0703L20.8713 12.9452L68.5482 104.524L72.1496 102.649L24.4727 11.0703Z" fill="black"/>
<path d="M20.8713 12.9452L21.7583 12.4834L69.4352 104.062L68.5482 104.524L67.6613 104.986L19.9843 13.407L20.8713 12.9452ZM72.1496 102.649L71.2626 103.111L23.5857 11.5321L24.4727 11.0703L25.3597 10.6085L73.0366 102.187L72.1496 102.649Z" fill="white" mask="url(#path-6-outside-3_97_215)"/>
<path d="M10.4805 11.5C10.5911 10.2911 11.0994 9.15037 11.9326 8.2793C12.8807 7.28824 14.1717 6.72764 15.5225 6.72754C16.8732 6.72754 18.1642 7.28831 19.1123 8.2793C19.9456 9.15039 20.4548 10.2911 20.5654 11.5H25.4893C25.3753 8.88604 24.3688 6.41382 22.6025 4.56738C20.721 2.60053 18.1733 1.5 15.5225 1.5C12.8717 1.5001 10.3248 2.60065 8.44336 4.56738C6.6738 6.41719 5.63036 8.89071 5.51172 11.5H10.4805Z" fill="black" stroke="white"/>
<mask id="path-9-outside-4_97_215" maskUnits="userSpaceOnUse" x="5" y="11" width="6" height="99" fill="black">
<rect fill="white" x="5" y="11" width="6" height="99"/>
<path d="M6 109H10L10 11H6L6 109Z"/>
</mask>
<path d="M6 109H10L10 11H6L6 109Z" fill="black"/>
<path d="M6 109V110H5V109H6ZM10 109H11V110H10V109ZM6 109V108H10V109V110H6V109ZM10 109H9L9 11H10H11L11 109H10ZM6 11H7L7 109H6H5L5 11H6Z" fill="white" mask="url(#path-9-outside-4_97_215)"/>
<mask id="path-11-outside-5_97_215" maskUnits="userSpaceOnUse" x="20" y="11" width="6" height="99" fill="black">
<rect fill="white" x="20" y="11" width="6" height="99"/>
<path d="M21 109H25L25 11H21L21 109Z"/>
</mask>
<path d="M21 109H25L25 11H21L21 109Z" fill="black"/>
<path d="M21 109V110H20V109H21ZM25 109H26V110H25V109ZM21 109V108H25V109V110H21V109ZM25 109H24L24 11H25H26L26 109H25ZM21 11H22L22 109H21H20L20 11H21Z" fill="white" mask="url(#path-11-outside-5_97_215)"/>
</g>
<defs>
<filter id="filter0_d_97_215" x="-1" y="0" width="93" height="119" filterUnits="userSpaceOnUse" color-interpolation-filters="sRGB">
<feFlood flood-opacity="0" result="BackgroundImageFix"/>
<feColorMatrix in="SourceAlpha" type="matrix" values="0 0 0 0 0 0 0 0 0 0 0 0 0 0 0 0 0 0 127 0" result="hardAlpha"/>
<feOffset dy="4"/>
<feGaussianBlur stdDeviation="2.5"/>
<feComposite in2="hardAlpha" operator="out"/>
<feColorMatrix type="matrix" values="0 0 0 0 0 0 0 0 0 0 0 0 0 0 0 0 0 0 0.5 0"/>
<feBlend mode="normal" in2="BackgroundImageFix" result="effect1_dropShadow_97_215"/>
<feBlend mode="normal" in="SourceGraphic" in2="effect1_dropShadow_97_215" result="shape"/>
</filter>
</defs>
</svg>
