<svg width="193" height="193" viewBox="0 0 193 193" fill="none" xmlns="http://www.w3.org/2000/svg">
<path d="M136.712 48.252C150.036 48.252 160.837 59.0531 160.837 72.377V80.4186H168.881C170.346 80.4186 171.719 80.8102 172.902 81.4946C175.306 82.885 176.923 85.4841 176.923 88.4603V104.544C176.923 107.52 175.306 110.119 172.902 111.509C171.719 112.194 170.346 112.585 168.881 112.585H160.837V120.627C160.837 133.951 150.036 144.752 136.712 144.752H103.145C104.059 140.88 104.543 136.841 104.543 132.689H136.698C142.967 132.689 148.12 127.905 148.705 121.789L148.76 120.627V72.377C148.76 66.1069 143.976 60.9542 137.859 60.3697L136.698 60.3145H40.2096C33.9395 60.3145 28.7869 65.0983 28.2024 71.2153L28.1471 72.377V86.3067C23.716 88.6163 19.6573 91.5418 16.0846 94.9708V72.377C16.0846 59.0531 26.8858 48.252 40.2096 48.252H136.712ZM96.5013 132.689C96.5013 157.117 76.6993 176.919 52.2721 176.919C27.845 176.919 8.04297 157.117 8.04297 132.689C8.04297 108.262 27.845 88.4603 52.2721 88.4603C76.6993 88.4603 96.5013 108.262 96.5013 132.689ZM79.2403 113.763C77.6701 112.193 75.1242 112.193 73.554 113.763L44.2305 143.087L30.9903 129.846C29.4201 128.276 26.8742 128.276 25.304 129.846C23.7337 131.416 23.7337 133.962 25.304 135.533L41.3873 151.616C42.9576 153.186 45.5034 153.186 47.0736 151.616L79.2403 119.45C80.8104 117.879 80.8104 115.333 79.2403 113.763Z" fill="#403838"/>
</svg>
