<svg width="1373" height="203" viewBox="0 0 1373 203" fill="none" xmlns="http://www.w3.org/2000/svg">
<path d="M104.165 199.76C105.002 199.524 108.407 200.214 109.925 200.14C108.121 202.785 101.118 200.617 104.165 199.76ZM260.244 8.25394C259.003 8.8904 257.763 9.52689 256.514 10.1632C260.004 10.6701 264.691 10.285 267.926 10.9852C268.454 11.1024 267.036 12.9924 268.289 13.1055C269.544 13.218 269.358 10.5889 271.192 10.3481C273.24 10.0856 282.572 12.1178 285.82 12.1444C297.959 12.2322 310.24 11.0021 322.374 12.3593C309.788 14.0247 322.381 16.278 325.921 15.5144C326.704 15.3368 326.701 10.4562 339.26 11.9623C347.267 12.9191 339.701 19.7285 353.142 16.531C342.951 11.4243 353.096 11.991 361.126 12.0073C362.498 12.0089 373.711 12.992 378.679 12.8871C380.385 12.8501 383.028 10.353 385.266 10.336C386.812 10.3264 387.917 11.7487 390.248 11.73C400.969 11.6558 411.509 11.7854 422.228 12.5023C415.85 18.926 427.061 15.4122 427.603 15.7388C430.123 17.5799 418.523 17.8227 423.06 19.0418C429.533 18.986 435.852 18.9275 442.286 18.8726C437.077 17.9457 449.332 13.5036 451.566 15.7054C450.943 11.6256 465.447 16.0698 475.725 18.4765C480.295 19.5101 483.8 20.163 485.213 19.6163C486.139 19.2298 480.064 16.2116 494.506 17.877C496.106 18.0621 495.455 19.7976 496.293 19.6549C496.835 19.5701 499.808 14.0767 503.021 17.233C504.138 18.3844 496.646 21.8501 513.028 20.7945C506.65 14.9632 535.721 18.3102 541.203 19.8903C540.154 19.1002 539.007 18.3075 538.013 17.5192C543.347 19.7185 544.268 17.8188 545.524 17.9587C550.34 18.5148 556.992 20.6489 561.533 20.6094C566.864 20.5679 566.94 17.0452 573.136 18.6141C571.657 17.7889 570.254 16.9666 568.786 16.1429C573.047 16.4637 577.363 16.7934 581.505 17.1158C571.652 21.4585 583.655 17.4102 584.28 17.3268C585.438 17.193 583.721 19.0499 585.667 18.8717C585.849 18.8372 585.686 17.0378 588.509 16.9137C591.313 16.7871 592.495 17.228 593.32 17.7321C594.163 18.2712 594.529 18.8776 595.812 18.8837C596.043 18.8733 595.264 17.2519 599.546 16.9145C613.213 15.7632 599.458 18.1706 598.947 18.3736C598.3 18.6372 602.31 24.6995 593.216 23.2935C592.615 23.2007 592.002 23.0768 591.306 22.9162C592.072 23.0846 592.675 23.336 593.21 23.6332C595.299 24.8308 595.594 26.7684 595.952 26.8337C596.335 26.9086 603.167 26.5481 603.547 26.4384C606.908 25.4304 603.954 23.3764 604.61 23.0113C605.13 22.7277 613.402 25.3658 615.227 19.1736C619.214 24.7923 613.05 24.3882 606.431 25.2593C605.472 26.4312 612.735 27.5383 613.127 27.5224C622.489 27.396 617.239 22.7859 619.214 19.7722C620.251 18.1931 624.061 21.2971 620.516 17.1835C628.838 16.551 623.851 19.0904 624.393 19.4396C625.224 19.948 628.101 18.6632 628.469 18.8098C629.013 19.0292 627.194 20.5383 629.326 20.9806C629.68 21.0435 632.975 18.4348 628.576 17.3897C634.412 17.547 633.822 15.423 635.974 19.6263C639.571 11.3435 639.085 24.2814 640.69 24.6571C644.934 25.6318 643.351 19.3329 643.556 19.0124C644.576 17.4986 650.99 17.8918 655.301 17.6928C657.327 17.5872 659.037 17.429 659.963 17.1113C659.549 18.9717 657.676 19.5012 655.45 19.5361C652.816 19.5312 649.467 18.3266 648.449 18.9302C642.796 22.2811 656.823 20.6398 653.012 26.685C653.952 25.7223 654.877 24.7576 655.796 23.79C656.716 23.02 657.642 22.2505 658.571 21.4818C662.988 24.8587 657.228 26.9023 668.267 24.728C669.857 21.4008 660.425 25.8152 662.185 23.1595C663.207 21.5935 669.676 20.8037 669.758 20.0206C669.814 19.0725 664.019 20.6087 664.841 19.1029C666.566 15.8104 688.54 17.3682 672.107 20.1396C676.7 19.7761 679.46 25.8118 683.374 23.6526C685.986 22.2693 670.488 14.4944 693.079 14.9073C693.673 17.7964 684.093 16.2112 683.882 16.4589C683.559 16.8013 685.617 23.2986 685.925 23.6087C686.835 24.5575 709.982 20.0761 715.717 23.4995C713.283 19.5886 735.616 22.9874 739.546 22.3411C740.359 22.0749 737.573 19.5426 738.429 19.3528C740.671 18.8807 744.569 19.5314 749.627 20.8018C751.869 21.9854 754.314 23.6443 755.851 23.8275C758.822 24.1772 758.559 22.1163 758.726 22.1354C760.009 22.3252 758.898 23.6303 759.691 23.6716C760.852 23.7909 769.233 24.2298 769.741 23.8889C769.863 23.7987 768.446 21.5049 770.316 21.0512C770.672 20.9561 770.353 23.7638 776.267 22.3697C783.493 20.6248 771.143 19.1755 774.07 16.1833C778.704 20.0957 778.5 16.028 779.77 16.2824C780.211 16.374 783.796 19.6093 787.829 19.0626C784.982 19.8515 782.261 20.5998 779.653 21.3018C782.241 21.7743 787.573 20.6328 790.068 21.0938C791.28 21.321 790.526 24.2221 793.136 23.9116C793.72 23.8212 795.176 16.8099 788.784 20.4544C788.053 18.0533 791.315 19.3841 792.782 18.5503C793.002 18.4213 793.509 14.2597 795.71 16.6089C796.305 17.1585 792.134 29.2099 804.315 20.141C805.592 19.8643 806.893 19.6019 808.208 19.3559C810.125 18.9942 805.014 18.3404 804.082 17.9172C804.047 17.8294 804.036 17.752 804.059 17.6898C804.127 17.6554 804.231 17.6211 804.377 17.5873C805.183 17.3858 810.628 16.9887 815.435 17.0985C820.306 17.1741 824.164 17.584 824.882 17.527C825.643 17.4717 824.471 16.9082 823.203 16.3536C821.926 15.7967 820.565 15.2534 821.62 15.1388C827.128 14.571 831.176 16.3302 832.145 17.8115C832.66 18.5602 832.586 19.2677 831.582 19.6568C830.511 20.0526 828.677 20.0798 823.882 19.6097C830.356 20.8754 834.112 22.3285 836.527 23.4959C835.429 20.8549 836.735 20.7038 838.218 21.1907C839.711 21.6799 840.905 22.7216 841.593 22.7466C843.697 22.8131 844.207 22.4608 844.74 22.0558C845.211 21.6387 845.334 21.1063 845.327 20.5438C845.304 19.4181 844.818 18.1609 845.311 17.3809C846.874 14.8525 845.057 23.1359 847.721 20.7456C847.841 20.6331 847.163 19.6589 847.211 18.9927C847.346 18.3137 847.631 18.0249 851.487 18.997C850.316 19.152 849.26 19.2834 848.301 19.3959C848.666 24.1561 852.196 19.0925 852.503 19.0016C852.865 18.9198 853.174 18.8671 853.435 18.8357C856.635 18.5409 854.421 19.7386 861.947 17.2626C862.691 17.0121 864.465 18.103 866.125 17.4458C873.028 14.7373 856.838 16.4021 856.56 14.4769C856.079 13.5807 873.494 13.0423 874.275 13.4429C876.966 15.2951 866.221 14.685 868.376 17.0386C868.981 17.8883 894.91 14.8787 900.533 15.6264C906.829 16.48 909.945 22.7901 909.719 15.5894C911.77 22.5904 913.182 17.7164 914.015 17.7378C924.048 18.0858 924.041 18.1491 933.191 17.3406C935.259 17.1706 937.057 19.3088 937.81 18.9449C938.256 18.7259 937.394 16.4289 939.598 15.7211C940.769 15.3633 943.989 15.4633 948.251 15.9016C953.213 16.5887 959.122 17.95 959.775 18.7606C960.803 20.0541 953.659 19.1705 954.889 21.2856C960.093 21.6188 965.082 21.2123 970.334 21.5399C972.504 21.6818 971.364 23.1191 972.304 23.1672C972.694 23.1941 980.285 22.0557 979.976 21.5103C979.207 20.2536 955.985 20.6055 962.151 18.1788C963.353 17.7119 967.424 21.1649 966.856 17.0596C986.857 18.3772 1007.89 19.6252 1028.57 21.0314C1028.69 21.0595 1028.83 21.0872 1028.99 21.114C1028.83 21.2573 1028.68 21.3867 1028.56 21.5036C1016.69 23.6352 1003.59 20.8863 991.413 20.9323C989.658 20.9345 983.789 20.4297 984.467 22.511C995.219 23.2454 1008.89 22.4346 1019.34 24.0209C1019.67 24.073 1018.41 25.9034 1019.65 26.2257C1021.32 26.6512 1025.59 25.37 1028.48 24.8657C1028.76 24.6337 1029.07 24.537 1029.2 24.7653C1029.24 24.8808 1028.68 25.9091 1028.43 27.0387C1027.88 27.6772 1027.59 28.3563 1028.06 28.9349C1028.17 29.065 1028.27 29.182 1028.38 29.2866C1029.32 32.3981 1029.72 24.1095 1031.14 24.1787C1031.74 24.2111 1034.29 25.2138 1039.25 25.7107C1044 26.2015 1051.72 26.3864 1055.49 25.1291C1059.55 23.7793 1053.57 23.1711 1048.62 22.9417C1043.56 22.697 1039.72 22.627 1040.29 21.4139C1049.46 19.6991 1065.11 17.5474 1095.78 27.2765C1091.85 26.0621 1086.49 24.966 1081.94 24.5236C1081.55 24.4909 1085.03 22.9122 1080.24 22.2794C1076.23 21.8418 1074.63 22.5368 1073.64 23.2293C1072.66 23.9407 1072.27 24.7477 1071.95 24.9912C1071.79 25.1209 1071.62 25.2042 1071.79 25.2246C1071.94 25.2469 1072.42 25.2018 1073.17 25.1261C1074.62 24.9784 1076.93 24.7493 1077.53 25.1385C1077.66 25.2439 1076.54 28.0538 1076.35 28.1591C1073.47 29.7092 1072.74 26.4037 1072.54 26.391C1072.02 26.3414 1071.97 27.6477 1072.04 27.5617C1072.28 27.4163 1072.39 26.1427 1074.89 25.9281C1076.86 25.8033 1074.91 28.1264 1076.97 28.0089C1077.33 27.9909 1079.9 26.656 1083.35 26.4099C1086.75 26.133 1090.25 26.9815 1090.07 29.6966C1090.06 29.9209 1088.61 29.745 1085.95 29.5094C1083.35 29.266 1079.3 29.1003 1076.25 29.3632C1073.16 29.6056 1071.69 30.0917 1072.61 30.1411C1073.46 30.2145 1076.33 29.9076 1079.83 29.5039C1094.92 27.521 1113.38 26.9327 1116.01 26.2625C1110.76 25.7595 1105.34 25.4026 1099.82 25.2267C1111.07 25.78 1123.58 21.5055 1124.47 27.8391C1127.56 27.8843 1130.61 27.9738 1133.69 28.1041C1158.15 29.2323 1184.35 29.876 1210.15 30.4972C1215.19 31.0602 1212.4 35.1104 1220.71 33.9632C1218.57 32.6606 1216.43 31.3574 1214.29 30.0534C1218.53 30.9855 1237.39 32.821 1240.45 31.9868C1240.85 31.8778 1241.4 28.2036 1246.12 27.8974C1250.31 27.6265 1250.97 30.3816 1253.22 30.9128C1255.12 31.351 1257.18 30.632 1257.77 30.7848C1258.2 30.907 1258.37 32.5915 1259.4 32.8864C1262.65 33.798 1259.99 29.053 1263.25 34.5019C1262.46 34.7086 1261.65 34.9153 1260.88 35.122C1264.83 35.9145 1270.17 38.3906 1264.39 39.6056C1263.4 39.8153 1264.26 38.1867 1263.51 38.1888C1234.45 38.4522 1257.65 41.6567 1267.84 39.1323C1269.62 40.8135 1277.32 40.6153 1281.96 40.4976L1279.27 40.5499C1281.32 40.4178 1282.71 40.3258 1282.86 40.4647C1283.55 41.1264 1281.16 43.1544 1284.47 44.6877C1285.19 45.0303 1304.2 42.8169 1297.47 46.3356C1296.14 47.0653 1286.86 46.7728 1284.68 46.9517C1290.16 51.86 1301.95 43.9766 1303.27 44.0881C1308.78 44.6112 1292.99 49.0384 1305.33 49.0193C1314.73 48.974 1305.73 46.0361 1309.26 44.384C1311.26 43.4725 1321.72 46.5719 1321.05 41.7146C1324.4 40.9475 1322.61 43.6663 1323.04 43.8209C1323.5 43.9604 1329.91 41.9728 1332.25 42.7716C1332.53 42.8737 1331.92 45.4755 1332.22 45.656C1332.7 45.9739 1339.67 44.7838 1340.05 44.5316C1340.22 44.3649 1338.25 42.3286 1338.92 41.7225C1339.3 41.3781 1341.26 41.1576 1343.27 40.9427C1343.83 40.8058 1345.59 40.8478 1346.16 40.7366C1349 40.5725 1351.3 40.4948 1351.55 40.1657C1351.88 39.6501 1349.1 39.6498 1346.1 39.4807C1345.52 39.5941 1343.73 39.5512 1343.15 39.6908C1341.22 39.5921 1339.6 39.2705 1340.18 38.0434C1341.02 38.0881 1341.96 38.0312 1342.98 37.8925C1343.57 37.7491 1345.41 37.7931 1346.01 37.6765C1351.64 37.2392 1356.66 35.8263 1359.02 34.2016C1358.33 34.7755 1353.89 34.9172 1352.16 34.7648C1353.06 31.0844 1362.48 31.0331 1359.29 33.9427C1361.28 32.3815 1359.91 31.5736 1361.02 30.1079C1361.31 29.7356 1364.08 29.6459 1364.6 29.0162C1364.67 28.8898 1361.82 27.5316 1362.38 26.7914C1363.5 25.4458 1371.55 25.7381 1372.13 26.0901C1373.93 27.0812 1367.54 28.2813 1366.95 29.8164C1366.9 30.0503 1372.39 33.051 1372.45 33.3169C1372.79 36.1617 1366.69 34.1137 1367.37 36.6764C1368.91 37.2155 1370.41 37.7564 1371.9 38.2976C1366.29 40.8784 1354.79 39.6023 1351.2 42.691C1361.6 41.5549 1370.13 41.7556 1370.2 48.3812C1370.2 51.1797 1366.47 52.8239 1366.61 53.5361C1367.19 56.0801 1372.32 53.3121 1372.49 53.447C1372.64 53.6022 1372.71 53.7534 1372.71 53.9004C1372.71 53.9005 1372.71 53.9005 1372.71 53.9006C1372.74 55.3905 1365.4 56.4678 1365 57.1534C1364.38 58.3638 1367.7 63.334 1367.69 64.4358C1367.59 64.6549 1362.28 65.8492 1364.08 67.7648C1365.91 69.6968 1370.47 69.7375 1370.62 69.9395C1371.51 71.0981 1363.51 72.1663 1363.24 72.8588C1363.12 73.2041 1367.46 75.3219 1367.57 75.9354C1367.68 76.5492 1364.42 77.8955 1363.12 79.8421C1362.16 81.2871 1364.98 82.3796 1364.48 82.6077C1364.15 82.7501 1356.47 82.7872 1356.06 83.0614C1355.49 83.445 1357.35 85.1378 1357.08 85.5727C1356.72 86.195 1354.18 85.6205 1354.53 86.2522C1354.86 86.6961 1364.45 92.5454 1364.35 94.1443C1364.26 96.8411 1354.26 90.6934 1363.58 101.301C1363.65 101.37 1365.89 100.605 1365.95 100.671C1367.33 102.632 1360.18 105.666 1368.93 105.122C1352.69 108.585 1366.92 109.187 1364.53 113.749C1363.6 115.496 1357.41 116.27 1357.4 116.542C1358.02 118.752 1359.96 117.009 1360.64 118.093C1361 118.692 1355.57 121.109 1356.83 122.619C1357.45 123.385 1363.26 123.056 1363.52 123.214C1365.85 124.65 1363 126.218 1363.52 127.243C1363.85 127.928 1367.41 127.973 1367.5 128.098C1367.65 128.354 1362.84 131.147 1361.87 132.135C1361.13 132.891 1363.95 134.053 1363.43 134.384C1360.24 136.352 1353.76 131.448 1360.09 138.375C1360.47 138.8 1362.89 138.61 1362.96 138.696C1364.47 140.674 1360.01 140.871 1359.27 142.51C1357.97 145.324 1364.2 143.703 1359.03 145.723C1362.92 147.514 1365.15 147.434 1369.98 146.92C1356.72 148.367 1352.71 155.692 1366.76 155.42C1362.15 155.318 1362.73 159.416 1361.4 159.496C1360.5 159.532 1354.47 155.56 1357.34 164.646C1357.66 165.777 1361.38 164.287 1360.23 166.635C1351.58 166.165 1359.98 168.115 1360.07 168.431C1360.16 170.736 1355.54 171.275 1352.51 171.299L1355.52 171.084C1348.95 171.56 1338.26 171.281 1335.62 171.813C1330.15 172.965 1325.65 177.492 1324.48 177.573C1320.64 177.814 1323.69 175.468 1322.78 174.731C1321.85 174.017 1311.42 178.722 1310.93 178.509C1308.82 177.705 1310.79 175.052 1310.56 174.934C1307.91 173.518 1294.14 176.139 1290.27 175.693C1290.44 177.344 1298.24 177.146 1293.48 180.008C1287.98 183.338 1287.36 176.058 1287.2 175.744C1286.34 175.781 1285.46 175.818 1284.57 175.855C1284.04 175.8 1282.45 175.982 1281.93 175.906C1257.56 175.968 1233.01 176.003 1208.47 175.943C1208.77 179.828 1225.4 176.973 1225.77 177.482C1227.98 180.522 1199.91 180.341 1196.45 178.936C1199.07 179.792 1201.69 180.646 1204.3 181.499C1199.8 185.936 1189.93 180.075 1183.42 181.987C1181.31 182.608 1185.34 184.364 1185.25 184.481C1182.87 186.194 1179.1 184.825 1181.95 182.524C1176.17 184.701 1177.04 182.249 1172.6 182.019C1172.38 182.008 1174.26 183.829 1170.75 184.538C1169.11 184.871 1160.3 184.768 1159.11 186.324C1158.63 186.981 1162.97 194.021 1163.62 188.019C1173.14 191.063 1166.72 185.318 1170.42 185.499C1170.98 185.535 1169.65 188.881 1178.98 187.392C1177.16 193.427 1166.43 188.79 1164.59 189.496C1160.76 190.959 1176.42 194.264 1179.33 189.569C1177.94 194.276 1180.42 190.216 1183.91 190.439C1187.71 190.681 1186.04 192.073 1188.1 192.097C1193.73 192.175 1191.41 188.826 1196.04 191.861C1191.59 182.533 1203.97 190.687 1207.58 193.139C1201.68 193.58 1195.78 194.015 1189.86 194.442C1190.2 194.933 1190.53 195.424 1190.87 195.915C1189.31 195.834 1187.74 195.753 1186.19 195.671C1186.44 195.205 1186.7 194.739 1186.95 194.273C1178.88 197.25 1176.94 193.807 1176.28 193.764C1167.85 193.285 1158.01 193.195 1149.32 193.035C1147.99 193.007 1148.91 196.083 1139.32 193.504C1136.26 192.677 1139.26 190.377 1135.71 190.651C1131.2 196.977 1131.31 191.842 1130.02 191.799C1129.67 191.79 1129.34 191.794 1129.02 191.81C1126.91 191.996 1125.76 193.305 1125.55 193.317C1122.66 193.532 1118.81 193.356 1116.19 193.772C1116.15 193.8 1117.64 195.686 1115.9 195.211C1115.1 195.062 1110.17 186.9 1103.44 190.808C1105.5 191.053 1107.07 191.39 1108.5 191.77C1107.55 191.488 1104.91 192.233 1099.24 193.868C1093.94 195.54 1082.89 197.575 1089.27 198.132C1092.92 198.479 1097.39 196.814 1099.93 195.867C1102.59 194.907 1104.06 194.61 1104.81 197.141C1103.23 196.952 1101.08 197.326 1092.01 198.453C1084.13 199.731 1059.28 200.556 1040.34 193.723C1049.76 196.79 1052.63 196.367 1052.91 196.523C1053.22 196.538 1051.62 196.472 1051.32 196.19C1051.15 196.02 1052.18 194.295 1051.94 194.085C1051.86 194.004 1050.95 194.082 1049.31 194.151C1047.73 194.216 1045.47 194.267 1044.9 193.967C1044.29 193.608 1047.64 192.406 1047.29 191.811C1047.18 191.597 1044.91 191.421 1041.87 191.586C1038.9 191.753 1035.19 192.206 1034.81 193.274C1038.57 192.352 1046.22 192.72 1042.25 194.701C1041.75 194.948 1038.73 193.697 1037.96 194.003C1034.4 195.412 1038.28 195.814 1042.42 195.798C1046.67 195.773 1050.07 195.456 1050.68 195.454C1047.31 197.139 1038.19 197.475 1024.43 196.943C1019.48 196.646 1014.57 196.458 1010.23 197.062C1005.87 195.196 1016.83 194.498 1011.89 192.922C1001.55 189.658 1009.05 195.309 1008.74 195.528C1006.12 197.256 997.546 187.508 997.378 194.793C993.632 193.622 994.87 192.727 989.522 193.578C990.21 194.096 990.902 194.614 991.602 195.132C985.62 199.239 973.104 188.355 974.062 187.559C976.679 185.436 983.221 188.95 983.777 188.879C984.61 188.775 987.064 181.423 995.961 188.208C999.758 183.321 981.693 184.587 989.972 181.365C984.487 181.82 961.329 177.921 957.915 180.008C957.506 180.283 959.27 185.266 953.569 182.621C950.851 181.36 957.447 181.454 956.226 180.3C955.202 179.339 950.625 178.716 944.252 178.302C932.41 177.237 902.686 179.788 895.913 180.232C895.29 180.265 895.45 178.723 894.837 178.765C892.95 178.892 886.142 181.497 882.65 180.953C889.897 183.457 876.095 184.324 872.404 184.171C866.878 183.938 867.081 181.224 864.608 180.751C862.869 180.412 860.885 180.373 858.808 180.488C847.867 181.189 831.672 183.758 823.756 177.704C823.758 180.705 818.893 179.347 814.965 177.205C813.074 176.15 811.701 175.014 812.185 174.332C812.58 173.64 815.07 173.3 817.608 173.165C818.427 173.127 819.348 173.103 820.322 173.077C816.067 174.178 811.51 178.023 817.376 179.591C809.345 180.136 800.551 182.059 792.119 182.95C790.729 183.097 792.544 181.225 790.166 181.528C789.948 181.567 789.763 183.308 787.687 183.599C770.263 185.848 778.591 181.776 775.297 180.823C773.422 180.259 772.037 179.974 771.019 179.883C781.543 179.491 792.784 178.055 795.685 177.791C793.119 174.263 773.837 179.733 767.597 178.538C767.39 178.5 768.116 176.405 767.905 176.39C767.901 176.39 767.896 176.39 767.892 176.39C765.704 176.319 751.274 176.599 754.119 179.183C754.882 179.886 761.643 180.204 769.469 179.941C767.351 180.414 768.934 182.759 768.56 182.86C763.983 184.079 752.628 181.422 748.65 180.806C747.74 180.681 747.706 182.185 747.555 182.179C743.893 181.582 745.758 177.414 741.656 181.525C735.531 175.676 754.087 181.66 752.961 178.004C752.511 176.633 741.514 175.78 731.008 175.055C728.496 175.276 721.592 176.525 721.803 178.622C721.727 178.169 721.416 177.603 720.722 176.958C719.296 175.496 711.815 176.009 710.444 176.84C710.222 176.998 710.409 181.089 710.133 181.134C709.522 181.219 699.7 178.352 696.01 180.992C698.064 181.46 700.082 181.939 702.085 182.43C690.048 183.024 691.891 184.207 696.039 185.196C696.242 185.196 696.447 185.341 696.641 185.348C699.826 186.087 703.752 186.803 703.824 187.125C704.254 188.262 683.681 190.099 687.377 186.102C687.934 185.533 697.636 186.676 692.73 184.239C691.878 183.805 685.686 184.964 685.329 184.693C683.007 182.836 696.487 179.379 694.661 176.674C691.523 179.531 687.181 178.377 683.369 179.331C681.637 179.763 681.347 181.842 681.134 181.896C677.933 182.66 679.596 180.385 678.516 180.516C677.937 180.59 671.859 185.648 672.583 179.261C671.045 179.724 669.695 180.15 668.533 180.538C656.674 183.946 660.522 184.464 668.812 183.97C672.1 183.774 676.188 183.382 680.031 183.002C677.37 184.761 672.757 185.093 668.928 185.404C666.768 185.579 664.836 185.727 663.463 185.997C661.918 186.302 662.989 188.341 660.381 188.942C654.91 190.299 629.334 188.951 622.845 188.393C626.856 187.568 625.629 185.299 622.534 185.517C619.444 185.731 622.098 188.749 621.5 189.088C620.837 189.469 606.302 188.149 603.877 188.507C614.835 187.388 612.304 185.115 603.082 184.867C604.41 184.212 605.752 183.555 607.088 182.894C602.873 183.629 595.004 181.599 590.271 181.098C588.922 180.959 587.831 180.945 587.136 181.157C586.636 181.313 588.373 183.277 588.095 183.364C585.176 184.133 576.155 181.884 575.828 182.528C575.447 183.063 579.141 184.796 577.732 185.545C577.442 185.704 573.899 182.985 570.46 183.513C569.191 183.707 569.89 185.55 569.567 185.646C566.855 186.434 568.516 183.42 563.624 183.758C560.015 184.009 557.291 186.923 552.361 185.784C568.509 190.093 554.919 188.08 548.036 189.041C546.913 189.194 547.818 192.523 541.328 190.73C555.376 185.153 537.439 187.459 533.767 187.297C533.568 187.272 533.579 185.092 531.79 185.009C531.634 185.006 531.828 186.484 530.123 186.551C514.25 187.193 524.441 185.801 521.472 184.269C520.193 183.616 512.444 185.498 510.331 185.495C509.861 185.488 510.128 183.964 508.291 183.978C504.972 184.003 502.051 185.559 499.876 185.634C499.64 185.635 499.615 183.22 495.536 183.902C494.401 184.092 493.092 184.917 494.696 185.651C500.114 188.069 510.348 184.375 516.504 186.814C521.983 189.031 504.496 188.776 503.486 188.765C503.14 188.764 506.593 187.652 503.14 187.328C500.21 187.056 494.644 191.088 490.163 190.07C489.768 189.993 486.385 186.374 486.543 186.171C486.663 186.024 492.174 185.391 491.41 184.349C491.313 184.23 487.791 184.167 487.398 183.396C486.878 182.456 485.615 173.323 484.874 173.077C482.971 172.467 484.17 174.572 482.925 174.397C480.721 174.104 474.865 172.241 472.035 172.997C471.334 173.202 470.87 173.597 470.793 174.264C471.197 174.325 471.599 174.386 472 174.446C473.132 174.61 474.251 174.773 475.358 174.935C473.933 174.955 472.828 175.012 471.985 175.095C468.005 175.513 470.251 176.58 469.263 177.049C467.97 177.658 468.41 174.895 465.555 174.567C464.841 174.493 453.076 174.795 453.178 175.961C459.891 174.267 457.313 177.633 457.628 177.702C458.776 177.952 460.282 176.065 461.795 176.139C472.767 176.699 461.621 179.47 464.194 180.311C465.088 180.595 466.897 178.997 467.268 179.089C468.478 179.39 468.444 181.538 469.253 181.383C471.132 181.025 469.022 177.934 469.173 177.779C469.754 177.151 470.875 177.022 471.933 177.249C474.135 177.699 476.097 179.525 473.266 181.65C475.76 182.902 476.141 178.89 478.054 180.544C481.82 183.818 476.096 182.862 474.448 183.351C473.462 183.651 472.586 183.854 471.772 183.987C468.044 184.641 465.584 183.592 458.98 183.876C456.116 183.994 452.488 185.863 451.205 185.94C450.404 185.989 442.512 179.01 441.995 189.633C438.964 188.534 434.227 181.416 430.958 181.662C428.108 181.888 428.922 185.67 428.653 185.809C428.244 186.028 424.776 185.652 423.572 186.157C422.165 186.753 422.832 188.204 420.598 188.738C415.138 190.066 415.369 186.231 414.814 185.969C408.352 182.937 411.078 188.462 409.615 188.867C408.27 189.239 389.503 186.712 385.454 188.004C387.1 187.272 388.74 186.539 390.373 185.807C387.538 183.347 384.352 187.183 384.394 182.888C383.665 189.807 377.831 185.041 376.021 185.18C375.31 185.237 375.34 186.42 374.45 186.451C370.952 186.58 363.256 185.467 361.337 186.024C353.168 188.422 373.764 193.173 375.43 193.469C372.137 193.319 353.646 194.461 362.076 197.982C363.383 198.526 365.779 195.476 366.517 195.371C371.508 194.683 367.535 197.376 367.919 197.649C368.58 198.09 371.877 195.475 372.763 195.815C373.05 195.924 371.128 198.4 375.905 198.56C373.461 200.946 360.202 198.661 358.398 199.195C357.763 199.385 361.582 204.687 350.254 199.368C350.376 199.855 350.499 200.342 350.621 200.829C344.201 200.886 337.881 200.946 331.48 201.004C332.195 199.904 335.812 197.742 331.309 198.118C328.715 198.336 330.575 200.863 330.337 200.93C327.995 201.561 286.799 199.83 278.805 199.934C276.083 199.964 268.469 201.796 267.893 201.821C264.422 201.945 252.248 200.38 249.783 200.609C248.255 200.756 249.659 202.865 248.299 202.738C247.036 202.617 248.39 200.638 248.017 200.546C244.948 199.751 221.193 201.871 215.664 199.858C219.047 200.499 236.282 196.86 235.962 195.437C235.891 195.241 231.764 193.624 230.894 194.351C229.53 192.582 224.523 197.768 221.897 196.671C221.602 196.547 222.838 193.604 218.135 192.963C216.532 192.745 212.186 194.965 207.954 192.28C201.736 193.392 169.099 188.839 166.846 191.981C166.772 192.148 171.319 193.344 168.203 194.587C164.066 196.238 167.906 190.458 163.062 189.848C162.311 189.755 148.937 190.062 148.47 190.415C144.313 193.616 156.109 195.202 155.87 195.58C155.512 196.535 145.64 196.906 145.304 196.672C144.934 196.428 152.902 192.239 143.415 193.689C144.479 194.232 145.549 194.776 146.624 195.32C142.172 196.24 141.774 193.215 140.684 193.007C137.242 192.35 133.691 196.856 128.267 191.081C126.862 189.549 129.284 187.934 129.11 187.705C127.42 185.647 125.11 191.005 122.656 186.919C122.435 186.614 128.56 184.329 117.989 184.097C118.708 184.499 119.431 184.901 120.158 185.303C118.594 186.133 108.018 186.42 106.548 186.185C102.409 185.5 106.079 182.802 101.931 183.046C104.186 186.318 95.161 186.973 93.0428 185.118C92.6233 184.783 92.4249 184.368 92.5507 183.871C90.5777 187.942 79.8452 184.54 74.757 184.334C71.5143 184.206 64.9054 185.86 63.9105 185.629C62.6681 185.345 63.2076 182.551 60.8826 181.877C60.2008 181.684 53.484 183.598 47.6701 180.57C46.5204 179.986 44.2788 175.18 46.3902 174.035C50.1445 172.079 56.9065 176.057 56.8298 173.244C56.8437 170.236 47.4523 171.825 45.0401 171.381C33.6144 169.322 40.3414 166.268 40.0201 165.291C39.3128 162.924 33.0645 162.864 32.7573 162.646C31.6841 161.684 36.2074 159.918 36.2729 158.484C36.4376 156.618 30.4048 153.116 31.8102 152.516C33.8319 151.664 39.2832 154.592 39.6812 154.466C44.2176 152.749 38.108 148.3 36.3899 146.142C35.8807 145.478 37.9864 144.45 37.5582 144.25C31.06 141.207 36.0134 150.287 31.6297 149.594C27.7808 148.978 32.8001 146.247 32.6762 146.088C32.5072 145.912 27.7474 145.656 27.08 144.638C26.6884 144.127 39.0667 138.869 38.629 136.385C34.7393 136.847 30.7637 137.308 26.8867 137.772C26.5953 134.538 32.2267 137.033 32.7753 136.712C33.9525 136.069 30.7512 134.368 30.9302 133.352C30.9959 132.704 34.8327 130.47 31.4431 129.443C30.2718 129.089 27.7096 131.297 23.441 128.895C38.6102 126.264 28.1096 124.228 27.735 123.076C27.2922 121.924 34.5799 119.388 25.822 119.678C25.5366 113.391 26.16 117.7 28.5551 116.647C31.6202 115.355 24.6444 113.139 35.7592 114.944C35.0937 111.989 26.3037 112.011 25.7448 111.764C25.3284 111.543 27.3983 110.14 26.6798 109.635C18.3996 103.778 24.1022 106.493 21.7512 102.815C21.6078 102.488 13.7072 100.976 19.7006 100.574C30.7153 99.8459 35.2405 104.109 37.238 95.2432C29.236 91.2035 19.2285 96.7423 16.7585 96.788C13.024 96.8497 16.9046 95.1146 16.4693 94.5963C16.3212 94.4286 13.0357 94.5096 13.0231 94.3651C10.8185 87.5239 27.5751 94.5587 32.8398 93.4893C31.5279 92.4439 29.9949 91.3939 28.648 90.3479C30.5574 90.3476 32.5043 90.3482 34.4234 90.3482C25.32 88.1098 34.0672 89.5662 36.5499 84.1172C37.1304 82.8934 30.9754 84.8828 37.9361 81.5947C32.893 80.6946 34.5729 79.6062 29.8935 81.0579C30.1385 78.8578 40.4903 76.5898 44.5527 75.5447C30.1959 72.7617 38.3362 81.0229 25.8813 76.4796C23.5078 79.1599 29.519 78.7555 28.9817 79.1948C27.2475 80.7787 23.1629 78.1189 18.1682 83.6917C17.344 84.6066 20.6919 87.5465 15.6542 87.3018C15.1175 87.2709 11.9751 84.7528 11.9963 84.5755C12.5118 82.6657 15.6563 83.4514 15.7621 82.652C15.836 82.2741 14.996 82.1808 14.1027 82.155C13.2426 82.1299 12.3751 82.1733 12.3553 82.0677C12.3519 79.6616 15.2899 81.2097 14.8971 80.4482C13.9954 78.791 1.34697 73.3485 17.9361 75.2129C4.06602 77.642 16.0777 77.8301 21.4828 76.8994C22.7953 76.6652 23.2778 75.2383 25.1785 74.7797C27.7163 74.1874 30.5566 74.9375 31.9451 74.7032C33.3269 74.4417 25.4777 70.8783 36.9106 72.1344C31.2015 68.6342 20.7284 72.015 15.1047 69.5245C3.61148 64.4892 23.3511 63.8739 25.3261 63.4517C25.8549 63.337 24.1345 61.3598 24.4777 61.2482C25.0054 61.0768 36.1321 62.2097 37.297 60.6284C38.4588 59.0483 33.1597 60.6145 32.9124 58.9358C32.627 57.803 46.234 56.0935 38.8928 55.1676C33.8858 54.5334 24.6084 58.8653 23.1224 53.9666C30.5823 53.7213 37.8317 53.4722 45.2455 53.2268C41.2888 51.2909 37.2823 49.3539 33.2838 47.4172C41.5126 47.0044 48.662 49.2472 56.552 46.7639C37.774 40.4302 62.8548 42.1621 63.0673 41.4446C63.1485 41.0144 55.8464 36.0423 54.6694 35.1363C61.247 33.4232 81.3807 32.9469 69.7241 26.7509C71.9227 28.1407 76.986 24.9336 76.9659 24.683C76.3814 22.043 65.1132 23.5067 67.0173 21.1742C69.1136 18.465 72.1931 22.2666 75.3344 22.0352C88.789 21.0754 88.597 12.0126 96.7849 9.75729C98.7213 9.19675 101.171 9.05383 104.561 9.55707C104.231 9.06161 103.901 8.56617 103.573 8.07075C121.831 9.23787 139.996 10.4037 158.282 11.5732C165.436 7.53765 184.518 5.39675 193.873 6.0617C195.72 6.19168 204.897 8.58781 205.606 8.98853C206.884 9.75471 199.757 9.88297 202.943 11.3366C203.659 11.6362 219.189 12.895 218.156 10.5292C216.396 10.2195 210.891 11.2787 210.014 10.7076C203.782 6.63105 251.909 10.8203 254.299 9.2848C253.248 8.50086 252.198 7.71695 251.148 6.93307C254.173 7.37315 257.228 7.81394 260.244 8.25394ZM116.607 193.384C114.729 195.695 110.264 193.834 107.491 194.434C103.769 195.279 97.21 204.194 100.155 195.181C105.604 194.581 111.208 193.985 116.607 193.384ZM196.569 198.603C192.929 197.262 195.875 192.256 198.85 194.428C199.182 194.674 201.511 200.41 196.569 198.603ZM158.128 195.372C158.28 195.308 161.45 195.51 161.562 195.592C164.364 197.687 154.814 197.066 158.128 195.372ZM344.113 196.814C340.075 196.944 342.897 201.614 345.441 199.774C345.601 199.657 344.378 196.809 344.113 196.814ZM341.246 196.629C338.204 192.435 331.668 200.653 336.731 199.923C337.224 199.849 341.389 196.833 341.246 196.629ZM183.523 196.308C183.968 194.736 187.749 195.581 189.376 195.994C189.298 197.436 185.108 196.165 183.523 196.308ZM279.562 197.948C279.745 196.708 266.592 196.49 265.655 198.109C267.75 197.459 279.382 199.061 279.562 197.948ZM313.354 196.942C313.026 196.719 308.468 196.946 308.576 198.046C310.769 199.533 314.835 197.947 313.354 196.942ZM380.427 198.502C380.681 198.232 377.437 191.178 385.381 195.951C386.554 196.651 382.272 198.379 382.696 198.639C383.558 199.146 384.243 199.39 384.811 199.443C381.054 199.937 377.163 200.122 376.789 199.691C375.06 197.652 380.321 198.615 380.427 198.502ZM415.752 194.098C416.547 192.978 421.438 193.698 422.586 194.193C422.778 194.286 421.866 197.258 424.106 197.085C425.899 196.942 423.304 193.817 426.765 194.387C430.248 194.959 425.531 197.035 425.829 197.198C426.253 197.412 431.632 196.159 431.458 197.938C431.272 199.254 425.559 198.23 424.085 198.477C422.222 198.795 424.426 201.045 421.326 200.502C419.371 200.162 420.547 196.32 420.137 196.115C419.79 195.95 413.026 198.022 415.762 194.111C415.759 194.107 415.755 194.102 415.752 194.098ZM385.84 199.295C385.552 199.42 385.216 199.481 384.811 199.443C385.156 199.398 385.5 199.345 385.84 199.295ZM127.254 191.914C129.137 193.147 123.44 194.555 121.378 192.948C121.369 191.688 126.936 191.722 127.254 191.914ZM389.409 196.225C394.956 197.319 390.852 198.56 385.84 199.295C387.441 198.603 387.539 195.859 389.409 196.225ZM230.894 194.351C231.122 194.644 231.262 195.097 231.264 195.836C230.665 195.015 230.619 194.58 230.894 194.351ZM243.889 195.951C248.39 193.797 239.35 193.692 239.355 195.303C239.376 195.912 243.71 196.036 243.889 195.951ZM349.299 197.149C348.894 196.92 355.41 190.266 346.054 195.16C350.974 196.07 345.742 196.695 345.814 197.291C345.975 199.006 354.299 197.546 356.091 198.325C357.589 195.297 350.643 197.905 349.31 197.149C349.306 197.149 349.303 197.149 349.299 197.149ZM479.076 197.224C477.949 198.991 474.449 198.33 471.987 198.165C473.184 196.4 476.753 197.063 479.076 197.224ZM1114.34 195.905C1110.32 197.082 1107.29 196.175 1106.51 195.01C1105.78 193.862 1108.16 192.316 1112.23 193.333C1112.41 193.369 1114.81 195.12 1114.34 195.905ZM964.86 194.187C963.354 190.972 968.571 190.569 971.94 191.95C972.706 192.261 975.49 195.54 972.224 196.107C972.409 192.251 967.406 190.678 964.86 194.187ZM392.604 194.258C394.251 192.172 399.243 193.796 401.877 194.174C400.233 195.885 394.882 194.974 392.604 194.258ZM1052.94 192.792C1052.7 192.548 1052.2 195.326 1052.33 195.555C1052.92 196.603 1053.08 194.372 1052.94 192.792ZM376.469 193.566C376.276 192.293 382.912 191.22 383.29 194.366C381.898 194.108 376.62 194.366 376.469 193.566ZM474.622 196.165C473.616 195.495 478.963 194.469 480.484 195.146C480.339 196.493 475.316 196.601 474.622 196.165ZM1023.73 194.412C1022.19 194.135 1018.36 193.974 1017.93 195.084C1017.36 196.471 1022.98 196.123 1023.73 194.412ZM1318.06 189.926C1318.3 190.42 1312.07 194.387 1309.22 193.604C1303.8 192.117 1317.73 189.606 1318.06 189.926ZM1048.62 191.085C1067.87 198.04 1046.33 190.838 1046.59 193.494C1052.98 195.504 1065.75 197.524 1072.44 197.295C1079.02 197.116 1081.35 196.568 1070.92 194.921C1066.86 194.354 1054.54 193.033 1048.62 191.085ZM1046.48 189.423C1047.09 190.528 1050.7 194.061 1047.06 193.167C1045.18 192.692 1042.4 188.649 1046.48 189.423ZM1276.31 192.732C1274.21 191.562 1277.7 191.25 1281.93 191.289C1282.57 191.382 1284.52 191.158 1285.17 191.226C1289.97 191.082 1295.85 191.302 1296.16 191.514C1296.48 191.727 1296.69 191.933 1296.81 192.109C1297.57 191.298 1301.45 190.986 1302.03 192.929C1300.79 192.823 1297.65 193.134 1297.23 192.934C1297.06 192.848 1296.94 192.766 1296.85 192.681C1296.09 193.764 1289.99 193.776 1285.26 193.504C1284.59 193.434 1282.59 193.665 1281.93 193.569C1279.08 193.282 1276.62 192.912 1276.31 192.732ZM1242.87 190.165C1247.93 186.554 1248.8 192.713 1248.37 192.911C1242.88 195.421 1246.47 190.886 1246.3 190.673C1245.92 190.318 1242.01 192.417 1242.89 190.165C1242.88 190.165 1242.88 190.165 1242.87 190.165ZM1269.46 191.715C1269.63 191.635 1273.91 191.828 1274.05 191.925C1277.49 193.997 1265.59 193.46 1269.46 191.715ZM442.34 190.398C445.399 191.082 442.278 193.276 440.365 192.416C440.209 192.332 439.708 189.797 442.34 190.398ZM1049.25 190.611C1049.43 190.537 1050.81 190.577 1051.81 190.51C1052.84 190.454 1053.33 190.31 1052.97 190.293C1052.34 190.236 1048.58 190.842 1049.15 192.533C1049.75 192.283 1053.93 192.543 1052.9 192.607C1052.25 192.753 1046.35 191.507 1049.25 190.611ZM931.08 189.247C933.814 189.226 930.909 192.502 929.384 191.333C928.823 190.898 930.378 189.255 931.08 189.247ZM367.599 190.437C364.295 192.137 365.104 186.205 367.887 188.307C367.996 188.389 367.729 190.371 367.599 190.437ZM952.787 191.284C941.718 192.976 944.569 182.82 958.825 186.598C958.362 187.043 957.9 187.489 957.449 187.935C973.971 189.825 958.566 188.685 954.501 189.162C952.955 189.345 954.214 191.082 952.798 191.297C952.794 191.293 952.791 191.289 952.787 191.284ZM915.899 189.485C905.697 182.596 924.919 186.6 929.827 185.597C924.941 188.699 918.27 188.45 927.313 191.271C914.213 192.234 919.503 189.209 919.003 188.974C918.367 188.725 916.327 189.781 915.899 189.485ZM940.226 188.923C940.575 188.757 942.783 189.65 943.965 189.95C944.535 190.037 945.031 190.077 945.39 190.034C945.031 190.398 944.529 190.656 943.943 190.826C942.078 191.816 937.567 190.143 940.226 188.923ZM1207.73 191.723C1208.12 189.782 1209.07 188.355 1212.7 189.099C1211.57 190.071 1209.25 190.899 1207.73 191.723ZM113.391 183.083C110.991 182.892 105.938 182.051 107.442 184.128C107.591 184.305 113.411 184.231 113.391 183.083ZM1009.42 189.828C1008.9 189.575 995.445 189.139 1000.05 191.378C1001.44 192.051 1013.68 192.038 1009.42 189.828ZM1090.06 192.307C1088.83 192.429 1085.28 192.89 1081.14 193.191C1077.05 193.516 1072.52 193.558 1072.33 193.775C1071.68 194.548 1076.94 194.95 1081.47 194.526C1086.06 194.131 1089.62 193.115 1090.06 192.307ZM100.942 180.827C100.567 180.617 93.0418 180.814 93.8689 181.775C95.3294 183.59 102.049 181.545 100.942 180.827ZM453.4 186.101C454.045 186.045 454.841 188.175 455.061 188.204C455.612 188.247 467.124 187.706 462.633 190.311C461.945 190.749 445.358 189.319 443.14 189.001C442.374 186.083 449.468 189.006 451.145 188.747C451.459 188.698 451.649 186.277 453.395 186.113C453.396 186.109 453.398 186.105 453.4 186.101ZM1226.63 189.754C1227.16 187.915 1240.85 186.733 1240.69 188.964C1235.99 189.23 1231.33 189.493 1226.63 189.754ZM1219.67 189.423C1216.74 188.107 1223.6 187.704 1225.62 188.285C1225.64 189.526 1220.09 189.615 1219.67 189.423ZM1053.32 182.836C1053.28 183.06 1053.33 183.847 1053.23 184.638C1053.14 185.429 1052.85 186.215 1052.95 186.484C1053.02 186.651 1053.21 186.49 1053.2 186.382C1053.21 186.276 1053.02 186.231 1052.9 186.651C1052.86 186.785 1053.05 187.484 1053.11 188.138C1053.19 188.791 1053.06 189.393 1052.98 189.334C1052.71 189.173 1053.13 187.206 1052.76 187.168C1051.72 187.038 1048.46 187.624 1042.84 186.192C1046.63 187.591 1050.72 188.806 1055.11 189.699C1056.62 190.021 1045.03 186.111 1058.13 188.859C1059.74 189.292 1073.93 193.333 1085.17 191.952C1096.73 187.714 1100.13 186.716 1103.82 186.708C1107.24 186.663 1109.72 187.327 1112.82 185.868C1112.56 185.25 1107.45 184.196 1107.01 184.224C1104.37 184.143 1101.75 184.429 1092.76 185.515C1084.93 186.839 1060.7 187.337 1044.53 181.137C1048.56 182.436 1050.86 182.697 1052.02 182.852C1052.69 182.928 1052.69 183.263 1052.73 183.618C1052.75 183.969 1052.72 184.324 1052.88 184.362C1053 184.39 1053.03 183.764 1053.11 183.257C1053.18 182.749 1053.35 182.362 1053.32 182.836ZM114.721 181.707C113.636 179.147 109.415 180.662 106.764 180.475C107.621 182.781 112.236 181.092 114.721 181.707ZM1157.74 186.952C1156.39 187.031 1152.17 186.202 1151.81 186.96C1151.35 187.951 1157.44 188.673 1157.74 186.952ZM518.451 188.416C518.598 188.35 521.781 188.569 521.883 188.652C524.674 190.761 515.106 190.094 518.451 188.416ZM595.804 191.049C598.463 190.768 601.161 189.991 602.026 192.052C600.339 191.733 595.473 192.481 595.804 191.049ZM704.777 186.441C704.264 183.755 710.558 185.299 711.648 185.532C711.285 186.725 705.194 188.358 704.777 186.441ZM1207.24 183.261C1211.73 183.444 1210.8 179.356 1213.64 181.217C1214.1 181.532 1215.57 190.04 1210.65 186.831C1209.76 186.254 1213.25 184.252 1207.24 183.261ZM961.158 186.734C962.347 184.977 965.927 185.582 968.342 185.773C967.778 187.087 962.877 186.645 961.158 186.734ZM87.2953 178.496C85.4061 175.938 75.5525 177.596 77.9513 179.31C78.2044 179.533 86.0527 178.375 87.2953 178.496ZM404.1 186.385C408.093 184.493 399.933 183.694 397.249 185.571C398.447 185.471 403.838 186.51 404.1 186.385ZM681.969 186.23C682.143 186.135 686.033 186.064 686.208 186.153C689.512 188.005 678.527 188.216 681.969 186.23ZM569.236 187.088C570.756 185.504 580.699 187.153 583.265 188.85C580.583 191.172 567.278 189.06 569.236 187.088ZM1188.73 184.301C1191.95 184.241 1194.99 184.765 1197.93 185.489C1197.3 186.86 1189.07 185.331 1188.73 184.301ZM696.039 185.196C696.242 185.196 696.447 185.341 696.641 185.348C696.437 185.3 696.236 185.244 696.039 185.196ZM1120.22 182.413C1118.47 181.921 1118.93 184.43 1119.04 184.502C1120.33 185.269 1122.18 182.981 1120.22 182.413ZM111.809 177.908C110.901 175.618 106.329 177.282 103.826 176.688C104.505 178.496 109.657 178.101 111.809 177.908ZM905.004 185.259C901.674 182.931 914.695 179.532 917.415 181.04C917.696 182.541 905.523 185.564 905.004 185.259ZM391.861 182.702C391.643 180.917 385.867 182.935 387.064 183.803C387.829 184.355 391.999 183.811 391.861 182.702ZM923.842 181.875C925.013 181.297 927.771 182.984 926.843 184.078C925.667 185.479 923.54 182.039 923.842 181.875ZM1039.18 181.792C1038.79 181.585 1027.97 183.603 1032.51 185.344C1035.69 186.553 1036.02 183.955 1036.71 183.93C1037.97 183.933 1051.63 186.448 1039.18 181.792ZM813.94 182.905C817.053 182.716 822.322 184.306 826.93 184.733C824.807 185.684 814.515 184.52 813.94 182.905ZM413.887 182.724C413.174 181.988 394.499 181.132 405.071 183.587C405.645 183.725 415.944 184.951 413.887 182.724ZM1207.24 183.261C1206.68 183.238 1206.02 183.149 1205.27 182.969C1206.02 183.043 1206.67 183.167 1207.24 183.261ZM1155.98 182.519C1157.06 181.24 1151.74 180.813 1150.19 181.476C1149.67 183.051 1155.86 182.7 1155.98 182.519ZM827.474 182.974C830.19 182.525 834.929 183.704 838.141 183.775C837.563 184.998 828.489 184.364 827.474 182.974ZM715.949 179.916C718.704 180.606 721.762 180.324 721.825 178.854C721.872 179.085 721.987 179.331 722.177 179.581C722.396 179.824 724.948 179.205 725.883 179.757C728.621 181.396 723.407 181.505 717.737 181.08C712.179 180.666 708.186 179.348 718.916 177.2C717.946 178.1 716.945 179.005 715.949 179.916ZM556.043 183.207C554.195 181.357 548.798 183.447 550.162 184.193C551.037 184.702 557.919 185.069 556.043 183.207ZM634.628 182.851C633.977 182.557 628.271 183.976 628.133 184.919C631.475 185.838 637.553 184.24 634.628 182.851ZM541.454 180.683C540.254 180.379 538.604 183.225 538.762 183.356C539.953 184.445 543.428 182.349 541.454 180.683ZM1197.98 175.418C1196.18 174.579 1190.37 176.631 1189.09 178.53C1188.86 178.159 1188.23 177.672 1187.07 177.085C1187.07 177.085 1187.08 177.085 1187.08 177.086C1185.6 176.346 1138.42 174.92 1170.03 178.988C1171.01 179.116 1169.67 177.388 1173.7 177.733C1173.97 177.758 1174.09 179.158 1174.91 179.235C1176.78 179.404 1186.83 180.373 1188.84 179.26C1188.86 179.52 1188.98 179.767 1189.26 179.996C1191.72 182.034 1199.39 176.066 1197.98 175.418ZM646.097 182.132C644.903 181.673 641.232 182.325 640.899 183.572C642.76 184.109 648.871 183.21 646.097 182.132ZM413.42 177.646C411.271 176.582 405.741 178.355 407.375 179.402C408.342 180.044 415.905 178.869 413.42 177.646ZM609.379 183.707C622.855 185.072 612.589 183.57 614.637 181.744C612.883 182.404 611.129 183.058 609.379 183.707ZM1255.67 180.3C1253.71 179.88 1256 176.311 1258.21 178.252C1258.9 178.868 1256.76 180.527 1255.67 180.3ZM1351.66 174.983C1349.78 171.98 1357.71 173.088 1354.91 175.539C1354.8 175.623 1351.81 175.089 1351.66 174.983ZM1285.36 177.833C1285.13 178.223 1284.91 178.553 1284.68 178.831C1284.13 178.773 1282.48 178.964 1281.93 178.884C1280.92 180.136 1279.72 180.232 1276.64 179.792C1281.97 179.213 1277.52 177.444 1281.93 177.843C1282.47 177.921 1284.1 177.733 1284.64 177.791C1284.86 177.801 1285.1 177.815 1285.36 177.833ZM721.803 178.622C721.817 178.709 721.829 178.774 721.825 178.854C721.809 178.774 721.803 178.699 721.803 178.622ZM529.847 180.926C528.38 179.058 524.051 179.078 525.291 180.951C525.447 181.125 529.155 182.258 529.847 180.926ZM1189.09 178.53C1189.3 178.858 1189.19 179.069 1188.84 179.26C1188.83 179.016 1188.92 178.786 1189.09 178.53ZM553.052 180.089C552.882 181.447 559.305 182.171 559.642 182.022C563.457 179.774 555.726 180.085 553.052 180.089ZM369.735 174.746C369.397 174.88 371.488 178.447 372.88 177.099C373.951 176.053 371.011 174.232 369.735 174.746ZM1298.47 176.409C1300.6 176.318 1303.64 176.176 1304.31 177.817C1302.83 177.631 1298.46 177.637 1298.47 176.409ZM1348.2 173.014C1345.9 175.217 1339.52 175.806 1335.42 175.796C1335.13 173.246 1345.99 173.863 1348.2 173.014ZM1203.71 176.417C1203.54 176.312 1198.24 175.507 1198.96 177.243C1200 179.79 1205.2 177.368 1203.71 176.417ZM379.899 176.841C382.267 175.701 376.964 171.917 374.402 174.691C373.094 176.112 379.508 177.032 379.899 176.841ZM516.432 178.179C513.335 179.101 520.941 181.084 522.041 179.302C520.677 179.121 517.449 177.85 516.432 178.179ZM625.005 178.41C614.346 173.384 620.245 182.802 622.126 181.935C622.389 181.812 625.271 178.529 625.005 178.41ZM63.3153 167.545C61.9386 168.242 66.9505 170.978 67.7024 169.263C68.1311 168.189 64.1635 167.101 63.3153 167.545ZM771.019 179.883C770.499 179.904 769.982 179.924 769.469 179.941C769.853 179.854 770.358 179.824 771.019 179.883ZM488.554 170.48C495.306 178.021 494.667 172.322 495.267 172.368C496.478 172.477 499.533 174.547 501.936 174.28C499.153 175.041 496.289 175.8 493.547 176.562C495.653 177.144 514.639 180.339 515.133 179.159C515.776 177.472 509.672 177.849 509.563 177.697C509.322 177.477 508.515 172.721 507.961 172.527C506.909 172.211 491.204 171.721 488.554 170.48ZM602.912 179.421C604.597 179.99 605.105 181.865 605.88 181.418C606.149 181.264 606.19 179.476 607.113 179.012C605.709 179.152 604.308 179.288 602.912 179.421ZM476.154 176.81C474.301 174.579 482.847 175.616 483.208 175.87C484.65 177.387 477.686 178.633 476.154 176.81ZM549.834 178.407C549.507 178.269 542.827 177.395 542.908 178.611C544.662 179.585 553.503 180.111 549.834 178.407ZM608.243 178.888C610.783 179.096 615.628 180.853 615.043 178.164C615.039 178.164 615.035 178.164 615.031 178.164C612.766 178.414 610.516 178.656 608.243 178.888ZM388.061 171.334C383.764 166.947 385.733 172.413 389.576 173.884C390.791 171.984 388.764 172.048 388.061 171.334ZM374.165 167.823C372.943 167.024 360.467 167.592 362.307 169.903C362.978 170.727 370.208 168.848 370.525 169.012C371.02 169.256 368.682 171.715 372.508 171.303C372.301 170.447 374.578 168.091 374.165 167.823ZM384.489 168.506C380.263 165.148 379.149 171.142 382.394 171.231C383.66 171.27 385.09 168.991 384.489 168.506ZM402.212 169.419C400.673 168.813 396.475 167.886 393.613 169.823C397.373 170.078 401.308 170.338 405.099 170.595C405.564 169.472 403.568 169.951 402.201 169.418C402.205 169.418 402.208 169.418 402.212 169.419ZM1367.72 156.883C1364.36 155.181 1372.11 154.519 1372.48 154.94C1373.47 156.332 1369.2 157.643 1367.72 156.883ZM37.5491 112.32C36.5971 111.619 36.1137 109.37 33.9005 110.496C36.1137 112.196 37.9819 113.888 40.196 115.587C41.9126 111.837 38.5749 113.092 37.5491 112.32ZM29.7544 98.3202C30.0535 98.2348 28.5478 92.3807 32.3433 96.3482C34.9786 99.0285 20.5838 101.281 18.131 98.6484C21.0023 97.5092 27.2367 99.0143 29.7544 98.3202ZM5.39893 72.6069C5.30256 72.1403 10.6283 71.5697 11.293 71.911C14.5005 73.7034 6.26476 75.1115 5.39893 72.6069ZM22.598 74.078C20.1087 72.8948 25.6967 72.284 27.3908 72.9705C27.4898 74.0563 23.0199 74.2516 22.598 74.078ZM1330.16 74.5298C1327.29 70.8001 1325.63 79.4714 1329.48 77.4404C1329.67 77.3441 1330.28 74.7137 1330.16 74.5298ZM10.8199 66.8461C13.3259 68.0291 7.69546 68.6402 6.0392 67.9558C5.88665 66.8699 10.409 66.6721 10.8199 66.8461ZM1327.6 65.2854C1324.04 62.7122 1325.93 72.1437 1326.39 72.4952C1328.27 73.886 1333.93 69.626 1335.09 68.5718C1326.23 70.8181 1329.29 66.4824 1327.6 65.2854ZM1312.16 72.0738C1308.97 73.2763 1317.41 74.7492 1318.79 71.9795C1317.22 72.212 1313.1 71.7281 1312.16 72.0738ZM1292.04 69.9919C1290.27 69.7273 1284.9 69.1293 1284.05 70.6668C1286.03 70.3164 1291.37 71.5704 1292.04 69.9919ZM1287.8 65.6629C1284.97 63.7359 1284.53 69.7103 1287.65 67.8073C1287.77 67.7336 1287.91 65.7722 1287.8 65.6629ZM1273.67 63.7828C1271.84 61.415 1269.69 67.1776 1272.71 67.3347C1273.6 67.3707 1273.87 64.0542 1273.67 63.7828ZM1322.64 55.3567C1320.15 54.5172 1317.25 58.8512 1322.53 58.9386C1320.72 59.7009 1318.93 60.4529 1317.09 61.2015C1324.21 63.0562 1323.25 57.3596 1325.22 57.4524C1327.96 57.5753 1328.12 62.2954 1327.7 63.8197C1329.63 60.8942 1338.4 59.8976 1344.95 58.7655C1345.35 58.6669 1346.62 58.6972 1347.03 58.617C1347.34 58.5821 1347.66 58.5476 1347.95 58.514C1347.66 58.4747 1347.34 58.4355 1347.02 58.3957C1346.61 58.4762 1345.34 58.4458 1344.93 58.5448C1339.07 57.8618 1331.4 56.6707 1326.9 56.279C1325.52 56.1667 1324.33 57.5572 1323.15 57.4983C1321.27 57.3945 1322.79 55.4148 1322.65 55.356C1322.65 55.3563 1322.64 55.3565 1322.64 55.3567ZM1252.75 63.677C1247.32 60.9869 1250.72 66.7816 1253.83 65.7539C1253.96 65.6746 1252.88 63.7427 1252.75 63.677ZM3.88599 49.1085C11.2022 51.6785 5.78938 54.7731 21.2129 50.2266C14.7432 53.5384 20.7722 52.6971 19.5007 54.0612C18.5397 55.1413 14.7305 54.1499 16.8637 56.4111C13.8678 53.939 2.28438 54.3485 0.184107 53.9429C0.207531 53.9429 0.227337 53.943 0.249972 53.9431C0.0458002 53.9134 -0.000223716 53.8034 0.000872585 53.6341C0.00443624 53.4649 -0.0241328 53.2365 0.131101 52.9718C0.516731 52.4423 0.956804 51.7716 1.25506 51.131C1.90906 49.8505 2.7013 48.7 3.88599 49.1085ZM1291.36 54.8699C1289.32 47.9272 1289 59.1002 1285.31 53.4259C1280.98 62.0697 1298.22 52.8853 1300.6 59.8999C1281.57 59.9532 1313.47 66.3716 1299.73 56.3237C1310.76 59.6655 1303.22 54.827 1304.82 53.3847C1306.53 51.8498 1312.63 53.0898 1312.17 50.4922C1312.16 50.4924 1312.16 50.4926 1312.16 50.4928C1308.52 50.8864 1304.81 51.2629 1301.08 51.6271C1305.04 57.0845 1297.27 55.7697 1294.43 51.2886C1293.43 52.4824 1292.41 53.6756 1291.36 54.8699ZM1312.83 59.1113C1312.45 59.0115 1304.43 60.2334 1305 61.3328C1306.17 62.0119 1317.49 60.4964 1312.83 59.1113ZM1351.22 54.9394C1350 54.9707 1348.5 54.8966 1346.85 54.8904C1346.4 54.9771 1345.04 54.9443 1344.6 55.0509C1342.03 55.119 1339.55 55.3458 1338.6 56.8645C1340.32 56.705 1342.7 56.8396 1344.74 56.5563C1345.17 56.4529 1346.49 56.4846 1346.92 56.4007C1348.88 56.238 1350.39 55.8723 1351.22 54.9394ZM1197.01 58.73C1193.16 60.4514 1204.98 61.0443 1201.57 58.9543C1201.4 58.8562 1197.19 58.65 1197.01 58.73ZM1282.8 56.2885C1278.84 54.2973 1280.98 61.0511 1283.73 59.159C1283.89 59.0476 1282.98 56.3792 1282.8 56.2885ZM9.86848 48.4012C10.1865 46.7331 20.7221 48.1304 22.6209 48.1562C21.4943 49.6885 9.56379 50.3138 9.86848 48.4012ZM1357.29 48.5535C1354.15 45.8372 1350.37 45.8711 1346.45 46.8181C1345.94 46.9188 1344.35 46.8807 1343.84 47.0046C1340.44 48.2255 1338.06 50.4764 1337.57 50.4402C1336.68 50.3715 1337.8 47.6188 1337.59 47.568C1336.96 47.4897 1328.31 48.5231 1327.98 48.7176C1327.69 48.885 1329.55 52.4387 1327.89 53.7475C1330.06 52.1608 1337.98 51.5256 1344.22 51.0422C1344.7 50.927 1346.17 50.9624 1346.65 50.8688C1350.44 50.7453 1352.69 50.763 1353.07 50.6176C1353.84 50.2805 1347.69 46.5046 1357.27 48.5536C1357.28 48.5536 1357.28 48.5535 1357.29 48.5535ZM1335.32 49.8489C1337.71 51.176 1331.45 51.9749 1330.01 51.5193C1326.67 50.5325 1334.93 49.7152 1335.32 49.8489ZM1320.73 49.6432C1320.04 49.3507 1313.7 49.4387 1313.22 51.1888C1316.45 53.2488 1322.35 50.3438 1320.73 49.6432ZM1248.49 51.853C1246.72 52.0711 1241.82 50.7347 1241.55 52.2416C1243.33 52.026 1248.19 53.3605 1248.49 51.853ZM46.3413 36.0093C43.3955 34.6847 50.2058 34.314 52.2791 34.9633C52.2984 35.9697 46.6445 36.1241 46.3413 36.0093ZM1281.58 41.9088C1281.39 41.8349 1280.58 41.8361 1279.32 41.8936L1281.96 41.8423C1276.19 41.8796 1261.16 42.7464 1258.7 43.323C1261.14 44.282 1276.51 44.5096 1281.96 44.2283L1279.42 44.2778C1280.49 44.181 1281.17 44.0804 1281.32 43.9837C1281.59 43.8061 1281.71 41.9756 1281.58 41.9088ZM1325.3 38.8698C1326.83 36.5187 1328.17 39.0734 1328.39 39.0882C1330.51 39.2495 1335.15 38.2986 1334.34 40.525C1330.18 40.0814 1322.25 43.538 1325.3 38.8698ZM1246.98 41.8034C1239.71 42.6133 1253.7 44.9791 1251.85 42.6543C1251.75 42.5139 1247.73 41.7185 1246.98 41.8034ZM1283.89 41.1682C1285.46 39.3308 1306.33 39.9389 1309.45 39.7276C1306.73 43.1925 1304.21 40.8078 1300.25 41.169C1299.17 41.2701 1299.53 42.6309 1299.42 42.6387C1297.56 42.7904 1298.88 41.1362 1297.72 41.1666C1297.04 41.2018 1281.82 43.79 1283.89 41.1682ZM1326.15 37.257C1326.89 35.9549 1339.19 34.2214 1340.2 34.4606C1342.48 35.5041 1338.64 36.3567 1334.68 36.8544C1330.72 37.3547 1326.64 37.4419 1326.15 37.257ZM1281.85 38.306C1283.98 34.3767 1294.44 36.5086 1287.42 38.7257C1286.74 38.929 1283.78 37.3831 1281.85 38.306ZM1247.77 38.1426C1247.42 38.0294 1239.83 37.2443 1239.69 38.4672C1240.77 38.9464 1251.85 39.3944 1247.77 38.1426ZM1251.71 34.0111C1251.53 34.0401 1253.3 36.3999 1249.75 36.0953C1249.46 36.0666 1248.89 33.4145 1244.43 34.3761C1243.52 34.5741 1242.1 36.3251 1242.21 36.4344C1246.85 40.6077 1260.93 32.6577 1251.71 34.0111ZM1326.19 35.0981C1325.47 34.034 1326.69 30.6014 1328.19 32.1577C1328.84 32.8289 1327.92 34.9147 1326.19 35.0981ZM1223.73 37.0024C1228.14 35.0049 1214.31 34.5698 1213.61 35.0798C1214.05 36.3379 1223.28 37.1984 1223.73 37.0024ZM53.6132 20.608C53.6098 20.6079 53.6064 20.6079 53.6031 20.6078C57.2503 21.142 54.9519 22.7695 55.118 22.8257C63.1105 25.458 60.9421 21.615 62.2263 21.1943C64.9137 20.2824 64.4598 24.89 68.9129 23.0706C61.5609 25.7409 68.1953 24.6971 68.3882 26.3439C69.0756 33.0622 58.6756 22.9981 54.8478 24.3218C54.3187 24.5051 58.0954 26.7249 56.7538 27.305C52.4788 29.1861 39.3743 18.5591 53.6132 20.608ZM1329.22 31.7721C1330.14 29.7298 1343.57 30.3293 1340.24 32.286C1339.28 32.6439 1327.08 34.8648 1329.22 31.7721ZM725.919 30.6951C730.122 29.0817 720.513 26.8746 718.895 28.2312C718.034 28.8831 724.059 31.3865 725.919 30.6951ZM666.864 25.5149C662.862 26.1539 659.237 33.5653 664.094 32.0861C664.608 31.9253 667.392 26.4638 666.864 25.5149ZM915.993 27.152C911.719 24.7502 912.139 29.4581 915.198 29.2904C916.28 29.2329 916.128 27.2282 915.993 27.152ZM769.206 30.3501C768.925 30.1939 765.843 30.4762 765.941 31.5559C767.061 32.2343 770.977 31.4715 769.206 30.3501ZM917.304 26.4397C914.846 27.3669 919.203 30.6408 922.224 27.2294C920.646 27.5422 917.565 26.3441 917.304 26.4397ZM1276.62 27.9306C1274.63 29.8671 1269.23 29.279 1266.04 29.6091C1265.74 27.0996 1274.33 28.3852 1276.62 27.9306ZM684.312 27.2432C680.517 29.2276 688.943 30.2085 688.063 27.9208C687.949 27.7979 684.456 27.1579 684.312 27.2432ZM1041.06 27.1591C1039.62 27.9747 1041.2 28.777 1043.04 29.0634C1044.87 29.349 1047.03 29.1312 1045.39 27.8666C1045.15 27.7612 1041.15 27.0673 1041.06 27.1591ZM1073.17 31.2012C1073.52 30.9206 1076.3 30.5728 1080.18 30.9981C1083.91 31.4272 1086.6 32.369 1083.15 32.5862C1082.65 32.6153 1079.02 32.3096 1076.64 32.2139C1074.18 32.0947 1073.27 31.8911 1073.17 31.2012ZM62.4851 19.3927C61.4728 16.7926 67.6404 17.5377 68.4563 18.0058C68.7959 18.2005 63.8278 22.7761 62.4851 19.3927ZM889.489 27.7971C887.436 28.2116 882.097 27.8442 881.236 29.2383C883.701 28.8427 890.286 30.4572 889.489 27.7971ZM702.511 26.4224C698.828 23.7267 692.865 24.2651 694.503 27.8582C701.095 27.3474 693.507 24.5803 702.511 26.4224ZM931.692 23.0968C929.812 22.9084 928.482 26.4497 928.691 26.6112C930.681 28.1498 933.561 24.441 931.692 23.0968ZM802.885 26.6769C802.626 25.1962 797.942 26.3519 798.678 27.2485C798.9 27.5551 803.07 27.8817 802.885 26.6769ZM1208.84 26.9136C1206.49 25.5303 1213.71 24.2273 1215.84 25.8367C1216.87 28.1483 1209.14 27.0734 1208.84 26.9136ZM979.432 24.7111C979.709 22.4876 971.654 23.5902 974.781 25.4998C975.558 25.9779 979.335 25.4549 979.432 24.7111ZM1058.42 22.3886C1053.04 23.6939 1060.63 24.4694 1072.75 26.4147C1084.62 28.0535 1101.88 33.9075 1090.92 28.5943C1090.16 28.1839 1080.18 25.1334 1072.51 23.9503C1064.67 22.6266 1058.92 22.3127 1058.42 22.3886ZM1079.53 26.3554C1078.39 26.2434 1077.54 18.7623 1083.29 20.8424C1084.03 21.1121 1081.07 23.5445 1081.71 23.9097C1081.88 24.0864 1094.16 23.5656 1094.77 23.3964C1095.37 23.1348 1094.39 20.822 1095 20.4888C1095.65 20.0988 1103.56 21.5094 1107.48 21.3477C1114.87 21.0073 1115.57 19.0676 1116.16 19.0293C1117.89 18.9713 1120.78 20.332 1124.25 20.3313C1127.23 20.3288 1130.49 20.3166 1133.91 20.349C1144.8 20.3573 1159.01 20.0274 1166.99 23.6134C1158.33 21.8048 1150.1 23.4852 1141.69 23.8553C1144.23 19.7503 1129.42 26.7637 1138.07 22.1706C1137.45 22.3314 1135.83 22.4617 1133.85 22.5621C1120.2 22.1561 1081.87 26.1558 1079.54 26.3534C1079.54 26.354 1079.53 26.3547 1079.53 26.3554ZM651.972 24.5585C653.742 21.8805 643.783 23.1292 643.039 26.1086C644.432 26.4572 651.772 24.8765 651.972 24.5585ZM711.332 15.0341C712.709 14.5845 713.797 9.51794 721.38 12.0939C721.387 12.094 721.394 12.0941 721.401 12.0941C723.619 12.8562 721.073 14.0492 721.477 14.4875C721.587 14.6551 728.611 17.2567 722.764 17.5653C714.116 18.1199 721.939 13.8284 717.362 13.7646C716.74 13.742 708.472 16.5506 709.008 17.1487C709.057 17.2156 711.496 16.602 711.921 16.845C713.482 17.7535 712.744 19.3244 712.964 19.396C713.522 19.5302 727.213 16.927 729.579 19.4012C729.702 19.9962 707.586 21.6891 707.128 21.4372C706.614 21.2036 706.727 16.8663 706.185 16.453C705.859 16.2349 697.709 18.1173 696.682 17.7733C696.373 17.6702 696.134 17.5556 695.962 17.4601C697.218 18.7446 690.003 18.965 690.159 17.4507C690.25 16.8472 695.233 16.9666 695.423 17.0669C695.503 17.1076 695.574 17.1654 695.639 17.2046C694.413 15.5688 711.897 15.1335 708.098 12.82C713.311 11.3924 707.414 16.3952 711.332 15.0341ZM739.915 13.0052C739.156 13.4091 738.406 13.8169 737.664 14.2282C741.305 14.1153 745.37 14.3902 750.316 15.0997C753.85 15.7959 757.408 17.174 761.08 17.3382C762.413 17.3975 761.007 14.5482 762.707 15.3794C764.06 16.0426 765.596 18.6553 764.803 19.2158C764.596 19.3602 761.757 17.5905 760.332 17.6792C756.085 17.94 756.947 20.3612 756.699 20.4164C756.408 20.4669 753.838 18.5648 752.327 18.4727C751.443 18.4239 750.665 18.448 749.908 18.4807C742.449 18.0315 737.386 18.2008 728.526 16.4376C735.396 15.1146 731.572 11.4783 739.915 13.0052ZM1014.13 18.6309C1014.46 17.133 1019.39 18.5766 1021.19 18.3971C1020.86 19.8977 1015.97 18.4492 1014.13 18.6309ZM283.919 12.689C282.359 15.1244 293.641 15.9822 290.709 13.863C290.06 13.3926 285.339 12.7376 283.919 12.689ZM334.638 15.3036C336.162 14.6545 330.125 12.7433 330.092 14.6538C330.088 15.2666 334.443 15.3881 334.638 15.3036ZM842.977 17.1258C843.047 17.0968 843.504 17.281 843.85 17.4691C844.202 17.6587 844.503 17.8616 844.516 17.9262C844.778 19.2717 843.993 19.473 843.104 19.0836C842.67 18.8911 842.166 18.5456 842.01 18.1772C841.842 17.8064 842.189 17.4428 842.977 17.1258ZM396.426 13.6394C391.129 15.1387 406.954 16.197 402.154 14.025C401.886 13.9184 396.684 13.5666 396.426 13.6394ZM418.494 13.6872C417.248 13.7455 411.569 12.8129 411.514 13.5652C411.338 14.7769 417.83 15.755 418.494 13.6872ZM932.845 13.7553C932.072 10.9732 940.942 13.006 944.541 12.7286C945.22 15.5005 935.735 13.3433 932.845 13.7553ZM882.861 13.4231C914.835 9.82399 907.838 16.0534 881.053 14.8631C880.934 13.0822 880.882 13.6527 882.861 13.4231ZM925.052 12.1666C923.803 13.975 919.862 13.5454 917.261 13.4829C917.692 12.2275 923.076 12.5262 925.052 12.1666ZM270.553 8.57584C272.557 6.36769 281.148 9.33094 279.59 10.2258C279.224 10.4183 269.813 9.79798 270.553 8.57584ZM844.265 14.8974C844.484 12.2149 846.712 13.5419 847.02 14.1399C847.424 15.37 846.685 15.4394 845.958 15.2541C845.236 15.0723 844.443 14.6196 844.265 14.8974ZM979.973 12.1332C981.648 10.046 986.293 11.2233 989.321 11.3083C987.905 13.0939 982.504 12.2199 979.973 12.1332ZM958.597 10.0277C958.769 9.95068 962.902 10.2346 963.091 10.3359C966.429 12.4809 954.761 11.689 958.597 10.0277ZM48.8643 0.152527C48.9853 0.086792 52.1686 0.289635 52.2978 0.372063C55.1007 2.46661 45.5735 1.84821 48.8643 0.152527Z" fill="#2B2424"/>
<path d="M150.876 147.562L87.7556 86.482V133.882C87.7556 139.402 88.1156 141.802 88.8356 143.002H76.5956C77.7956 142.162 77.7956 131.842 77.7956 129.202V59.722L140.796 120.682V78.8019C140.796 73.8819 140.796 65.0019 139.716 63.5619H152.196C150.876 65.362 150.876 77.002 150.876 79.4019V147.562ZM194.231 144.922C175.511 144.922 164.711 130.282 164.711 115.282C164.711 100.522 175.271 85.7619 194.111 85.7619C210.671 85.7619 223.871 97.282 223.871 115.162C223.871 132.682 211.271 144.922 194.231 144.922ZM194.831 136.162C208.271 136.162 212.231 125.122 212.231 115.762C212.231 104.122 206.111 94.6419 193.631 94.6419C181.751 94.6419 176.111 103.402 176.111 114.922C176.111 127.282 182.711 136.162 194.831 136.162ZM264.477 133.282V142.882C261.357 144.202 258.117 144.802 254.277 144.802C241.077 144.802 238.797 137.722 238.797 126.322C238.797 123.682 238.917 114.442 238.917 111.682V96.682H236.877C235.437 96.682 233.877 96.802 233.157 97.282V87.082C233.637 87.682 236.637 87.682 238.917 87.682V80.6019C238.917 78.202 238.797 76.402 238.797 76.402L250.437 72.8019C249.837 73.5219 249.717 78.4419 249.717 82.1619V87.682H254.877C258.837 87.682 262.317 87.562 263.037 86.962V97.282C261.957 96.682 258.597 96.682 254.997 96.682H249.717V123.562C249.717 133.882 249.957 136.642 257.877 136.642C258.357 136.642 263.277 136.042 264.477 133.282ZM324.115 135.082L323.995 141.802C320.995 143.122 318.115 143.842 315.595 143.842C311.755 143.842 308.875 142.162 307.555 138.562C302.875 143.602 297.235 144.922 291.595 144.922C277.795 144.922 272.155 137.002 272.155 128.482C272.155 120.442 277.075 113.602 288.955 110.602C298.675 108.202 306.595 109.402 306.595 105.442V103.042C306.595 96.0819 301.555 94.6419 295.915 94.6419C288.715 94.6419 282.355 96.922 277.795 103.762L277.315 91.762C283.315 87.322 289.915 85.7619 296.395 85.7619C310.315 85.7619 317.875 93.082 317.875 103.042C317.875 111.922 317.275 121.282 317.275 130.282C317.275 131.482 317.275 136.402 319.555 136.402C320.635 136.402 321.715 136.162 324.115 135.082ZM305.995 129.082L306.355 115.282C300.715 118.522 284.395 116.482 284.395 128.122C284.395 133.642 288.115 136.402 293.155 136.402C298.435 136.402 303.235 133.282 305.995 129.082ZM345.132 143.002H335.292C336.492 141.802 336.492 130.882 336.492 124.042V77.2419C336.492 68.4819 336.492 56.962 335.292 55.402H348.372C347.292 57.3219 347.292 68.122 347.292 77.002V89.842C351.972 87.2019 357.012 85.7619 363.132 85.7619C381.612 85.7619 390.012 99.0819 390.012 114.322C390.012 129.802 381.372 144.802 361.932 144.802C354.972 144.802 349.572 142.882 346.572 139.282C346.332 140.362 345.732 142.162 345.132 143.002ZM347.292 101.002V119.242C347.292 128.602 347.652 136.042 360.372 136.042C373.692 136.042 378.252 127.882 378.252 116.002C378.252 102.322 372.132 95.4819 361.332 95.4819C355.932 95.4819 351.132 97.1619 347.292 101.002ZM415.755 143.002H402.795C403.755 141.082 403.875 132.802 403.875 124.402V68.722C403.875 64.762 403.635 56.3619 402.795 55.402H415.755C414.795 56.7219 414.675 65.6019 414.675 69.802V119.962C414.675 135.082 414.915 141.202 415.755 143.002ZM477.943 130.282V141.802C472.303 144.202 465.943 144.922 460.903 144.922C437.623 144.922 428.383 129.442 428.383 114.202C428.383 94.522 443.863 85.7619 457.903 85.7619C481.303 85.7619 483.463 107.842 483.463 115.882V117.922H439.303C439.303 120.202 443.383 136.162 462.103 136.162C469.303 136.162 475.663 133.762 477.943 130.282ZM439.543 108.802H472.303C471.343 99.0819 464.383 94.762 456.343 94.762C448.423 94.762 441.463 98.962 439.543 108.802ZM526.185 140.602L526.425 125.362C527.865 130.642 536.505 134.482 544.185 134.482C551.505 134.482 558.465 130.882 558.465 122.842C558.465 105.802 527.505 106.882 527.505 82.2819C527.505 70.5219 534.585 61.402 550.545 61.402C555.465 61.402 561.825 62.2419 567.345 64.162L567.225 76.882C563.745 72.3219 557.985 70.5219 552.705 70.5219C545.145 70.5219 538.785 74.242 538.785 81.322C538.785 96.922 570.345 97.642 570.345 122.482C570.345 134.002 563.625 144.922 546.225 144.922C541.785 144.922 533.145 144.202 526.185 140.602ZM632.299 128.482L632.179 141.802C626.899 143.962 621.379 144.922 615.259 144.922C600.859 144.922 591.739 139.522 586.579 131.482C583.819 127.162 581.899 121.522 581.899 114.682C581.899 110.482 582.619 104.602 585.859 99.0819C592.459 87.802 604.699 85.7619 612.499 85.7619C625.219 85.7619 631.219 89.3619 634.939 89.3619L632.419 100.402C628.939 95.962 620.059 94.282 613.819 94.282C601.099 94.282 593.299 101.002 593.299 113.842C593.299 132.802 610.099 136.282 616.339 136.282C621.379 136.282 629.899 134.002 632.299 128.482ZM696.716 143.002H683.516C684.596 141.442 684.716 136.762 684.716 132.802V106.642C684.716 96.802 680.636 93.8019 671.996 93.8019C663.236 93.8019 657.956 99.322 657.956 106.282V127.402C657.956 129.322 658.196 142.642 659.156 143.002H646.076C647.036 142.042 647.156 130.762 647.156 126.802V73.762C647.156 62.002 647.156 57.2019 646.196 55.402H659.036C658.196 57.2019 657.956 61.7619 657.956 74.0019V90.442C661.916 87.2019 667.316 85.402 674.156 85.402C686.036 85.402 695.756 89.1219 695.756 102.682C695.756 106.642 695.516 111.562 695.516 114.562V132.922C695.516 136.762 695.876 141.922 696.716 143.002ZM738.333 144.922C719.613 144.922 708.813 130.282 708.813 115.282C708.813 100.522 719.373 85.7619 738.213 85.7619C754.773 85.7619 767.973 97.282 767.973 115.162C767.973 132.682 755.373 144.922 738.333 144.922ZM738.933 136.162C752.373 136.162 756.333 125.122 756.333 115.762C756.333 104.122 750.213 94.6419 737.733 94.6419C725.853 94.6419 720.213 103.402 720.213 114.922C720.213 127.282 726.813 136.162 738.933 136.162ZM807.005 144.922C788.285 144.922 777.485 130.282 777.485 115.282C777.485 100.522 788.045 85.7619 806.885 85.7619C823.445 85.7619 836.645 97.282 836.645 115.162C836.645 132.682 824.045 144.922 807.005 144.922ZM807.605 136.162C821.045 136.162 825.005 125.122 825.005 115.762C825.005 104.122 818.885 94.6419 806.405 94.6419C794.525 94.6419 788.885 103.402 788.885 114.922C788.885 127.282 795.485 136.162 807.605 136.162ZM862.357 143.002H849.397C850.357 141.082 850.477 132.802 850.477 124.402V68.722C850.477 64.762 850.237 56.3619 849.397 55.402H862.357C861.397 56.7219 861.277 65.6019 861.277 69.802V119.962C861.277 135.082 861.517 141.202 862.357 143.002ZM927.037 143.002H911.677C912.877 141.922 912.877 133.282 912.877 127.762V77.122C912.877 71.482 912.757 64.6419 911.677 63.5619H917.797C923.797 63.5619 931.477 62.7219 936.277 62.7219C950.677 62.7219 960.877 70.0419 960.877 86.3619C960.877 104.482 948.397 111.802 930.157 111.802C927.877 111.802 927.157 111.682 925.477 111.682V128.122C925.477 133.162 926.077 142.162 927.037 143.002ZM925.477 72.8019V102.202C927.037 102.322 928.717 102.442 930.517 102.442C941.557 102.442 948.157 97.642 948.157 86.482C948.157 78.3219 944.557 71.962 933.277 71.962C930.157 71.962 929.077 72.082 925.477 72.8019ZM985.872 143.002H972.912C973.872 141.082 973.992 132.802 973.992 124.402V68.722C973.992 64.762 973.752 56.3619 972.912 55.402H985.872C984.912 56.7219 984.792 65.6019 984.792 69.802V119.962C984.792 135.082 985.032 141.202 985.872 143.002ZM1049.74 135.082L1049.62 141.802C1046.62 143.122 1043.74 143.842 1041.22 143.842C1037.38 143.842 1034.5 142.162 1033.18 138.562C1028.5 143.602 1022.86 144.922 1017.22 144.922C1003.42 144.922 997.78 137.002 997.78 128.482C997.78 120.442 1002.7 113.602 1014.58 110.602C1024.3 108.202 1032.22 109.402 1032.22 105.442V103.042C1032.22 96.0819 1027.18 94.6419 1021.54 94.6419C1014.34 94.6419 1007.98 96.922 1003.42 103.762L1002.94 91.762C1008.94 87.322 1015.54 85.7619 1022.02 85.7619C1035.94 85.7619 1043.5 93.082 1043.5 103.042C1043.5 111.922 1042.9 121.282 1042.9 130.282C1042.9 131.482 1042.9 136.402 1045.18 136.402C1046.26 136.402 1047.34 136.162 1049.74 135.082ZM1031.62 129.082L1031.98 115.282C1026.34 118.522 1010.02 116.482 1010.02 128.122C1010.02 133.642 1013.74 136.402 1018.78 136.402C1024.06 136.402 1028.86 133.282 1031.62 129.082ZM1089.48 133.282V142.882C1086.36 144.202 1083.12 144.802 1079.28 144.802C1066.08 144.802 1063.8 137.722 1063.8 126.322C1063.8 123.682 1063.92 114.442 1063.92 111.682V96.682H1061.88C1060.44 96.682 1058.88 96.802 1058.16 97.282V87.082C1058.64 87.682 1061.64 87.682 1063.92 87.682V80.6019C1063.92 78.202 1063.8 76.402 1063.8 76.402L1075.44 72.8019C1074.84 73.5219 1074.72 78.4419 1074.72 82.1619V87.682H1079.88C1083.84 87.682 1087.32 87.562 1088.04 86.962V97.282C1086.96 96.682 1083.6 96.682 1080 96.682H1074.72V123.562C1074.72 133.882 1074.96 136.642 1082.88 136.642C1083.36 136.642 1088.28 136.042 1089.48 133.282ZM1118.16 143.002H1105.08C1106.04 141.562 1106.4 136.282 1106.4 126.442V96.562H1101.6C1099.44 96.562 1097.4 96.802 1096.56 97.402V87.082C1097.28 87.562 1100.4 87.562 1102.08 87.562H1106.4V83.362C1106.4 74.122 1107.6 67.1619 1111.2 62.7219C1115.16 57.682 1122.24 55.282 1128.96 55.282C1131.48 55.282 1133.88 55.6419 1135.92 56.1219V67.8819C1134.72 65.7219 1131.72 65.362 1129.32 65.362C1120.32 65.362 1117.2 70.6419 1117.2 80.242V87.562H1122.48C1128.72 87.562 1130.52 87.562 1131.36 86.962V97.522C1130.52 96.682 1128.48 96.562 1122.36 96.562H1117.2V125.482C1117.2 132.922 1117.2 141.442 1118.16 143.002ZM1167 144.922C1148.28 144.922 1137.48 130.282 1137.48 115.282C1137.48 100.522 1148.04 85.7619 1166.88 85.7619C1183.44 85.7619 1196.64 97.282 1196.64 115.162C1196.64 132.682 1184.04 144.922 1167 144.922ZM1167.6 136.162C1181.04 136.162 1185 125.122 1185 115.762C1185 104.122 1178.88 94.6419 1166.4 94.6419C1154.52 94.6419 1148.88 103.402 1148.88 114.922C1148.88 127.282 1155.48 136.162 1167.6 136.162ZM1222.48 143.002H1209.4C1210.48 141.442 1210.48 133.162 1210.48 126.322V102.322C1210.48 102.322 1210.48 88.642 1209.4 87.682H1220.2C1220.8 88.762 1221.04 91.6419 1221.04 93.682C1225.36 87.562 1230.4 86.1219 1234.48 86.1219C1237.96 86.1219 1239.76 87.2019 1239.76 87.322C1239.88 96.922 1239.88 98.0019 1239.88 98.0019C1238.68 96.802 1236.28 96.3219 1233.52 96.3219C1226.68 96.3219 1222.6 99.322 1221.76 107.962C1221.4 112.042 1221.28 117.082 1221.28 121.402V126.082C1221.28 127.402 1221.28 141.442 1222.48 143.002ZM1335.01 143.002H1321.81C1322.89 141.442 1323.01 136.762 1323.01 132.802V107.242C1323.01 96.922 1319.41 94.4019 1312.21 94.4019C1303.45 94.4019 1299.73 98.122 1298.53 104.962C1298.05 107.962 1298.05 108.322 1298.05 114.922V132.922C1298.05 136.762 1298.41 141.922 1299.25 143.002H1286.05C1287.13 141.442 1287.25 136.762 1287.25 132.802V107.242C1287.25 97.522 1284.01 94.4019 1276.93 94.4019C1266.97 94.4019 1262.41 100.402 1262.41 106.882V127.402C1262.41 129.322 1262.65 142.642 1263.61 143.002H1250.53C1251.49 141.922 1251.61 131.002 1251.61 126.802V105.802C1251.61 97.402 1251.61 90.082 1250.41 87.682H1261.33C1262.05 89.482 1262.29 91.162 1262.41 92.962C1267.09 87.562 1272.13 85.7619 1279.09 85.7619C1285.21 85.7619 1291.45 87.2019 1295.29 92.7219C1299.61 88.762 1307.29 85.7619 1315.21 85.7619C1324.09 85.7619 1334.05 89.482 1334.05 103.762C1334.05 106.042 1333.81 112.282 1333.81 114.922V132.922C1333.81 136.762 1334.17 141.922 1335.01 143.002Z" fill="white"/>
</svg>
