<svg width="882" height="202" viewBox="0 0 882 202" fill="none" xmlns="http://www.w3.org/2000/svg">
<path d="M73.6249 199.553C74.2069 199.305 76.3768 199.942 77.3492 199.843C76.2435 202.517 71.6159 200.455 73.6249 199.553ZM168.741 3.62551C167.955 4.30804 167.175 4.99059 166.402 5.67312C168.67 6.04815 171.689 5.48879 173.807 6.06945C174.154 6.16712 173.303 8.10786 174.122 8.17458C174.941 8.24085 174.732 5.62049 175.911 5.31273C177.19 4.97552 183.343 6.66901 185.438 6.58244C193.314 6.2418 201.257 4.6001 209.206 5.57309C201.073 7.63916 209.323 9.48734 211.605 8.6151C212.116 8.41467 211.953 3.52998 220.207 4.65821C225.427 5.3798 220.667 12.4029 229.36 8.82308C222.614 4.00911 229.185 4.28219 234.468 4.07988C235.367 4.04251 242.737 4.72649 245.928 4.49872C247.031 4.41865 248.713 1.8564 250.198 1.78473C251.22 1.73733 251.966 3.1323 253.466 3.0578C260.518 2.72764 267.332 2.62509 274.389 3.12589C270.245 9.67708 277.594 5.93759 277.908 6.25495C279.562 8.04536 272.034 8.51899 275.014 9.64733C279.139 9.46134 283.375 9.28382 287.516 9.11369C284.853 8.46402 289.117 5.48433 291.851 5.23464C292.53 5.16312 293.109 5.30807 293.4 5.78348C292.811 -0.00701141 311.152 10.9265 314.082 8.97464C314.667 8.56445 310.807 5.69939 319.82 7.00809C320.809 7.15305 320.44 8.90424 320.956 8.74054C321.26 8.64211 323.095 3.07524 325.106 6.1469C325.828 7.26716 321.199 10.9339 331.42 9.44147C327.329 3.79055 345.64 6.33118 349.049 7.73252C348.366 6.9744 347.685 6.21624 347.006 5.45802C350.372 7.49716 350.96 5.56866 351.714 5.67045C354.758 6.07904 358.945 8.00088 361.795 7.81057C365.113 7.59144 365.109 4.06891 368.998 5.42087C368.078 4.64798 367.147 3.87513 366.223 3.10223C368.913 3.27682 371.58 3.45142 374.271 3.62601C368.075 8.31793 375.615 3.84214 376.11 3.73951C376.903 3.56612 375.771 5.48032 377.098 5.23645C377.235 5.1967 377.028 3.39998 379.075 3.18864C383.356 2.75335 382.69 5.01668 384.488 4.98306C384.653 4.9707 384.069 3.35369 387.175 2.95699C397.062 1.69537 387.131 4.19797 386.753 4.42374C386.257 4.72131 389.671 11.4736 381.275 9.11148C384.093 9.86267 384.39 12.8563 384.708 12.9292C384.987 12.989 389.87 12.546 390.139 12.4418C392.536 11.4148 390.415 9.37707 390.881 9.00837C391.259 8.71091 397.168 11.3543 398.524 5.19378C401.362 10.8615 396.922 10.3568 392.196 11.2491C391.508 12.417 396.708 13.5291 396.981 13.5252C403.674 13.49 399.956 8.83339 401.411 5.84258C402.178 4.27775 404.923 7.45493 402.384 3.27562C408.47 2.8135 404.785 5.25247 405.18 5.61024C405.768 6.13596 407.912 4.92924 408.178 5.0884C408.572 5.32396 407.211 6.77783 408.761 7.28409C409.018 7.35761 411.504 4.85558 408.286 3.67202C412.582 4.01469 412.214 1.88869 413.691 6.17268C416.643 -1.94554 415.854 10.9627 417.019 11.4149C420.109 12.6074 419.217 6.24053 419.376 5.92962C420.511 3.93628 429.13 6.11665 431.267 5.20136C430.419 9.78734 424.41 5.25233 423.087 6.14444C418.634 9.10943 429.384 8.43264 426.145 14.1989C427.509 12.6152 428.866 11.032 430.216 9.44931C432.717 13.1563 429.19 14.7686 435.897 13.4207C437.002 10.223 431.153 13.9215 432.325 11.4032C433.033 9.92455 436.894 9.61131 436.997 8.83228C437.057 7.89367 433.557 9.00176 434.108 7.55918C435.3 4.4419 448.213 7.43832 438.401 9.11542C441.146 9.0675 442.527 15.2665 444.931 13.3444C446.487 12.0987 437.8 3.50441 450.87 5.13039C451.136 8.05616 445.62 5.9695 445.493 6.19277C445.292 6.51608 446.257 13.1211 446.425 13.4476C447.004 14.5162 460.42 11.0615 463.265 14.4187C462.331 11.2458 470.064 12.9415 473.447 12.9878C474.141 12.9961 474.645 12.9317 474.857 12.736C475.188 12.4206 474.011 10.0632 474.363 9.82175C476.554 8.38563 482.236 12.6602 484.957 12.8221C487.964 13.0033 487.644 10.9789 487.807 10.9858C489.129 11.1251 488.045 12.4718 488.85 12.4843C490.09 12.5003 498.52 12.965 498.957 12.692C499.082 12.6059 497.769 10.2691 499.603 9.87415C499.906 9.80615 499.679 12.5321 505.149 11.4855C511.753 10.2305 500.667 7.97343 503.466 5.1797C507.58 9.35847 507.564 5.31908 508.684 5.66473C509.076 5.79028 511.937 9.29977 515.097 9.1677C512.817 9.66402 510.52 10.1608 508.212 10.6593C510.458 11.3188 514.815 10.6894 516.628 11.4194C517.508 11.7745 516.702 14.575 518.638 14.5514C519.045 14.5311 520.873 7.70415 515.709 10.6496C515.369 8.18514 517.745 9.84824 518.881 9.18473C519.053 9.08119 519.831 5.00055 521.182 7.58659C521.493 8.22186 517.511 20.0804 527.237 11.6826C527.55 11.4119 526.527 9.88606 526.834 9.58365C527.051 9.3792 529.432 10.0486 529.708 9.84306C529.986 9.62228 528.865 7.95687 529.198 7.64374C530.915 6.03028 532.899 12.57 529.5 11.9869C530.641 12.8188 531.728 13.6489 532.865 14.4798C531.772 9.56197 534.672 13.1504 536.263 13.0387C546.332 12.3175 539.68 8.9778 541.447 7.3746C544.284 4.79761 541.964 13.1134 546.151 10.6917C546.555 10.4641 541.609 6.81014 551.33 9.01788C549.86 9.1264 548.471 9.23574 546.998 9.34244C547.751 14.0885 552.213 9.12711 552.548 9.06686C556.377 8.49259 553.752 10.1481 559.527 7.82048C560.038 7.61119 561.096 8.79742 562.21 8.23492C566.818 5.91827 556.234 6.67297 556.045 4.75188C555.886 3.81412 567.154 4.25139 567.569 4.70043C569.176 6.70214 562.442 5.48341 563.694 7.95566C564.044 8.78183 578.346 7.4924 582.812 8.14193C583.091 8.18544 583.33 8.23779 583.521 8.30024C587.065 9.45824 588.769 15.8858 588.828 8.68369C589.758 15.7648 590.727 10.9508 591.196 11.0044C596.935 11.7152 596.91 11.7846 601.821 11.1434C602.895 11.0036 603.805 13.1546 604.195 12.7948C604.422 12.5774 604.012 10.2792 605.126 9.57761C606.664 8.62053 615.834 11.0224 616.493 12.2915C617.159 13.5632 612.648 12.8277 613.452 14.9171C616.663 15.1409 619.992 14.6346 623.242 14.8614C624.624 14.9618 623.911 16.4207 624.51 16.4509C624.758 16.4698 629.604 15.1907 629.374 14.6513C628.904 13.4029 614.094 14.2079 618.001 11.6616C618.754 11.1703 621.435 14.5426 621.008 10.4493C634.145 11.4099 647.449 12.3247 660.755 13.2112C653.072 16.2961 644.533 13.5744 636.561 13.8615C635.493 13.8973 631.74 13.5008 632.202 15.5693C639.009 16.1096 647.397 15.0229 653.956 16.3549C654.164 16.399 653.408 18.2591 654.184 18.5517C655.622 19.0984 660.423 16.0877 661.223 16.8598C661.378 17.04 658.636 19.4981 659.476 21.0524C661.647 25.0411 662.101 16.1907 663.924 16.2893C665.332 16.3705 674.798 20.6104 677.171 17.8944C679.668 15.0017 670.17 16.254 670.88 13.8943C677.259 11.5002 683.78 13.9943 689.853 13.6628C689.959 13.6546 689.025 11.8141 690.369 11.5477C692.711 11.0839 693.35 13.6984 694.503 14.1099C695.758 14.548 700.119 14.1433 700.706 15.0938C700.781 15.2185 699.916 17.8219 699.783 17.8958C697.896 18.9793 697.203 15.6126 697.023 15.5706C696.365 15.4471 695.729 16.7425 695.131 16.6695C694.147 16.5476 693.599 15.3565 692.307 15.2591C691.417 15.1875 692.29 17.4761 691.432 17.3765C691.11 17.3308 687.723 12.1128 687.418 17.4615C687.291 19.1558 715.135 21.1273 717.936 19.7473C715.549 19.1243 713.128 18.5008 710.748 17.8764C715.613 19.4039 721.392 15.0818 721.857 21.3986C739.855 21.7595 757.829 22.0841 775.831 22.3758C779.051 22.8738 777.364 26.9576 782.614 25.7078C781.231 24.4316 779.864 23.155 778.471 21.8786C781.181 22.7534 793.225 24.3669 795.144 23.5012C795.395 23.3878 795.691 19.7076 798.69 19.3497C801.353 19.0333 801.818 21.7811 803.245 22.2883C804.444 22.7065 805.774 21.9655 806.131 22.1123C806.404 22.2301 806.537 23.9126 807.196 24.1967C809.277 25.0743 807.53 20.3573 809.665 25.772C809.168 25.9869 808.671 26.2018 808.174 26.4166C810.681 27.1681 814.138 29.5888 810.471 30.8633C809.841 31.0833 810.361 29.4459 809.889 29.4557C791.455 30.0253 806.204 32.9824 812.657 30.3546C814.345 32.7448 823.642 31.1271 823.959 31.5973C824.399 32.2795 822.839 34.234 824.951 35.867C825.389 36.2141 837.83 34.6595 833.394 37.941C832.477 38.6184 826.494 38.0193 825.059 38.1362C828.52 43.2001 836.355 35.7392 837.243 35.9118C840.854 36.6494 830.404 40.4608 838.521 40.9207C844.767 41.272 838.852 37.9542 841.227 36.4555C842.562 35.6149 849.687 39.2566 849.409 34.3857C851.822 33.8229 850.449 36.4284 850.752 36.6087C851.047 36.767 855.785 35.2235 857.35 36.2227C857.54 36.3471 856.996 38.891 857.193 39.0948C857.577 39.4431 862.161 38.853 862.342 38.6348C862.456 38.4835 861.321 36.2857 861.761 35.7396C862.274 35.1099 866.704 35.5499 866.935 34.9111C867.262 33.9463 861.817 34.679 862.681 32.1819C865.207 32.7602 869.274 31.0285 870.895 29.0002C870.499 29.5789 868.063 29.7069 867.213 29.5215C867.543 25.8819 872.777 25.8321 871.042 28.741C872.15 27.1754 871.358 26.371 871.971 24.9017C872.132 24.5294 873.746 24.4224 874.045 23.7875C874.083 23.6614 872.39 22.3229 872.709 21.5787C873.288 20.2342 878.189 20.4393 878.596 20.781C879.743 21.7502 875.776 23.0274 875.472 24.5658C875.429 24.8021 878.883 27.7384 878.94 28.0025C879.194 30.8437 875.375 28.867 875.856 31.4203C876.802 31.9433 877.747 32.4662 878.693 32.989C875.138 35.6541 868.436 34.4469 866.77 37.4294C872.105 36.4516 877.703 36.4462 877.822 43.0913C877.873 45.8899 875.595 47.5752 875.698 48.285C876.088 50.8245 879.24 47.9962 879.361 48.1283C879.461 48.2815 879.508 48.4317 879.511 48.5788C879.511 48.5788 879.511 48.5789 879.511 48.579C879.541 50.0698 874.991 51.2321 874.775 51.9169C874.414 53.1334 876.545 58.0708 876.563 59.1716C876.497 59.3942 873.262 60.6347 874.398 62.5345C875.548 64.4535 878.401 64.4409 878.504 64.6405C879.072 65.7907 874.103 66.9461 873.967 67.6342C873.895 67.9823 876.616 70.0599 876.706 70.6705C876.785 71.2835 874.774 72.6632 874.008 74.6174C873.437 76.0693 875.202 77.1402 874.899 77.3719C874.683 77.526 869.964 77.5913 869.736 77.8487C869.398 78.2298 870.536 79.9304 870.383 80.3639C870.166 80.9873 868.63 80.3946 868.841 81.0278C868.998 81.5001 875.022 87.3222 875.015 88.9079C874.999 91.613 868.617 85.5116 874.649 96.0698C874.691 96.1391 876.095 95.3535 876.136 95.4185C877.05 97.3646 872.559 100.472 878.111 99.8368C867.828 103.446 876.902 103.926 875.458 108.508C874.9 110.27 870.898 111.068 870.885 111.33C871.317 113.543 872.564 111.797 873.019 112.877C873.271 113.481 869.721 115.896 870.559 117.405C870.992 118.182 874.802 117.83 874.963 117.98C876.5 119.396 874.678 120.988 875.03 122.008C875.263 122.692 877.568 122.702 877.63 122.825C877.732 123.081 874.658 125.922 874.025 126.911C873.544 127.673 875.426 128.815 875.087 129.15C873.041 131.15 868.514 126.234 872.918 133.159C873.187 133.584 874.799 133.38 874.849 133.464C875.885 135.431 872.913 135.66 872.411 137.296C871.55 140.115 875.799 138.472 872.279 140.51C874.982 142.291 876.469 142.186 879.582 141.615C870.963 143.207 868.042 150.516 877.647 150.15C874.589 150.096 875.006 154.183 874.096 154.272C873.529 154.323 869.02 150.337 871.224 159.43C871.501 160.566 874.167 159.066 873.368 161.416C866.89 160.943 873.259 162.905 873.271 163.213C873.288 168.596 857.406 164.482 854.701 165.141C851.563 165.908 848.838 170.195 848.154 170.212C845.898 170.253 847.733 168.068 847.215 167.286C846.69 166.511 840.35 170.742 840.028 170.521C838.772 169.632 839.989 167.061 839.857 166.934C838.302 165.397 829.717 167.535 827.306 166.979C827.406 168.632 832.242 168.687 829.266 171.392C825.801 174.546 825.488 167.255 825.389 166.936C809.279 167.258 793.167 167.554 777.054 167.824C777.311 171.703 787.799 168.641 788.048 169.148C789.496 172.156 771.693 172.328 769.502 170.981C771.186 171.799 772.832 172.617 774.502 173.435C771.747 177.931 765.367 172.21 761.317 174.226C760.006 174.88 762.557 176.573 762.507 176.691C761.045 178.44 758.647 177.132 760.403 174.786C756.786 177.056 757.286 174.59 754.496 174.436C754.353 174.43 755.568 176.218 753.373 176.988C752.348 177.348 746.839 177.412 746.109 178.994C745.81 179.66 748.691 186.612 748.976 180.6C754.987 183.465 750.857 177.841 753.182 177.954C753.542 177.982 752.744 181.346 758.61 179.701C757.549 185.763 750.747 181.314 749.611 182.058C747.245 183.589 757.087 186.608 758.864 181.872C758.065 186.601 759.586 182.5 761.764 182.669C764.16 182.852 763.133 184.269 764.43 184.262C767.985 184.256 766.471 180.941 769.445 183.91C766.477 174.646 774.439 182.623 776.762 185.029C773.039 185.548 769.316 186.065 765.58 186.58C765.799 187.066 766.018 187.552 766.238 188.038C765.253 187.98 764.269 187.922 763.287 187.865C763.439 187.395 763.591 186.925 763.743 186.455C758.734 189.556 757.425 186.15 757.017 186.116C751.694 185.779 745.525 185.873 740.167 185.915C739.365 185.921 739.945 188.96 734.021 186.634C732.138 185.892 733.886 183.508 731.765 183.883C729.171 190.341 729.183 185.209 728.387 185.208C726.099 185.23 724.725 186.836 724.514 186.854C721.703 187.128 717.619 186.896 714.511 187.158C714.453 187.182 716.078 189.146 714.065 188.577C713.358 188.374 706.99 179.986 701.492 182.775C702.925 183.334 704.364 183.894 705.81 184.453C704.106 183.671 692.304 185.875 695.207 188.115C697.007 189.484 701.289 184.016 701.794 189.243C697.84 187.71 676.151 190.173 674.398 188.961C674.163 188.788 675.597 187.085 675.272 186.869C675.005 186.705 670.085 187.129 669.389 186.479C668.993 186.094 671.203 185.045 671.014 184.434C670.877 183.999 664.586 183.296 664.259 185.424C665.772 184.565 670.105 185.294 667.842 187.096C667.55 187.319 666.038 185.953 665.688 186.237C662.413 188.855 672.241 188.193 673.71 188.207C667.614 190.944 658.052 187.782 650.967 189.562C648.061 187.797 655.262 186.845 651.98 185.385C645.171 182.357 650.171 187.836 649.959 188.062C648.254 189.852 642.603 180.286 642.566 187.571C640.097 186.476 640.883 185.558 637.445 186.512C637.896 187.016 638.348 187.521 638.801 188.025C635.014 192.248 626.826 181.593 627.459 180.781C629.084 178.61 633.298 182.003 633.676 181.922C634.229 181.801 635.689 174.41 641.545 181.017C643.915 176.058 632.319 177.673 637.583 174.292C633.964 174.852 619.291 171.379 617.079 173.543C616.828 173.826 617.979 178.771 614.352 176.244C612.636 175.04 616.788 174.998 616.006 173.869C614.113 171.118 592.567 171.865 580.502 172.227C577.375 172.323 575.125 172.411 573.764 172.428C573.35 172.427 573.525 170.896 573.12 170.904C571.906 170.929 567.324 173.144 565.178 172.403C569.667 175.315 560.841 175.391 558.514 175.035C555.151 174.499 555.311 171.803 553.865 171.202C548.208 168.885 539.101 175.096 534.776 168.999C534.857 174.949 527.115 165.896 523.529 165.746C520.706 165.628 516.541 169.449 520.26 171.947C515.416 171.542 510.356 172.512 505.907 172.757C505.168 172.799 506.231 171.068 504.965 171.194C504.848 171.218 504.649 172.936 503.576 173.088C494.661 174.367 499.097 170.818 497.457 169.701C496.541 169.076 495.854 168.76 495.367 168.65C500.505 168.432 506.522 167.913 508.118 167.906C506.841 164.065 496.636 168.343 493.712 167.257C493.609 167.217 494.018 165.13 493.913 165.112C493.911 165.112 493.908 165.112 493.906 165.112C492.807 164.925 485.742 165.548 487.135 168.079C487.526 168.755 490.754 168.82 494.606 168.682C493.552 169.126 494.278 171.492 494.091 171.588C491.857 172.697 486.398 170.288 484.512 169.942C484.07 169.865 484.071 171.37 483.998 171.373C482.212 170.995 483.04 166.714 481.157 171.109C478.065 165.694 487.161 170.432 486.559 166.943C486.304 165.142 477.01 165.011 470.866 166.412C468.053 167.103 465.795 168.164 465.832 169.556C465.77 169.104 465.51 168.54 464.961 167.896C463.731 166.463 458.17 166.85 457.153 167.621C456.992 167.773 457.022 171.867 456.823 171.903C456.35 171.992 449.505 168.736 446.872 171.147C448.276 171.727 449.676 172.308 451.047 172.889C442.629 172.882 443.963 174.112 446.725 175.346C446.864 175.358 446.995 175.514 447.133 175.531C449.338 176.445 452.064 177.333 452.1 177.657C452.322 178.882 437.989 179.515 440.767 175.729C441.139 175.209 447.768 176.924 444.504 174.202C443.934 173.725 439.669 174.486 439.454 174.188C437.957 172.196 447.268 169.586 446.129 166.762C443.89 169.439 440.969 168.015 438.388 168.704C437.204 169.016 436.905 171.068 436.759 171.106C434.576 171.639 435.806 169.489 435.081 169.542C434.703 169.578 430.389 174.156 431.204 167.842C416.994 172.493 427.31 172.475 435.962 172.131C433.25 174.426 427.856 173.313 425.424 173.849C424.551 174.043 425.064 176.15 423.607 176.573C420.599 177.439 406.12 175.054 402.342 174.499C404.661 173.747 403.976 171.454 402.183 171.619C400.388 171.785 401.907 174.843 401.558 175.173C401.182 175.515 392.766 174.101 391.366 174.505C397.698 173.369 396.257 171.086 390.88 170.869C391.655 170.206 392.43 169.544 393.204 168.882C390.058 169.821 383.399 166.359 381.575 167.406C381.289 167.575 382.328 169.494 382.167 169.589C380.568 170.414 375.105 168.476 374.852 169.134C374.64 169.682 376.975 171.284 376.115 172.083C375.938 172.251 373.676 169.66 371.468 170.31C370.649 170.549 371.151 172.367 370.945 172.473C369.226 173.357 370.234 170.287 367.079 170.794C364.768 171.17 363.071 174.174 359.863 173.196C370.375 176.967 361.542 175.413 357.167 176.59C356.469 176.777 357.078 180.079 352.863 178.489C361.797 172.475 350.312 175.343 347.938 175.286C347.809 175.267 347.754 173.088 346.6 173.058C346.503 173.06 346.648 174.532 345.578 174.649C335.372 175.751 341.895 174.063 339.952 172.618C339.15 172.003 334.144 174.101 332.831 174.154C332.526 174.16 332.665 172.63 331.463 172.693C329.334 172.808 327.479 174.441 326.073 174.572C325.911 174.58 325.888 172.166 323.244 172.953C322.502 173.173 321.673 174.031 322.725 174.724C326.252 177.003 332.875 173.037 336.818 175.302C340.43 177.366 329.068 177.596 328.474 177.607C328.257 177.615 330.47 176.412 328.22 176.179C326.32 175.986 322.765 180.162 319.884 179.256C319.658 179.189 317.348 175.655 317.457 175.448C317.546 175.298 321.105 174.528 320.59 173.506C320.525 173.389 318.262 173.414 317.972 172.653C317.611 171.726 316.646 162.627 316.172 162.399C314.956 161.835 315.751 163.91 314.947 163.766C313.21 163.462 307.293 160.763 307.082 163.915C308.063 164.105 309.054 164.294 310.054 164.482C304.532 164.797 306.899 166.143 306.116 166.733C305.278 167.371 305.556 164.6 303.67 164.333C303.265 164.277 295.473 164.818 295.624 165.979C299.92 164.154 298.331 167.569 298.522 167.632C299.29 167.859 300.266 165.942 301.259 165.984C308.38 166.311 301.174 169.319 302.856 170.104C303.433 170.369 304.604 168.732 304.853 168.817C305.634 169.091 305.641 171.239 306.165 171.067C307.392 170.667 305.968 167.623 306.067 167.465C307.147 165.566 311.514 167.94 308.79 171.243C310.43 172.438 310.597 168.418 311.867 170.027C314.389 173.211 310.618 172.391 309.579 172.917C305.843 174.816 304.745 173.273 299.491 173.777C297.534 173.954 295.321 175.893 294.403 175.993C294.045 176.032 291.876 173.436 290.274 173.956C289.312 174.278 288.534 175.79 288.443 179.849C286.504 178.803 283.543 171.773 281.54 172.081C279.731 172.362 280.284 176.127 280.115 176.272C279.855 176.498 277.686 176.19 276.955 176.718C276.096 177.342 276.515 178.779 275.16 179.358C271.773 180.796 271.859 176.958 271.514 176.707C267.474 173.81 269.235 179.278 268.338 179.713C267.536 180.109 255.792 178.002 253.34 179.396C254.336 178.624 255.337 177.853 256.343 177.083C254.535 174.69 252.653 178.602 252.609 174.307C252.282 181.241 248.533 176.618 247.424 176.803C246.985 176.878 247.025 178.06 246.478 178.113C244.37 178.328 239.472 177.417 238.336 178.025C233.338 180.638 246.226 184.843 247.208 185.105C245.217 185.031 233.761 186.662 239.035 189.96C239.846 190.468 241.268 187.357 241.727 187.232C244.833 186.416 242.402 189.21 242.647 189.473C243.07 189.898 245.083 187.199 245.615 187.517C245.795 187.619 244.655 190.141 247.593 190.181C246.178 192.625 237.857 190.686 236.812 191.269C236.43 191.478 238.878 196.671 231.754 191.665C231.84 192.148 231.926 192.632 232.012 193.115C228.082 193.35 224.169 193.591 220.186 193.84C220.601 192.719 222.801 190.451 220.004 190.961C218.4 191.256 219.621 193.726 219.475 193.8C218.063 194.479 192.491 194.071 187.523 194.478C185.884 194.602 181.143 196.705 180.817 196.75C178.665 196.997 170.981 195.881 169.498 196.202C168.549 196.406 169.511 198.46 168.647 198.384C167.843 198.311 168.623 196.283 168.383 196.205C166.444 195.522 151.616 198.549 147.961 196.755C150.184 197.263 160.931 192.964 160.623 191.557C160.578 191.364 157.921 189.906 157.386 190.665C156.438 188.951 153.525 194.323 151.801 193.33C151.607 193.217 152.277 190.229 149.275 189.771C148.196 189.615 145.605 192 142.74 189.481C139.013 190.847 117.111 187.495 114.597 190.621C114.571 190.792 118.143 191.865 115.754 193.191C113.003 194.649 114.57 190.85 113 189.233C112.732 188.901 112.354 188.66 111.817 188.573C111.329 188.499 102.621 189.079 102.348 189.438C99.7086 192.721 107.309 194.073 107.219 194.453C106.931 195.417 100.626 195.985 100.354 195.756C100.129 195.519 105.289 191.176 99.0666 192.81C99.7773 193.333 100.5 193.856 101.213 194.379C98.2574 195.384 98.005 192.367 97.3001 192.181C95.1588 191.589 92.6818 196.158 89.232 190.481C88.3009 188.974 89.8714 187.316 89.7559 187.09C88.6353 185.063 87.1671 190.46 85.5371 186.416C85.4009 186.114 89.3344 183.727 82.504 183.672C82.971 184.063 83.4404 184.453 83.9123 184.843C82.9271 185.7 76.0209 186.156 75.1255 185.943C72.412 185.321 74.8 182.569 72.0735 182.874C73.784 186.695 65.5012 187.107 66.0368 183.837C64.8108 187.937 57.8925 184.684 54.6058 184.545C52.5716 184.461 48.3536 186.202 47.6936 185.984C46.9071 185.717 47.1739 182.915 45.7812 182.273C45.3558 182.089 41.0996 184.091 37.4956 181.148C36.7922 180.581 35.4003 175.808 36.6963 174.632C38.9609 172.621 43.2404 176.507 43.1999 173.695C43.2086 170.686 37.3184 172.405 35.8505 171.999C28.8184 170.116 32.9107 166.959 32.7439 165.987C32.2708 163.629 28.4888 163.677 28.3593 163.466C27.7157 162.523 30.372 160.677 30.4501 159.243C30.4779 157.372 26.8979 153.981 27.7138 153.355C28.8694 152.464 32.2463 155.3 32.4717 155.168C35.3415 153.38 31.448 149.027 30.4433 146.9C30.13 146.246 31.4057 145.182 31.1431 144.989C27.0812 142.058 30.2361 151.05 27.5749 150.437C25.1969 149.895 28.2739 147.068 28.1859 146.912C28.0465 146.738 25.2575 146.575 24.8001 145.573C24.5456 145.062 32.0364 139.578 31.7468 137.107C29.3272 137.634 26.9246 138.166 24.5886 138.712C24.4063 135.484 27.7834 137.865 28.1698 137.536C28.8885 136.872 26.8843 135.231 26.9753 134.211C27.0122 133.562 29.4232 131.257 27.2622 130.294C26.5303 129.962 24.9979 132.216 22.4022 129.916C31.5276 126.959 25.2379 125.147 24.9237 124.002C24.6705 122.859 29.0928 120.171 23.7157 120.646C23.4811 114.368 23.8003 118.66 25.3633 117.557C27.2698 116.206 22.8555 114.119 29.8108 115.718C29.4449 112.771 23.8101 112.964 23.553 112.736C23.3007 112.524 24.5183 111.076 24.0819 110.587C18.8268 104.926 22.4401 107.506 20.8929 103.887C20.7339 103.558 15.7204 102.286 19.5306 101.703C26.5066 100.68 29.3782 104.902 30.6369 95.9953C25.442 92.0817 19.1142 97.8699 17.5484 98.0092C15.1243 98.1996 17.6145 96.3304 17.2977 95.8284C17.2225 95.6628 15.0543 95.8655 15.0501 95.724C13.3388 88.9356 24.4852 95.4452 27.8082 94.3198C26.8731 93.2989 26.0262 92.2795 25.0736 91.2619C26.329 91.2216 27.5604 91.1848 28.7956 91.1502C22.8845 89.0854 28.6147 90.3713 30.0905 84.8827C30.4292 83.6487 26.5113 85.7453 31.0022 82.3373C27.6997 81.5242 28.7508 80.405 25.7805 81.9482C25.8312 79.7378 32.5948 77.2837 35.2151 76.1831C25.9303 73.6339 31.2137 81.7417 23.07 77.4578C21.5426 80.1917 25.4563 79.6513 25.1434 80.1043C24.003 81.7252 21.301 79.1484 18.058 84.8755C17.542 85.8173 19.8319 88.6435 16.5079 88.5674C16.1228 88.5531 13.9024 86.1649 13.8995 85.9899C14.16 84.0565 16.3244 84.7185 16.4135 83.9173C16.4641 83.1545 14.0746 83.6747 14.0255 83.4695C13.8929 81.0644 16.046 82.4911 15.7207 81.7476C15.1024 80.1179 5.65882 75.2404 17.6318 76.4093C7.90203 79.3917 16.6034 79.0433 20.1107 77.9886C21.0614 77.7183 21.2369 76.2796 22.5542 75.775C24.2252 75.122 26.1701 75.815 27.0018 75.554C27.9157 75.2679 22.7378 71.8485 30.2369 72.8956C26.4456 69.4902 19.6783 73.0832 15.4369 70.8256C6.63547 66.2907 21.3176 64.8386 22.4435 64.4468C22.8188 64.3192 21.5512 62.3847 21.8008 62.2647C22.2979 62.0685 29.7064 62.9785 30.4064 61.3848C31.1269 59.7843 27.7457 61.4437 27.4871 59.7712C27.3934 58.6373 36.1713 56.7032 31.4433 55.8983C28.1855 55.3401 21.8731 59.8692 20.7433 55.0201C25.8959 54.5807 30.7842 54.2162 35.5688 53.858C32.9839 51.9815 30.3188 50.1088 27.6159 48.2477C33.2157 47.6826 37.7694 49.827 42.8629 47.236C30.7527 41.1641 46.8822 42.5463 47.0374 41.8302C47.086 41.3987 42.3982 36.525 41.6302 35.6356C45.9278 33.8326 58.5825 33.0902 51.2753 27.0505C52.563 28.4096 55.9213 25.1374 55.8521 24.8862C55.4939 22.2549 48.3256 23.8676 49.5183 21.51C50.9315 18.7743 52.7188 22.5326 54.8264 22.2608C65.3593 20.8347 62.7087 7.09198 73.1186 9.37084C72.9169 8.88052 72.7158 8.39019 72.5152 7.89985C83.9164 8.79187 95.1577 9.63997 106.516 10.4363C108.029 9.02794 110.299 7.80582 113 6.81926C116.634 4.88238 122.941 3.73566 126.642 3.95631C127.77 4.02248 133.519 6.07743 133.944 6.45085C134.761 7.16888 130.382 7.56216 132.417 8.89555C132.748 9.17376 142.68 9.8346 141.876 7.51144C140.809 7.26842 137.315 8.53951 136.783 8.00101C132.564 4.17393 163.394 6.49401 164.957 4.87856C164.27 4.13451 163.529 3.39191 162.822 2.64857C164.845 2.97202 166.733 3.29972 168.741 3.62551ZM81.6686 192.981C80.492 195.323 77.4991 193.533 75.7652 194.177C73.3408 195.08 69.149 204.091 70.9996 195.035C74.5484 194.354 78.1371 193.67 81.6686 192.981ZM135.619 196.235C133.189 195.032 134.902 189.921 136.963 191.976C137.175 192.21 138.966 197.851 135.619 196.235ZM108.681 194.199C108.779 194.132 110.842 194.268 110.918 194.347C112.769 196.383 106.548 195.962 108.681 194.199ZM227.9 189.285C225.39 189.529 227.252 194.117 228.801 192.205C228.899 192.084 228.065 189.272 227.9 189.285ZM226.113 189.181C224.132 185.076 220.306 193.483 223.418 192.605C223.712 192.516 226.202 189.381 226.113 189.181ZM126.841 194.422C127.062 192.836 129.726 193.543 130.755 193.897C130.785 195.341 127.902 194.224 126.841 194.422ZM187.922 192.467C188.015 191.22 179.806 191.469 179.291 193.121C180.557 192.395 187.872 193.584 187.922 192.467ZM208.86 190.336C208.643 190.124 205.821 190.496 205.925 191.591C207.317 193.007 209.815 191.293 208.86 190.336ZM250.401 190.012C250.543 189.737 248.445 182.762 253.423 187.343C254.153 188.014 251.556 189.844 251.817 190.094C252.359 190.58 252.787 190.807 253.132 190.847C250.847 191.431 248.383 191.713 248.158 191.29C247.051 189.295 250.33 190.127 250.401 190.012ZM272.187 184.815C272.679 183.678 275.736 184.3 276.422 184.772C276.541 184.861 276.006 187.85 277.381 187.634C278.487 187.455 276.85 184.381 279.004 184.884C281.186 185.389 278.255 187.555 278.446 187.713C278.696 187.918 282.09 186.563 281.976 188.345C281.885 189.664 278.267 188.749 277.38 189.025C276.24 189.38 277.607 191.586 275.711 191.104C274.523 190.804 275.2 186.939 274.949 186.743C274.76 186.584 270.516 188.794 272.193 184.827C272.191 184.823 272.189 184.819 272.187 184.815ZM253.757 190.675C253.583 190.806 253.379 190.876 253.132 190.847C253.341 190.794 253.55 190.732 253.757 190.675ZM88.5764 191.331C89.8187 192.532 86.0968 194.039 84.751 192.466C84.7259 191.206 88.3671 191.145 88.5764 191.331ZM255.906 187.521C259.381 188.486 256.813 189.82 253.757 190.675C254.727 189.945 254.743 187.199 255.906 187.521ZM157.386 190.665C157.543 190.949 157.65 191.396 157.682 192.135C157.267 191.337 157.221 190.904 157.386 190.665ZM165.612 191.769C168.336 189.448 162.7 189.683 162.744 191.294C162.788 191.901 165.51 191.861 165.612 191.769ZM231.118 189.473C230.861 189.256 234.718 182.423 229.077 187.576C232.131 188.348 228.932 189.118 228.976 189.713C229.147 191.422 234.182 189.731 235.346 190.463C236.21 187.395 231.944 190.191 231.125 189.473C231.123 189.473 231.121 189.473 231.118 189.473ZM312.792 186.678C312.057 188.472 309.788 187.892 308.193 187.783C308.941 185.991 311.242 186.572 312.792 186.678ZM712.125 189.166C701.637 190.904 700.194 183.609 709.859 186.425C710.044 186.484 712.755 188.421 712.125 189.166ZM621.659 187.582C620.68 184.397 623.94 183.892 626.137 185.21C626.632 185.507 628.471 188.734 626.367 189.361C626.435 185.503 623.211 184.024 621.659 187.582ZM257.866 185.48C258.893 183.356 261.947 184.866 263.592 185.187C262.583 186.933 259.326 186.143 257.866 185.48ZM677.547 185.577C676.429 185.341 675.692 188.114 675.885 188.343C676.749 189.396 678.828 187.147 677.547 185.577ZM247.851 185.175C247.693 183.907 251.845 182.671 252.114 185.808C251.259 185.583 247.947 185.971 247.851 185.175ZM309.874 185.723C309.226 185.077 312.638 183.927 313.7 184.567C313.606 185.918 310.311 186.143 309.874 185.723ZM659.682 186.586C658.675 186.349 656.188 186.282 655.918 187.402C655.577 188.803 659.225 188.316 659.682 186.586ZM844.144 182.233C844.278 182.734 840.505 186.423 838.787 185.534C835.525 183.833 844.001 181.881 844.144 182.233ZM688.044 184.093C691.203 186.709 687.701 184.178 687.851 186.951C689.975 187.039 695.171 187.143 691.571 184.438C690.863 183.915 689.053 184.267 688.044 184.093ZM685.135 183.182C684.803 184.082 682.563 186.926 684.512 186.713C685.414 186.61 686.856 183.455 685.135 183.182ZM820.413 183.849C817.574 181.438 830.436 182.555 830.808 182.978C831.007 183.202 831.138 183.414 831.213 183.594C831.672 182.809 834.095 182.629 834.409 184.593C833.678 184.442 831.695 184.647 831.462 184.433C831.361 184.341 831.285 184.256 831.233 184.168C830.407 185.891 820.957 184.307 820.413 183.849ZM799.108 181.634C802.263 177.967 802.922 184.117 802.647 184.319C799.186 186.889 801.403 182.315 801.292 182.104C801.043 181.754 798.592 183.895 799.118 181.634C799.115 181.634 799.111 181.634 799.108 181.634ZM816.042 182.902C816.172 182.82 818.861 182.97 818.974 183.066C821.207 185.102 813.597 184.687 816.042 182.902ZM288.658 180.608C290.531 181.237 288.666 183.486 287.431 182.661C287.33 182.58 287.008 180.053 288.658 180.608ZM683.597 183.8C683.171 183.376 671.677 181.816 672.4 185.234C673.352 184.828 686.395 186.524 683.597 183.8ZM597.642 182.975C599.739 183.017 597.421 186.227 596.33 185.015C595.924 184.565 597.115 182.966 597.642 182.975ZM242.305 182.273C240.279 184.058 240.662 178.107 242.444 180.136C242.514 180.215 242.385 182.203 242.305 182.273ZM613.958 184.922C606.864 186.847 608.703 176.628 617.732 180.113C617.443 180.568 617.155 181.023 616.867 181.477C627.426 183.041 617.584 182.203 615.008 182.765C614.036 182.979 614.844 184.69 613.965 184.934C613.962 184.93 613.96 184.926 613.958 184.922ZM586.825 182.678C579.995 175.336 593.148 180.219 596.796 179.294C593.138 182.264 588.507 181.765 594.822 184.893C585.418 185.4 589.351 182.541 588.981 182.298C588.537 182.024 587.105 182.993 586.825 182.678ZM604.821 182.779C605.266 182.57 608.116 184.064 609.2 183.827C607.719 186.302 602.185 184.204 604.821 182.779ZM776.832 183.612C777.05 181.666 777.629 180.227 779.944 180.924C779.244 181.91 777.782 182.768 776.832 183.612ZM79.5256 182.734C77.883 182.581 74.7364 181.82 75.6866 183.872C75.7781 184.048 79.4991 183.881 79.5256 182.734ZM650.315 182.348C649.944 182.111 641.267 181.961 644.271 184.103C645.141 184.75 653.139 184.461 650.315 182.348ZM695.544 182.399C694.808 182.384 691.849 182.768 691.791 183.228C691.598 184.819 695.23 183.923 695.544 182.399ZM71.4448 180.67C71.2639 180.468 66.3325 180.773 66.8755 181.722C67.8634 183.517 72.1695 181.373 71.4448 180.67ZM295.85 176.113C296.261 176.044 296.796 178.158 296.94 178.183C297.297 178.218 304.872 177.437 301.968 180.136C301.606 180.526 293.426 179.776 290.223 179.362C289.713 179.294 289.334 179.236 289.141 179.196C288.954 178.1 289.466 177.817 290.237 177.873C291.552 177.967 293.654 178.982 294.387 178.801C294.591 178.746 294.755 176.322 295.846 176.125C295.848 176.121 295.849 176.117 295.85 176.113ZM788.786 181.408C789.096 179.561 797.77 178.223 797.701 180.457C794.731 180.775 791.768 181.092 788.786 181.408ZM784.365 181.161C782.496 179.881 786.828 179.394 788.12 179.952C788.149 181.191 784.636 181.348 784.365 181.161ZM678.992 175.608C678.117 176.063 680.826 178.739 680.224 179.264C679.858 179.592 677.865 178.594 677.244 179.438C677.065 179.706 679.094 182.224 679.674 182.112C680.485 181.962 679.687 179.977 680.574 179.958C683.52 179.901 686.168 181.305 688.984 181.255C689.235 181.247 687.269 179.854 689.417 179.861C689.746 179.86 691.73 181.94 694.298 181.614C699.975 175.098 704.122 181.432 711.301 179.04C711.034 178.432 705.644 176.836 705.319 176.778C699.319 175.757 688.557 175.708 682.242 175.726C680.636 175.729 681.423 177.096 680.732 177.15C680.184 177.19 680.834 174.647 678.992 175.608ZM80.3808 181.337C79.6671 178.795 76.9058 180.377 75.2378 180.23C75.7951 182.524 78.7172 180.761 80.3808 181.337ZM745.273 179.649C744.424 179.756 741.792 179.019 741.584 179.784C741.313 180.785 745.109 181.375 745.273 179.649ZM338.114 176.848C338.205 176.779 340.228 176.908 340.309 176.987C342.137 179.017 336.019 178.62 338.114 176.848ZM386.719 177.125C388.249 176.805 389.796 176.006 390.319 178.062C389.341 177.751 386.545 178.559 386.719 177.125ZM452.811 177.014C452.541 174.317 456.985 176.093 457.835 176.343C457.487 177.537 453.057 178.956 452.811 177.014ZM776.391 175.157C779.24 175.281 778.588 171.207 780.422 173.031C780.722 173.34 781.784 181.828 778.609 178.682C778.039 178.117 780.216 176.07 776.391 175.157ZM619.234 180.203C620.017 178.422 622.215 178.957 623.767 179.102C623.403 180.426 620.371 180.079 619.234 180.203ZM62.6547 178.537C61.3655 176.006 55.1405 177.798 56.6518 179.479C56.8535 179.699 61.821 178.433 62.6547 178.537ZM264.876 177.351C267.36 175.372 262.219 174.751 260.626 176.689C261.348 176.562 264.706 177.481 264.876 177.351ZM437.112 175.489C437.236 175.408 439.866 175.605 439.978 175.703C442.128 177.776 434.686 177.232 437.112 175.489ZM370.772 173.927C371.727 172.291 378.07 173.577 379.494 175.204C378.143 177.595 369.585 175.969 370.772 173.927ZM764.701 176.458C766.728 176.35 768.664 176.829 770.546 177.512C770.165 178.89 764.924 177.481 764.701 176.458ZM446.725 175.346C446.864 175.358 446.995 175.514 447.133 175.531C446.989 175.472 446.858 175.405 446.725 175.346ZM719.27 175.949C717.578 175.42 717.936 177.934 718.047 178.01C719.336 178.814 721.188 176.545 719.27 175.949ZM78.4377 177.585C77.8333 175.309 74.9998 177.046 73.2924 176.489C73.7822 178.287 77.0745 177.812 78.4377 177.585ZM579.526 177.933C578.799 177.088 579.336 176.216 580.456 175.494C582.529 174.086 587.011 173.245 588.152 174.305C588.307 175.55 582.575 177.413 580.422 177.863C579.915 177.965 579.584 177.996 579.526 177.933ZM257.226 173.944C257.052 172.165 253.504 174.318 254.261 175.158C254.736 175.691 257.325 175.05 257.226 173.944ZM592.638 175.388C593.45 174.853 595.359 176.625 594.673 177.689C593.788 179.053 592.426 175.541 592.638 175.388ZM666.464 174.075C666.096 173.805 661.317 175.648 663.3 177.456C664.676 178.712 664.888 176.139 665.212 176.131C665.561 176.138 673.361 179.256 666.464 174.075ZM530.31 175.447C532.177 174.81 534.386 175.658 536.293 175.654C535.512 176.737 531.056 176.928 530.31 175.447ZM270.901 173.482C270.484 172.757 258.811 172.309 265.45 174.532C265.858 174.656 272.181 175.665 270.901 173.482ZM776.391 175.157C776.033 175.142 775.618 175.062 775.136 174.892C775.613 174.956 776.029 175.071 776.391 175.157ZM744.081 175.254C744.722 173.953 741.422 173.64 740.462 174.339C740.177 175.924 743.991 175.437 744.081 175.254ZM536.481 173.851C537.622 173.136 539.589 173.973 540.985 173.917C540.708 175.116 536.942 175.086 536.481 173.851ZM461.183 170.82C463.252 171.556 465.808 171.26 465.851 169.788C465.89 170.019 465.985 170.264 466.144 170.512C466.281 170.757 468.559 170.103 469.476 170.621C475.233 173.666 447.168 172.121 463.522 168.135C462.742 169.03 461.936 169.924 461.183 170.82ZM362.175 170.5C360.933 168.713 357.509 170.975 358.404 171.677C359.024 172.158 363.414 172.299 362.175 170.5ZM409.198 169.24C408.834 168.921 405.5 170.187 405.423 171.132C407.332 172.12 410.862 170.722 409.198 169.24ZM352.72 168.442C351.948 168.175 350.98 171.07 351.071 171.196C351.855 172.248 354.021 170.047 352.72 168.442ZM770.418 167.441C769.252 166.628 765.606 168.763 764.832 170.682C764.679 170.314 764.273 169.838 763.534 169.268C763.536 169.268 763.539 169.268 763.541 169.268C762.561 168.514 732.906 167.985 752.821 171.451C753.444 171.562 752.575 169.858 755.109 170.132C755.277 170.153 755.375 171.551 755.893 171.613C757.092 171.748 763.43 172.557 764.686 171.416C764.7 171.675 764.785 171.921 764.963 172.145C766.544 174.145 771.321 168.069 770.418 167.441ZM415.788 168.968C415.121 168.45 412.997 168.948 412.778 170.183C413.84 170.785 417.341 170.174 415.788 168.968ZM270.555 168.415C269.208 167.395 265.826 169.287 266.846 170.298C267.462 170.919 272.1 169.585 270.555 168.415ZM394.541 169.694C402.394 171.123 396.415 169.569 397.61 167.753C396.589 168.4 395.566 169.047 394.541 169.694ZM807.091 171.632C805.825 171.233 807.254 167.639 808.671 169.558C809.116 170.167 807.799 171.848 807.091 171.632ZM864.055 169.587C862.92 166.44 868.214 168.204 866.204 170.415C866.11 170.49 864.134 169.707 864.055 169.587ZM824.22 168.969C823.396 171.139 822.841 171.404 820.419 170.908C823.983 170.245 820.638 168.389 824.22 168.969ZM465.832 169.556C465.844 169.643 465.854 169.707 465.851 169.788C465.837 169.708 465.832 169.633 465.832 169.556ZM345.289 169.034C344.308 167.211 341.501 167.355 342.343 169.192C342.421 169.362 344.9 170.386 345.289 169.034ZM764.832 170.682C764.967 171.008 764.903 171.22 764.686 171.416C764.673 171.172 764.727 170.941 764.832 170.682ZM360.167 167.482C360.074 168.845 364.297 169.356 364.46 169.195C366.862 166.82 361.915 167.392 360.167 167.482ZM243.341 166.531C243.132 166.675 244.518 170.187 245.342 168.804C245.979 167.731 244.145 165.985 243.341 166.531ZM832.396 167.96C833.734 167.941 835.62 167.908 835.995 169.574C835.093 169.332 832.387 169.187 832.396 167.96ZM861.954 167.33C860.41 169.324 856.795 169.384 854.482 169.1C854.394 166.515 860.483 167.966 861.954 167.33ZM774.049 168.362C773.937 168.258 770.584 167.527 771.062 169.253C771.758 171.784 775.005 169.292 774.049 168.362ZM249.693 168.371C251.162 167.173 247.755 163.52 246.233 166.358C245.447 167.811 249.439 168.571 249.693 168.371ZM336.596 166.672C334.606 167.68 339.556 169.45 340.219 167.637C339.313 167.495 337.306 166.315 336.596 166.672ZM403.678 164.558C397.47 159.357 400.875 168.872 401.971 168.03C402.126 167.91 403.829 164.68 403.678 164.558ZM47.2872 167.91C46.3863 168.624 49.6799 171.295 50.0945 169.569C50.384 168.49 47.846 167.455 47.2872 167.91ZM495.367 168.65C495.112 168.661 494.859 168.672 494.606 168.682C494.797 168.601 495.046 168.579 495.367 168.65ZM318.52 159.713C322.998 167.082 322.47 161.399 322.866 161.43C323.686 161.508 325.638 163.499 327.197 163.168C325.411 164.002 323.598 164.835 321.827 165.667C323.227 166.201 335.536 168.886 335.768 167.688C336.124 165.984 332.294 166.529 332.175 166.38C332.011 166.166 331.391 161.434 331.032 161.255C330.424 160.971 320.223 160.891 318.52 159.713ZM390.747 165.425C391.745 165.983 392.035 167.858 392.495 167.407C392.652 167.253 392.67 165.465 393.205 165C392.387 165.141 391.567 165.283 390.747 165.425ZM310.587 166.339C309.335 164.152 314.948 164.987 315.152 165.231C316.123 166.713 311.584 168.126 310.587 166.339ZM358.058 165.904C357.863 165.778 353.574 165.114 353.616 166.327C354.756 167.246 360.463 167.49 358.058 165.904ZM393.868 164.875C395.363 165.077 398.189 166.868 397.855 164.176C397.853 164.176 397.85 164.176 397.848 164.176C396.524 164.409 395.195 164.642 393.868 164.875ZM254.68 162.669C251.957 158.385 253.25 163.802 255.661 165.182C256.389 163.255 255.126 163.366 254.68 162.669ZM245.961 159.499C245.232 158.728 237.378 159.621 238.601 161.885C239.019 162.69 243.511 160.623 243.729 160.779C244.04 161.01 242.638 163.529 245.006 163.019C244.862 162.169 246.22 159.755 245.961 159.499ZM252.429 159.927C249.735 156.672 249.11 162.692 251.17 162.702C251.956 162.71 252.814 160.397 252.429 159.927ZM263.473 160.43C262.492 159.858 259.92 159.025 258.133 161.028C260.521 161.197 262.89 161.368 265.301 161.543C265.58 160.409 264.325 160.932 263.466 160.43C263.468 160.43 263.47 160.43 263.473 160.43ZM878.301 151.603C876.07 149.939 881.12 149.187 881.343 149.602C882.006 150.981 879.298 152.346 878.301 151.603ZM30.9555 113.064C30.3584 112.38 29.9478 110.138 28.6371 111.304C29.9432 112.963 31.2841 114.624 32.5958 116.287C33.6755 112.511 31.5809 113.818 30.9555 113.064ZM25.8975 99.2097C26.0923 99.1189 25.0465 93.2942 27.508 97.1875C29.1345 99.8104 20.163 102.356 18.4812 99.8249C20.2703 98.5932 24.2346 99.9513 25.8975 99.2097ZM8.01978 74.4599C7.96269 73.9782 12.2986 73.0485 12.7341 73.377C15.248 75.0036 9.16018 76.8253 8.01978 74.4599ZM20.8283 75.138C19.0782 74.0213 22.904 73.2624 23.9915 73.9156C24.1259 74.9971 21.0677 75.2983 20.8283 75.138ZM854.538 67.7246C852.73 63.8001 851.325 72.3424 853.97 70.5795C854.096 70.4965 854.616 67.917 854.538 67.7246ZM12.094 68.3446C14.0943 69.3967 9.79393 70.2883 8.16313 69.7729C7.9937 68.686 11.8044 68.1779 12.094 68.3446ZM853.147 58.3236C850.79 55.5181 851.771 65.0565 852.066 65.4364C853.281 66.9359 857.29 63.1137 858.104 62.1665C852.032 63.7095 854.258 59.6455 853.147 58.3236ZM842.605 64.2448C840.479 65.3003 845.99 67.1564 846.987 64.475C845.926 64.6209 843.208 63.94 842.605 64.2448ZM829.56 61.3959C828.403 61.0724 824.97 60.3075 824.421 61.8195C825.671 61.5277 829.098 62.9505 829.56 61.3959ZM826.883 56.9336C825.055 54.9196 824.718 60.8774 826.761 59.0721C826.841 59.0022 826.951 57.0461 826.883 56.9336ZM816.738 54.9427C815.523 52.5941 814.266 58.3776 816.178 58.504C816.746 58.5309 816.867 55.2121 816.738 54.9427ZM850.08 48.0973C848.375 47.1106 846.272 51.2755 849.884 51.6659C848.628 52.3187 847.374 52.9713 846.119 53.6237C850.879 55.8554 850.434 50.1375 851.794 50.3504C853.694 50.6532 853.629 55.3786 853.274 56.8685C854.779 53.9477 861.379 53.7827 865.184 53.1605C861.808 52.0087 856.331 50.0021 853.007 49.2911C852.059 49.0851 851.165 50.3965 850.357 50.2657C849.062 50.0491 850.176 48.1641 850.087 48.0972C850.085 48.0973 850.082 48.0973 850.08 48.0973ZM803.45 55.0537C799.954 52.4221 802.222 58.1792 804.163 57.1189C804.246 57.0383 803.537 55.1179 803.45 55.0537ZM3.85364 51.2745C8.43464 52.0716 8.61077 53.5364 10.0654 53.9428C11.4363 54.3761 13.7165 53.8347 19.248 51.3349C14.5535 54.8484 19.0458 53.815 18.1364 55.219C17.3996 56.3262 14.5642 55.4761 16.2636 57.6563C15.1135 56.476 12.2735 56.0913 8.8887 56.1034C5.70525 56.0678 0.91105 56.7215 0.295037 56.647C0.30346 56.6457 0.311879 56.6444 0.320292 56.6432C-0.377693 56.5229 0.682546 50.8196 3.85364 51.2745ZM829.3 46.2608C828.032 39.2564 827.756 50.4107 825.394 44.6261C822.504 53.1268 833.746 44.494 835.247 51.6092C822.859 50.9822 843.532 58.5489 834.726 48.0039C841.893 51.7651 837.032 46.6418 838.105 45.2619C839.253 43.792 843.301 45.3003 843.053 42.6878C843.05 42.6879 843.048 42.6879 843.046 42.688C840.589 42.9129 838.134 43.1372 835.682 43.3609C838.18 48.9639 833.128 47.3551 831.346 42.7848C830.664 43.9435 829.982 45.1022 829.3 46.2608ZM843.31 51.3276C843.064 51.2028 837.727 52.0837 838.092 53.2103C838.816 53.9213 846.4 52.926 843.31 51.3276ZM866.833 49.6745C864.912 49.6967 861.922 48.6506 860.914 50.7972C862.836 50.7765 865.827 51.8229 866.833 49.6745ZM767.908 50.784C765.478 52.5595 773.025 52.986 770.82 50.9442C770.713 50.8482 768.032 50.701 767.908 50.784ZM823.754 47.4112C821.225 45.3039 822.513 52.1171 824.33 50.3078C824.435 50.2012 823.87 47.5072 823.754 47.4112ZM10.119 49.9935C10.5875 48.2525 19.089 49.2201 20.2375 49.2255C19.6664 50.7521 10.3083 51.8552 10.119 49.9935ZM870.095 43.3496C866.162 37.4041 861.109 44.4503 860.537 44.3086C859.969 44.1642 860.808 41.5173 860.677 41.4491C860.381 41.3072 854.366 41.6364 854.077 41.8244C853.871 41.9709 855.027 45.6484 853.804 46.8351C856.195 44.6926 867.221 45.8047 867.786 45.3833C868.222 45.0478 864.814 41.2285 870.088 43.3497C870.091 43.3497 870.093 43.3496 870.095 43.3496ZM859.102 43.5289C860.634 45.0513 856.421 45.3217 855.389 44.7679C853.097 43.5288 858.907 43.3491 859.102 43.5289ZM848.933 42.2813C848.446 41.9423 844.095 41.7015 843.753 43.4329C845.854 45.6359 850.038 43.0722 848.933 42.2813ZM800.567 43.2767C799.436 43.5139 796.31 42.2314 796.154 43.7414C797.28 43.5059 800.409 44.787 800.567 43.2767ZM36.2037 36.6264C34.2748 35.3456 38.7713 34.8746 40.0675 35.4956C40.1103 36.5014 36.396 36.7359 36.2037 36.6264ZM823.105 33.0025C822.42 32.5562 808.819 33.9071 806.91 34.6394C808.804 35.7538 822.305 35.6364 822.918 35.0688C823.095 34.8993 823.192 33.0733 823.105 33.0025ZM852.562 31.8152C853.772 29.5731 854.635 32.221 854.793 32.2517C856.346 32.5639 859.539 32.0053 858.876 34.1561C856.135 33.3433 850.151 36.2677 852.562 31.8152ZM799.453 33.2447C794.827 34.1338 803.771 36.3472 802.563 34.0429C802.489 33.9037 799.932 33.1514 799.453 33.2447ZM824.616 32.3317C825.602 30.5233 839.264 31.8482 841.45 31.8122C839.546 35.154 837.923 32.6674 835.296 32.8796C834.588 32.9407 834.8 34.3141 834.724 34.3175C833.493 34.4015 834.389 32.7966 833.629 32.7849C833.145 32.7828 823.219 34.8824 824.616 32.3317ZM853.248 30.2646C853.989 28.9791 862.486 28.2826 862.834 28.6139C865.441 31.0826 853.919 30.6971 853.248 30.2646ZM823.321 29.4097C824.722 25.5417 831.528 28.0086 826.929 29.9997C826.489 30.1812 824.592 28.5439 823.321 29.4097ZM799.897 29.5758C799.665 29.4661 794.828 28.7648 794.76 29.9893C795.459 30.4556 802.511 30.783 799.897 29.5758ZM802.34 25.4023C802.224 25.4333 803.388 27.7738 801.125 27.5073C800.936 27.4818 800.544 24.8358 797.711 25.8462C797.137 26.0542 796.267 27.8206 796.333 27.9287C799.362 32.049 808.15 23.9515 802.34 25.4023ZM853.366 28.1137C852.887 27.0027 853.934 23.6617 854.961 25.3259C855.402 26.0446 854.64 28.0522 853.366 28.1137ZM784.581 28.7099C787.349 26.659 778.576 26.3922 778.115 26.913C778.427 28.1644 784.299 28.9106 784.581 28.7099ZM40.9105 21.1238C40.9082 21.1238 40.906 21.1237 40.9038 21.1237C43.2803 21.6079 41.7861 23.2667 41.8956 23.3205C47.0108 25.8437 45.6545 22.0319 46.4719 21.5938C48.2292 20.6468 47.8323 25.2584 50.7499 23.3813C45.9732 26.1474 50.2911 25.0171 50.414 26.6611C50.8355 33.3691 44.195 23.4435 41.7233 24.8202C41.3845 25.0106 43.8236 27.1788 42.9601 27.777C40.2099 29.714 31.5454 19.2771 40.9105 21.1238ZM855.726 25.0192C856.784 23.0319 865.112 24.789 862.944 26.4508C862.595 26.7179 854.17 27.9174 855.726 25.0192ZM468.54 21.5992C470.681 19.9243 465.851 17.8562 464.92 19.1736C464.469 19.8287 467.637 22.3339 468.54 21.5992ZM435.027 14.1033C432.615 14.4465 430.039 21.5505 433.064 20.4495C433.385 20.3291 435.303 15.0891 435.027 14.1033ZM592.066 20.4867C589.665 17.9232 589.767 22.6416 591.542 22.5934C592.174 22.577 592.143 20.5678 592.066 20.4867ZM498.262 19.1355C498.013 18.9647 495.055 19.1994 495.147 20.2861C496.178 20.9591 499.892 20.3037 498.262 19.1355ZM592.852 19.8229C591.377 20.6587 593.897 24.096 595.62 20.7762C594.742 21.0422 593.018 19.7378 592.852 19.8229ZM818.041 19.0652C816.84 21.021 813.367 20.4883 811.373 20.8509C811.127 18.3449 816.619 19.5424 818.041 19.0652ZM445.351 16.9837C443.043 18.7441 447.964 20.2104 447.516 17.8713C447.456 17.7439 445.444 16.9085 445.351 16.9837ZM671.176 19.6673C669.566 21.1712 674.709 23.1622 673.284 20.5371C673.212 20.4302 671.263 19.5837 671.176 19.6673ZM693.724 20.4141C692.474 19.9174 687.25 20.104 689.292 21.5523C689.605 21.7751 693.635 21.786 693.724 20.4141ZM46.6366 19.789C46.0065 17.2028 49.885 17.8653 50.4488 18.3231C50.644 18.513 47.5223 23.1543 46.6366 19.789ZM576.343 19.8802C575.026 20.1832 571.831 19.5207 571.181 20.8628C572.797 20.6088 576.688 22.5799 576.343 19.8802ZM455.927 17.0279C453.894 14.2112 450.459 14.469 451.289 18.1338C455.076 17.911 450.806 14.839 455.927 17.0279ZM600.954 16.875C599.983 16.6545 599.148 20.1632 599.267 20.3297C600.388 21.9138 601.919 18.2494 600.954 16.875ZM525.153 18.4287C525.138 16.9258 521.832 17.5181 522.245 18.4965C522.378 18.8249 525.172 19.6454 525.153 18.4287ZM774.941 18.8098C773.415 17.4577 778.005 16.0599 779.395 17.6427C780.088 19.9406 775.131 18.9652 774.941 18.8098ZM629.068 17.8616C629.257 15.633 624.09 16.8855 626.118 18.7365C626.63 19.1998 629.028 18.607 629.068 17.8616ZM678.057 15.0824C674.643 17.7589 689.064 19.5702 685.259 16.2775C684.967 16.0436 678.37 14.8568 678.057 15.0824ZM701.654 16.601C701.06 16.3122 701.298 8.81968 703.781 11.6905C704.107 12.0628 702.609 14.0538 702.877 14.5048C703.025 14.7621 708.423 15.7744 708.644 15.5975C708.906 15.397 708.578 12.9985 708.843 12.7272C709.14 12.424 712.436 14.5076 714.17 14.5166C717.439 14.5296 717.765 12.5281 718.03 12.5194C718.801 12.4997 720.11 13.9076 721.683 13.8922C729.651 13.8086 741.706 11.9966 748.084 16.165C742.432 14.5234 737.161 16.3813 731.57 16.9893C733.151 12.8035 723.444 20.2782 729.115 15.4129C726.455 16.4867 703.647 17.5069 701.661 16.6009C701.658 16.6009 701.656 16.601 701.654 16.601ZM425.471 12.002C426.942 9.44267 419.355 10.0256 418.698 12.9867C419.724 13.395 425.262 12.2914 425.471 12.002ZM461.056 5.88776C461.808 5.45403 462.465 0.457581 466.36 3.03886C466.363 3.0389 466.367 3.03894 466.37 3.03899C467.489 3.79314 466.19 4.99551 466.391 5.43208C466.472 5.60976 469.917 8.1414 467.022 8.50416C462.555 9.06471 466.656 4.77963 464.26 4.69944C463.947 4.69068 459.508 7.35418 459.746 7.95124C459.773 8.02059 461.124 7.46036 461.342 7.70946C462.166 8.64553 461.745 10.2027 461.862 10.2782C462.214 10.4689 469.302 7.89148 470.382 10.2344C470.595 10.9777 459.096 12.5754 458.608 12.1899C458.324 11.9421 458.482 7.60982 458.196 7.18127C458.066 6.9669 453.42 8.55766 452.826 8.15679C452.656 8.04053 452.526 7.91556 452.431 7.81262C453.117 9.15689 448.978 9.03791 449.103 7.52639C449.184 6.93187 452.041 7.29102 452.137 7.39585C452.181 7.4401 452.219 7.50098 452.255 7.54303C451.636 5.90163 461.408 6.04817 459.329 3.6016C462.211 2.29504 458.896 7.16467 461.056 5.88776ZM474.9 3.39661C474.602 3.84734 474.303 4.29807 474.003 4.74879C478.868 3.71527 484.446 6.01125 490.083 6.11152C491.53 6.14079 489.932 3.3195 491.797 4.12044C493.256 4.7617 494.896 7.38364 494.055 7.94184C493.822 8.08038 490.855 6.33253 489.298 6.4739C484.801 6.89474 485.861 9.30794 485.606 9.36714C485.35 9.4299 482.486 7.6936 480.983 7.7411C478.095 7.83132 476.426 8.64204 473.526 8.24527C472.501 8.10557 471.324 7.81705 469.873 7.29694C472.602 6.00908 471.818 3.35741 473.611 3.19938C473.943 3.17005 474.361 3.22745 474.9 3.39661ZM650.636 11.0883C650.827 9.58361 653.9 10.912 655.011 10.6881C654.831 12.1969 651.793 10.8652 650.636 11.0883ZM184.222 7.19389C183.289 9.68174 190.657 10.143 188.677 8.12818C188.269 7.67995 185.132 7.192 184.222 7.19389ZM217.269 8.13667C218.242 7.44154 214.266 5.71481 214.305 7.62572C214.316 8.23811 217.14 8.2268 217.269 8.13667ZM537.086 7.29517C537.256 7.22224 539.838 7.83429 539.9 7.96115C541.541 10.6235 533.137 8.90372 537.086 7.29517ZM257.534 4.82143C254.092 6.4417 264.441 7.13824 261.28 5.07618C261.119 4.97523 257.717 4.74218 257.534 4.82143ZM271.935 4.38644C271.102 4.46983 267.451 3.65741 267.406 4.41113C267.327 5.6258 271.504 6.46681 271.935 4.38644ZM601.689 7.55343C601.306 4.76948 605.93 6.90629 607.509 6.56363C607.913 9.34997 603.239 7.2137 601.689 7.55343ZM572.911 5.16479C577.434 4.72227 580.684 4.70064 582.858 4.89784C586.866 5.28564 586.464 6.55525 582.828 7.02495C580.322 7.31882 576.548 7.28989 571.711 6.50114C571.714 4.71635 571.664 5.28339 572.911 5.16479ZM597.517 5.8008C596.782 7.57708 594.68 7.03068 593.178 6.87332C593.509 5.63776 596.423 6.11261 597.517 5.8008ZM175.433 3.56532C176.613 1.28548 182.33 3.93588 181.35 4.8864C181.089 5.09161 174.995 4.81288 175.433 3.56532ZM538.765 4.95466C538.391 2.24055 544.113 3.47777 544.557 4.08734C546.288 6.54405 539.232 4.37048 538.765 4.95466ZM629.27 5.27586C630.289 3.15805 633.218 4.25021 635.143 4.2785C634.262 6.0905 630.845 5.31596 629.27 5.27586ZM615.651 3.58459C615.763 3.50382 618.389 3.70375 618.513 3.80151C620.66 5.87826 613.234 5.32367 615.651 3.58459ZM37.7496 0.737961C37.8389 0.670403 39.9173 0.828011 39.9964 0.90873C41.8467 2.96334 35.5563 2.47997 37.7496 0.737961Z" fill="#F9AB00" fill-opacity="0.53"/>
<path d="M141.727 133.56L78.6072 72.48V119.88C78.6072 125.4 78.9672 127.8 79.6872 129H67.4472C68.6472 128.16 68.6472 117.84 68.6472 115.2V45.72L131.647 106.68V64.8C131.647 59.88 131.647 51 130.567 49.56H143.047C141.727 51.36 141.727 63 141.727 65.4V133.56ZM185.083 130.92C166.363 130.92 155.563 116.28 155.563 101.28C155.563 86.52 166.123 71.76 184.963 71.76C201.523 71.76 214.723 83.28 214.723 101.16C214.723 118.68 202.123 130.92 185.083 130.92ZM185.683 122.16C199.123 122.16 203.083 111.12 203.083 101.76C203.083 90.12 196.963 80.64 184.483 80.64C172.603 80.64 166.963 89.4 166.963 100.92C166.963 113.28 173.563 122.16 185.683 122.16ZM255.329 119.28V128.88C252.209 130.2 248.969 130.8 245.129 130.8C231.929 130.8 229.649 123.72 229.649 112.32C229.649 109.68 229.769 100.44 229.769 97.68V82.68H227.729C226.289 82.68 224.729 82.8 224.009 83.28V73.08C224.489 73.68 227.489 73.68 229.769 73.68V66.6C229.769 64.2 229.649 62.4 229.649 62.4L241.289 58.8C240.689 59.52 240.569 64.44 240.569 68.16V73.68H245.729C249.689 73.68 253.169 73.56 253.889 72.96V83.28C252.809 82.68 249.449 82.68 245.849 82.68H240.569V109.56C240.569 119.88 240.809 122.64 248.729 122.64C249.209 122.64 254.129 122.04 255.329 119.28ZM314.967 121.08L314.847 127.8C311.847 129.12 308.967 129.84 306.447 129.84C302.607 129.84 299.727 128.16 298.407 124.56C293.727 129.6 288.087 130.92 282.447 130.92C268.647 130.92 263.007 123 263.007 114.48C263.007 106.44 267.927 99.6 279.807 96.6C289.527 94.2 297.447 95.4 297.447 91.44V89.04C297.447 82.08 292.407 80.64 286.767 80.64C279.567 80.64 273.207 82.92 268.647 89.76L268.167 77.76C274.167 73.32 280.767 71.76 287.247 71.76C301.167 71.76 308.727 79.08 308.727 89.04C308.727 97.92 308.127 107.28 308.127 116.28C308.127 117.48 308.127 122.4 310.407 122.4C311.487 122.4 312.567 122.16 314.967 121.08ZM296.847 115.08L297.207 101.28C291.567 104.52 275.247 102.48 275.247 114.12C275.247 119.64 278.967 122.4 284.007 122.4C289.287 122.4 294.087 119.28 296.847 115.08ZM335.984 129H326.144C327.344 127.8 327.344 116.88 327.344 110.04V63.24C327.344 54.48 327.344 42.96 326.144 41.4H339.224C338.144 43.32 338.144 54.12 338.144 63V75.84C342.824 73.2 347.864 71.76 353.984 71.76C372.464 71.76 380.864 85.08 380.864 100.32C380.864 115.8 372.224 130.8 352.784 130.8C345.824 130.8 340.424 128.88 337.424 125.28C337.184 126.36 336.584 128.16 335.984 129ZM338.144 87V105.24C338.144 114.6 338.504 122.04 351.224 122.04C364.544 122.04 369.104 113.88 369.104 102C369.104 88.32 362.984 81.48 352.184 81.48C346.784 81.48 341.984 83.16 338.144 87ZM406.607 129H393.647C394.607 127.08 394.727 118.8 394.727 110.4V54.72C394.727 50.76 394.487 42.36 393.647 41.4H406.607C405.647 42.72 405.527 51.6 405.527 55.8V105.96C405.527 121.08 405.767 127.2 406.607 129ZM468.795 116.28V127.8C463.155 130.2 456.795 130.92 451.755 130.92C428.475 130.92 419.235 115.44 419.235 100.2C419.235 80.52 434.715 71.76 448.755 71.76C472.155 71.76 474.315 93.84 474.315 101.88V103.92H430.155C430.155 106.2 434.235 122.16 452.955 122.16C460.155 122.16 466.515 119.76 468.795 116.28ZM430.395 94.8H463.155C462.195 85.08 455.235 80.76 447.195 80.76C439.275 80.76 432.315 84.96 430.395 94.8ZM551.357 129H536.357C537.557 127.8 537.557 119.16 537.557 114.84V59.16H524.717C520.157 59.16 513.437 59.16 511.757 60.36V49.56H575.957V60.12C574.517 59.4 565.877 59.16 562.517 59.16H550.157V114.36C550.157 118.92 550.517 127.92 551.357 129ZM626.217 121.08L626.097 127.8C623.097 129.12 620.217 129.84 617.697 129.84C613.857 129.84 610.977 128.16 609.657 124.56C604.977 129.6 599.337 130.92 593.697 130.92C579.897 130.92 574.257 123 574.257 114.48C574.257 106.44 579.177 99.6 591.057 96.6C600.777 94.2 608.697 95.4 608.697 91.44V89.04C608.697 82.08 603.657 80.64 598.017 80.64C590.817 80.64 584.457 82.92 579.897 89.76L579.417 77.76C585.417 73.32 592.017 71.76 598.497 71.76C612.417 71.76 619.977 79.08 619.977 89.04C619.977 97.92 619.377 107.28 619.377 116.28C619.377 117.48 619.377 122.4 621.657 122.4C622.737 122.4 623.817 122.16 626.217 121.08ZM608.097 115.08L608.457 101.28C602.817 104.52 586.497 102.48 586.497 114.12C586.497 119.64 590.217 122.4 595.257 122.4C600.537 122.4 605.337 119.28 608.097 115.08ZM647.234 129H637.394C638.594 127.8 638.594 116.88 638.594 110.04V63.24C638.594 54.48 638.594 42.96 637.394 41.4H650.474C649.394 43.32 649.394 54.12 649.394 63V75.84C654.074 73.2 659.114 71.76 665.234 71.76C683.714 71.76 692.114 85.08 692.114 100.32C692.114 115.8 683.474 130.8 664.034 130.8C657.074 130.8 651.674 128.88 648.674 125.28C648.434 126.36 647.834 128.16 647.234 129ZM649.394 87V105.24C649.394 114.6 649.754 122.04 662.474 122.04C675.794 122.04 680.354 113.88 680.354 102C680.354 88.32 674.234 81.48 663.434 81.48C658.034 81.48 653.234 83.16 649.394 87ZM717.857 129H704.897C705.857 127.08 705.977 118.8 705.977 110.4V54.72C705.977 50.76 705.737 42.36 704.897 41.4H717.857C716.897 42.72 716.777 51.6 716.777 55.8V105.96C716.777 121.08 717.017 127.2 717.857 129ZM780.045 116.28V127.8C774.405 130.2 768.045 130.92 763.005 130.92C739.725 130.92 730.485 115.44 730.485 100.2C730.485 80.52 745.965 71.76 760.005 71.76C783.405 71.76 785.565 93.84 785.565 101.88V103.92H741.405C741.405 106.2 745.485 122.16 764.205 122.16C771.405 122.16 777.765 119.76 780.045 116.28ZM741.645 94.8H774.405C773.445 85.08 766.485 80.76 758.445 80.76C750.525 80.76 743.565 84.96 741.645 94.8ZM825.915 119.28V128.88C822.795 130.2 819.555 130.8 815.715 130.8C802.515 130.8 800.235 123.72 800.235 112.32C800.235 109.68 800.355 100.44 800.355 97.68V82.68H798.315C796.875 82.68 795.315 82.8 794.595 83.28V73.08C795.075 73.68 798.075 73.68 800.355 73.68V66.6C800.355 64.2 800.235 62.4 800.235 62.4L811.875 58.8C811.275 59.52 811.155 64.44 811.155 68.16V73.68H816.315C820.275 73.68 823.755 73.56 824.475 72.96V83.28C823.395 82.68 820.035 82.68 816.435 82.68H811.155V109.56C811.155 119.88 811.395 122.64 819.315 122.64C819.795 122.64 824.715 122.04 825.915 119.28Z" fill="black"/>
</svg>
