<svg width="508" height="180" viewBox="0 0 508 180" fill="none" xmlns="http://www.w3.org/2000/svg">
<path d="M132.12 131.28C151.32 131.28 156.76 114.64 156.76 101.52C156.76 85.36 148.44 70.96 130.52 70.96C112.12 70.96 106.04 86.8 106.04 100.72C106.04 116.56 114.04 131.28 132.12 131.28ZM131.8 139.92C112.12 139.92 94.36 125.68 94.36 101.04C94.36 78 110.04 62.16 131.16 62.16C151.48 62.16 168.76 76.72 168.76 100.72C168.76 123.92 152.6 139.92 131.8 139.92ZM222.161 129.84V138.16C219.441 138.8 214.641 140.24 209.521 140.24C205.041 140.24 198.801 139.12 195.121 135.12C192.081 131.92 190.641 126.32 190.641 113.52V72.4C185.681 72.4 181.681 72.56 180.881 73.04V63.76C182.641 64.24 184.241 64.24 190.641 64.24V48.4L203.121 44.4C202.161 48.4 202.161 58.64 202.161 64.24C214.801 64.24 217.681 64.24 219.761 63.92V72.72C219.121 72.56 212.561 72.4 202.161 72.4V114.8C202.161 126.96 203.281 132.08 214.801 132.08C215.601 132.08 221.201 131.12 222.161 129.84ZM299.015 131.28V136.08C295.975 137.52 292.615 138.32 289.255 138.32C282.695 138.32 279.175 135.44 278.055 129.04C272.455 137.2 265.415 139.76 256.295 139.76C252.455 139.76 244.295 139.28 238.695 134.32C234.375 130.48 232.455 124.88 232.455 118.96C232.455 107.6 239.335 99.28 253.095 95.92C257.735 94.8 265.735 93.68 272.775 92.24C276.135 91.6 277.735 91.12 277.735 85.68C277.735 85.36 277.735 82.64 277.415 80.56C276.135 71.76 266.215 70.96 262.375 70.96C253.735 70.96 244.775 75.12 239.815 82.32L239.335 70.96C247.015 64.72 255.815 62 263.495 62C273.415 62 284.295 66.48 287.815 75.6C288.935 78.48 289.255 81.68 289.255 84.88C289.255 88.24 288.935 98 288.775 102.64C288.615 105.84 288.455 110.64 288.455 116.24C288.455 126 288.935 128.4 289.735 130C290.855 131.92 293.415 132.24 294.695 132.24C296.775 132.24 298.695 131.6 299.015 131.28ZM276.935 119.92C277.095 113.04 277.575 105.04 277.575 98.16C275.495 99.6 274.055 99.92 269.095 101.04C258.215 103.44 245.095 105.04 245.095 118C245.095 122.48 246.695 126 249.415 128.4C252.135 130.8 255.015 131.28 257.735 131.28C262.375 131.28 266.055 130 269.255 127.92C272.455 125.84 275.175 122.8 276.935 119.92ZM327.098 81.36V106.8C327.098 110.16 327.258 117.36 328.698 121.2C331.578 128.88 338.618 131.44 347.898 131.44C366.458 131.44 372.218 118.8 372.218 99.6C372.218 85.04 364.538 72.4 347.418 72.4C338.938 72.4 332.538 75.44 327.098 81.36ZM325.498 138H314.778C315.738 137.2 315.738 122.64 315.738 122.64V48.88C315.738 48.88 315.738 22.8 314.618 21.2H328.218C327.098 22.64 327.098 48.88 327.098 48.88V69.36C333.978 64.72 341.338 62.32 349.498 62.32C373.658 62.32 384.378 80.24 384.378 98.64C384.378 120.56 374.138 140.08 349.338 140.08C340.058 140.08 333.818 138.96 326.457 133.36C326.457 133.36 325.658 138 325.498 138ZM417.124 138H403.684C404.644 136.88 404.644 128.56 404.644 123.92V42.16C404.644 42.16 404.644 22.16 404.004 21.2H416.804C416.164 22.32 416.164 42.48 416.164 42.48L416.324 123.92C416.324 128.08 416.324 136.88 417.124 138ZM499.908 126.16V136.56C493.668 139.28 486.948 140.24 479.748 140.24C461.508 140.24 449.348 134.16 442.788 123.28C439.108 117.2 436.388 108.24 436.388 99.6C436.388 93.68 437.668 86 441.348 79.28C449.188 65.04 464.388 61.84 473.988 61.84C496.388 61.84 507.428 79.28 507.428 101.04V102.96H447.748C448.228 110.48 450.628 116.88 454.948 121.68C460.708 128.08 469.828 131.44 480.068 131.44C489.028 131.44 498.308 128.08 499.908 126.16ZM447.748 93.68H495.588C494.788 77.52 483.748 70.96 472.228 70.96C459.588 70.96 449.668 78.8 447.748 93.68Z" fill="white"/>
<g filter="url(#filter0_d_251_315)">
<path d="M81.5195 126.5C81.4089 127.709 80.9006 128.85 80.0674 129.721C79.1193 130.712 77.8283 131.272 76.4775 131.272C75.1268 131.272 73.8358 130.712 72.8877 129.721C72.0544 128.85 71.5452 127.709 71.4346 126.5H66.5107C66.6247 129.114 67.6312 131.586 69.3975 133.433C71.279 135.399 73.8267 136.5 76.4775 136.5C79.1283 136.5 81.6752 135.399 83.5566 133.433C85.3262 131.583 86.3696 129.109 86.4883 126.5H81.5195Z" fill="white" stroke="black"/>
<mask id="path-3-outside-1_251_315" maskUnits="userSpaceOnUse" x="81" y="28" width="6" height="99" fill="black">
<rect fill="white" x="81" y="28" width="6" height="99"/>
<path d="M86 29H82V127H86V29Z"/>
</mask>
<path d="M86 29H82V127H86V29Z" fill="white"/>
<path d="M86 29V28H87V29H86ZM82 29H81V28H82V29ZM86 29V30H82V29V28H86V29ZM82 29H83V127H82H81V29H82ZM86 127H85V29H86H87V127H86Z" fill="black" mask="url(#path-3-outside-1_251_315)"/>
<mask id="path-5-outside-2_251_315" maskUnits="userSpaceOnUse" x="66" y="28" width="6" height="99" fill="black">
<rect fill="white" x="66" y="28" width="6" height="99"/>
<path d="M71 29H67V127H71V29Z"/>
</mask>
<path d="M71 29H67V127H71V29Z" fill="white"/>
<path d="M71 29V28H72V29H71ZM67 29H66V28H67V29ZM71 29V30H67V29V28H71V29ZM67 29H68V127H67H66V29H67ZM71 127H70V29H71H72V127H71Z" fill="black" mask="url(#path-5-outside-2_251_315)"/>
<mask id="path-7-outside-3_251_315" maskUnits="userSpaceOnUse" x="19.1468" y="37.6077" width="54.234" height="95.4799" fill="black">
<rect fill="white" x="19.1468" y="37.6077" width="54.234" height="95.4799"/>
<path d="M24.4688 38.0695L20.8674 39.9443L68.5443 131.523L72.1457 129.648L24.4688 38.0695Z"/>
</mask>
<path d="M24.4688 38.0695L20.8674 39.9443L68.5443 131.523L72.1457 129.648L24.4688 38.0695Z" fill="white"/>
<path d="M20.8674 39.9443L21.7544 39.4826L69.4313 131.061L68.5443 131.523L67.6573 131.985L19.9804 40.4061L20.8674 39.9443ZM72.1457 129.648L71.2587 130.11L23.5818 38.5312L24.4688 38.0695L25.3557 37.6077L73.0327 129.186L72.1457 129.648Z" fill="black" mask="url(#path-7-outside-3_251_315)"/>
<path d="M10.4805 38.5C10.5911 37.2911 11.0994 36.1504 11.9326 35.2793C12.8807 34.2882 14.1717 33.7276 15.5225 33.7275C16.8732 33.7275 18.1642 34.2883 19.1123 35.2793C19.9456 36.1504 20.4548 37.2911 20.5654 38.5H25.4893C25.3753 35.886 24.3688 33.4138 22.6025 31.5674C20.721 29.6005 18.1733 28.5 15.5225 28.5C12.8717 28.5001 10.3248 29.6006 8.44336 31.5674C6.6738 33.4172 5.63036 35.8907 5.51172 38.5H10.4805Z" fill="white" stroke="black"/>
<mask id="path-10-outside-4_251_315" maskUnits="userSpaceOnUse" x="5" y="38" width="6" height="99" fill="black">
<rect fill="white" x="5" y="38" width="6" height="99"/>
<path d="M6 136H10L10 38H6L6 136Z"/>
</mask>
<path d="M6 136H10L10 38H6L6 136Z" fill="white"/>
<path d="M6 136V137H5V136H6ZM10 136H11V137H10V136ZM6 136V135H10V136V137H6V136ZM10 136H9L9 38H10H11L11 136H10ZM6 38H7L7 136H6H5L5 38H6Z" fill="black" mask="url(#path-10-outside-4_251_315)"/>
<mask id="path-12-outside-5_251_315" maskUnits="userSpaceOnUse" x="20" y="38" width="6" height="99" fill="black">
<rect fill="white" x="20" y="38" width="6" height="99"/>
<path d="M21 136H25L25 38H21L21 136Z"/>
</mask>
<path d="M21 136H25L25 38H21L21 136Z" fill="white"/>
<path d="M21 136V137H20V136H21ZM25 136H26V137H25V136ZM21 136V135H25V136V137H21V136ZM25 136H24L24 38H25H26L26 136H25ZM21 38H22L22 136H21H20L20 38H21Z" fill="black" mask="url(#path-12-outside-5_251_315)"/>
</g>
<defs>
<filter id="filter0_d_251_315" x="-1" y="27" width="93" height="119" filterUnits="userSpaceOnUse" color-interpolation-filters="sRGB">
<feFlood flood-opacity="0" result="BackgroundImageFix"/>
<feColorMatrix in="SourceAlpha" type="matrix" values="0 0 0 0 0 0 0 0 0 0 0 0 0 0 0 0 0 0 127 0" result="hardAlpha"/>
<feOffset dy="4"/>
<feGaussianBlur stdDeviation="2.5"/>
<feComposite in2="hardAlpha" operator="out"/>
<feColorMatrix type="matrix" values="0 0 0 0 0 0 0 0 0 0 0 0 0 0 0 0 0 0 0.5 0"/>
<feBlend mode="normal" in2="BackgroundImageFix" result="effect1_dropShadow_251_315"/>
<feBlend mode="normal" in="SourceGraphic" in2="effect1_dropShadow_251_315" result="shape"/>
</filter>
</defs>
</svg>
