<svg width="1157" height="950" viewBox="0 0 1157 950" fill="none" xmlns="http://www.w3.org/2000/svg">
<g filter="url(#filter0_n_374_197)">
<rect y="0.00195312" width="1157" height="950" fill="#DED6D6"/>
</g>
<path d="M954.356 392.477C952.874 393.112 951.974 395.229 951.074 400.151C950.228 404.809 949.857 405.497 948.057 405.921C947.211 406.132 944.987 407.032 943.029 407.932L939.483 409.573L934.878 406.556C927.838 402.004 928.209 401.898 918.417 411.69C908.572 421.535 908.625 421.429 913.23 428.31L916.088 432.597L914.235 437.043C913.23 439.425 912.171 441.913 911.959 442.495C911.589 443.395 910.53 443.766 906.296 444.559C898.356 446.094 898.674 445.459 898.674 459.697V471.448L900.156 472.877C901.32 473.988 902.591 474.465 906.719 475.259C911.43 476.158 911.853 476.317 912.171 477.588C912.383 478.382 913.336 480.763 914.341 482.933L916.141 486.903L913.23 491.296C908.836 497.86 908.942 498.23 916.035 505.429C921.328 510.827 921.487 511.039 918.258 508.551C901.691 495.742 901.638 495.742 898.886 495.107C895.339 494.313 891.846 494.843 889.253 496.642C886.765 498.336 834.259 555.871 832.935 558.305C831.612 560.74 831.718 565.716 833.094 568.627C834.047 570.585 836.746 572.861 850.878 583.87C860.035 590.963 868.292 597.209 869.192 597.685C870.992 598.638 876.761 598.955 879.09 598.214C880.254 597.844 880.572 598.056 881.895 600.226C882.742 601.549 884.383 603.401 885.547 604.407L887.665 606.26L887.135 608.8C885.759 615.311 889.623 621.662 896.239 623.726C899.097 624.573 899.468 624.891 900.05 626.638C900.421 627.696 901.373 629.39 902.167 630.449C903.702 632.407 908.36 635.424 909.948 635.424C910.477 635.424 910.848 635.847 910.848 636.377C910.848 636.906 911.43 638.547 912.171 640.029C914.394 644.422 918.628 647.068 923.657 647.068C926.409 647.121 926.462 647.121 928.262 649.768C932.178 655.484 939.218 657.284 945.358 654.002L948.269 652.52L952.345 656.119C957.373 660.618 959.278 661.518 964.042 661.571C968.912 661.624 972.934 659.772 975.793 656.172C976.851 654.796 977.91 653.526 978.069 653.261C978.28 653.049 979.445 653.208 980.662 653.685C988.072 656.278 995.906 652.52 998.446 645.11L999.135 643.099L1002.79 642.781C1008.82 642.305 1012.9 639.182 1014.85 633.571C1015.44 631.719 1015.6 631.613 1018.24 631.454C1027.45 630.819 1033.8 620.921 1030.73 612.082C1030.26 610.865 1030.1 609.647 1030.31 609.488C1030.57 609.277 1032.43 607.953 1034.44 606.524C1036.5 605.095 1040.1 602.025 1042.54 599.749L1046.93 595.568L1048.36 596.891C1049.15 597.632 1050.64 598.691 1051.64 599.22C1054.18 600.49 1059.74 600.49 1062.23 599.167C1064.29 598.108 1093.08 577.995 1096.53 575.243C1097.74 574.237 1099.22 572.491 1099.81 571.379C1101.08 568.891 1101.24 564.233 1100.12 561.693C1099.22 559.629 1052.12 502.2 1048.47 498.759C1045.13 495.637 1041.53 494.631 1037.24 495.637C1034.76 496.166 1025.81 502.094 1008.24 514.691C1007.23 515.432 1010.04 512.309 1014.48 507.81C1024.22 497.86 1024.17 498.124 1019.57 491.243L1016.65 486.797L1017.92 484.204C1018.67 482.775 1019.67 480.393 1020.15 478.911L1021.05 476.211L1026.13 475.259C1030.26 474.465 1031.53 473.988 1032.74 472.877L1034.17 471.448V459.697C1034.17 445.459 1034.49 446.094 1026.55 444.559C1022.32 443.766 1021.26 443.395 1020.89 442.495C1020.68 441.913 1019.62 439.425 1018.61 437.043L1016.76 432.597L1019.62 428.31C1024.17 421.535 1024.17 421.535 1015.28 412.484C1007.87 404.968 1006.12 403.592 1003.85 403.592C1003.16 403.592 1000.51 404.915 997.97 406.556L993.365 409.573L989.819 407.932C987.861 407.032 985.637 406.132 984.791 405.921C982.991 405.497 982.62 404.809 981.774 400.151C980.874 395.07 979.974 393.112 978.333 392.477C976.586 391.841 955.997 391.841 954.356 392.477ZM973.57 406.238C974.099 408.832 974.734 411.32 975.104 411.796C975.422 412.219 977.963 413.384 980.768 414.337C983.52 415.342 987.225 416.877 988.919 417.777C993.259 420.159 994.794 420 999.452 416.877L1003.32 414.231L1007.71 418.677L1012.05 423.07L1009.35 427.04C1007.87 429.316 1006.65 431.645 1006.65 432.439C1006.65 433.18 1007.55 435.614 1008.71 437.89C1009.83 440.113 1011.36 443.924 1012.16 446.359C1013.06 449.058 1014.01 450.911 1014.64 451.229C1015.17 451.546 1017.71 452.234 1020.31 452.711L1024.91 453.663L1025.07 459.803L1025.23 465.943L1022.16 466.578C1013.58 468.325 1013.64 468.272 1012 473.883C1011.36 475.947 1009.93 479.546 1008.77 481.769C1007.6 483.992 1006.65 486.48 1006.65 487.221C1006.65 488.068 1007.82 490.397 1009.35 492.778L1012.05 496.907L1007.92 501.035C1005.64 503.364 1003.58 505.217 1003.37 505.217C1003.16 505.217 1001.15 503.999 998.923 502.57C996.7 501.088 994.424 499.924 993.895 499.924C993.365 499.924 990.772 500.983 988.019 502.306C985.32 503.629 981.509 505.217 979.551 505.799C975.157 507.069 974.628 507.81 973.464 513.897L972.564 518.449H966.371H960.178L959.331 513.844C958.22 507.758 957.691 507.069 953.297 505.799C951.339 505.217 947.528 503.629 944.829 502.306C942.076 500.983 939.483 499.924 938.953 499.924C938.424 499.924 936.148 501.088 933.925 502.57C931.702 503.999 929.691 505.217 929.479 505.217C929.267 505.217 927.203 503.364 924.927 501.035L920.799 496.907L923.498 492.778C925.192 490.238 926.197 488.068 926.197 487.168C926.197 486.321 925.456 484.31 924.557 482.669C923.604 481.081 922.069 477.429 921.116 474.624C920.111 471.818 918.999 469.225 918.628 468.801C917.887 468.113 916.988 467.849 910.689 466.578L907.619 465.943L907.778 459.803L907.937 453.663L912.542 452.711C915.135 452.234 917.676 451.546 918.258 451.229C918.893 450.911 919.687 449.376 920.322 447.1C920.904 445.142 922.492 441.331 923.816 438.631C925.139 435.879 926.197 433.074 926.197 432.386C926.197 431.645 925.033 429.316 923.551 427.146C922.122 424.975 920.904 423.017 920.904 422.805C920.904 422.541 922.757 420.476 925.086 418.2L929.267 414.072L933.237 416.771C938.054 420 939.536 420.159 943.929 417.777C945.623 416.877 949.328 415.342 952.08 414.337C954.885 413.384 957.426 412.219 957.744 411.796C958.114 411.32 958.749 408.832 959.278 406.238L960.178 401.475H966.424H972.67L973.57 406.238ZM913.388 516.65C924.821 525.542 929.373 529.353 929.373 530.147C929.373 531.417 876.708 589.322 875.438 589.428C874.961 589.481 874.273 589.428 873.85 589.375C872.527 589.216 840.981 564.339 840.981 563.492C840.981 562.54 892.905 505.323 894.598 504.37C895.181 504.052 896.08 503.894 896.557 503.999C897.033 504.158 904.655 509.822 913.388 516.65ZM1043.01 506.381C1048.15 511.886 1091.87 565.821 1091.76 566.562C1091.66 567.039 1084.09 572.702 1074.93 579.16C1061.17 588.899 1057.99 590.91 1056.67 590.804C1055.24 590.698 1052.22 587.205 1030.1 560.317C1016.34 543.591 1005.06 529.617 1005.06 529.247C1005.06 528.4 1005.49 528.083 1023.59 515.326C1033.64 508.234 1039.15 504.688 1040.05 504.688C1040.84 504.688 1042.01 505.323 1043.01 506.381ZM947.899 513.739C949.063 514.109 950.016 514.427 950.016 514.48C950.016 514.585 950.492 516.967 951.074 519.825C952.715 527.818 951.974 527.447 966.424 527.447C980.874 527.447 980.133 527.818 981.774 519.825C982.356 516.967 982.832 514.585 982.832 514.48C982.832 514.427 983.785 514.109 984.949 513.739C986.061 513.421 988.496 512.468 990.348 511.621L993.683 510.139L997.917 513.103C1001.2 515.432 1002.52 516.067 1004.11 516.067C1005.22 516.067 1006.12 516.067 1006.12 516.12C1006.12 516.12 1005.01 516.967 1003.63 517.92C998.129 521.731 996.065 524.642 996.065 528.506C996.065 530.623 996.065 530.623 994 530.623C990.772 530.623 974.363 533.111 971.929 534.011C970.711 534.434 968.7 535.387 967.483 536.181L965.26 537.557L953.297 535.387C946.681 534.222 940.7 533.111 939.959 532.952C938.742 532.74 938.636 532.476 938.583 529.67C938.583 525.648 937.207 523.478 932.284 519.561L928.473 516.491L930.114 515.909C931.067 515.538 933.449 514.109 935.46 512.68L939.112 510.139L942.447 511.621C944.299 512.468 946.734 513.421 947.899 513.739ZM1020.94 563.81C1031.85 577.148 1040.79 588.105 1040.79 588.264C1040.79 589.005 1031.37 597.367 1027.4 600.12L1023.06 603.137L1000.72 583.553C988.39 572.755 977.804 563.757 977.063 563.598C975.74 563.281 973.411 564.181 958.114 570.797C953.403 572.861 948.851 574.555 948.004 574.555C945.834 574.555 943.029 572.543 941.865 570.162C940.965 568.203 940.965 568.044 941.812 565.768C943.241 561.958 947.687 558.676 965.895 547.931C970.129 545.443 974.205 543.115 974.946 542.797C977.01 541.897 992.042 539.727 996.859 539.727L1001.09 539.674L1020.94 563.81ZM944.141 543.115C953.933 544.808 953.721 544.226 946.734 548.725C939.959 553.065 936.148 556.559 934.137 560.317C932.496 563.334 932.284 564.128 932.284 567.674C932.284 570.956 932.549 572.173 933.766 574.661C936.572 580.43 942.182 583.817 948.693 583.712C951.921 583.712 955.044 582.547 970.341 575.666L975.104 573.549L977.486 575.613C990.295 586.464 1021.37 614.305 1021.89 615.416C1023.16 618.116 1020.36 622.191 1017.24 622.191C1015.12 622.139 1014.11 621.345 1003.79 611.447C994.477 602.555 993.895 602.078 991.883 602.078C989.184 602.078 987.649 603.401 987.225 605.995L986.908 608.059L996.488 617.428C1005.96 626.638 1006.12 626.796 1006.12 629.019C1006.12 630.66 1005.8 631.56 1004.8 632.513C1001.83 635.53 998.976 633.995 987.543 622.985C978.651 614.464 978.386 614.252 976.163 614.252C974.363 614.252 973.675 614.517 972.828 615.628C972.193 616.422 971.717 617.798 971.717 618.804C971.717 620.445 972.617 621.45 980.821 629.549C989.395 637.965 989.925 638.547 989.925 640.452C989.925 642.04 989.554 642.781 988.231 643.946C987.278 644.792 986.114 645.481 985.585 645.481C983.15 645.428 979.868 642.94 971.505 634.736C966.001 629.337 961.978 625.791 961.131 625.632C960.337 625.473 959.067 625.579 958.22 625.897C957.426 626.214 956.685 626.373 956.579 626.267C956.473 626.161 957.003 624.944 957.691 623.515C960.919 617.216 957.902 609.118 951.127 605.942C948.481 604.672 947.899 604.195 947.634 602.819C947.158 600.279 944.511 596.679 941.865 594.986C939.642 593.557 939.43 593.292 939.43 591.281C939.43 588.74 937.471 584.347 935.672 582.653C931.914 579.213 924.715 578.207 920.534 580.589C919.317 581.277 913.071 585.829 906.666 590.698L894.969 599.591L892.852 598.161C890.999 596.944 888.564 593.874 887.77 591.757C887.559 591.333 896.451 581.171 910.16 566.086C930.167 544.12 932.972 541.209 934.137 541.421C934.878 541.527 939.377 542.321 944.141 543.115ZM929.109 589.64C930.485 590.963 930.696 591.863 930.008 592.868C929.426 593.715 901.744 614.57 900.632 614.94C899.203 615.469 896.61 613.934 896.239 612.347C895.975 611.394 896.186 610.706 896.874 610.018C897.457 609.488 904.073 604.354 911.642 598.691C920.375 592.074 925.827 588.316 926.621 588.316C927.256 588.316 928.42 588.899 929.109 589.64ZM937.524 603.401C938.265 604.09 938.901 605.095 938.901 605.677C938.901 606.789 915.029 625.949 913.177 626.32C912.542 626.426 911.536 626.267 910.901 625.949C909.472 625.156 908.043 622.403 908.572 621.398C909.419 619.968 933.766 602.078 934.931 602.078C935.566 602.078 936.73 602.66 937.524 603.401ZM947.581 614.517C949.169 615.575 950.28 618.116 949.645 619.28C948.798 620.815 924.927 638.07 923.657 638.07C922.969 638.07 921.857 637.435 921.169 636.694C919.793 635.212 919.581 634.524 920.269 633.518C920.746 632.83 942.976 615.205 944.458 614.358C945.834 613.564 946.099 613.564 947.581 614.517ZM951.392 634.207C952.133 635 952.609 636.006 952.556 636.43C952.292 637.7 940.541 646.539 939.059 646.539C937.63 646.539 935.195 644.369 935.195 643.099C935.195 642.146 936.095 641.299 942.606 636.535C945.358 634.471 948.163 632.83 948.851 632.777C949.539 632.777 950.651 633.413 951.392 634.207ZM965.471 641.617C969.706 645.692 970.447 647.068 969.335 649.186C968.912 650.033 967.8 651.091 966.953 651.567C964.201 652.997 962.56 652.573 959.067 649.609C957.267 648.127 955.838 646.804 955.838 646.698C955.838 646.592 956.738 645.745 957.796 644.792C958.855 643.84 960.178 642.093 960.708 640.823C961.237 639.605 961.819 638.6 961.978 638.6C962.137 638.6 963.725 639.976 965.471 641.617Z" fill="black"/>
<path d="M957.16 423.493C939.005 427.887 926.566 446.624 929.372 465.255C933.341 491.455 961.817 505.217 985.318 492.249C989.553 489.867 996.063 483.516 998.604 479.175C1002.31 472.877 1004.43 463.773 1003.74 456.892C1003.26 451.599 1002.15 447.788 999.662 442.76C997.915 439.108 996.592 437.361 992.675 433.444C988.706 429.475 987.065 428.204 983.36 426.458C980.872 425.24 977.326 423.917 975.42 423.493C971.08 422.435 961.447 422.488 957.16 423.493ZM972.721 432.439C982.672 434.82 991.088 442.972 993.681 452.869C994.687 456.627 994.687 462.926 993.681 466.843C992.04 473.142 987.541 479.546 982.407 482.986L979.919 484.627L979.655 480.816L979.39 476.952L981.931 474.624C990.241 466.79 990.611 452.817 982.619 443.977C979.919 441.013 973.727 437.467 971.239 437.467C969.439 437.467 967.587 438.79 966.846 440.59C966.264 441.913 966.211 441.913 966.052 440.801C965.734 439.214 963.458 437.467 961.659 437.467C959.224 437.467 953.031 440.96 950.332 443.818C942.233 452.446 942.551 466.737 950.914 474.624L953.455 476.952L953.19 480.816L952.925 484.627L950.438 482.986C943.08 478.117 938.37 469.119 938.37 459.962C938.37 452.023 940.593 446.571 946.203 440.59C953.084 433.233 963.035 430.163 972.721 432.439ZM957.16 461.126C957.318 461.762 957.954 462.82 958.589 463.402C959.594 464.355 960.441 464.461 966.211 464.461C972.297 464.461 972.827 464.408 974.203 463.191C975.632 461.973 975.685 461.656 975.95 456.151L976.214 450.435L977.696 453.346C979.284 456.575 979.496 459.592 978.49 463.085C977.855 465.096 976.003 467.266 971.398 471.236L969.969 472.506L970.339 480.075L970.763 487.644L968.592 488.015C967.375 488.226 965.47 488.226 964.252 488.015L962.082 487.644L962.505 480.075L962.876 472.506L961.447 471.236C956.842 467.266 954.989 465.096 954.354 463.085C953.19 459.115 953.719 455.04 955.783 451.758C956.577 450.541 956.63 450.646 956.736 455.198C956.842 457.845 957.001 460.491 957.16 461.126Z" fill="black"/>
<path d="M168.095 367H148.767C150.559 365.208 150.559 351.256 150.559 343.832V305.176C150.559 302.104 150.559 298.008 150.431 294.168H137.631C129.183 294.168 125.215 294.936 123.551 296.216V282.008H193.311V296.216C191.647 294.936 187.679 294.168 179.231 294.168H166.431C166.303 298.008 166.303 302.104 166.303 305.176V343.832C166.303 351.256 166.303 365.208 168.095 367ZM205.569 329.88H236.801C235.521 321.944 229.377 317.976 221.441 317.976C212.609 317.976 206.849 322.84 205.569 329.88ZM245.761 349.848L245.377 364.696C238.977 368.152 232.833 368.92 226.945 368.92C214.529 368.92 203.393 365.592 196.609 355.096C193.153 349.72 191.105 343.064 191.105 336.408C191.105 320.024 203.521 306.328 222.465 306.328C241.665 306.328 251.393 320.28 251.393 335.768C251.393 337.176 251.393 340.504 251.265 341.4H205.441C206.337 351 217.473 357.656 227.457 357.656C233.345 357.656 242.561 355.352 245.761 349.848ZM313.621 348.568L313.237 365.208C305.813 368.792 300.437 368.92 294.421 368.92C275.093 368.92 259.733 357.144 259.733 337.304C259.733 319 272.405 306.328 291.477 306.328C304.021 306.328 309.909 309.912 312.981 309.912C312.853 310.808 312.981 324.12 312.981 324.12C306.709 319.256 298.773 317.464 293.525 317.464C281.493 317.464 273.941 323.736 273.941 335.256C273.941 348.568 282.005 357.656 296.853 357.656C299.669 357.656 309.397 357.4 313.621 348.568ZM382.875 367H365.467C366.875 365.08 367.003 356.76 367.003 347.032V329.112C367.003 321.304 364.443 317.336 356.251 317.336C346.779 317.336 342.043 322.584 342.043 328.216V347.16C342.043 349.976 342.043 365.464 343.707 367H326.043C327.707 365.08 327.963 357.144 327.963 352.92V296.472C327.963 288.664 327.707 274.584 326.171 273.56H343.707C342.171 274.584 342.043 290.2 342.043 303.128V310.552C346.779 307.352 352.411 306.328 358.043 306.328C367.643 306.328 379.675 309.272 380.955 321.944C381.211 324.888 381.211 328.088 381.211 331.032V348.056C381.211 355.352 381.595 366.488 382.875 367ZM454.003 367H436.595C438.003 365.08 438.131 356.76 438.131 347.032V329.112C438.131 321.304 435.571 317.336 427.379 317.336C417.907 317.336 413.171 322.584 413.171 328.216V347.16C413.171 350.232 413.171 365.336 414.835 367H397.171C398.835 365.08 399.091 357.144 399.091 352.92V323.992C399.091 318.616 399.091 313.368 397.811 307.992H411.251C412.019 309.144 412.275 310.424 412.531 311.832C417.907 307.352 423.539 306.328 429.171 306.328C438.771 306.328 450.803 309.272 452.083 321.944C452.339 324.888 452.339 328.088 452.339 331.032V348.056C452.339 355.352 452.723 366.488 454.003 367ZM485.704 291.864C485.704 296.216 481.864 299.8 477.256 299.8C472.648 299.8 468.808 296.216 468.808 291.864C468.808 287.512 472.648 283.928 477.256 283.928C481.864 283.928 485.704 287.512 485.704 291.864ZM486.088 367H468.424C470.216 365.208 470.216 351.256 470.216 343.832V331.16C470.216 323.736 470.216 309.784 468.424 307.992H486.088C484.296 309.784 484.296 323.736 484.296 331.16V343.832C484.296 351.256 484.296 365.208 486.088 367ZM551.996 348.568L551.612 365.208C544.188 368.792 538.812 368.92 532.796 368.92C513.468 368.92 498.108 357.144 498.108 337.304C498.108 319 510.78 306.328 529.852 306.328C542.396 306.328 548.284 309.912 551.356 309.912C551.228 310.808 551.356 324.12 551.356 324.12C545.084 319.256 537.148 317.464 531.9 317.464C519.868 317.464 512.316 323.736 512.316 335.256C512.316 348.568 520.38 357.656 535.228 357.656C538.044 357.656 547.772 357.4 551.996 348.568ZM620.098 356.376V364.824C617.794 366.744 612.546 367.896 609.09 367.896C604.866 367.896 601.41 366.232 599.618 363.288C594.242 368.408 587.202 369.048 582.978 369.048C568.386 369.048 561.346 361.24 561.346 350.872C561.346 327.064 596.93 332.184 597.698 327.576V325.016C597.698 319.64 593.346 317.592 587.97 317.592C581.186 317.592 572.866 320.92 567.362 327.064L566.466 312.6C573.506 307.864 581.698 306.328 588.61 306.328C601.154 306.328 612.29 311.448 612.29 327.576C612.29 331.8 611.522 344.088 611.522 353.048C611.522 356.632 611.65 358.424 614.082 358.424C615.618 358.424 618.178 357.784 620.098 356.376ZM597.57 349.848C597.57 346.008 597.57 341.4 597.698 338.584C593.73 341.784 576.578 338.712 576.578 350.104C576.578 354.84 579.65 357.272 584.386 357.272C589.378 357.272 594.498 354.712 597.57 349.848ZM647.335 367H629.671C631.463 365.208 631.463 351.256 631.463 343.832V296.728C631.463 289.304 631.463 275.352 629.671 273.56H647.335C645.543 275.352 645.543 289.304 645.543 296.728V343.832C645.543 351.256 645.543 365.208 647.335 367ZM173.309 495H154.237C155.645 493.976 155.901 481.432 155.901 474.52V438.552C155.901 427.928 155.901 412.696 154.237 410.008C159.357 410.008 160.253 410.136 162.685 410.136C167.933 410.136 176.893 409.496 181.501 409.496C190.333 409.496 200.189 411.8 205.565 420.504C207.869 424.216 209.149 428.696 209.149 434.968C209.149 446.104 205.181 454.936 192.637 459.8C188.029 461.592 182.909 462.616 176.381 462.616C174.845 462.616 173.309 462.616 171.645 462.488V474.648C171.645 478.872 172.157 494.232 173.309 495ZM171.645 421.784V450.328C171.645 450.328 173.949 450.584 176.381 450.584C187.389 450.584 193.277 445.08 193.277 435.352C193.277 425.88 188.413 421.144 178.813 421.144C177.405 421.144 175.357 421.272 171.645 421.784ZM273.598 484.376V492.824C271.294 494.744 266.046 495.896 262.59 495.896C258.366 495.896 254.91 494.232 253.118 491.288C247.742 496.408 240.702 497.048 236.478 497.048C221.886 497.048 214.846 489.24 214.846 478.872C214.846 455.064 250.43 460.184 251.198 455.576V453.016C251.198 447.64 246.846 445.592 241.47 445.592C234.686 445.592 226.366 448.92 220.862 455.064L219.966 440.6C227.006 435.864 235.198 434.328 242.11 434.328C254.654 434.328 265.79 439.448 265.79 455.576C265.79 459.8 265.022 472.088 265.022 481.048C265.022 484.632 265.15 486.424 267.582 486.424C269.118 486.424 271.678 485.784 273.598 484.376ZM251.07 477.848C251.07 474.008 251.07 469.4 251.198 466.584C247.23 469.784 230.078 466.712 230.078 478.104C230.078 482.84 233.15 485.272 237.886 485.272C242.878 485.272 247.998 482.712 251.07 477.848ZM300.579 495H283.043C284.963 492.568 285.091 481.688 285.091 476.568L284.963 451.992C284.963 445.976 284.579 437.656 283.555 435.992H297.251C298.019 437.016 298.531 439.064 298.787 440.6C301.731 436.76 305.443 434.2 311.587 434.2C313.891 434.2 315.939 434.584 318.115 435.352L317.987 449.048C315.683 447.384 312.995 446.488 310.435 446.488C307.491 446.488 304.035 447.64 301.987 449.688C300.195 451.608 299.043 454.04 299.043 464.536V475.544C299.043 483.224 299.043 494.232 300.579 495ZM361.966 482.968V494.744C358.638 496.024 354.798 496.92 349.806 496.92C336.366 496.92 332.27 490.264 332.27 477.976C332.27 475.8 332.398 464.408 332.398 461.592V446.872H328.686C327.15 446.872 325.486 447 324.718 447.512V435.352C325.23 435.992 326.766 435.992 332.398 435.992V428.44C332.398 425.88 332.27 423.96 332.27 423.96L347.502 418.712C346.862 419.48 346.478 424.856 346.478 428.824V435.992H351.47C355.694 435.992 359.406 435.864 360.174 435.224V447.512C359.022 446.872 355.438 446.872 351.598 446.872H346.478V476.696C346.478 484.504 346.99 486.68 354.286 486.68C354.798 486.68 360.686 485.912 361.966 482.968ZM429.878 495H412.47C413.878 493.08 414.006 484.76 414.006 475.032V457.112C414.006 449.304 411.446 445.336 403.254 445.336C393.782 445.336 389.046 450.584 389.046 456.216V475.16C389.046 478.232 389.046 493.336 390.71 495H373.046C374.71 493.08 374.966 485.144 374.966 480.92V451.992C374.966 446.616 374.966 441.368 373.686 435.992H387.126C387.894 437.144 388.15 438.424 388.406 439.832C393.782 435.352 399.414 434.328 405.046 434.328C414.646 434.328 426.678 437.272 427.958 449.944C428.214 452.888 428.214 456.088 428.214 459.032V476.056C428.214 483.352 428.598 494.488 429.878 495ZM455.819 457.88H487.051C485.771 449.944 479.627 445.976 471.691 445.976C462.859 445.976 457.099 450.84 455.819 457.88ZM496.011 477.848L495.627 492.696C489.227 496.152 483.083 496.92 477.195 496.92C464.779 496.92 453.643 493.592 446.859 483.096C443.403 477.72 441.355 471.064 441.355 464.408C441.355 448.024 453.771 434.328 472.715 434.328C491.915 434.328 501.643 448.28 501.643 463.768C501.643 465.176 501.643 468.504 501.515 469.4H455.691C456.587 479 467.723 485.656 477.707 485.656C483.595 485.656 492.811 483.352 496.011 477.848ZM530.079 495H512.543C514.463 492.568 514.591 481.688 514.591 476.568L514.463 451.992C514.463 445.976 514.079 437.656 513.055 435.992H526.751C527.519 437.016 528.031 439.064 528.287 440.6C531.231 436.76 534.943 434.2 541.087 434.2C543.391 434.2 545.439 434.584 547.615 435.352L547.487 449.048C545.183 447.384 542.495 446.488 539.935 446.488C536.991 446.488 533.535 447.64 531.487 449.688C529.695 451.608 528.543 454.04 528.543 464.536V475.544C528.543 483.224 528.543 494.232 530.079 495ZM556.522 493.592V479.896C559.082 485.272 565.866 486.808 570.602 486.808C577.386 486.808 580.586 483.736 580.586 479.64C580.586 468.76 556.906 470.936 556.906 451.736C556.906 441.368 563.818 434.584 575.85 434.584C580.202 434.584 586.602 435.48 590.442 437.144V448.92C586.858 445.592 583.018 444.056 578.666 444.056C572.65 444.056 569.322 447 569.322 450.84C569.322 461.08 593.386 460.568 593.386 479C593.386 488.088 587.498 496.92 573.674 496.92C568.426 496.92 560.746 495.64 556.522 493.592ZM434.684 623H410.236C410.236 621.08 406.652 617.368 403.452 614.168C395.388 621.208 389.372 624.92 378.492 624.92C364.156 624.92 348.668 618.392 348.668 600.984C348.668 590.616 354.172 582.168 366.204 574.872C361.468 569.496 358.268 565.016 358.268 557.208C358.268 543 368.636 536.728 381.18 536.728C394.62 536.728 401.532 543.896 401.532 555.16C401.532 565.4 395.9 571.544 385.788 577.56C391.292 583.832 397.308 589.464 403.196 595.224C404.604 592.024 405.372 587.288 405.372 582.552C405.372 580.632 405.244 578.328 404.86 576.408H420.476C419.196 581.016 418.684 584.344 418.044 587.8C416.636 595.352 415.612 597.912 411.9 603.928C418.94 610.712 422.396 616.088 434.684 623ZM378.492 567.832C382.716 565.272 387.58 561.176 387.58 555.288C387.58 550.552 384.508 548.12 380.156 548.12C374.908 548.12 372.732 551.832 372.732 556.056C372.732 560.536 375.164 564.248 378.492 567.832ZM395.26 605.976C387.708 598.68 381.18 592.536 374.14 584.6C368.124 588.44 363.644 593.048 363.644 599.96C363.644 608.024 369.788 613.528 378.236 613.528C384.508 613.528 390.78 610.584 395.26 605.976ZM181.217 751H128.609C130.401 749.208 130.401 735.256 130.401 727.832V689.176C130.401 681.752 130.401 667.8 128.609 666.008H177.633V680.216C175.969 678.936 173.281 678.168 159.713 678.168H146.273C146.145 682.008 146.145 686.104 146.145 689.176V700.824H163.297C170.465 700.824 175.585 700.824 176.609 699.8V714.136C175.585 713.112 170.465 713.112 163.297 713.112H146.145V727.832C146.145 730.904 146.145 735 146.273 738.84H163.297C176.865 738.84 179.553 738.072 181.217 736.792V751ZM250.878 751H233.47C234.878 749.08 235.006 740.76 235.006 731.032V713.112C235.006 705.304 232.446 701.336 224.254 701.336C214.782 701.336 210.046 706.584 210.046 712.216V731.16C210.046 734.232 210.046 749.336 211.71 751H194.046C195.71 749.08 195.966 741.144 195.966 736.92V707.992C195.966 702.616 195.966 697.368 194.686 691.992H208.126C208.894 693.144 209.15 694.424 209.406 695.832C214.782 691.352 220.414 690.328 226.046 690.328C235.646 690.328 247.678 693.272 248.958 705.944C249.214 708.888 249.214 712.088 249.214 715.032V732.056C249.214 739.352 249.598 750.488 250.878 751ZM313.939 702.488H311.379C313.427 705.688 313.939 708.632 313.939 711.832C313.939 726.424 303.187 734.104 289.619 734.104C287.827 734.104 284.883 733.976 283.731 733.976C279.635 733.976 278.099 735.512 278.099 737.176C278.099 739.096 280.275 741.016 285.139 741.016C286.931 741.016 287.955 740.76 292.819 740.76C300.499 740.76 321.363 741.4 321.363 759.32C321.363 775.448 304.211 782.616 288.595 782.616C277.203 782.616 260.179 778.776 260.179 762.52C260.179 754.584 264.275 749.336 269.651 746.136C267.219 744.088 265.811 741.272 265.811 737.432C265.811 732.44 267.987 729.24 271.571 727.064C267.475 723.736 264.787 719 264.787 712.088C264.787 697.752 276.307 690.712 290.387 690.712C296.403 690.712 299.347 691.992 305.491 691.992C318.419 691.992 321.107 691.736 322.131 691.224V703.384C320.979 702.488 317.651 702.488 313.939 702.488ZM290.131 723.48C297.299 723.48 300.371 720.536 300.371 713.112C300.371 704.92 296.659 701.464 288.979 701.464C283.219 701.464 278.611 703.384 278.611 712.216C278.611 719.896 282.195 723.48 290.131 723.48ZM306.771 760.6C306.771 751.512 294.995 751 290.771 751C279.635 751 273.491 754.584 273.491 761.752C273.491 770.712 283.091 771.736 288.723 771.736C299.859 771.736 306.771 767.64 306.771 760.6ZM348.204 675.864C348.204 680.216 344.364 683.8 339.756 683.8C335.148 683.8 331.308 680.216 331.308 675.864C331.308 671.512 335.148 667.928 339.756 667.928C344.364 667.928 348.204 671.512 348.204 675.864ZM348.588 751H330.924C332.716 749.208 332.716 735.256 332.716 727.832V715.16C332.716 707.736 332.716 693.784 330.924 691.992H348.588C346.796 693.784 346.796 707.736 346.796 715.16V727.832C346.796 735.256 346.796 749.208 348.588 751ZM420.128 751H402.72C404.128 749.08 404.256 740.76 404.256 731.032V713.112C404.256 705.304 401.696 701.336 393.504 701.336C384.032 701.336 379.296 706.584 379.296 712.216V731.16C379.296 734.232 379.296 749.336 380.96 751H363.296C364.96 749.08 365.216 741.144 365.216 736.92V707.992C365.216 702.616 365.216 697.368 363.936 691.992H377.376C378.144 693.144 378.4 694.424 378.656 695.832C384.032 691.352 389.664 690.328 395.296 690.328C404.896 690.328 416.928 693.272 418.208 705.944C418.464 708.888 418.464 712.088 418.464 715.032V732.056C418.464 739.352 418.848 750.488 420.128 751ZM446.069 713.88H477.301C476.021 705.944 469.877 701.976 461.941 701.976C453.109 701.976 447.349 706.84 446.069 713.88ZM486.261 733.848L485.877 748.696C479.477 752.152 473.333 752.92 467.445 752.92C455.029 752.92 443.893 749.592 437.109 739.096C433.653 733.72 431.605 727.064 431.605 720.408C431.605 704.024 444.021 690.328 462.965 690.328C482.165 690.328 491.893 704.28 491.893 719.768C491.893 721.176 491.893 724.504 491.765 725.4H445.941C446.837 735 457.973 741.656 467.957 741.656C473.845 741.656 483.061 739.352 486.261 733.848ZM514.569 713.88H545.801C544.521 705.944 538.377 701.976 530.441 701.976C521.609 701.976 515.849 706.84 514.569 713.88ZM554.761 733.848L554.377 748.696C547.977 752.152 541.833 752.92 535.945 752.92C523.529 752.92 512.393 749.592 505.609 739.096C502.153 733.72 500.105 727.064 500.105 720.408C500.105 704.024 512.521 690.328 531.465 690.328C550.665 690.328 560.393 704.28 560.393 719.768C560.393 721.176 560.393 724.504 560.265 725.4H514.441C515.337 735 526.473 741.656 536.457 741.656C542.345 741.656 551.561 739.352 554.761 733.848ZM588.829 751H571.293C573.213 748.568 573.341 737.688 573.341 732.568L573.213 707.992C573.213 701.976 572.829 693.656 571.805 691.992H585.501C586.269 693.016 586.781 695.064 587.037 696.6C589.981 692.76 593.693 690.2 599.837 690.2C602.141 690.2 604.189 690.584 606.365 691.352L606.237 705.048C603.933 703.384 601.245 702.488 598.685 702.488C595.741 702.488 592.285 703.64 590.237 705.688C588.445 707.608 587.293 710.04 587.293 720.536V731.544C587.293 739.224 587.293 750.232 588.829 751ZM615.272 749.592V735.896C617.832 741.272 624.616 742.808 629.352 742.808C636.136 742.808 639.336 739.736 639.336 735.64C639.336 724.76 615.656 726.936 615.656 707.736C615.656 697.368 622.568 690.584 634.6 690.584C638.952 690.584 645.352 691.48 649.192 693.144V704.92C645.608 701.592 641.768 700.056 637.416 700.056C631.4 700.056 628.072 703 628.072 706.84C628.072 717.08 652.136 716.568 652.136 735C652.136 744.088 646.248 752.92 632.424 752.92C627.176 752.92 619.496 751.64 615.272 749.592Z" fill="black"/>
<defs>
<filter id="filter0_n_374_197" x="0" y="0.00195312" width="1157" height="950" filterUnits="userSpaceOnUse" color-interpolation-filters="sRGB">
<feFlood flood-opacity="0" result="BackgroundImageFix"/>
<feBlend mode="normal" in="SourceGraphic" in2="BackgroundImageFix" result="shape"/>
<feTurbulence type="fractalNoise" baseFrequency="2 2" stitchTiles="stitch" numOctaves="3" result="noise" seed="5900" />
<feColorMatrix in="noise" type="luminanceToAlpha" result="alphaNoise" />
<feComponentTransfer in="alphaNoise" result="coloredNoise1">
<feFuncA type="discrete" tableValues="0 0 0 0 0 0 0 0 0 0 0 0 0 0 0 0 0 1 1 1 1 1 1 1 1 1 1 1 1 1 1 1 1 0 0 0 0 0 0 0 0 0 0 0 0 0 0 0 0 0 0 0 0 0 0 0 0 0 0 0 0 0 0 0 0 0 0 0 0 0 0 0 0 0 0 0 0 0 0 0 0 0 0 0 0 0 0 0 0 0 0 0 0 0 0 0 0 0 0 0 "/>
</feComponentTransfer>
<feComposite operator="in" in2="shape" in="coloredNoise1" result="noise1Clipped" />
<feFlood flood-color="rgba(0, 0, 0, 0.25)" result="color1Flood" />
<feComposite operator="in" in2="noise1Clipped" in="color1Flood" result="color1" />
<feMerge result="effect1_noise_374_197">
<feMergeNode in="shape" />
<feMergeNode in="color1" />
</feMerge>
</filter>
</defs>
</svg>
